<svg width="82" height="30" viewBox="0 0 82 30" fill="none" xmlns="http://www.w3.org/2000/svg">
<g id="Group 1788">
<path id="Vector" d="M47.7558 9.18226C49.2364 10.5367 49.9767 12.3927 49.9767 14.8062C49.9767 17.2196 49.2553 19.1331 47.8117 20.5472C46.3682 21.9613 44.167 22.6608 41.2058 22.6608H35.9951V7.20312H41.3833C44.1519 7.20312 46.276 7.82633 47.7566 9.18075L47.7558 9.18226ZM45.2124 18.3603C46.063 17.5611 46.4966 16.3963 46.4966 14.8704C46.4966 13.3445 46.0706 12.1494 45.2124 11.32C44.3543 10.4906 43.055 10.0661 41.2844 10.0661H39.2977V19.5538H41.5533C43.1366 19.5538 44.3543 19.1497 45.2056 18.3505L45.2124 18.3603ZM62.2617 22.6509H59.1646V21.1734C58.2808 22.2536 57.2534 22.7937 55.9881 22.7937C54.7228 22.7937 53.6645 22.4281 52.8064 21.6954C51.9483 20.9626 51.5207 19.9851 51.5207 18.7644C51.5207 17.5437 51.974 16.6478 52.854 16.0405C53.734 15.4331 54.957 15.1499 56.498 15.1499H58.9455V15.0471C58.9455 13.7743 58.2921 13.1375 56.9452 13.1375C56.3673 13.1375 55.7668 13.2523 55.1224 13.4812C54.4781 13.7101 53.9395 13.9949 53.4953 14.3363L52.011 12.1812C53.5799 11.0481 55.3725 10.471 57.3864 10.471C58.8367 10.471 59.991 10.8335 60.9103 11.5587C61.8296 12.2839 62.2564 13.4321 62.2564 15.0003L62.2617 22.6509ZM58.9515 18.0657V17.5762H56.8818C55.55 17.5762 54.8837 17.9539 54.8837 18.7758C54.8837 19.2048 55.0348 19.5123 55.3596 19.7427C55.6845 19.9731 56.1332 20.075 56.7194 20.075C57.3055 20.075 57.8237 19.8877 58.2755 19.5251C58.7272 19.1625 58.9432 18.6715 58.9432 18.0649L58.9515 18.0657ZM71.0439 13.6028C70.0521 13.6028 69.2664 13.9541 68.7777 14.6566C68.289 15.3591 67.9996 16.2882 67.9996 17.4425V22.6509H64.6895V10.7346H67.9996V12.2476C68.4408 11.7597 69.0436 11.3449 69.6864 11.0043C70.3293 10.6636 71.0892 10.4861 71.7509 10.471V13.6036L71.0439 13.6028ZM77.0478 13.1617V18.4192C77.0478 18.8785 77.1837 19.2373 77.4202 19.4957C77.5259 19.6179 77.6568 19.7159 77.8038 19.783C77.9509 19.8501 78.1106 19.8848 78.2723 19.8847C78.8947 19.8847 79.4242 19.6037 79.8525 19.0409L81.0989 21.3721C80.0625 22.3201 78.9717 22.7922 77.8251 22.7922C76.6784 22.7922 75.7115 22.4145 74.9206 21.6591C74.1297 20.9037 73.7376 19.8764 73.7376 18.5726V7.20312H77.0485V10.5133H80.5762L78.7633 13.1617H77.0561H77.0478Z" fill="#231F20"/>
<path id="Vector_2" d="M8.1222 8.16792L6.18311 6.22656L6.19066 20.2429L6.21332 20.8971C6.22239 21.1992 6.28886 21.5543 6.37498 21.9138L21.7374 27.3315L25.5771 25.6304L25.5801 25.6251L8.13051 8.16641L8.1222 8.16792Z" fill="#00C4B3"/>
<path id="Vector_3" d="M6.37003 21.9142H6.37155C6.36985 21.9074 6.36757 21.9009 6.36475 21.8945C6.36777 21.9021 6.36777 21.9081 6.37003 21.9142ZM25.5722 25.6307L21.7325 27.3319L6.37155 21.9142C6.66464 23.0473 7.31579 24.3088 8.01302 24.9992L13.0251 29.9848L24.1747 29.9999L25.5722 25.6337V25.6307Z" fill="#22D3C5"/>
<g id="Group">
<path id="Vector_4" d="M6.2287 6.22479L0.255802 15.2465C-0.239736 15.7768 0.00652214 16.869 0.805729 17.6743L4.2541 21.1506L6.42208 21.906C6.32841 21.5464 6.26949 21.199 6.26043 20.8893L6.23626 20.2351L6.2287 6.21875V6.22479Z" fill="#0075C9"/>
<path id="Vector_5" d="M21.8585 6.40528C21.4981 6.31463 21.1514 6.25647 20.8402 6.2542L20.1475 6.22852L6.17725 6.23154L25.5788 25.6301L27.283 21.7866L21.8592 6.41132L21.8585 6.40528Z" fill="#0075C9"/>
</g>
<path id="Vector_6" d="M21.8403 6.40234C21.8464 6.40461 21.8532 6.40612 21.8585 6.40763V6.40612C21.8524 6.40461 21.8464 6.40461 21.8403 6.40234ZM24.9412 8.05137C24.2357 7.3413 22.987 6.69619 21.8592 6.40688L27.2829 21.7791L25.5773 25.6226L29.7319 24.2931L29.741 12.8866L24.9337 8.05817L24.9412 8.05137Z" fill="#00A8E1"/>
<path id="Vector_7" d="M21.0978 4.25384L17.623 0.803951C16.8192 0.00852152 15.7345 -0.240003 15.1967 0.25478L6.17725 6.22692L20.1475 6.2239L20.8402 6.24959C21.1522 6.25865 21.4974 6.31606 21.8585 6.40067L21.0978 4.24779V4.25384Z" fill="#00C4B3"/>
</g>
</svg>
