<svg width="83" height="30" viewBox="0 0 83 30" fill="none" xmlns="http://www.w3.org/2000/svg">
<g id="Group 1784">
<g id="Group">
<g id="Clip path group">
<mask id="mask0_2617_46" style="mask-type:luminance" maskUnits="userSpaceOnUse" x="0" y="0" width="25" height="30">
<g id="C">
<path id="Vector" d="M24.2264 13.8433L16.151 21.9216L24.2264 30H14.9986L6.92019 21.9216L14.9986 13.8433H24.2264ZM14.9986 0L0 14.9986L4.61538 19.6139L24.2264 0H14.9986Z" fill="white"/>
</g>
</mask>
<g mask="url(#mask0_2617_46)">
<g id="Group_2">
<path id="Vector_2" d="M11.5353 26.5355L24.2262 13.8418H14.9983L6.92285 21.9202L11.5353 26.5355Z" fill="#39CEFD"/>
</g>
</g>
</g>
<g id="Clip path group_2">
<mask id="mask1_2617_46" style="mask-type:luminance" maskUnits="userSpaceOnUse" x="0" y="0" width="25" height="30">
<g id="E">
<path id="Vector_3" d="M24.2264 13.8433L16.151 21.9216L24.2264 30H14.9986L6.92019 21.9216L14.9986 13.8433H24.2264ZM14.9986 0L0 14.9986L4.61538 19.6139L24.2264 0H14.9986Z" fill="white"/>
</g>
</mask>
<g mask="url(#mask1_2617_46)">
<path id="Vector_4" d="M0 14.9986L14.9986 0H24.2264L4.61538 19.6139L0 14.9986Z" fill="#39CEFD"/>
</g>
</g>
<g id="Clip path group_3">
<mask id="mask2_2617_46" style="mask-type:luminance" maskUnits="userSpaceOnUse" x="0" y="0" width="25" height="30">
<g id="G">
<path id="Vector_5" d="M24.2264 13.8433L16.151 21.9216L24.2264 30H14.9986L6.92019 21.9216L14.9986 13.8433H24.2264ZM14.9986 0L0 14.9986L4.61538 19.6139L24.2264 0H14.9986Z" fill="white"/>
</g>
</mask>
<g mask="url(#mask2_2617_46)">
<path id="Vector_6" d="M14.9986 29.9974H24.2265L16.151 21.9219L11.5356 26.5373L14.9986 29.9974Z" fill="#03569B"/>
</g>
</g>
<g id="Clip path group_4">
<mask id="mask3_2617_46" style="mask-type:luminance" maskUnits="userSpaceOnUse" x="0" y="0" width="25" height="30">
<g id="I">
<path id="Vector_7" d="M24.2264 13.8433L16.151 21.9216L24.2264 30H14.9986L6.92019 21.9216L14.9986 13.8433H24.2264ZM14.9986 0L0 14.9986L4.61538 19.6139L24.2264 0H14.9986Z" fill="white"/>
</g>
</mask>
<g mask="url(#mask3_2617_46)">
<path id="Vector_8" d="M16.151 21.9219L11.5356 26.5373L18.3807 24.166L16.151 21.9219Z" fill="url(#paint0_linear_2617_46)"/>
</g>
</g>
<g id="Clip path group_5">
<mask id="mask4_2617_46" style="mask-type:luminance" maskUnits="userSpaceOnUse" x="0" y="0" width="25" height="30">
<g id="L">
<path id="Vector_9" d="M24.2264 13.8433L16.151 21.9216L24.2264 30H14.9986L6.92019 21.9216L14.9986 13.8433H24.2264ZM14.9986 0L0 14.9986L4.61538 19.6139L24.2264 0H14.9986Z" fill="white"/>
</g>
</mask>
<g mask="url(#mask4_2617_46)">
<g id="Group_3">
<path id="Vector_10" d="M6.92285 21.9202L11.5384 17.3047L16.1541 21.9202L11.5384 26.5357L6.92285 21.9202Z" fill="#16B9FD"/>
</g>
</g>
</g>
<path id="Vector_11" d="M24.2264 13.8433L16.151 21.9216L24.2264 30H14.9986L6.92019 21.9216L14.9986 13.8433H24.2264ZM14.9986 0L0 14.9986L4.61538 19.6139L24.2264 0H14.9986Z" fill="url(#paint1_radial_2617_46)"/>
</g>
<g id="Group_4">
<path id="Vector_12" d="M27.1562 8.04297H35.2215V9.6203H28.7931V14.3925H34.5965V15.9505H28.7931V21.9882H27.1562V8.04297ZM37.173 8.04297H38.8285V21.9889H37.173V8.04297ZM44.8848 22.3007C43.6904 22.3007 42.7728 21.95 42.132 21.2486C41.5129 20.5428 41.2034 19.5624 41.2034 18.3075V12.0555H42.8589V18.0546C42.8589 18.997 43.0731 19.6914 43.5017 20.1378C43.9303 20.5842 44.5081 20.8074 45.2353 20.8074C45.7938 20.8074 46.2898 20.6581 46.7233 20.3595C47.1697 20.0609 47.507 19.6716 47.7352 19.1914C47.9817 18.7103 48.105 18.2039 48.105 17.6721V12.0622H49.7597V21.9949H48.1824V20.547H48.1042C47.8314 21.0406 47.3964 21.456 46.7992 21.7933C46.202 22.1306 45.5656 22.2992 44.8901 22.2992L44.8848 22.3007Z" fill="#808080"/>
<path id="Vector_13" d="M56.1314 22.1447C55.7287 22.1447 55.3522 22.0797 55.002 21.9497C54.6647 21.8198 54.379 21.6444 54.1449 21.4237C53.885 21.1772 53.6903 20.8915 53.5608 20.5666C53.4309 20.2422 53.3659 19.8461 53.3659 19.3784V13.5549H51.6323V12.055H53.3659V9.25H55.0214V12.055H57.4365V13.5549H55.0214V18.9699C55.0214 19.5155 55.1255 19.9181 55.3338 20.1775C55.5804 20.4632 55.9375 20.606 56.4052 20.606C56.7822 20.606 57.1458 20.4957 57.496 20.2749V21.8917C57.301 21.9825 57.0997 22.0475 56.8918 22.0866C56.6969 22.1263 56.4439 22.1462 56.1329 22.1462L56.1314 22.1447Z" fill="#808080"/>
<path id="Vector_14" d="M63.1519 22.1447C62.7492 22.1447 62.3727 22.0797 62.0225 21.9497C61.6852 21.8198 61.3995 21.6444 61.1654 21.4237C60.9055 21.1772 60.7108 20.8915 60.5813 20.5666C60.4514 20.2422 60.3864 19.8461 60.3864 19.3784V13.5549H58.6528V12.055H60.3864V9.25H62.0419V12.055H64.457V13.5549H62.0419V18.9699C62.0419 19.5155 62.146 19.9181 62.3543 20.1775C62.6009 20.4632 62.958 20.606 63.4257 20.606C63.8027 20.606 64.1663 20.4957 64.5165 20.2749V21.8917C64.3216 21.9825 64.1202 22.0475 63.9123 22.0866C63.7174 22.1263 63.4644 22.1462 63.1534 22.1462L63.1519 22.1447Z" fill="#808080"/>
<path id="Vector_15" d="M70.4434 22.3006C69.5009 22.3006 68.6503 22.0735 67.8914 21.6191C67.1384 21.1648 66.5477 20.5415 66.1191 19.7494C65.7034 18.9443 65.4956 18.0416 65.4956 17.0411C65.4956 16.0803 65.6903 15.1974 66.0797 14.3924C66.4824 13.5874 67.0474 12.9445 67.7745 12.4639C68.5017 11.9828 69.3457 11.7422 70.3065 11.7422C71.2801 11.7422 72.1241 11.9654 72.8384 12.4118C73.5526 12.8404 74.0983 13.4376 74.4752 14.2034C74.8646 14.9698 75.0593 15.8462 75.0593 16.8328C75.0593 17.0277 75.0394 17.1964 74.9998 17.3387H67.1503C67.19 18.0917 67.3718 18.7281 67.6957 19.2479C68.0201 19.7672 68.4293 20.1566 68.9233 20.416C69.4293 20.6759 69.955 20.8059 70.5007 20.8059C71.7734 20.8059 72.7538 20.2087 73.4418 19.0143L74.8443 19.6958C74.4157 20.5008 73.8314 21.1372 73.0913 21.605C72.3642 22.0722 71.4813 22.3058 70.4426 22.3058L70.4434 22.3006ZM73.3064 15.9705C73.2806 15.5548 73.164 15.1394 72.9567 14.7242C72.7483 14.3086 72.4173 13.9579 71.9634 13.6722C71.517 13.3865 70.959 13.2436 70.2894 13.2436C69.5106 13.2436 68.8484 13.4966 68.3028 14.0025C67.7706 14.4961 67.4199 15.1518 67.2508 15.9697H73.3086L73.3064 15.9705ZM76.9774 12.0554H78.5547V13.6528H78.6328C78.8278 13.1072 79.2042 12.6593 79.7623 12.3091C80.3208 11.9456 80.9051 11.7638 81.5152 11.7638C81.9695 11.7638 82.3589 11.8287 82.6833 11.9587V13.7503C82.2676 13.542 81.8001 13.4378 81.2808 13.4378C80.7997 13.4378 80.3582 13.5742 79.9564 13.847C79.5537 14.1198 79.2313 14.4899 78.9892 14.9571C78.7561 15.4115 78.6395 15.9075 78.6395 16.4452V21.9956H76.9841V12.0629L76.9774 12.0554Z" fill="#808080"/>
</g>
</g>
<defs>
<linearGradient id="paint0_linear_2617_46" x1="12.8826" y1="27.428" x2="16.32" y2="23.9905" gradientUnits="userSpaceOnUse">
<stop stop-color="#1A237E" stop-opacity="0.4"/>
<stop offset="1" stop-color="#1A237E" stop-opacity="0"/>
</linearGradient>
<radialGradient id="paint1_radial_2617_46" cx="0" cy="0" r="1" gradientUnits="userSpaceOnUse" gradientTransform="translate(0.680603 2.04471) scale(36.7013 36.7013)">
<stop stop-color="white" stop-opacity="0.1"/>
<stop offset="1" stop-color="white" stop-opacity="0"/>
</radialGradient>
</defs>
</svg>
