<svg width="89" height="30" viewBox="0 0 89 30" fill="none" xmlns="http://www.w3.org/2000/svg">
<g id="Group 1783">
<path id="Vector" d="M33.4035 7.4794C33.4035 6.81618 33.3328 6.15461 33.1921 5.5047C32.9317 4.17076 32.2368 2.94832 31.2075 2.00965C30.6832 1.51868 30.0757 1.11925 29.4067 0.829658C28.7541 0.520463 28.0609 0.30556 27.3479 0.191395C26.6406 0.0599147 25.8584 0.0599151 25.151 0H7.67246C7.12794 0.0094601 6.58457 0.0533747 6.0456 0.13148C5.50886 0.189731 4.98294 0.320379 4.48365 0.515936L3.98768 0.707331C3.51425 0.944467 3.06235 1.22235 2.6371 1.53782C2.49896 1.6693 2.3525 1.72922 2.21436 1.85238C1.68987 2.29975 1.25087 2.83855 0.918698 3.44262C0.569194 4.03678 0.329533 4.6842 0.211367 5.35658C0.106242 6.00785 0.0356877 6.66423 0 7.32296V22.5555C0 23.2188 0.0707333 23.8803 0.211367 24.5302C0.471832 25.8642 1.16668 27.0866 2.19606 28.0253C2.71366 28.4996 3.31364 28.8882 3.96854 29.1703C4.6211 29.4795 5.31428 29.6944 6.02729 29.8086C6.73462 29.9401 7.51685 29.9401 8.22418 30H25.1868C25.9233 29.9992 26.6597 29.9351 27.3837 29.8086C28.086 29.6921 28.7676 29.4816 29.4058 29.1795C30.0669 28.8816 30.6852 28.4965 31.2441 28.0345C31.7658 27.5809 32.1985 27.0417 32.5214 26.445C32.8709 25.8509 33.1106 25.2035 33.2288 24.5311C33.3342 23.8771 33.4047 23.2179 33.4401 22.5564V7.4794H33.4035Z" fill="#F05138"/>
<path id="Vector_2" d="M22.3302 23.2106C19.3527 24.7584 15.2635 24.9148 11.1543 23.3329C7.95052 22.1071 5.20608 19.9935 3.27881 17.2682C4.17754 17.9064 5.15532 18.4348 6.19135 18.8492C10.437 20.5968 14.6918 20.5185 17.6784 18.8492C13.7357 15.9966 10.1857 12.6846 7.11005 8.99155C6.57747 8.45564 6.10314 7.8698 5.69539 7.24402C8.92414 9.8237 12.3609 12.1621 15.9692 14.2358C13.3396 11.7002 10.9213 8.97407 8.73774 6.08233C12.3826 9.40679 16.3852 12.3535 20.6842 14.874L21.1435 15.1187C21.2679 14.834 21.3754 14.5422 21.4655 14.2449C22.4583 10.9937 21.3274 7.29645 18.8468 4.23828C24.5903 7.35886 27.9905 13.2222 26.575 18.1336C26.575 18.2651 26.5017 18.3957 26.4551 18.5272L26.5009 18.5796C29.3402 21.7693 28.5597 25.1428 28.201 24.5046C26.6482 21.8392 23.7714 22.6605 22.3285 23.2197L22.3302 23.2106Z" fill="#FEFEFE"/>
<path id="Vector_3" d="M83.3139 11.8445H77.7368V11.1655C77.7368 10.6246 77.7867 10.0837 77.83 9.53277C77.8661 9.05661 77.9974 8.59255 78.2161 8.16804C78.41 7.80189 78.6905 7.49066 79.0316 7.25849C79.4702 7.01061 79.9676 6.88583 80.4713 6.89734C80.779 6.89813 81.0859 6.92935 81.3875 6.99054L82.0116 7.21522L82.3977 6.30568C82.1509 6.19167 81.8944 6.10005 81.6313 6.0319C81.2868 5.93537 80.9298 5.89043 80.572 5.89459C79.9062 5.87379 79.2455 6.01442 78.6464 6.30568C78.1337 6.58029 77.6894 6.96807 77.3499 7.4399C77.0331 7.95928 76.8056 8.52801 76.6766 9.12252C76.5368 9.80905 76.4719 10.5089 76.4836 11.2112V11.8903H74.6662V12.7998H76.4919V23.7959H77.7385V12.7532H83.3156V20.2925C83.3114 20.7968 83.3588 21.2994 83.4587 21.7946C83.5143 22.2159 83.6611 22.62 83.8889 22.9787C84.0945 23.3166 84.3882 23.5862 84.7544 23.7526C85.2084 23.9484 85.6998 24.0418 86.194 24.0264C86.7682 24.0489 87.3399 23.9557 87.8766 23.7518L87.746 22.8672C87.5546 22.9238 87.3632 22.9696 87.1668 23.0045C86.8966 23.0445 86.6233 23.059 86.3504 23.0478C86.0839 23.0719 85.8157 23.0273 85.5714 22.9182C85.3271 22.809 85.1148 22.6391 84.9549 22.4245C84.6745 21.8603 84.5422 21.2345 84.5688 20.6046V12.7965H88.0955V11.8928H84.5871V9.25816L83.3405 9.61931L83.3139 11.8445ZM39.7922 21.9768C40.3245 22.3259 40.9095 22.5869 41.5248 22.7499C42.1963 22.9513 42.8928 23.0578 43.5935 23.0678C44.7019 23.136 45.7962 22.7965 46.6725 22.1141C47.3881 21.4858 47.7917 20.5746 47.7751 19.6218C47.8084 18.7713 47.5155 17.9409 46.9596 17.2976C46.1924 16.5631 45.2735 16.0058 44.2676 15.6649C43.0724 15.2975 41.9624 14.6958 41.0022 13.8949C40.6071 13.5426 40.2946 13.1075 40.0868 12.6206C39.8789 12.1338 39.7809 11.6071 39.7997 11.0781C39.8026 10.4956 39.9345 9.92094 40.1858 9.39546C40.4436 8.88822 40.8044 8.44039 41.2452 8.08066C41.7086 7.6839 42.25 7.38879 42.8346 7.21439C43.4837 6.99096 44.167 6.88336 44.8534 6.8965C45.5641 6.89068 46.2722 6.96641 46.9671 7.12119C47.4168 7.2375 47.8518 7.40474 48.2636 7.61965L47.7834 8.61657C47.4239 8.39771 47.0361 8.22962 46.6309 8.11728C46.0269 7.92397 45.3951 7.83147 44.761 7.8435C44.1574 7.82643 43.5557 7.9192 42.9852 8.11728C42.541 8.27658 42.1339 8.5246 41.7886 8.84624C41.5206 9.1375 41.3093 9.47535 41.1645 9.84316C41.0307 10.1757 40.9651 10.5317 40.9714 10.89C40.9348 11.7205 41.2493 12.5277 41.8368 13.1144C42.6507 13.7901 43.5794 14.3127 44.5788 14.6597C45.2281 14.9062 45.8539 15.2106 46.4486 15.5692C46.9504 15.8738 47.4181 16.2308 47.8442 16.6344C48.199 16.9894 48.4769 17.4137 48.6605 17.8809C48.8558 18.4029 48.9528 18.9564 48.9468 19.5136C48.9515 20.1199 48.8373 20.7213 48.6106 21.2836C48.3834 21.8436 48.0317 22.3445 47.582 22.7482C47.0731 23.1876 46.4851 23.5259 45.8495 23.7451C45.0723 23.9948 44.2684 24.1163 43.4446 24.1063C43.0584 24.098 42.674 24.0663 42.292 24.0131C41.9039 23.9601 41.5191 23.8851 41.1395 23.7884C40.7775 23.696 40.4233 23.5752 40.0802 23.4273C39.7939 23.3191 39.5201 23.1818 39.2646 23.0162L39.7922 21.9768ZM51.3209 11.8944L53.3896 18.6615L53.9688 20.6171C54.1619 21.2079 54.305 21.8636 54.449 22.3871H54.5422L55.0723 20.6171L55.7463 18.6615L58.1762 11.8944H59.3287L61.6837 18.5683L62.3578 20.6121L62.8879 22.3821H62.9811L63.4612 20.6121L64.0853 18.6116L66.2789 11.8936H67.5254L63.3905 23.7959H62.406L60.0444 17.1595C59.8036 16.4383 59.5623 15.757 59.3204 15.1157L58.7903 13.1152H58.7404C58.5674 13.8066 58.3594 14.4887 58.1171 15.159C57.8763 15.7947 57.635 16.476 57.3931 17.2027L54.9508 23.7959H53.8956L50.0677 11.8936L51.3209 11.8944ZM70.2083 11.8944H71.4549V23.7959H70.2083V11.8944ZM69.7282 8.26124C69.7248 7.97997 69.8363 7.71035 70.0361 7.5123C70.2358 7.31425 70.5071 7.2069 70.7883 7.21272C71.0679 7.2186 71.3353 7.32855 71.5381 7.52107C71.7409 7.7136 71.8647 7.97485 71.8851 8.25375C71.8863 8.39254 71.8568 8.52988 71.7987 8.65591C71.7406 8.78195 71.6553 8.89355 71.5489 8.98272C71.3367 9.16579 71.0629 9.26399 70.7833 9.25733C70.5044 9.25425 70.2346 9.15787 70.0169 8.98355C69.8255 8.78799 69.7173 8.52753 69.7115 8.25458L69.7282 8.26124Z" fill="#221F20"/>
</g>
</svg>
