<svg width="20" height="20" viewBox="0 0 20 20" fill="none" xmlns="http://www.w3.org/2000/svg">
<path id="Custom application development" d="M9.81649 15.1299H10.1948L10.3896 13.7013C10.9957 13.5931 11.4881 13.4253 11.8669 13.1981C12.2457 12.9708 12.5866 12.6623 12.8896 12.2727L14.3506 12.8896L14.5779 12.4351L13.4091 11.6234C13.6039 11.039 13.7013 10.4978 13.7013 10C13.7013 9.50216 13.6039 8.96104 13.4091 8.37662L14.5779 7.56494L14.3506 7.11039L12.8896 7.72727C12.5866 7.33766 12.2457 7.02922 11.8669 6.80195C11.4881 6.57468 10.9957 6.40693 10.3896 6.2987L10.1835 4.87013H9.80519L9.61039 6.2987C9.00433 6.40693 8.5119 6.57468 8.13312 6.80195C7.75433 7.02922 7.41342 7.33766 7.11039 7.72727L5.64935 7.11039L5.42208 7.56494L6.59091 8.37662C6.3961 8.96104 6.2987 9.50216 6.2987 10C6.2987 10.4978 6.3961 11.039 6.59091 11.6234L5.42208 12.4351L5.64935 12.8896L7.11039 12.2727C7.41342 12.6623 7.75433 12.9708 8.13312 13.1981C8.5119 13.4253 9.00433 13.5931 9.61039 13.7013L9.81649 15.1299ZM9.99195 12.6299C9.25065 12.6299 8.62836 12.3782 8.12507 11.8749C7.62178 11.3716 7.37013 10.7494 7.37013 10.0081C7.37013 9.26675 7.62178 8.63636 8.12507 8.11688C8.62836 7.5974 9.25065 7.33766 9.99195 7.33766C10.7332 7.33766 11.3636 7.5974 11.8831 8.11688C12.4026 8.63636 12.6623 9.26675 12.6623 10.0081C12.6623 10.7494 12.4026 11.3716 11.8831 11.8749C11.3636 12.3782 10.7332 12.6299 9.99195 12.6299ZM1.75325 20C1.26028 20 0.844838 19.831 0.506916 19.4931C0.168972 19.1552 0 18.7397 0 18.2468V1.75325C0 1.26028 0.168972 0.844827 0.506916 0.506883C0.844838 0.168961 1.26028 0 1.75325 0H18.2468C18.7397 0 19.1552 0.168961 19.4931 0.506883C19.831 0.844827 20 1.26028 20 1.75325V18.2468C20 18.7397 19.831 19.1552 19.4931 19.4931C19.1552 19.831 18.7397 20 18.2468 20H1.75325ZM1.75325 19.2857H18.2468C18.5065 19.2857 18.7446 19.1775 18.961 18.961C19.1775 18.7446 19.2857 18.5065 19.2857 18.2468V1.75325C19.2857 1.49351 19.1775 1.25541 18.961 1.03896C18.7446 0.822511 18.5065 0.714286 18.2468 0.714286H1.75325C1.49351 0.714286 1.25541 0.822511 1.03896 1.03896C0.822511 1.25541 0.714286 1.49351 0.714286 1.75325V18.2468C0.714286 18.5065 0.822511 18.7446 1.03896 18.961C1.25541 19.1775 1.49351 19.2857 1.75325 19.2857Z" fill="#0904F2"/>
</svg>
