<svg width="20" height="20" viewBox="0 0 20 20" fill="none" xmlns="http://www.w3.org/2000/svg">
<path id="Custom Software Development" d="M1.75325 20C1.28247 20 0.872565 19.8255 0.523539 19.4765C0.174513 19.1274 0 18.7175 0 18.2468V1.75325C0 1.28247 0.174513 0.872565 0.523539 0.523539C0.872565 0.174513 1.28247 0 1.75325 0H18.2468C18.7175 0 19.1274 0.174513 19.4765 0.523539C19.8255 0.872565 20 1.28247 20 1.75325V18.2468C20 18.7175 19.8255 19.1274 19.4765 19.4765C19.1274 19.8255 18.7175 20 18.2468 20H1.75325ZM1.75325 19.2857H18.2468C18.5498 19.2857 18.7987 19.1883 18.9935 18.9935C19.1883 18.7987 19.2857 18.5498 19.2857 18.2468V3.31169H0.714286V18.2468C0.714286 18.5498 0.811688 18.7987 1.00649 18.9935C1.2013 19.1883 1.45022 19.2857 1.75325 19.2857ZM3.50649 9.05844V8.34416H16.3961V9.05844H3.50649ZM3.50649 14.2532V13.539H11.2013V14.2532H3.50649Z" fill="#0904F2"/>
</svg>
