<svg width="20" height="20" viewBox="0 0 20 20" fill="none" xmlns="http://www.w3.org/2000/svg">
<path id="Digital Transformation" d="M7.78169 12.2183V7.78169H12.2183V12.2183H7.78169ZM8.55634 11.4437H11.4437V8.55634H8.55634V11.4437ZM6.69014 20V18.0282H3.87324C3.33862 18.0282 2.88805 17.8449 2.52155 17.4785C2.15507 17.1119 1.97183 16.6614 1.97183 16.1268V13.3099H0V12.5352H1.97183V7.42958H0V6.65493H1.97183V3.83803C1.97183 3.3034 2.15507 2.85284 2.52155 2.48634C2.88805 2.11986 3.33862 1.93662 3.87324 1.93662H6.69014V0H7.46479V1.93662H12.5704V0H13.3451V1.93662H16.162C16.6966 1.93662 17.1472 2.11986 17.5137 2.48634C17.8801 2.85284 18.0634 3.3034 18.0634 3.83803V6.65493H20V7.42958H18.0634V12.5352H20V13.3099H18.0634V16.1268C18.0634 16.6614 17.8801 17.1119 17.5137 17.4785C17.1472 17.8449 16.6966 18.0282 16.162 18.0282H13.3451V20H12.5704V18.0282H7.46479V20H6.69014ZM16.162 17.2535C16.4437 17.2535 16.7019 17.1362 16.9366 16.9014C17.1714 16.6667 17.2887 16.4085 17.2887 16.1268V3.83803C17.2887 3.55634 17.1714 3.29812 16.9366 3.06338C16.7019 2.82864 16.4437 2.71127 16.162 2.71127H3.87324C3.59155 2.71127 3.33333 2.82864 3.09859 3.06338C2.86385 3.29812 2.74648 3.55634 2.74648 3.83803V16.1268C2.74648 16.4085 2.86385 16.6667 3.09859 16.9014C3.33333 17.1362 3.59155 17.2535 3.87324 17.2535H16.162Z" fill="#0904F2"/>
</svg>
