<svg width="20" height="20" viewBox="0 0 20 20" fill="none" xmlns="http://www.w3.org/2000/svg">
<path id="E-Commerce development" d="M10.467 6.95055L10.0549 6.53846L12.6374 3.98352H6.86813V3.37912H12.6374L10.0824 0.824176L10.467 0.412088L13.7363 3.68132L10.467 6.95055ZM5.48868 20C5.08093 20 4.74188 19.8629 4.47151 19.5886C4.20113 19.3143 4.06593 18.9733 4.06593 18.5656C4.06593 18.1849 4.20307 17.8571 4.47734 17.5824C4.7516 17.3077 5.0926 17.1703 5.50033 17.1703C5.90808 17.1703 6.24713 17.3096 6.5175 17.5882C6.78788 17.8669 6.92308 18.2011 6.92308 18.591C6.92308 18.9809 6.78594 19.3132 6.51168 19.5879C6.23741 19.8626 5.89641 20 5.48868 20ZM15.626 20C15.2259 20 14.8933 19.8629 14.6283 19.5886C14.3633 19.3143 14.2308 18.9733 14.2308 18.5656C14.2308 18.1849 14.3651 17.8571 14.6337 17.5824C14.9024 17.3077 15.2366 17.1703 15.6365 17.1703C16.0363 17.1703 16.3736 17.3096 16.6484 17.5882C16.9231 17.8669 17.0604 18.2011 17.0604 18.591C17.0604 18.9809 16.9233 19.3132 16.649 19.5879C16.3748 19.8626 16.0338 20 15.626 20ZM0 0.604396V0H2.28022L6.73077 9.36813H13.9717C14.1365 9.36813 14.283 9.32692 14.4112 9.2445C14.5394 9.16209 14.6493 9.04762 14.7409 8.9011L18.489 2.22527H19.1758L15.3297 9.25824C15.1748 9.47802 14.9844 9.66117 14.7586 9.80769C14.5327 9.95421 14.2946 10.0275 14.0441 10.0275H6.23626L4.78022 12.7473C4.6337 12.967 4.62454 13.2051 4.75275 13.4615C4.88095 13.7179 5.09158 13.8462 5.38462 13.8462H17.0604V14.4505H5.43956C4.9146 14.4505 4.51778 14.2308 4.24912 13.7912C3.98048 13.3516 3.9652 12.9121 4.2033 12.4725L5.98901 9.28571L1.8956 0.604396H0Z" fill="#0904F2"/>
</svg>
