<svg width="21" height="20" viewBox="0 0 21 20" fill="none" xmlns="http://www.w3.org/2000/svg">
<path id="IT Consulting" d="M10.4819 20V19.3373H18.1325C18.4137 19.3373 18.6446 19.247 18.8253 19.0663C19.006 18.8855 19.0964 18.6546 19.0964 18.3735V9.27711C19.0964 8.11245 18.8655 7.01305 18.4036 5.97892C17.9418 4.94478 17.3193 4.03614 16.5361 3.25301C15.753 2.46988 14.8394 1.84739 13.7952 1.38554C12.751 0.923695 11.6466 0.692771 10.4819 0.692771C9.31727 0.692771 8.21285 0.923695 7.16867 1.38554C6.1245 1.84739 5.21084 2.46988 4.42771 3.25301C3.64458 4.03614 3.02209 4.94478 2.56024 5.97892C2.09839 7.01305 1.86747 8.11245 1.86747 9.27711V16.506H1.62651C1.16466 16.506 0.778112 16.3504 0.466867 16.0392C0.155622 15.7279 0 15.3414 0 14.8795V12.4699C0 12.1687 0.110442 11.8775 0.331325 11.5964C0.552209 11.3153 0.843373 11.0643 1.20482 10.8434V9.27711C1.20482 8.01205 1.44578 6.81727 1.92771 5.69277C2.40964 4.56827 3.07229 3.58434 3.91566 2.74096C4.75904 1.89759 5.74297 1.22992 6.86747 0.737952C7.99197 0.245984 9.19679 0 10.4819 0C11.7671 0 12.9719 0.240964 14.0964 0.722892C15.2209 1.20482 16.2048 1.86747 17.0482 2.71084C17.8916 3.55422 18.5542 4.53815 19.0361 5.66265C19.5181 6.78715 19.759 7.99197 19.759 9.27711V10.8133C20.1205 10.994 20.4116 11.2149 20.6325 11.4759C20.8534 11.7369 20.9639 12.008 20.9639 12.2892V15.0602C20.9639 15.3414 20.8534 15.6125 20.6325 15.8735C20.4116 16.1345 20.1205 16.3554 19.759 16.5361V18.3735C19.759 18.8153 19.5984 19.1968 19.2771 19.5181C18.9558 19.8394 18.5743 20 18.1325 20H10.4819ZM7.46988 11.7169C7.26908 11.7169 7.09337 11.6416 6.94277 11.491C6.79217 11.3404 6.71687 11.1647 6.71687 10.9639C6.71687 10.7631 6.79217 10.5873 6.94277 10.4367C7.09337 10.2861 7.26908 10.2108 7.46988 10.2108C7.67068 10.2108 7.84639 10.2861 7.99699 10.4367C8.14759 10.5873 8.22289 10.7631 8.22289 10.9639C8.22289 11.1647 8.14759 11.3404 7.99699 11.491C7.84639 11.6416 7.67068 11.7169 7.46988 11.7169ZM13.494 11.7169C13.2932 11.7169 13.1175 11.6416 12.9669 11.491C12.8163 11.3404 12.741 11.1647 12.741 10.9639C12.741 10.7631 12.8163 10.5873 12.9669 10.4367C13.1175 10.2861 13.2932 10.2108 13.494 10.2108C13.6948 10.2108 13.8705 10.2861 14.0211 10.4367C14.1717 10.5873 14.247 10.7631 14.247 10.9639C14.247 11.1647 14.1717 11.3404 14.0211 11.491C13.8705 11.6416 13.6948 11.7169 13.494 11.7169ZM4.36747 9.72892C4.30723 8.7249 4.44779 7.81124 4.78916 6.98795C5.13052 6.16466 5.59739 5.46687 6.18976 4.89458C6.78213 4.32229 7.45984 3.88052 8.22289 3.56928C8.98594 3.25803 9.75904 3.10241 10.5422 3.10241C12.0884 3.10241 13.4137 3.59438 14.5181 4.57831C15.6225 5.56225 16.2952 6.78715 16.5361 8.25301C14.9297 8.23293 13.494 7.80121 12.2289 6.95783C10.9639 6.11446 10 5.02008 9.33735 3.6747C9.05622 5.06024 8.4739 6.28514 7.59036 7.3494C6.70683 8.41365 5.63253 9.20683 4.36747 9.72892Z" fill="#0904F2"/>
</svg>
