<svg width="20" height="20" viewBox="0 0 20 20" fill="none" xmlns="http://www.w3.org/2000/svg">
<path id="IT Project Management" d="M4.31818 15.6494H11.6883V14.9351H4.31818V15.6494ZM4.31818 10.3571H15.6818V9.64286H4.31818V10.3571ZM4.31818 5.06494H15.6818V4.35065H4.31818V5.06494ZM1.75325 20C1.26028 20 0.844838 19.831 0.506916 19.4931C0.168972 19.1552 0 18.7397 0 18.2468V1.75325C0 1.26028 0.168972 0.844827 0.506916 0.506883C0.844838 0.168961 1.26028 0 1.75325 0H18.2468C18.7397 0 19.1552 0.168961 19.4931 0.506883C19.831 0.844827 20 1.26028 20 1.75325V18.2468C20 18.7397 19.831 19.1552 19.4931 19.4931C19.1552 19.831 18.7397 20 18.2468 20H1.75325ZM1.75325 19.2857H18.2468C18.5065 19.2857 18.7446 19.1775 18.961 18.961C19.1775 18.7446 19.2857 18.5065 19.2857 18.2468V1.75325C19.2857 1.49351 19.1775 1.25541 18.961 1.03896C18.7446 0.822511 18.5065 0.714286 18.2468 0.714286H1.75325C1.49351 0.714286 1.25541 0.822511 1.03896 1.03896C0.822511 1.25541 0.714286 1.49351 0.714286 1.75325V18.2468C0.714286 18.5065 0.822511 18.7446 1.03896 18.961C1.25541 19.1775 1.49351 19.2857 1.75325 19.2857Z" fill="#0904F2"/>
</svg>
