<svg width="12" height="20" viewBox="0 0 12 20" fill="none" xmlns="http://www.w3.org/2000/svg">
<path id="Mobile Application Developer" d="M1.39175 20C1.00043 20 0.670636 19.8659 0.402371 19.5976C0.134124 19.3294 0 18.9996 0 18.6082V1.39175C0 1.00043 0.134124 0.670636 0.402371 0.402371C0.670636 0.134124 1.00043 0 1.39175 0H10.3608C10.7521 0 11.0819 0.134124 11.3502 0.402371C11.6185 0.670636 11.7526 1.00043 11.7526 1.39175V18.6082C11.7526 18.9996 11.6185 19.3294 11.3502 19.5976C11.0819 19.8659 10.7521 20 10.3608 20H1.39175ZM0.56701 17.8093V18.6082C0.56701 18.8144 0.652921 19.0034 0.824742 19.1753C0.996564 19.3471 1.18557 19.433 1.39175 19.433H10.3608C10.567 19.433 10.756 19.3471 10.9278 19.1753C11.0997 19.0034 11.1856 18.8144 11.1856 18.6082V17.8093H0.56701ZM0.56701 17.2423H11.1856V2.75773H0.56701V17.2423ZM0.56701 2.19072H11.1856V1.39175C11.1856 1.18557 11.0997 0.996564 10.9278 0.824742C10.756 0.652921 10.567 0.56701 10.3608 0.56701H1.39175C1.18557 0.56701 0.996564 0.652921 0.824742 0.824742C0.652921 0.996564 0.56701 1.18557 0.56701 1.39175V2.19072Z" fill="#0904F2"/>
</svg>
