<svg width="21" height="20" viewBox="0 0 21 20" fill="none" xmlns="http://www.w3.org/2000/svg">
<path id="Saas products" d="M1.59763 20C1.14842 20 0.769852 19.846 0.461923 19.5381C0.153975 19.2301 0 18.8516 0 18.4024V9.40828C0 8.95907 0.153975 8.58049 0.461923 8.27254C0.769852 7.96462 1.14842 7.81065 1.59763 7.81065H4.88166V1.59763C4.88166 1.14842 5.03562 0.769842 5.34355 0.461893C5.6515 0.153964 6.03008 0 6.47929 0H18.9941C19.4433 0 19.8219 0.153964 20.1298 0.461893C20.4378 0.769842 20.5917 1.14842 20.5917 1.59763V10.5917C20.5917 11.0409 20.4378 11.4195 20.1298 11.7275C19.8219 12.0354 19.4433 12.1893 18.9941 12.1893H15.7396V18.4024C15.7396 18.8516 15.5857 19.2301 15.2778 19.5381C14.9698 19.846 14.5912 20 14.142 20H1.59763ZM1.59763 19.3491H14.142C14.3787 19.3491 14.5957 19.2505 14.7929 19.0533C14.9901 18.856 15.0888 18.6391 15.0888 18.4024V10.6509H0.650888V18.4024C0.650888 18.6391 0.749507 18.856 0.946746 19.0533C1.14398 19.2505 1.36095 19.3491 1.59763 19.3491ZM15.7396 11.5385H18.9941C19.2308 11.5385 19.4477 11.4398 19.645 11.2426C19.8422 11.0454 19.9408 10.8284 19.9408 10.5917V2.84024H5.53254V7.81065H14.0181C14.5149 7.81065 14.926 7.97337 15.2515 8.29882C15.5769 8.62426 15.7396 9.03353 15.7396 9.52663V11.5385Z" fill="#0904F2"/>
</svg>
