<svg width="26" height="20" viewBox="0 0 26 20" fill="none" xmlns="http://www.w3.org/2000/svg">
<path id="Software Development and Integration" d="M2.01493 20C1.44838 20 0.970933 19.8058 0.582575 19.4174C0.194192 19.0291 0 18.5516 0 17.9851V2.01493C0 1.44838 0.194192 0.97092 0.582575 0.582537C0.970933 0.194179 1.44838 0 2.01493 0H23.9552C24.5218 0 24.9992 0.194179 25.3876 0.582537C25.776 0.97092 25.9701 1.44838 25.9701 2.01493V17.9851C25.9701 18.5516 25.776 19.0291 25.3876 19.4174C24.9992 19.8058 24.5218 20 23.9552 20H2.01493ZM2.01493 19.1791H23.9552C24.2537 19.1791 24.5274 19.0547 24.7761 18.806C25.0249 18.5572 25.1493 18.2836 25.1493 17.9851V3.84328H0.820895V17.9851C0.820895 18.2836 0.945274 18.5572 1.19403 18.806C1.44279 19.0547 1.71642 19.1791 2.01493 19.1791ZM6.26866 15.9328L5.70895 15.4104L9.55224 11.5299L5.67164 7.64925L6.26866 7.08955L10.709 11.5299L6.26866 15.9328ZM14.0672 16.4179V15.597H20.8582V16.4179H14.0672Z" fill="#0904F2"/>
</svg>
