<svg width="23" height="20" viewBox="0 0 23 20" fill="none" xmlns="http://www.w3.org/2000/svg">
<path id="Website development and maintenance" d="M6.2987 12.4351H7.01299V9.12338H6.2987V10.4221H4.35065V11.1364H6.2987V12.4351ZM8.50649 11.1364H18.2468V10.4221H8.50649V11.1364ZM15.5844 8.27922H16.2987V6.98052H18.2468V6.26623H16.2987V4.96753H15.5844V8.27922ZM4.35065 6.98052H14.0909V6.26623H4.35065V6.98052ZM7.88961 20V17.4026H1.75325C1.26028 17.4026 0.844838 17.2336 0.506916 16.8957C0.168972 16.5578 0 16.1423 0 15.6494V1.75325C0 1.26028 0.168972 0.844827 0.506916 0.506883C0.844838 0.168961 1.26028 0 1.75325 0H20.8442C21.3371 0 21.7526 0.168961 22.0905 0.506883C22.4284 0.844827 22.5974 1.26028 22.5974 1.75325V15.6494C22.5974 16.1423 22.4284 16.5578 22.0905 16.8957C21.7526 17.2336 21.3371 17.4026 20.8442 17.4026H14.7078V20H7.88961ZM1.75325 16.6883H20.8442C21.1039 16.6883 21.342 16.5801 21.5584 16.3636C21.7749 16.1472 21.8831 15.9091 21.8831 15.6494V1.75325C21.8831 1.49351 21.7749 1.25541 21.5584 1.03896C21.342 0.822511 21.1039 0.714286 20.8442 0.714286H1.75325C1.49351 0.714286 1.25541 0.822511 1.03896 1.03896C0.822511 1.25541 0.714286 1.49351 0.714286 1.75325V15.6494C0.714286 15.9091 0.822511 16.1472 1.03896 16.3636C1.25541 16.5801 1.49351 16.6883 1.75325 16.6883Z" fill="#0904F2"/>
</svg>
