<svg width="72" height="18" viewBox="0 0 72 18" fill="none" xmlns="http://www.w3.org/2000/svg">
<g id="Asset 1 1" clip-path="url(#clip0_24_363)">
<g id="Layer 1">
<g id="Group">
<g id="Group_2">
<path id="Vector" d="M2.1451 10.6621H0.75V0.839844H2.1451V10.6621ZM7.88054 6.28398H2.0067V5.0635H7.88192V6.28398H7.88054ZM7.75459 0.839844H9.14969V10.6621H7.75459V0.839844Z" fill="#0904F2"/>
<path id="Vector_2" d="M12.8631 10.7457C12.3136 10.7457 11.832 10.6524 11.4181 10.4646C11.0043 10.2781 10.686 10.0178 10.4618 9.68524C10.2389 9.35403 10.1268 8.97689 10.1268 8.55522C10.1268 8.13355 10.2223 7.78842 10.4133 7.46138C10.6043 7.13434 10.9157 6.87132 11.3489 6.6751C11.7821 6.47888 12.3648 6.38007 13.0997 6.38007H15.4443V7.34866H13.1551C12.4852 7.34866 12.034 7.46138 11.8015 7.68544C11.569 7.90949 11.4527 8.18086 11.4527 8.49955C11.4527 8.86416 11.5967 9.15641 11.8859 9.37629C12.1738 9.59617 12.5738 9.70611 13.0859 9.70611C13.598 9.70611 14.0284 9.59339 14.4049 9.36933C14.7813 9.14528 15.054 8.81685 15.2215 8.38683L15.4872 9.31367C15.31 9.75343 14.9986 10.1013 14.5516 10.3588C14.1045 10.6163 13.5426 10.7443 12.8631 10.7443V10.7457ZM15.2907 10.6608V9.08961L15.2215 8.79458V6.11426C15.2215 5.54369 15.0554 5.10114 14.726 4.78802C14.3952 4.4749 13.8997 4.31764 13.2395 4.31764C12.8022 4.31764 12.3745 4.39001 11.9551 4.53474C11.5372 4.67947 11.1828 4.8743 10.895 5.11645L10.3372 4.10611C10.7192 3.79717 11.1773 3.56198 11.7115 3.39776C12.2472 3.23355 12.8063 3.15283 13.3931 3.15283C14.4063 3.15283 15.1882 3.40055 15.7377 3.89597C16.2872 4.3914 16.5612 5.14985 16.5612 6.16854V10.6594H15.2907V10.6608Z" fill="#0904F2"/>
<path id="Vector_3" d="M17.8594 13.384V3.22493H19.1438V5.23169L19.0594 6.95733L19.1991 8.68298V13.384H17.8594ZM21.7804 10.7454C21.1659 10.7454 20.6053 10.6035 20.0988 10.3168C19.5922 10.0315 19.1867 9.60843 18.885 9.04759C18.5819 8.48676 18.431 7.78537 18.431 6.94342C18.431 6.10147 18.5777 5.40008 18.8711 4.83924C19.1645 4.27841 19.5645 3.85674 20.0711 3.57702C20.5776 3.2973 21.1479 3.15674 21.7804 3.15674C22.5056 3.15674 23.1478 3.31539 23.7056 3.63407C24.2633 3.95276 24.7062 4.39392 25.0315 4.96032C25.3567 5.52672 25.52 6.18775 25.52 6.9462C25.52 7.70465 25.3567 8.36847 25.0315 8.93904C24.7062 9.50962 24.2647 9.95356 23.7056 10.2722C23.1478 10.5909 22.5056 10.7496 21.7804 10.7496V10.7454ZM21.6683 9.56668C22.143 9.56668 22.5679 9.45952 22.9457 9.24382C23.3222 9.02811 23.6198 8.72195 23.8384 8.32533C24.0571 7.92731 24.1664 7.46668 24.1664 6.94342C24.1664 6.42016 24.0571 5.94978 23.8384 5.56151C23.6198 5.17324 23.3222 4.87125 22.9457 4.65694C22.5693 4.44123 22.143 4.33407 21.6683 4.33407C21.1935 4.33407 20.7825 4.44123 20.406 4.65694C20.0296 4.87264 19.732 5.17463 19.5133 5.56151C19.2946 5.94978 19.1853 6.41042 19.1853 6.94342C19.1853 7.47642 19.2946 7.92871 19.5133 8.32533C19.732 8.72334 20.0296 9.0295 20.406 9.24382C20.7825 9.45952 21.2032 9.56668 21.6683 9.56668Z" fill="#0904F2"/>
<path id="Vector_4" d="M26.1899 13.384V3.22493H27.4743V5.23169L27.3899 6.95733L27.5297 8.68298V13.384H26.1899ZM30.1109 10.7454C29.4964 10.7454 28.9358 10.6035 28.4293 10.3168C27.9227 10.0315 27.5172 9.60843 27.2155 9.04759C26.9124 8.48676 26.7615 7.78537 26.7615 6.94342C26.7615 6.10147 26.9082 5.40008 27.2016 4.83924C27.4951 4.27841 27.895 3.85674 28.4016 3.57702C28.9082 3.2973 29.4784 3.15674 30.1109 3.15674C30.8361 3.15674 31.4783 3.31539 32.0361 3.63407C32.5938 3.95276 33.0367 4.39392 33.362 4.96032C33.6872 5.52672 33.8505 6.18775 33.8505 6.9462C33.8505 7.70465 33.6872 8.36847 33.362 8.93904C33.0367 9.50962 32.5952 9.95356 32.0361 10.2722C31.4783 10.5909 30.8361 10.7496 30.1109 10.7496V10.7454ZM29.9988 9.56668C30.4735 9.56668 30.8984 9.45952 31.2762 9.24382C31.6527 9.02811 31.9503 8.72195 32.1689 8.32533C32.3876 7.92731 32.4969 7.46668 32.4969 6.94342C32.4969 6.42016 32.3876 5.94978 32.1689 5.56151C31.9503 5.17324 31.6527 4.87125 31.2762 4.65694C30.8998 4.44123 30.4735 4.33407 29.9988 4.33407C29.524 4.33407 29.113 4.44123 28.7365 4.65694C28.3601 4.87264 28.0625 5.17463 27.8438 5.56151C27.6252 5.94978 27.5158 6.41042 27.5158 6.94342C27.5158 7.47642 27.6252 7.92871 27.8438 8.32533C28.0625 8.72334 28.3601 9.0295 28.7365 9.24382C29.113 9.45952 29.5337 9.56668 29.9988 9.56668Z" fill="#0904F2"/>
<path id="Vector_5" d="M34.6325 13.4676C34.2796 13.4676 33.9349 13.4091 33.6 13.2922C33.2651 13.1753 32.9772 13.0042 32.735 12.7801L33.3066 11.7698C33.492 11.9479 33.6969 12.0829 33.9211 12.1761C34.1439 12.2694 34.382 12.3167 34.6325 12.3167C34.9577 12.3167 35.2276 12.2318 35.4422 12.0634C35.6567 11.895 35.856 11.5958 36.0414 11.1658L36.5023 10.1415L36.6421 9.97314L39.5444 3.22363H40.8565L37.2705 11.4038C37.0559 11.927 36.8165 12.3389 36.5521 12.6381C36.2864 12.9374 35.9958 13.1503 35.6802 13.2769C35.3633 13.4036 35.0145 13.4662 34.6339 13.4662L34.6325 13.4676ZM36.3902 10.9L33.0132 3.22502H34.4083L37.2829 9.84789L36.3902 10.9Z" fill="#0904F2"/>
</g>
<g id="Group_3">
<path id="Vector_6" d="M42.1229 10.6621V0.839844H42.5132L47.1179 8.87941H46.9089L51.4859 0.839844H51.8762L51.89 10.6621H51.4291L51.4153 1.54124H51.5689L47.1317 9.30108H46.8812L42.4149 1.54124H42.5824V10.6621H42.1215H42.1229Z" fill="#0904F2"/>
<path id="Vector_7" d="M54.2636 1.47054C54.1432 1.47054 54.0353 1.42322 53.9425 1.32998C53.8498 1.23674 53.8028 1.13376 53.8028 1.02104C53.8028 0.890222 53.8498 0.780281 53.9425 0.691216C54.0353 0.60215 54.1419 0.557617 54.2636 0.557617C54.3937 0.557617 54.5031 0.60215 54.5917 0.691216C54.6802 0.780281 54.7245 0.886047 54.7245 1.00712C54.7245 1.12819 54.6802 1.23674 54.5917 1.32998C54.5031 1.42322 54.3937 1.47054 54.2636 1.47054ZM54.0408 10.661V3.37988H54.5017V10.6624H54.0408V10.661Z" fill="#0904F2"/>
<path id="Vector_8" d="M56.4117 10.6623V0.25H56.8725V10.6623H56.4117Z" fill="#0904F2"/>
<path id="Vector_9" d="M60.6966 10.7041C60.1472 10.7041 59.6807 10.6192 59.2946 10.4522C58.9085 10.2838 58.6137 10.043 58.4088 9.72991C58.204 9.41679 58.1016 9.05914 58.1016 8.65695C58.1016 8.30208 58.186 7.97226 58.3521 7.66749C58.5195 7.36411 58.7963 7.12057 59.1825 6.93826C59.5686 6.75596 60.0876 6.66411 60.7381 6.66411H63.5436V7.04264H60.7381C59.9465 7.04264 59.3873 7.19293 59.0565 7.49214C58.7258 7.79134 58.5611 8.16987 58.5611 8.62912C58.5611 9.14403 58.7521 9.55317 59.1327 9.85655C59.5147 10.1613 60.0447 10.313 60.7229 10.313C61.4011 10.313 61.9464 10.1613 62.3838 9.85655C62.8211 9.55317 63.1519 9.12037 63.3747 8.55814L63.5284 8.86709C63.3415 9.41957 63.0066 9.86351 62.5235 10.2003C62.0405 10.5371 61.4302 10.7055 60.6952 10.7055L60.6966 10.7041ZM63.39 10.6623V8.9645L63.3761 8.71122V5.94741C63.3761 5.22653 63.1851 4.67961 62.8045 4.30526C62.4225 3.9309 61.8689 3.74442 61.1437 3.74442C60.6136 3.74442 60.1292 3.83627 59.6918 4.01858C59.2545 4.20089 58.878 4.43747 58.5611 4.72693L58.3092 4.39015C58.6538 4.06311 59.0759 3.80287 59.5797 3.61083C60.0821 3.41878 60.608 3.32275 61.1561 3.32275C62.0211 3.32275 62.6841 3.54542 63.145 3.98935C63.6059 4.43329 63.8356 5.08597 63.8356 5.94741V10.6623H63.3886H63.39Z" fill="#0904F2"/>
<path id="Vector_10" d="M69.0839 3.32275C69.679 3.32275 70.1938 3.43965 70.6257 3.67345C71.0589 3.90725 71.3952 4.25098 71.6374 4.70466C71.8796 5.15834 72 5.71778 72 6.3816V10.6609H71.5391V6.40943C71.5391 5.53965 71.3205 4.88001 70.8831 4.43051C70.4457 3.981 69.8312 3.75695 69.041 3.75695C68.4361 3.75695 67.9157 3.87802 67.4784 4.12156C67.041 4.3651 66.7061 4.71023 66.4736 5.15973C66.2411 5.60924 66.1248 6.1325 66.1248 6.73091V10.6595H65.6639V3.37981H66.111V5.42832L66.0556 5.30168C66.2784 4.69353 66.6493 4.21202 67.1656 3.85576C67.6818 3.50089 68.3213 3.32275 69.0839 3.32275Z" fill="#0904F2"/>
</g>
<path id="Vector_11" d="M25.0079 16.7534C18.366 16.7534 12.3939 15.3701 8.26114 13.1699C11.9856 15.9421 18.0988 17.7498 25.0079 17.7498C31.917 17.7498 38.0303 15.9421 41.7547 13.1699C37.622 15.3701 31.6499 16.7534 25.0079 16.7534Z" fill="#EF4136"/>
</g>
</g>
</g>
<defs>
<clipPath id="clip0_24_363">
<rect width="71.25" height="17.5" fill="white" transform="translate(0.75 0.25)"/>
</clipPath>
</defs>
</svg>
