<svg width="91" height="18" viewBox="0 0 91 18" fill="none" xmlns="http://www.w3.org/2000/svg">
<g id="Group 347">
<g id="Group 346">
<path id="Subtract" fill-rule="evenodd" clip-rule="evenodd" d="M5 0C2.23858 0 0 2.23858 0 5V13C0 15.7614 2.23858 18 5 18H13C15.7614 18 18 15.7614 18 13V5C18 2.23858 15.7614 0 13 0H5ZM5.49992 1.50031C3.29078 1.50031 1.49992 3.29117 1.49992 5.50031V12.5003C1.49992 14.7094 3.29078 16.5003 5.49992 16.5003H12.4999C14.7091 16.5003 16.4999 14.7094 16.4999 12.5003V5.50031C16.4999 3.29117 14.7091 1.50031 12.4999 1.50031H5.49992Z" fill="#0454F1"/>
<rect id="Rectangle 327" x="7.5" y="7.5" width="7.5" height="7.5" rx="3" fill="black"/>
</g>
<g id="Ads">
<path d="M31.4847 12.99H27.5547L26.9247 14.85H24.2397L28.0497 4.32H31.0197L34.8297 14.85H32.1147L31.4847 12.99ZM30.8247 11.01L29.5197 7.155L28.2297 11.01H30.8247Z" fill="#0454F1"/>
<path d="M35.4793 10.65C35.4793 9.79 35.6393 9.035 35.9593 8.385C36.2893 7.735 36.7343 7.235 37.2943 6.885C37.8543 6.535 38.4793 6.36 39.1693 6.36C39.7193 6.36 40.2193 6.475 40.6693 6.705C41.1293 6.935 41.4893 7.245 41.7493 7.635V3.75H44.3143V14.85H41.7493V13.65C41.5093 14.05 41.1643 14.37 40.7143 14.61C40.2743 14.85 39.7593 14.97 39.1693 14.97C38.4793 14.97 37.8543 14.795 37.2943 14.445C36.7343 14.085 36.2893 13.58 35.9593 12.93C35.6393 12.27 35.4793 11.51 35.4793 10.65ZM41.7493 10.665C41.7493 10.025 41.5693 9.52 41.2093 9.15C40.8593 8.78 40.4293 8.595 39.9193 8.595C39.4093 8.595 38.9743 8.78 38.6143 9.15C38.2643 9.51 38.0893 10.01 38.0893 10.65C38.0893 11.29 38.2643 11.8 38.6143 12.18C38.9743 12.55 39.4093 12.735 39.9193 12.735C40.4293 12.735 40.8593 12.55 41.2093 12.18C41.5693 11.81 41.7493 11.305 41.7493 10.665Z" fill="#0454F1"/>
<path d="M49.575 14.97C48.845 14.97 48.195 14.845 47.625 14.595C47.055 14.345 46.605 14.005 46.275 13.575C45.945 13.135 45.76 12.645 45.72 12.105H48.255C48.285 12.395 48.42 12.63 48.66 12.81C48.9 12.99 49.195 13.08 49.545 13.08C49.865 13.08 50.11 13.02 50.28 12.9C50.46 12.77 50.55 12.605 50.55 12.405C50.55 12.165 50.425 11.99 50.175 11.88C49.925 11.76 49.52 11.63 48.96 11.49C48.36 11.35 47.86 11.205 47.46 11.055C47.06 10.895 46.715 10.65 46.425 10.32C46.135 9.98 45.99 9.525 45.99 8.955C45.99 8.475 46.12 8.04 46.38 7.65C46.65 7.25 47.04 6.935 47.55 6.705C48.07 6.475 48.685 6.36 49.395 6.36C50.445 6.36 51.27 6.62 51.87 7.14C52.48 7.66 52.83 8.35 52.92 9.21H50.55C50.51 8.92 50.38 8.69 50.16 8.52C49.95 8.35 49.67 8.265 49.32 8.265C49.02 8.265 48.79 8.325 48.63 8.445C48.47 8.555 48.39 8.71 48.39 8.91C48.39 9.15 48.515 9.33 48.765 9.45C49.025 9.57 49.425 9.69 49.965 9.81C50.585 9.97 51.09 10.13 51.48 10.29C51.87 10.44 52.21 10.69 52.5 11.04C52.8 11.38 52.955 11.84 52.965 12.42C52.965 12.91 52.825 13.35 52.545 13.74C52.275 14.12 51.88 14.42 51.36 14.64C50.85 14.86 50.255 14.97 49.575 14.97Z" fill="#0454F1"/>
</g>
<g id="India">
<path d="M56.865 3.96V14.415H55.5V3.96H56.865Z" fill="#0C0C0C"/>
<path d="M63.1964 6.045C64.1964 6.045 65.0064 6.35 65.6264 6.96C66.2464 7.56 66.5564 8.43 66.5564 9.57V14.415H65.2064V9.765C65.2064 8.945 65.0014 8.32 64.5914 7.89C64.1814 7.45 63.6214 7.23 62.9114 7.23C62.1914 7.23 61.6164 7.455 61.1864 7.905C60.7664 8.355 60.5564 9.01 60.5564 9.87V14.415H59.1914V6.195H60.5564V7.365C60.8264 6.945 61.1914 6.62 61.6514 6.39C62.1214 6.16 62.6364 6.045 63.1964 6.045Z" fill="#0C0C0C"/>
<path d="M68.2761 10.275C68.2761 9.435 68.4461 8.7 68.7861 8.07C69.1261 7.43 69.5911 6.935 70.1811 6.585C70.7811 6.235 71.4511 6.06 72.1911 6.06C72.8311 6.06 73.4261 6.21 73.9761 6.51C74.5261 6.8 74.9461 7.185 75.2361 7.665V3.315H76.6161V14.415H75.2361V12.87C74.9661 13.36 74.5661 13.765 74.0361 14.085C73.5061 14.395 72.8861 14.55 72.1761 14.55C71.4461 14.55 70.7811 14.37 70.1811 14.01C69.5911 13.65 69.1261 13.145 68.7861 12.495C68.4461 11.845 68.2761 11.105 68.2761 10.275ZM75.2361 10.29C75.2361 9.67 75.1111 9.13 74.8611 8.67C74.6111 8.21 74.2711 7.86 73.8411 7.62C73.4211 7.37 72.9561 7.245 72.4461 7.245C71.9361 7.245 71.4711 7.365 71.0511 7.605C70.6311 7.845 70.2961 8.195 70.0461 8.655C69.7961 9.115 69.6711 9.655 69.6711 10.275C69.6711 10.905 69.7961 11.455 70.0461 11.925C70.2961 12.385 70.6311 12.74 71.0511 12.99C71.4711 13.23 71.9361 13.35 72.4461 13.35C72.9561 13.35 73.4211 13.23 73.8411 12.99C74.2711 12.74 74.6111 12.385 74.8611 11.925C75.1111 11.455 75.2361 10.91 75.2361 10.29Z" fill="#0C0C0C"/>
<path d="M79.6278 4.86C79.3679 4.86 79.1479 4.77 78.9678 4.59C78.7878 4.41 78.6979 4.19 78.6979 3.93C78.6979 3.67 78.7878 3.45 78.9678 3.27C79.1479 3.09 79.3679 3 79.6278 3C79.8778 3 80.0879 3.09 80.2579 3.27C80.4379 3.45 80.5279 3.67 80.5279 3.93C80.5279 4.19 80.4379 4.41 80.2579 4.59C80.0879 4.77 79.8778 4.86 79.6278 4.86ZM80.2879 6.195V14.415H78.9229V6.195H80.2879Z" fill="#0C0C0C"/>
<path d="M82.1043 10.275C82.1043 9.435 82.2743 8.7 82.6143 8.07C82.9543 7.43 83.4193 6.935 84.0093 6.585C84.6093 6.235 85.2743 6.06 86.0043 6.06C86.7243 6.06 87.3493 6.215 87.8793 6.525C88.4093 6.835 88.8043 7.225 89.0643 7.695V6.195H90.4443V14.415H89.0643V12.885C88.7943 13.365 88.3893 13.765 87.8493 14.085C87.3193 14.395 86.6993 14.55 85.9893 14.55C85.2593 14.55 84.5993 14.37 84.0093 14.01C83.4193 13.65 82.9543 13.145 82.6143 12.495C82.2743 11.845 82.1043 11.105 82.1043 10.275ZM89.0643 10.29C89.0643 9.67 88.9393 9.13 88.6893 8.67C88.4393 8.21 88.0993 7.86 87.6693 7.62C87.2493 7.37 86.7843 7.245 86.2743 7.245C85.7643 7.245 85.2993 7.365 84.8793 7.605C84.4593 7.845 84.1243 8.195 83.8743 8.655C83.6243 9.115 83.4993 9.655 83.4993 10.275C83.4993 10.905 83.6243 11.455 83.8743 11.925C84.1243 12.385 84.4593 12.74 84.8793 12.99C85.2993 13.23 85.7643 13.35 86.2743 13.35C86.7843 13.35 87.2493 13.23 87.6693 12.99C88.0993 12.74 88.4393 12.385 88.6893 11.925C88.9393 11.455 89.0643 10.91 89.0643 10.29Z" fill="#0C0C0C"/>
</g>
</g>
</svg>
