<svg width="83" height="16" viewBox="0 0 83 16" fill="none" xmlns="http://www.w3.org/2000/svg">
<g id="Group 1309">
<path id="Vector" d="M0.325063 14.9991C0.244495 14.9993 0.177384 14.9731 0.123729 14.9204C0.0700566 14.8678 0.0430963 14.8016 0.0428479 14.7221C0.0425995 14.6425 0.0691514 14.5779 0.122504 14.5281C0.175839 14.4782 0.24279 14.4532 0.323358 14.453L20.2223 14.3908C20.3029 14.3906 20.37 14.4168 20.4236 14.4695C20.4773 14.5221 20.5043 14.5882 20.5045 14.6678C20.5048 14.7473 20.4782 14.812 20.4249 14.8618C20.3715 14.9116 20.3046 14.9367 20.224 14.9369L0.325063 14.9991ZM2.74961 13.3035C2.36127 13.3047 2.03359 13.1766 1.76658 12.9191C1.49955 12.6615 1.36544 12.3443 1.36427 11.9674L1.33419 2.33627C1.33301 1.95938 1.46513 1.64133 1.73055 1.38213C1.99595 1.12295 2.32282 0.992747 2.71117 0.991534L17.7505 0.944573C18.1388 0.943361 18.4665 1.07152 18.7335 1.32904C19.0005 1.58658 19.1346 1.90379 19.1358 2.28068L19.1659 11.9118C19.1671 12.2887 19.035 12.6068 18.7696 12.866C18.5041 13.1252 18.1773 13.2554 17.7889 13.2566L2.74961 13.3035ZM2.74791 12.7574L17.7872 12.7105C17.9918 12.7098 18.1791 12.6265 18.3491 12.4605C18.5191 12.2945 18.6038 12.1122 18.6032 11.9136L18.5731 2.28244C18.5725 2.08386 18.4867 1.90209 18.3156 1.73714C18.1446 1.57219 17.9568 1.49003 17.7522 1.49067L2.71287 1.53763C2.50826 1.53827 2.32095 1.6216 2.15095 1.78761C1.98095 1.95363 1.89627 2.13593 1.89689 2.33451L1.92696 11.9657C1.92758 12.1642 2.01341 12.346 2.18444 12.511C2.35547 12.6759 2.54329 12.7581 2.74791 12.7574Z" fill="black"/>
<g id="g56">
<path id="path40" d="M40.2532 2.21935C40.0755 2.43256 39.9856 2.70542 40.0019 2.9825V15.0193C39.9866 15.2962 40.0763 15.5688 40.2532 15.7824L40.2943 15.8236L47.0347 9.07857V8.91863L40.2943 2.17822L40.2532 2.21935Z" fill="url(#paint0_linear_111_1338)"/>
<path id="path42" d="M49.2831 11.3268L47.0348 9.0785V8.91856L49.2831 6.6748L49.3334 6.70222L51.9976 8.21482C52.7607 8.64438 52.7607 9.35269 51.9976 9.78682L49.3334 11.2994L49.2831 11.3268Z" fill="url(#paint1_linear_111_1338)"/>
<path id="path44" d="M49.3334 11.2995L47.0485 9.01465L40.2532 15.7825C40.4099 15.9113 40.6049 15.9843 40.8076 15.9901C41.0102 15.9959 41.2091 15.9341 41.3728 15.8145L49.3197 11.2995" fill="url(#paint2_linear_111_1338)"/>
<path id="path46" d="M49.3334 6.70226L41.3728 2.18276C41.2109 2.05823 41.0107 1.9938 40.8065 2.00047C40.6023 2.00714 40.4067 2.08449 40.2532 2.21932L47.0348 9.00086L49.3334 6.70226Z" fill="url(#paint3_linear_111_1338)"/>
<path id="path48" opacity="0.1" d="M49.283 11.249L41.3728 15.7365C41.215 15.8541 41.0235 15.9176 40.8267 15.9176C40.6299 15.9176 40.4384 15.8541 40.2806 15.7365L40.2395 15.7777L40.2806 15.8188C40.4384 15.9364 40.6299 15.9999 40.8267 15.9999C41.0235 15.9999 41.215 15.9364 41.3728 15.8188L49.3196 11.3039L49.283 11.249Z" fill="black"/>
<path id="path50" opacity="0.07" d="M40.2532 15.7091C40.076 15.4938 39.9863 15.2198 40.0019 14.9414V15.0191C39.9865 15.2961 40.0763 15.5686 40.2532 15.7822L40.2943 15.7411L40.2532 15.7091Z" fill="black"/>
<path id="path52" opacity="0.07" d="M51.9975 9.70445L49.2831 11.249L49.3333 11.2993L51.9975 9.76842C52.1538 9.6997 52.289 9.59073 52.3894 9.45263C52.4897 9.31454 52.5516 9.15227 52.5687 8.98242C52.5376 9.13943 52.4695 9.28677 52.3702 9.41231C52.2709 9.53785 52.1431 9.63798 51.9975 9.70445Z" fill="black"/>
<path id="path54" opacity="0.3" d="M41.3731 2.26523L51.9978 8.29276C52.142 8.35759 52.2689 8.45552 52.3681 8.57859C52.4674 8.70166 52.5362 8.84641 52.569 9.00107C52.5528 8.83093 52.4913 8.66825 52.3908 8.53C52.2903 8.39175 52.1546 8.28299 51.9978 8.21507L41.3731 2.18297C40.6236 1.75342 40.0021 2.10986 40.0021 2.98268V3.06037C40.0021 2.19211 40.6236 1.8311 41.3731 2.26523Z" fill="white"/>
</g>
<g id="Group">
<path id="Vector_2" d="M80.5847 9.43776C80.6045 11.5564 82.4559 12.2614 82.4764 12.2704C82.4607 12.3202 82.1806 13.2752 81.501 14.2616C80.9136 15.1145 80.3039 15.9642 79.3434 15.9818C78.3997 15.9991 78.0962 15.4259 77.0172 15.4259C75.9386 15.4259 75.6014 15.9642 74.7081 15.9991C73.781 16.0339 73.075 15.0768 72.4827 14.2271C71.2724 12.489 70.3474 9.31554 71.5894 7.17343C72.2064 6.10964 73.309 5.43601 74.5058 5.41874C75.4162 5.40149 76.2754 6.0271 76.832 6.0271C77.3881 6.0271 78.4323 5.27475 79.5301 5.38524C79.9896 5.40424 81.2796 5.56963 82.1079 6.77395C82.0412 6.81505 80.5687 7.66649 80.5847 9.43776ZM78.8111 4.23531C79.3033 3.64352 79.6346 2.8197 79.5442 2C78.8347 2.02832 77.9768 2.4696 77.4679 3.06106C77.0119 3.58483 76.6125 4.42315 76.7203 5.22662C77.511 5.28739 78.3189 4.82747 78.8111 4.23531Z" fill="black"/>
</g>
</g>
<defs>
<linearGradient id="paint0_linear_111_1338" x1="46.4407" y1="2.85455" x2="37.3057" y2="11.9895" gradientUnits="userSpaceOnUse">
<stop stop-color="#008EFF"/>
<stop offset="0.01" stop-color="#008FFF"/>
<stop offset="0.26" stop-color="#00ACFF"/>
<stop offset="0.51" stop-color="#00C0FF"/>
<stop offset="0.76" stop-color="#00CDFF"/>
<stop offset="1" stop-color="#00D1FF"/>
</linearGradient>
<linearGradient id="paint1_linear_111_1338" x1="52.089" y1="9.00082" x2="38.9189" y2="9.00082" gradientUnits="userSpaceOnUse">
<stop stop-color="#FFD800"/>
<stop offset="1" stop-color="#FF8A00"/>
</linearGradient>
<linearGradient id="paint2_linear_111_1338" x1="48.0858" y1="10.2485" x2="35.7017" y2="22.6326" gradientUnits="userSpaceOnUse">
<stop stop-color="#FF3A44"/>
<stop offset="1" stop-color="#B11162"/>
</linearGradient>
<linearGradient id="paint3_linear_111_1338" x1="38.5441" y1="-1.78837" x2="44.0781" y2="3.74105" gradientUnits="userSpaceOnUse">
<stop stop-color="#328E71"/>
<stop offset="0.07" stop-color="#2D9571"/>
<stop offset="0.48" stop-color="#15BD74"/>
<stop offset="0.8" stop-color="#06D575"/>
<stop offset="1" stop-color="#00DE76"/>
</linearGradient>
</defs>
</svg>
