<svg width="77" height="29" viewBox="0 0 77 29" fill="none" xmlns="http://www.w3.org/2000/svg">
<g id="Group 259">
<g id="Group 258">
<g id="Group">
<path id="Vector" d="M15.8787 14.2019C15.5776 14.7458 15.1161 15.1834 14.4921 15.517C13.8682 15.8507 13.0947 16.0175 12.1696 16.0175H10.4602V20.082H7.70215V8.76172H12.1696C13.073 8.76172 13.8357 8.91771 14.4596 9.2297C15.0836 9.54168 15.5516 9.97066 15.8614 10.5188C16.1734 11.0669 16.3294 11.6952 16.3294 12.4059C16.3294 13.0623 16.1777 13.6603 15.8787 14.2041V14.2019ZM13.138 13.4523C13.3959 13.2053 13.5259 12.8565 13.5259 12.4037C13.5259 11.9509 13.3959 11.6021 13.138 11.3551C12.8802 11.1081 12.4881 10.9846 11.9616 10.9846H10.4623V13.8228H11.9616C12.4881 13.8228 12.8802 13.6993 13.138 13.4523Z" fill="#231F20"/>
<path id="Vector_2" d="M21.7328 11.4131C22.216 11.1293 22.7533 10.9863 23.3447 10.9863V13.9047H22.5864C21.8975 13.9047 21.3818 14.052 21.0373 14.3488C20.6929 14.6456 20.5217 15.1635 20.5217 15.9044V20.0815H17.7637V11.0838H20.5217V12.5831C20.8445 12.0891 21.2475 11.6991 21.7306 11.4131H21.7328Z" fill="#231F20"/>
<path id="Vector_3" d="M26.3844 19.6439C25.6803 19.2669 25.1256 18.7296 24.7226 18.032C24.3197 17.3343 24.1182 16.5154 24.1182 15.5816C24.1182 14.6478 24.3218 13.844 24.7313 13.1377C25.1386 12.4336 25.6998 11.8941 26.4082 11.5171C27.1167 11.1402 27.914 10.9517 28.7958 10.9517C29.6776 10.9517 30.4727 11.1402 31.1811 11.5171C31.8918 11.8941 32.4486 12.4336 32.8581 13.1377C33.2675 13.8418 33.4712 14.6565 33.4712 15.5816C33.4712 16.5067 33.2632 17.3213 32.8494 18.0255C32.4356 18.7296 31.8701 19.2691 31.1573 19.6461C30.4423 20.023 29.6451 20.2115 28.7633 20.2115C27.8815 20.2115 27.0885 20.023 26.3844 19.6461V19.6439ZM30.1087 17.2412C30.4792 16.8534 30.6655 16.3009 30.6655 15.5794C30.6655 14.858 30.4857 14.3055 30.126 13.9177C29.7664 13.5299 29.3222 13.337 28.7958 13.337C28.2693 13.337 27.8121 13.5277 27.4568 13.909C27.1015 14.2903 26.9239 14.8471 26.9239 15.5773C26.9239 16.3074 27.0993 16.8512 27.4482 17.239C27.797 17.6268 28.2346 17.8197 28.7633 17.8197C29.2919 17.8197 29.7382 17.6268 30.1087 17.239V17.2412Z" fill="#231F20"/>
<path id="Vector_4" d="M45.5649 8.75928L41.5503 20.0795H38.099L34.0844 8.75928H37.02L39.8257 17.3064L42.6466 8.75928H45.5649Z" fill="#062DFB"/>
<path id="Vector_5" d="M55.1432 16.2427H48.9035C48.9468 16.8016 49.1267 17.2285 49.443 17.5253C49.7593 17.8221 50.1493 17.9694 50.6129 17.9694C51.2997 17.9694 51.7785 17.6791 52.0472 17.0985H54.9807C54.829 17.6899 54.5582 18.2207 54.1661 18.6952C53.7739 19.1675 53.2821 19.5402 52.6907 19.8067C52.0992 20.0753 51.4384 20.2096 50.7083 20.2096C49.8265 20.2096 49.0422 20.0211 48.3532 19.6442C47.6642 19.2672 47.1269 18.7299 46.7413 18.0322C46.3535 17.3346 46.1606 16.5157 46.1606 15.5819C46.1606 14.6481 46.3513 13.8291 46.7326 13.1315C47.1139 12.4339 47.6491 11.8944 48.338 11.5196C49.0248 11.1426 49.8156 10.9541 50.7083 10.9541C51.6009 10.9541 52.3527 11.1361 53.0308 11.5022C53.7089 11.8684 54.2376 12.3884 54.6189 13.0665C55.0002 13.7446 55.1909 14.5333 55.1909 15.4367C55.1909 15.6945 55.1757 15.9632 55.1432 16.2427ZM52.37 14.7109C52.37 14.2386 52.2097 13.8616 51.8869 13.5821C51.564 13.3027 51.1611 13.1618 50.6779 13.1618C50.1948 13.1618 49.8265 13.2962 49.508 13.5648C49.1917 13.8335 48.9945 14.2148 48.9187 14.7087H52.37V14.7109Z" fill="#062DFB"/>
<path id="Vector_6" d="M64.6502 12.0089C65.2785 12.6914 65.5926 13.6295 65.5926 14.8233V20.0794H62.8519V15.1938C62.8519 14.5915 62.6959 14.1235 62.384 13.792C62.072 13.4584 61.6517 13.2915 61.1274 13.2915C60.603 13.2915 60.1806 13.4584 59.8686 13.792C59.5566 14.1257 59.4006 14.5936 59.4006 15.1938V20.0794H56.6426V11.0817H59.4006V12.2754C59.6801 11.879 60.0571 11.5626 60.5294 11.333C61.0017 11.1012 61.5347 10.9863 62.1261 10.9863C63.1791 10.9863 64.0219 11.3286 64.6502 12.0111V12.0089Z" fill="#062DFB"/>
<path id="Vector_7" d="M67.4883 13.1293C67.8371 12.4317 68.3138 11.8922 68.9161 11.5174C69.5184 11.1404 70.19 10.9519 70.931 10.9519C71.5224 10.9519 72.0619 11.0754 72.5515 11.3224C73.0412 11.5694 73.4247 11.903 73.7042 12.3212V8.14404H76.4622V20.0774H73.7042V18.7883C73.4463 19.2195 73.078 19.5618 72.5992 19.8196C72.1204 20.0774 71.5636 20.2074 70.931 20.2074C70.19 20.2074 69.5184 20.0168 68.9161 19.6355C68.3138 19.2542 67.8371 18.7104 67.4883 18.0062C67.1395 17.3021 66.964 16.4875 66.964 15.5623C66.964 14.6372 67.1395 13.8269 67.4883 13.1271V13.1293ZM73.1322 13.9526C72.7509 13.5561 72.2851 13.3568 71.7369 13.3568C71.1888 13.3568 70.723 13.5539 70.3417 13.9461C69.9603 14.3382 69.7697 14.8777 69.7697 15.5667C69.7697 16.2556 69.9603 16.7994 70.3417 17.2024C70.723 17.6054 71.1888 17.8069 71.7369 17.8069C72.2851 17.8069 72.7509 17.6076 73.1322 17.2111C73.5135 16.8146 73.7042 16.2708 73.7042 15.5818C73.7042 14.8929 73.5135 14.3512 73.1322 13.9526Z" fill="#062DFB"/>
</g>
<path id="Vector_8" d="M12.5509 27.0495H5.82371C3.66582 27.0495 1.9174 25.3011 1.9174 23.1432V5.82371C1.9174 3.66582 3.66582 1.9174 5.82371 1.9174H12.5509V0H5.20407C2.32905 0 0 2.32905 0 5.20407V23.765C0 26.6378 2.32905 28.9691 5.20407 28.9691H12.5509V27.0517V27.0495Z" fill="#062DFB"/>
<path id="Vector_9" d="M6.01436 24.9003C6.85315 24.9003 7.53312 24.2203 7.53312 23.3815C7.53312 22.5428 6.85315 21.8628 6.01436 21.8628C5.17558 21.8628 4.49561 22.5428 4.49561 23.3815C4.49561 24.2203 5.17558 24.9003 6.01436 24.9003Z" fill="#062DFB"/>
<g id="Group_2">
<path id="Vector_10" d="M23.1821 5.82371V7.76061H25.0995V5.20407C25.0995 2.33122 22.7704 0 19.8954 0H12.5486V1.9174H19.2757C21.4336 1.9174 23.1821 3.66582 23.1821 5.82371Z" fill="#062DFB"/>
<path id="Vector_11" d="M23.1818 21.8628V23.1432C23.1818 25.3011 21.4334 27.0495 19.2755 27.0495H12.5483V28.9669H19.8951C22.768 28.9669 25.0992 26.6379 25.0992 23.7629V21.8628H23.1818Z" fill="#062DFB"/>
</g>
</g>
</g>
</svg>
