<svg width="35" height="34" viewBox="0 0 35 34" fill="none" xmlns="http://www.w3.org/2000/svg">
<g id="adobe-xd-2 1" clip-path="url(#clip0_60_987)">
<path id="Vector" d="M6.17395 0.00390625H28.6907C32.1045 0.00390625 34.8646 2.76402 34.8646 6.17785V27.823C34.8646 31.2368 32.1045 33.9969 28.6907 33.9969H6.17395C2.76012 33.9969 0 31.2368 0 27.823V6.17785C0 2.76402 2.76012 0.00390625 6.17395 0.00390625Z" fill="#470137"/>
<g id="Group">
<path id="Vector_2" d="M18.3329 8.93713L13.9748 16.128L18.6234 23.7546C18.6525 23.8127 18.667 23.8708 18.6525 23.9289C18.6379 23.987 18.5798 23.9435 18.4927 23.958H15.166C14.9336 23.958 14.7738 23.9435 14.6721 23.7982C14.367 23.1881 14.0474 22.5924 13.7424 21.9823C13.4373 21.3867 13.1032 20.7766 12.7545 20.1519C12.4059 19.5273 12.0572 18.9026 11.7086 18.2634H11.6795C11.3745 18.8881 11.0404 19.5127 10.7062 20.1374C10.3721 20.7621 10.038 21.3867 9.7184 21.9968C9.38428 22.607 9.05017 23.2316 8.71605 23.8272C8.65794 23.9725 8.54172 23.987 8.38193 23.987H5.186C5.12789 23.987 5.08431 24.0161 5.08431 23.9435C5.06979 23.8853 5.08431 23.8272 5.11337 23.7837L9.63124 16.3749L5.22958 8.9226C5.186 8.8645 5.17147 8.80639 5.20053 8.77733C5.22958 8.73375 5.28769 8.71923 5.3458 8.71923H8.64341C8.71605 8.71923 8.78868 8.73375 8.84679 8.74828C8.9049 8.77733 8.94848 8.82091 8.99206 8.87902C9.26807 9.50368 9.58766 10.1283 9.92178 10.753C10.2704 11.3777 10.6045 11.9878 10.9677 12.5979C11.3164 13.208 11.636 13.8182 11.941 14.4428H11.9701C12.2751 13.8037 12.5947 13.179 12.9143 12.5689C13.2339 11.9587 13.568 11.3486 13.9022 10.7385C14.2363 10.1283 14.5559 9.50368 14.8755 8.90808C14.89 8.84997 14.919 8.79186 14.9626 8.76281C15.0207 8.73375 15.0788 8.71923 15.1515 8.73375H18.2167C18.2893 8.71923 18.3619 8.76281 18.3765 8.83544C18.391 8.84997 18.3619 8.90808 18.3329 8.93713ZM25.0443 24.263C23.9693 24.2776 22.8943 24.0597 21.921 23.6093C21.0058 23.1881 20.2504 22.4908 19.7275 21.6337C19.19 20.7475 18.9285 19.6435 18.9285 18.3215C18.914 17.2465 19.19 16.1861 19.7275 15.2563C20.2795 14.3121 21.0785 13.5276 22.0372 13.0047C23.0541 12.4381 24.2744 12.1621 25.7126 12.1621C25.7852 12.1621 25.8869 12.1621 26.0176 12.1766C26.1484 12.1912 26.2936 12.1912 26.468 12.2057V7.61518C26.468 7.51349 26.5115 7.45538 26.6132 7.45538H29.5622C29.6348 7.44086 29.6929 7.49896 29.7075 7.55707V21.4158C29.7075 21.6772 29.722 21.9678 29.7365 22.2874C29.7656 22.5924 29.7801 22.883 29.7946 23.1299C29.7946 23.2316 29.751 23.3188 29.6494 23.3624C28.894 23.682 28.095 23.9144 27.2815 24.0597C26.5406 24.1904 25.7997 24.263 25.0443 24.263ZM26.468 21.3577V14.9658C26.3372 14.9368 26.2065 14.9077 26.0757 14.8932C25.9159 14.8786 25.7561 14.8641 25.5963 14.8641C25.0298 14.8641 24.4632 14.9803 23.9548 15.2418C23.4609 15.4888 23.0396 15.852 22.72 16.3168C22.4004 16.7817 22.2406 17.4063 22.2406 18.1617C22.2261 18.6702 22.3133 19.1786 22.4876 19.658C22.6328 20.0502 22.8508 20.3989 23.1413 20.6894C23.4173 20.9509 23.7514 21.1543 24.1291 21.2705C24.5214 21.4012 24.9281 21.4593 25.3349 21.4593C25.5528 21.4593 25.7561 21.4448 25.945 21.4303C26.1338 21.4448 26.2936 21.4158 26.468 21.3577Z" fill="#FF61F6"/>
</g>
</g>
<defs>
<clipPath id="clip0_60_987">
<rect width="34.8646" height="34" fill="white"/>
</clipPath>
</defs>
</svg>
