<svg width="161" height="32" viewBox="0 0 161 32" fill="none" xmlns="http://www.w3.org/2000/svg">
<g id="Group 348">
<g id="Group 346">
<path id="Subtract" fill-rule="evenodd" clip-rule="evenodd" d="M5 0C2.23858 0 0 2.23858 0 5V27C0 29.7614 2.23858 32 5 32H27C29.7614 32 32 29.7614 32 27V5C32 2.23858 29.7614 0 27 0H5ZM6.6665 2.66602C4.45737 2.66602 2.6665 4.45687 2.6665 6.66601V25.3327C2.6665 27.5418 4.45736 29.3327 6.6665 29.3327H25.3332C27.5423 29.3327 29.3332 27.5418 29.3332 25.3327V6.66602C29.3332 4.45688 27.5423 2.66602 25.3332 2.66602H6.6665Z" fill="white"/>
<rect id="Rectangle 327" x="13.3335" y="13.334" width="13.3333" height="13.3333" rx="3" fill="white"/>
</g>
<g id="Ads">
<path d="M55.9728 23.0927H48.9861L47.8661 26.3993H43.0928L49.8661 7.67935H55.1461L61.9194 26.3993H57.0928L55.9728 23.0927ZM54.7994 19.5727L52.4794 12.7193L50.1861 19.5727H54.7994Z" fill="white"/>
<path d="M63.0742 18.9327C63.0742 17.4038 63.3587 16.0616 63.9276 14.906C64.5142 13.7505 65.3053 12.8616 66.3009 12.2393C67.2965 11.6171 68.4076 11.306 69.6342 11.306C70.612 11.306 71.5009 11.5105 72.3009 11.9193C73.1187 12.3282 73.7587 12.8793 74.2209 13.5727V6.66602H78.7809V26.3993H74.2209V24.266C73.7942 24.9771 73.1809 25.546 72.3809 25.9727C71.5987 26.3994 70.6831 26.6127 69.6342 26.6127C68.4076 26.6127 67.2965 26.3016 66.3009 25.6793C65.3053 25.0393 64.5142 24.1416 63.9276 22.986C63.3587 21.8127 63.0742 20.4616 63.0742 18.9327ZM74.2209 18.9593C74.2209 17.8216 73.9009 16.9238 73.2609 16.266C72.6387 15.6082 71.8742 15.2793 70.9676 15.2793C70.0609 15.2793 69.2876 15.6082 68.6476 16.266C68.0253 16.906 67.7142 17.7949 67.7142 18.9327C67.7142 20.0705 68.0253 20.9771 68.6476 21.6527C69.2876 22.3105 70.0609 22.6393 70.9676 22.6393C71.8742 22.6393 72.6387 22.3105 73.2609 21.6527C73.9009 20.9949 74.2209 20.0971 74.2209 18.9593Z" fill="white"/>
<path d="M88.1332 26.6127C86.8354 26.6127 85.6799 26.3905 84.6665 25.946C83.6532 25.5016 82.8532 24.8971 82.2665 24.1327C81.6799 23.3505 81.351 22.4794 81.2799 21.5194H85.7865C85.8399 22.0349 86.0799 22.4527 86.5065 22.7727C86.9332 23.0927 87.4576 23.2527 88.0799 23.2527C88.6488 23.2527 89.0843 23.146 89.3865 22.9327C89.7065 22.7016 89.8665 22.4082 89.8665 22.0527C89.8665 21.626 89.6443 21.3149 89.1999 21.1193C88.7554 20.906 88.0354 20.6749 87.0399 20.426C85.9732 20.1771 85.0843 19.9193 84.3732 19.6527C83.6621 19.3682 83.0487 18.9327 82.5332 18.346C82.0176 17.7416 81.7599 16.9327 81.7599 15.9193C81.7599 15.066 81.991 14.2927 82.4532 13.5993C82.9332 12.8882 83.6265 12.3282 84.5332 11.9193C85.4576 11.5105 86.551 11.306 87.8132 11.306C89.6799 11.306 91.1465 11.7682 92.2132 12.6927C93.2976 13.6171 93.9199 14.8438 94.0799 16.3727H89.8665C89.7954 15.8571 89.5643 15.4482 89.1732 15.146C88.7999 14.8438 88.3021 14.6927 87.6799 14.6927C87.1465 14.6927 86.7376 14.7993 86.4532 15.0127C86.1687 15.2082 86.0265 15.4838 86.0265 15.8393C86.0265 16.266 86.2487 16.586 86.6932 16.7993C87.1554 17.0127 87.8665 17.226 88.8265 17.4393C89.9287 17.7238 90.8265 18.0082 91.5199 18.2927C92.2132 18.5594 92.8176 19.0038 93.3332 19.626C93.8665 20.2305 94.1421 21.0482 94.1599 22.0793C94.1599 22.9505 93.911 23.7327 93.4132 24.426C92.9332 25.1016 92.231 25.6349 91.3065 26.026C90.3999 26.4171 89.3421 26.6127 88.1332 26.6127Z" fill="white"/>
</g>
<g id="India">
<path d="M101.093 7.04065V25.6273H98.6665V7.04065H101.093Z" fill="white"/>
<path d="M112.349 10.7473C114.127 10.7473 115.567 11.2895 116.669 12.374C117.771 13.4407 118.322 14.9873 118.322 17.014V25.6273H115.922V17.3607C115.922 15.9029 115.558 14.7918 114.829 14.0273C114.1 13.2451 113.105 12.854 111.842 12.854C110.562 12.854 109.54 13.254 108.776 14.054C108.029 14.854 107.656 16.0184 107.656 17.5473V25.6273H105.229V11.014H107.656V13.094C108.136 12.3473 108.785 11.7695 109.602 11.3607C110.438 10.9518 111.353 10.7473 112.349 10.7473Z" fill="white"/>
<path d="M121.38 18.2673C121.38 16.774 121.682 15.4673 122.286 14.3473C122.891 13.2095 123.717 12.3295 124.766 11.7073C125.833 11.0851 127.024 10.774 128.34 10.774C129.477 10.774 130.535 11.0407 131.513 11.574C132.491 12.0895 133.237 12.774 133.753 13.6273V5.89399H136.206V25.6273H133.753V22.8807C133.273 23.7518 132.562 24.4718 131.62 25.0407C130.677 25.5918 129.575 25.8673 128.313 25.8673C127.015 25.8673 125.833 25.5473 124.766 24.9073C123.717 24.2673 122.891 23.3695 122.286 22.214C121.682 21.0584 121.38 19.7429 121.38 18.2673ZM133.753 18.294C133.753 17.1918 133.531 16.2318 133.086 15.414C132.642 14.5962 132.037 13.974 131.273 13.5473C130.526 13.1029 129.7 12.8807 128.793 12.8807C127.886 12.8807 127.06 13.094 126.313 13.5206C125.566 13.9473 124.971 14.5695 124.526 15.3873C124.082 16.2051 123.86 17.1651 123.86 18.2673C123.86 19.3873 124.082 20.3651 124.526 21.2007C124.971 22.0184 125.566 22.6495 126.313 23.094C127.06 23.5207 127.886 23.734 128.793 23.734C129.7 23.734 130.526 23.5207 131.273 23.094C132.037 22.6495 132.642 22.0184 133.086 21.2007C133.531 20.3651 133.753 19.3962 133.753 18.294Z" fill="white"/>
<path d="M141.56 8.64065C141.098 8.64065 140.707 8.48065 140.387 8.16065C140.067 7.84065 139.907 7.44954 139.907 6.98732C139.907 6.5251 140.067 6.13398 140.387 5.81398C140.707 5.49398 141.098 5.33398 141.56 5.33398C142.005 5.33398 142.378 5.49398 142.68 5.81398C143 6.13398 143.16 6.5251 143.16 6.98732C143.16 7.44954 143 7.84065 142.68 8.16065C142.378 8.48065 142.005 8.64065 141.56 8.64065ZM142.734 11.014V25.6273H140.307V11.014H142.734Z" fill="white"/>
<path d="M145.963 18.2673C145.963 16.774 146.265 15.4673 146.87 14.3473C147.474 13.2095 148.301 12.3295 149.35 11.7073C150.416 11.0851 151.599 10.774 152.896 10.774C154.176 10.774 155.287 11.0495 156.23 11.6007C157.172 12.1518 157.874 12.8451 158.336 13.6807V11.014H160.79V25.6273H158.336V22.9073C157.856 23.7607 157.136 24.4718 156.176 25.0407C155.234 25.5918 154.132 25.8673 152.87 25.8673C151.572 25.8673 150.399 25.5473 149.35 24.9073C148.301 24.2673 147.474 23.3695 146.87 22.214C146.265 21.0584 145.963 19.7429 145.963 18.2673ZM158.336 18.294C158.336 17.1918 158.114 16.2318 157.67 15.414C157.225 14.5962 156.621 13.974 155.856 13.5473C155.11 13.1029 154.283 12.8807 153.376 12.8807C152.47 12.8807 151.643 13.094 150.896 13.5206C150.15 13.9473 149.554 14.5695 149.11 15.3873C148.665 16.2051 148.443 17.1651 148.443 18.2673C148.443 19.3873 148.665 20.3651 149.11 21.2007C149.554 22.0184 150.15 22.6495 150.896 23.094C151.643 23.5207 152.47 23.734 153.376 23.734C154.283 23.734 155.11 23.5207 155.856 23.094C156.621 22.6495 157.225 22.0184 157.67 21.2007C158.114 20.3651 158.336 19.3962 158.336 18.294Z" fill="white"/>
</g>
</g>
</svg>
