<svg width="39" height="30" viewBox="0 0 39 30" fill="none" xmlns="http://www.w3.org/2000/svg">
<path id="Vector" d="M27.3194 23.662C27.4288 23.6688 27.5468 23.6825 27.6648 23.6825C29.3357 23.6842 31.0083 23.6739 32.6792 23.691C33.0452 23.6944 33.1546 23.5696 33.1358 23.219C33.1119 22.7624 33.1307 22.304 33.1307 21.7397C35.0273 23.1352 36.8606 24.4829 38.7419 25.8681C36.8743 27.2431 35.041 28.5925 33.1307 30C33.1307 29.4681 33.1307 29.0286 33.1307 28.5891C33.1307 28.0213 33.1307 28.0196 32.5783 28.0196C21.8946 28.0196 11.2092 28.0196 0.525464 28.0196C0.00897986 28.0196 0.00897977 28.0196 0.00897977 27.4997C0.00897977 26.3726 0.0243723 25.2456 0.000429329 24.1203C-0.00812173 23.7543 0.109882 23.6722 0.460476 23.6739C6.20508 23.6842 11.9497 23.6927 17.6943 23.6773C20.6393 23.6688 22.9635 22.4494 24.5009 19.9115C27.2749 15.3281 24.3829 9.32524 19.0676 8.55222C14.9631 7.95536 11.1476 10.7105 10.4515 14.8851C10.378 15.3195 10.3729 15.7659 10.3301 16.2892C11.0022 16.1986 11.6111 16.1148 12.3003 16.0224C11.2211 18.1089 10.1796 20.1235 9.1227 22.1655C7.50313 20.4963 5.9075 18.8528 4.34779 17.2452C4.73943 17.1802 5.25933 17.105 5.77411 16.9972C5.87159 16.9767 6.01525 16.8194 6.01183 16.7287C5.98275 15.6359 6.058 14.5551 6.27178 13.4828C6.27862 13.4503 6.26323 13.4126 6.25297 13.3494C5.20974 13.1715 4.24176 12.7953 3.36442 12.1898C1.21981 10.7054 0.0979111 7.94338 0.624657 5.42595C1.19758 2.68277 3.26694 0.632223 5.94171 0.126C7.67586 -0.20065 9.28346 0.110609 10.7765 1.02728C11.0399 1.18975 11.2006 1.2137 11.3733 0.93151C11.4742 0.76562 11.6265 0.632223 11.8009 0.430418C12.0181 1.30605 12.2216 2.12524 12.4234 2.94443C12.4918 3.21978 12.5448 3.50025 12.6252 3.77217C12.7124 4.06633 12.6235 4.19802 12.3123 4.1775C11.4127 4.11593 10.5114 4.0612 9.61182 4.00134C9.3895 3.98595 9.16888 3.96201 8.88328 3.93464C9.1056 3.65417 9.30741 3.40277 9.52802 3.12742C9.04232 2.75802 8.50703 2.57332 7.9495 2.48267C5.2542 2.04144 2.87872 4.11251 2.93344 6.8403C2.97449 8.9336 4.73943 10.8046 6.82418 10.9824C7.09439 11.0047 7.18845 10.8678 7.29278 10.666C8.7704 7.83051 10.9954 5.82614 14.0225 4.78291C21.0258 2.36809 28.3369 6.69493 29.6863 13.7769C30.3516 17.264 29.594 20.4485 27.4784 23.3028C27.4203 23.3815 27.3673 23.4653 27.3159 23.5491C27.3057 23.5645 27.3194 23.5953 27.3279 23.6602L27.3194 23.662Z" fill="#0904F2"/>
</svg>
