<svg width="34" height="34" viewBox="0 0 34 34" fill="none" xmlns="http://www.w3.org/2000/svg">
<g id="13466199291639632574 1" clip-path="url(#clip0_2329_544)">
<path id="Vector" d="M32.4062 14.875C32.4062 14.7341 32.3503 14.599 32.2507 14.4993C32.151 14.3997 32.0159 14.3438 31.875 14.3438H27.625C27.4841 14.3438 27.349 14.3997 27.2493 14.4993C27.1497 14.599 27.0938 14.7341 27.0938 14.875V32.4062H24.9688V22.8438C24.9688 22.7029 24.9128 22.5677 24.8132 22.4681C24.7135 22.3685 24.5784 22.3125 24.4375 22.3125H20.1875C20.0466 22.3125 19.9115 22.3685 19.8118 22.4681C19.7122 22.5677 19.6562 22.7029 19.6562 22.8438V32.4062H17.5312V28.6875C17.5312 28.5466 17.4753 28.4115 17.3757 28.3118C17.276 28.2122 17.1409 28.1562 17 28.1562H12.75C12.6091 28.1562 12.474 28.2122 12.3743 28.3118C12.2747 28.4115 12.2188 28.5466 12.2188 28.6875V32.4062H11.1562V33.4688H33.4688V32.4062H32.4062V14.875ZM16.4688 32.4062H13.2812V29.2188H16.4688V32.4062ZM23.9062 32.4062H20.7188V23.375H23.9062V32.4062ZM31.3438 32.4062H28.1562V15.4062H31.3438V32.4062Z" fill="#689F63"/>
<path id="Vector_2" d="M30.9623 6.4159L32.376 7.25846C32.4586 7.30775 32.553 7.33367 32.6493 7.33347C32.7455 7.33327 32.8398 7.30695 32.9222 7.25731C33.0046 7.20768 33.072 7.1366 33.1172 7.05166C33.1624 6.96672 33.1836 6.8711 33.1787 6.77502L32.8865 1.03752C32.8821 0.950208 32.8562 0.865336 32.8111 0.790436C32.766 0.715536 32.7031 0.652923 32.628 0.608151C32.5529 0.563379 32.4679 0.537832 32.3806 0.533775C32.2933 0.529719 32.2063 0.547279 32.1273 0.584898L26.9418 3.06052C26.8551 3.10198 26.7813 3.16618 26.7282 3.24628C26.6751 3.32639 26.6447 3.4194 26.6403 3.51541C26.6358 3.61142 26.6576 3.70682 26.7031 3.79147C26.7486 3.87611 26.8162 3.94682 26.8988 3.99605L28.2683 4.81205C25.9676 8.42654 23.3354 11.819 20.4058 14.9456L17.5371 11.9207C17.2864 11.6527 16.9699 11.455 16.6191 11.3473C16.2683 11.2395 15.8954 11.2255 15.5375 11.3066L14.0548 11.6301L14.0882 10.4391L15.3632 10.0555C15.9019 9.89097 16.3532 9.51932 16.618 9.02221L17.893 6.64274C17.9457 6.5445 17.9662 6.43218 17.9515 6.32168C17.9368 6.21118 17.8877 6.10809 17.8112 6.02702L16.7168 4.86837C16.6638 4.81228 16.5993 4.7684 16.5276 4.7398C16.4559 4.7112 16.3789 4.69856 16.3018 4.70276C16.2248 4.70696 16.1495 4.72789 16.0814 4.7641C16.0133 4.80032 15.9538 4.85094 15.9072 4.91246L14.2678 7.0789L13.2313 6.34471C12.9991 6.18185 12.7368 6.06691 12.4597 6.00661C12.1826 5.94632 11.8962 5.94188 11.6174 5.99355C11.9144 5.62195 12.0788 5.16183 12.0846 4.68615C12.0904 4.21048 11.9372 3.74649 11.6493 3.36778C11.3614 2.98907 10.9553 2.71732 10.4955 2.59562C10.0356 2.47393 9.54823 2.50926 9.11072 2.69602C8.6732 2.88278 8.31056 3.21027 8.08032 3.62654C7.85008 4.04282 7.76541 4.52405 7.83975 4.99392C7.91409 5.46378 8.14317 5.89538 8.49068 6.22025C8.83818 6.54512 9.2842 6.74467 9.758 6.78724L9.70488 6.81168C9.07963 7.10272 8.56582 7.58894 8.24075 8.19718L6.28044 11.8628C6.2475 11.9244 6.22703 11.9918 6.22018 12.0613C6.21333 12.1308 6.22024 12.2009 6.24052 12.2677C6.2608 12.3345 6.29404 12.3967 6.33836 12.4506C6.38267 12.5046 6.43719 12.5493 6.49878 12.5821L7.98097 13.3737C8.10173 13.4382 8.24273 13.4536 8.37457 13.4167C8.50641 13.3798 8.61891 13.2934 8.68859 13.1755L9.90569 11.1185L10.3955 14.2529C10.4584 14.5267 10.5931 14.7787 10.7858 14.983C10.9786 15.1874 11.2224 15.3366 11.492 15.4153L12.4483 18.0067L12.3664 20.9052C12.3633 21.0275 12.4024 21.1472 12.4772 21.2439C12.552 21.3407 12.6579 21.4087 12.7771 21.4365L13.2956 21.5571C10.5076 23.8076 7.54782 25.8366 4.44338 27.6255L0.796876 29.725C0.71604 29.7717 0.648927 29.8388 0.602296 29.9197C0.555664 30.0006 0.53116 30.0923 0.531251 30.1856V32.5661C0.531067 32.6595 0.555479 32.7512 0.602031 32.8321C0.648583 32.913 0.71563 32.9803 0.796421 33.027C0.877212 33.0738 0.968896 33.0984 1.06224 33.0984C1.15558 33.0985 1.24729 33.0739 1.32813 33.0273L6.27353 30.1994C16.3398 24.4306 24.8216 16.2597 30.9623 6.4159ZM9.18425 5.41343C9.04155 5.2627 8.94613 5.07348 8.90976 4.86913C8.87339 4.66478 8.89767 4.45425 8.9796 4.26355C9.06154 4.07284 9.19753 3.91031 9.3708 3.79603C9.54406 3.68174 9.747 3.62071 9.95456 3.62046H9.9875C10.1621 3.6253 10.3329 3.67311 10.4846 3.75968C10.6363 3.84624 10.7644 3.96889 10.8574 4.11675C10.9504 4.26461 11.0056 4.43312 11.0179 4.60738C11.0303 4.78163 10.9995 4.95624 10.9283 5.11576C10.857 5.27527 10.7476 5.41476 10.6096 5.52187C10.4716 5.62899 10.3093 5.70043 10.1371 5.72986C9.96493 5.7593 9.78814 5.74582 9.62239 5.69063C9.45665 5.63543 9.30707 5.54022 9.18691 5.41343H9.18425ZM12.1003 14.3974C12.0383 14.4166 11.9731 14.4233 11.9085 14.4171C11.8014 14.4146 11.6978 14.3779 11.613 14.3124C11.5281 14.247 11.4664 14.1561 11.4368 14.0531L10.7249 9.48918C10.708 9.38104 10.6581 9.28078 10.582 9.20208C10.5059 9.12338 10.4074 9.0701 10.2999 9.04952C10.1924 9.02894 10.0812 9.04206 9.98143 9.0871C9.88167 9.13213 9.79826 9.20688 9.74259 9.30112L8.03091 12.1943L7.46619 11.8926L9.17522 8.69655C9.39089 8.29256 9.73186 7.96949 10.1469 7.7759L11.5552 7.11927C11.7252 7.04085 11.9127 7.00836 12.0992 7.02504C12.2856 7.04173 12.4644 7.10701 12.6177 7.21437L14.0733 8.24552C14.186 8.3252 14.3252 8.35794 14.4615 8.33682C14.5978 8.3157 14.7206 8.24238 14.8038 8.13237L16.3758 6.05677L16.7758 6.48177L15.6804 8.52655C15.6153 8.64932 15.5267 8.75807 15.4196 8.84658C15.3125 8.93509 15.189 9.00163 15.0562 9.0424L13.4146 9.53646C13.3079 9.56875 13.214 9.63378 13.1464 9.72235C13.0787 9.81093 13.0405 9.91855 13.0374 10.03L12.9731 12.282C12.9708 12.3626 12.9868 12.4428 13.0201 12.5163C13.0533 12.5898 13.1029 12.6548 13.165 12.7063C13.2271 12.7578 13.3002 12.7945 13.3786 12.8136C13.457 12.8327 13.5387 12.8336 13.6175 12.8164L15.7712 12.3468C15.9489 12.3065 16.1341 12.3135 16.3083 12.3672C16.4824 12.4209 16.6394 12.5194 16.7636 12.6528L19.6743 15.7191C19.4804 15.92 19.2886 16.1229 19.0926 16.3211L16.0847 13.4783C16.0165 13.4139 15.9326 13.3687 15.8413 13.3473C15.7501 13.3258 15.6548 13.3289 15.5651 13.3561L12.1003 14.3974ZM15.7505 17.0425L14.875 14.6715L15.5816 14.459L18.3382 17.0621C17.4174 17.967 16.4707 18.8457 15.4982 19.6982L15.7824 17.289C15.7913 17.2062 15.7804 17.1224 15.7505 17.0446V17.0425ZM12.6007 15.3558L13.8534 14.9775L14.7093 17.2911L14.3076 20.7012L13.4369 20.4999L13.5097 17.9329C13.5117 17.8652 13.5007 17.7977 13.4773 17.7342L12.6007 15.3558ZM5.74388 29.2745L1.59375 31.6503V30.4943L4.97356 28.5494C14.947 22.7945 23.3549 14.6789 29.4589 4.91512C29.4963 4.85512 29.5214 4.78826 29.5327 4.71844C29.544 4.64862 29.5412 4.57725 29.5245 4.50852C29.5078 4.43979 29.4776 4.37508 29.4356 4.31819C29.3936 4.2613 29.3406 4.21337 29.2798 4.17721L28.2954 3.59284L31.866 1.88752L32.0668 5.83896L31.0574 5.23705C30.9373 5.16562 30.794 5.14436 30.6584 5.17787C30.5227 5.21138 30.4058 5.29696 30.3328 5.41609C24.2657 15.3046 15.8103 23.5095 5.74388 29.2766V29.2745Z" fill="#689F63"/>
<path id="Vector_3" d="M5.54853 14.7078L2.4615 17.6289L3.19214 18.401L6.27916 15.48L5.54853 14.7078Z" fill="#689F63"/>
<path id="Vector_4" d="M8.89721 15.9265L6.19606 18.4824L6.9267 19.2546L9.62784 16.6986L8.89721 15.9265Z" fill="#689F63"/>
</g>
<defs>
<clipPath id="clip0_2329_544">
<rect width="34" height="34" fill="white"/>
</clipPath>
</defs>
</svg>
