<svg width="346" height="219" viewBox="0 0 346 219" fill="none" xmlns="http://www.w3.org/2000/svg">
<g clip-path="url(#clip0_2707_657)">
<path fill-rule="evenodd" clip-rule="evenodd" d="M231.234 211.105C230.77 209.578 229.706 208.15 228.195 207.66C226.684 207.171 224.767 207.912 224.296 209.437C222.906 208.27 220.776 209.197 219.66 210.63C217.853 212.948 219.249 216.745 219.551 216.992C219.877 217.257 220.759 217.211 220.759 217.211L234.276 217.135C234.276 217.135 236.756 216.954 237.901 216.495C240.203 215.571 241.769 211.586 240.287 209.586C239.278 208.224 237.284 207.935 235.674 208.452C234.064 208.969 232.502 209.982 231.234 211.105Z" fill="#2FAB64"/>
<path fill-rule="evenodd" clip-rule="evenodd" d="M222.812 209.357C222.73 209.357 222.645 209.361 222.559 209.371C221.665 209.466 220.664 210.07 220.011 210.908C218.426 212.942 219.61 216.338 219.869 216.68C219.929 216.724 220.375 216.784 220.735 216.763L234.274 216.687C234.268 216.686 236.668 216.506 237.735 216.077C238.809 215.648 239.81 214.362 240.226 212.879C240.566 211.671 240.458 210.569 239.93 209.855C238.985 208.579 237.13 208.456 235.809 208.881C234.405 209.333 232.884 210.242 231.529 211.443C231.415 211.544 231.259 211.58 231.112 211.538C230.966 211.496 230.852 211.383 230.807 211.238C230.33 209.668 229.302 208.492 228.059 208.089C227.356 207.861 226.528 207.939 225.845 208.296C225.285 208.589 224.886 209.042 224.724 209.571C224.679 209.713 224.567 209.825 224.423 209.868C224.281 209.91 224.126 209.879 224.011 209.782C223.674 209.5 223.272 209.357 222.812 209.357ZM220.566 217.665C220.224 217.665 219.613 217.621 219.269 217.34C218.739 216.907 217.392 212.813 219.308 210.354C220.115 209.319 221.325 208.599 222.466 208.478C223.062 208.41 223.617 208.515 224.1 208.769C224.39 208.244 224.85 207.805 225.434 207.499C226.323 207.034 227.406 206.934 228.332 207.234C229.676 207.67 230.803 208.811 231.436 210.347C232.752 209.274 234.19 208.458 235.537 208.025C237.152 207.506 239.438 207.691 240.646 209.32C241.34 210.257 241.502 211.644 241.086 213.122C240.59 214.888 239.404 216.375 238.066 216.912C236.871 217.391 234.413 217.576 234.308 217.584L220.762 217.66C220.717 217.662 220.65 217.665 220.566 217.665Z" fill="#00A458"/>
<path fill-rule="evenodd" clip-rule="evenodd" d="M217.019 210.591C216.632 211.348 216.466 212.17 216.558 213.018C216.604 213.444 217.274 213.448 217.227 213.018C217.148 212.286 217.261 211.587 217.597 210.93C217.793 210.546 217.216 210.205 217.019 210.591Z" fill="#00A458"/>
<path fill-rule="evenodd" clip-rule="evenodd" d="M215.066 211.13C214.855 211.892 214.839 212.653 215.008 213.424C215.1 213.847 215.746 213.668 215.653 213.245C215.511 212.591 215.533 211.953 215.711 211.309C215.826 210.891 215.181 210.713 215.066 211.13Z" fill="#00A458"/>
<path fill-rule="evenodd" clip-rule="evenodd" d="M218.821 209.764C219.251 209.764 219.252 209.091 218.821 209.091C218.39 209.091 218.389 209.764 218.821 209.764Z" fill="#00A458"/>
<path fill-rule="evenodd" clip-rule="evenodd" d="M220.717 213.019C220.717 213.218 220.717 213.418 220.717 213.617C220.717 214.05 221.386 214.051 221.386 213.617C221.386 213.418 221.386 213.218 221.386 213.019C221.386 212.585 220.717 212.584 220.717 213.019Z" fill="#00A458"/>
<path fill-rule="evenodd" clip-rule="evenodd" d="M232.024 214.065C232.024 214.166 232.024 214.265 232.024 214.365C232.024 214.798 232.694 214.799 232.694 214.365C232.694 214.265 232.694 214.166 232.694 214.065C232.694 213.632 232.024 213.631 232.024 214.065Z" fill="#00A458"/>
<path fill-rule="evenodd" clip-rule="evenodd" d="M230.783 213.257C230.833 213.306 230.882 213.357 230.932 213.406C231.236 213.713 231.71 213.237 231.405 212.93C231.355 212.88 231.306 212.83 231.256 212.781C230.952 212.474 230.478 212.95 230.783 213.257Z" fill="#00A458"/>
<path fill-rule="evenodd" clip-rule="evenodd" d="M40.5533 198.415H17.8921C17.3997 198.415 16.9995 198.014 16.9995 197.518C16.9995 197.021 17.3997 196.62 17.8921 196.62H40.5533C41.0465 196.62 41.4459 197.021 41.4459 197.518C41.4459 198.014 41.0465 198.415 40.5533 198.415Z" fill="#355889"/>
<path fill-rule="evenodd" clip-rule="evenodd" d="M240.1 119.374H239.453C239.453 118.836 239.017 118.398 238.482 118.398C237.947 118.398 237.512 118.836 237.512 119.374H236.865C236.865 118.477 237.59 117.747 238.482 117.747C239.374 117.747 240.1 118.477 240.1 119.374Z" fill="#FFFFFE"/>
<path fill-rule="evenodd" clip-rule="evenodd" d="M242.415 81.4721H241.768C241.768 80.9337 241.332 80.4957 240.797 80.4957C240.262 80.4957 239.826 80.9337 239.826 81.4721H239.179C239.179 80.5744 239.905 79.8447 240.797 79.8447C241.689 79.8447 242.415 80.5744 242.415 81.4721Z" fill="#FFFFFE"/>
<path fill-rule="evenodd" clip-rule="evenodd" d="M133.706 211.383H159.441C158.45 207.615 157.776 202.168 157.643 199.042L135.328 199.111C135.54 203.29 135.285 207.092 133.706 211.383ZM161.848 213.178H131.048L131.57 211.932C133.59 207.113 133.799 202.987 133.491 198.275L133.429 197.321L159.397 197.241L159.403 198.135C159.426 201.181 160.245 208.099 161.479 212.009L161.848 213.178Z" fill="#365889"/>
<path fill-rule="evenodd" clip-rule="evenodd" d="M78.8225 108.97C76.799 108.97 75.1146 110.562 74.9622 112.621C73.8304 127.986 74.7058 155.846 75.3444 176.188C75.5578 182.951 75.7412 188.792 75.8169 193.086C75.8393 194.335 77.9144 196.664 79.517 197.239C82.3875 197.828 209.129 197.393 212.424 196.769C216.462 195.968 216.644 191.964 216.82 188.09C216.86 187.193 216.9 186.328 216.987 185.542C219.131 166.521 218.494 146.345 217.878 126.835C217.731 122.16 217.586 117.546 217.482 113.032C217.433 110.904 215.769 109.21 213.693 109.172L78.887 108.97C78.8664 108.97 78.844 108.97 78.8225 108.97ZM122.192 199.024C98.8087 199.024 79.8665 198.896 79.0351 198.598C77.0339 197.88 74.4174 195.091 74.3821 193.112C74.3064 188.827 74.1231 182.991 73.9113 176.233C73.271 155.859 72.3939 127.955 73.5318 112.514C73.7383 109.701 76.0493 107.527 78.8113 107.527C78.8414 107.527 78.8707 107.527 78.9008 107.527L213.713 107.729C216.564 107.778 218.85 110.093 218.916 112.997C219.02 117.508 219.166 122.117 219.312 126.79C219.93 146.35 220.568 166.578 218.414 185.706C218.328 186.461 218.291 187.294 218.253 188.156C218.071 192.169 217.846 197.164 212.702 198.185C210.187 198.683 160.295 199.024 122.192 199.024Z" fill="#365889"/>
<path fill-rule="evenodd" clip-rule="evenodd" d="M209.941 112.397L82.9229 112.228C80.6386 112.194 78.721 113.769 78.5497 115.828C77.1261 132.925 79.0661 168.599 79.3536 182.956C79.3811 184.356 81.6525 186.454 83.2887 186.973C85.2141 187.585 205.921 187.123 208.871 186.606C214.169 185.675 213.267 180.218 213.712 176.726C216.225 156.979 214.681 135.514 214.181 116.2C214.127 114.109 212.256 112.431 209.941 112.397Z" fill="#9CBFDB"/>
<path fill-rule="evenodd" clip-rule="evenodd" d="M120.016 212.936C118.628 212.936 118.257 214.104 118.257 214.794C118.257 215.484 118.628 216.65 120.016 216.65H172.867C174.256 216.65 174.627 215.481 174.627 214.79C174.627 214.101 174.256 212.936 172.867 212.936H120.016ZM172.867 218.093H120.016C117.919 218.093 116.822 216.434 116.822 214.794C116.822 213.154 117.919 211.492 120.016 211.492H172.867C174.964 211.492 176.061 213.152 176.061 214.79C176.061 216.431 174.964 218.093 172.867 218.093Z" fill="#365889"/>
<path fill-rule="evenodd" clip-rule="evenodd" d="M83.2103 193.995C85.5841 193.995 85.5884 190.286 83.2103 190.286C80.8373 190.286 80.833 193.995 83.2103 193.995Z" fill="#365889"/>
<path fill-rule="evenodd" clip-rule="evenodd" d="M90.6468 193.995C93.0206 193.995 93.0249 190.286 90.6468 190.286C88.2739 190.286 88.2696 193.995 90.6468 193.995Z" fill="#365889"/>
<path fill-rule="evenodd" clip-rule="evenodd" d="M98.0831 193.995C100.457 193.995 100.46 190.286 98.0831 190.286C95.7101 190.286 95.7058 193.995 98.0831 193.995Z" fill="#365889"/>
<path fill-rule="evenodd" clip-rule="evenodd" d="M146.441 111.293C147.555 111.293 147.557 109.553 146.441 109.553C145.328 109.553 145.327 111.293 146.441 111.293Z" fill="#365889"/>
<path fill-rule="evenodd" clip-rule="evenodd" d="M295.492 214.568H277.28L284.285 191.432H288.487L295.492 214.568Z" fill="#9CBFDB"/>
<path fill-rule="evenodd" clip-rule="evenodd" d="M275.776 217.21H296.996V214.567H275.776V217.21Z" fill="#9CBFDB"/>
<path fill-rule="evenodd" clip-rule="evenodd" d="M279.032 208.783L277.28 214.567H295.492L293.74 208.783H279.032Z" fill="#365889"/>
<path fill-rule="evenodd" clip-rule="evenodd" d="M280.782 202.999H291.989L290.238 197.215H282.534L280.782 202.999Z" fill="#365889"/>
<path fill-rule="evenodd" clip-rule="evenodd" d="M303.001 190.073H307.446L304.942 200.013H300.497L303.001 190.073ZM314.044 200.013H309.598L312.102 190.073H316.548L314.044 200.013ZM323.145 200.013H318.7L321.204 190.073H325.649L323.145 200.013ZM334.738 190.073V190.125L332.247 200.013H327.802L330.306 190.073H334.738ZM302.938 217.061H306.979V201.325H327.722V217.061H331.763V201.325H336.043V188.76H332.629V187.6H326.741V188.76H308.364V187.6H302.476V188.76H298.729V201.325H302.938V217.061Z" fill="#9CBFDB"/>
<path fill-rule="evenodd" clip-rule="evenodd" d="M97.071 59.8996C94.3039 59.8996 92.0617 57.6421 92.0617 54.8626C92.0617 52.0805 94.3039 49.8264 97.071 49.8264C99.8364 49.8264 102.079 52.0805 102.079 54.8626C102.079 57.6421 99.8364 59.8996 97.071 59.8996ZM104.183 63.2339L105.394 62.016C105.64 61.7702 105.64 61.3694 105.394 61.1218L104.339 60.0632C104.096 59.8156 104.031 59.3672 104.198 59.0625L105.057 56.9643C105.154 56.6284 105.519 56.3558 105.864 56.3558H107.356C107.703 56.3558 107.985 56.0718 107.985 55.7265V54.0004C107.985 53.6507 107.703 53.3703 107.356 53.3703H105.864C105.519 53.3703 105.154 53.0976 105.057 52.7635L104.198 50.6661C104.031 50.3605 104.096 49.9104 104.339 49.6628L105.394 48.6042C105.64 48.3566 105.64 47.9559 105.394 47.7135L104.183 46.4904C103.938 46.2445 103.539 46.2445 103.296 46.4904L102.239 47.5507C101.994 47.7974 101.548 47.8615 101.246 47.697L99.1573 46.8314C98.826 46.7319 98.5548 46.3692 98.5548 46.0195V44.5185C98.5548 44.1723 98.2734 43.8857 97.9274 43.8857H96.2146C95.8669 43.8857 95.5854 44.1723 95.5854 44.5185V46.0195C95.5854 46.3692 95.3143 46.7319 94.983 46.8314L92.894 47.697C92.5919 47.8615 92.1435 47.7974 91.9008 47.5507L90.8439 46.4921C90.6011 46.2445 90.2026 46.2445 89.9599 46.4921L88.7446 47.7135C88.4993 47.9559 88.4993 48.3566 88.7446 48.6042L89.799 49.6628C90.0434 49.9104 90.1088 50.3605 89.9419 50.6661L89.0829 52.7635C88.9856 53.0976 88.6207 53.3703 88.2764 53.3703H86.7822C86.4371 53.3703 86.1548 53.6507 86.1548 54.0004V55.7265C86.1548 56.0718 86.4371 56.3558 86.7822 56.3558H88.2764C88.6207 56.3558 88.9856 56.6284 89.0829 56.9643L89.9419 59.0625C90.1088 59.369 90.0434 59.8156 89.799 60.0632L88.7446 61.1218C88.4993 61.3694 88.4993 61.7702 88.7446 62.016L89.9599 63.2339C90.2026 63.4823 90.6011 63.4823 90.8439 63.2339L91.9008 62.1744C92.1435 61.9286 92.5919 61.8645 92.8958 62.0324L94.983 62.8963C95.3143 62.9924 95.5854 63.3586 95.5854 63.7057V65.2101C95.5854 65.5555 95.8669 65.8403 96.2146 65.8403H97.9274C98.2734 65.8403 98.5548 65.5555 98.5548 65.2101V63.7057C98.5548 63.3586 98.826 62.9924 99.1573 62.8963L101.246 62.0324C101.548 61.8645 101.994 61.9286 102.239 62.1744L103.296 63.2339C103.539 63.4823 103.938 63.4823 104.183 63.2339Z" fill="#9CBFDB"/>
<path fill-rule="evenodd" clip-rule="evenodd" d="M111.873 70.923C111.065 72.4439 109.179 73.0161 107.672 72.2015C106.161 71.387 105.593 69.4939 106.401 67.9773C107.211 66.4538 109.096 65.8834 110.605 66.6979C112.112 67.5142 112.682 69.4056 111.873 70.923ZM115.764 67.9938L115.459 66.9715C115.396 66.7637 115.178 66.6469 114.973 66.7083L114.09 66.9784C113.885 67.0416 113.62 66.9438 113.502 66.7611L112.613 65.6765C112.464 65.5268 112.421 65.2463 112.522 65.0559L112.958 64.237C113.06 64.0449 112.988 63.8077 112.802 63.7055L111.865 63.2017C111.676 63.0987 111.44 63.1732 111.339 63.3627L110.901 64.1816C110.8 64.3703 110.544 64.4906 110.336 64.4474L108.943 64.3063C108.731 64.3071 108.503 64.1427 108.442 63.9341L108.174 63.0442C108.113 62.839 107.896 62.7205 107.69 62.7854L106.673 63.0909C106.465 63.1559 106.352 63.3731 106.412 63.5817L106.682 64.469C106.744 64.6776 106.646 64.9399 106.465 65.0585L105.384 65.9544C105.237 66.1076 104.957 66.1466 104.769 66.0461L103.953 65.6064C103.766 65.5043 103.528 65.5744 103.428 65.7666L102.925 66.7057C102.826 66.8979 102.894 67.1359 103.084 67.2364L103.899 67.6787C104.089 67.78 104.207 68.0345 104.163 68.2448L104.025 69.6436C104.025 69.86 103.86 70.0894 103.654 70.1483L102.769 70.4192C102.562 70.4807 102.445 70.7014 102.509 70.9066L102.816 71.928C102.877 72.1366 103.096 72.2517 103.302 72.1894L104.187 71.9211C104.391 71.8596 104.654 71.9583 104.771 72.1366L105.66 73.2238C105.811 73.3744 105.853 73.6549 105.753 73.8453L105.316 74.6642C105.216 74.8529 105.286 75.0901 105.476 75.1948L106.41 75.6977C106.599 75.799 106.836 75.7272 106.937 75.5385L107.376 74.7178C107.475 74.5257 107.732 74.4088 107.94 74.4512L109.33 74.5932C109.547 74.5932 109.771 74.7585 109.833 74.9671L110.1 75.8544C110.162 76.0621 110.382 76.1807 110.586 76.1158L111.602 75.8068C111.807 75.7453 111.924 75.5246 111.865 75.3212L111.596 74.4313C111.533 74.2262 111.629 73.9578 111.808 73.8419L112.889 72.9477C113.038 72.7953 113.318 72.7529 113.507 72.8533L114.321 73.2931C114.51 73.3978 114.75 73.3242 114.849 73.1338L115.35 72.192C115.453 72.005 115.379 71.7644 115.189 71.6622L114.374 71.2216C114.185 71.1186 114.066 70.8659 114.112 70.6581L114.253 69.2541C114.25 69.0412 114.418 68.8118 114.621 68.7503L115.507 68.4811C115.71 68.4188 115.827 68.2007 115.764 67.9938Z" fill="#9CBFDB"/>
<path fill-rule="evenodd" clip-rule="evenodd" d="M166.449 87.7123H138.39C137.897 87.7123 137.498 87.3106 137.498 86.8146C137.498 86.3186 137.897 85.917 138.39 85.917H166.449C166.941 85.917 167.342 86.3186 167.342 86.8146C167.342 87.3106 166.941 87.7123 166.449 87.7123Z" fill="#355889"/>
<path fill-rule="evenodd" clip-rule="evenodd" d="M109.326 100.532H64.0047C63.5116 100.532 63.1113 100.13 63.1113 99.634C63.1113 99.138 63.5116 98.7363 64.0047 98.7363H109.326C109.82 98.7363 110.219 99.138 110.219 99.634C110.219 100.13 109.82 100.532 109.326 100.532Z" fill="#355889"/>
<path fill-rule="evenodd" clip-rule="evenodd" d="M326.632 124.802H281.311C280.818 124.802 280.418 124.4 280.418 123.904C280.418 123.408 280.818 123.007 281.311 123.007H326.632C327.126 123.007 327.525 123.408 327.525 123.904C327.525 124.4 327.126 124.802 326.632 124.802Z" fill="#355889"/>
<path fill-rule="evenodd" clip-rule="evenodd" d="M344.45 218.99H1.55001C1.05683 218.99 0.657471 218.589 0.657471 218.092C0.657471 217.596 1.05683 217.194 1.55001 217.194H344.45C344.943 217.194 345.342 217.596 345.342 218.092C345.342 218.589 344.943 218.99 344.45 218.99Z" fill="#355889"/>
<path fill-rule="evenodd" clip-rule="evenodd" d="M218.67 88.7683C215.881 88.7683 213.609 86.4856 213.609 83.6785C213.609 80.8721 215.881 78.5878 218.672 78.5878C221.462 78.5878 223.733 80.8713 223.733 83.6785C223.733 86.4856 221.461 88.7683 218.67 88.7683ZM218.669 76.4385C216.747 76.4385 214.94 77.1916 213.581 78.5584C211.262 80.8903 210.802 84.5025 212.459 87.3426L212.578 87.5434L205.29 94.8734C205.28 94.8838 204.936 95.2188 204.931 95.707C204.927 96.0749 205.112 96.4497 205.481 96.8202C205.872 97.2132 206.283 97.4131 206.699 97.4131C207.2 97.4131 207.554 97.1214 207.557 97.1197L214.827 89.8044L215.028 89.9247C216.128 90.5739 217.388 90.9167 218.672 90.9167C220.595 90.9167 222.401 90.1645 223.761 88.7986C226.567 85.9749 226.567 81.382 223.761 78.5584C222.401 77.1916 220.593 76.4385 218.669 76.4385Z" fill="#9CBFDB"/>
<path fill-rule="evenodd" clip-rule="evenodd" d="M216.002 84.7362H221.215V83.3945H216.002V84.7362Z" fill="#9CBFDB"/>
<path fill-rule="evenodd" clip-rule="evenodd" d="M84.9928 217.327C84.4996 217.327 84.0994 216.925 84.0994 216.429V147.29C84.0994 146.795 84.4996 146.393 84.9928 146.393C85.4851 146.393 85.8853 146.795 85.8853 147.29V216.429C85.8853 216.925 85.4851 217.327 84.9928 217.327Z" fill="#355889"/>
<path fill-rule="evenodd" clip-rule="evenodd" d="M100.968 217.327C100.475 217.327 100.076 216.925 100.076 216.429V147.29C100.076 146.795 100.475 146.393 100.968 146.393C101.461 146.393 101.861 146.795 101.861 147.29V216.429C101.861 216.925 101.461 217.327 100.968 217.327Z" fill="#355889"/>
<path fill-rule="evenodd" clip-rule="evenodd" d="M100.968 152.913H84.9928C84.4996 152.913 84.0994 152.511 84.0994 152.016C84.0994 151.52 84.4996 151.118 84.9928 151.118H100.968C101.461 151.118 101.861 151.52 101.861 152.016C101.861 152.511 101.461 152.913 100.968 152.913Z" fill="#355889"/>
<path fill-rule="evenodd" clip-rule="evenodd" d="M100.968 160.812H84.9928C84.4996 160.812 84.0994 160.41 84.0994 159.914C84.0994 159.418 84.4996 159.017 84.9928 159.017H100.968C101.461 159.017 101.861 159.418 101.861 159.914C101.861 160.41 101.461 160.812 100.968 160.812Z" fill="#355889"/>
<path fill-rule="evenodd" clip-rule="evenodd" d="M100.968 168.71H84.9928C84.4996 168.71 84.0994 168.309 84.0994 167.813C84.0994 167.317 84.4996 166.915 84.9928 166.915H100.968C101.461 166.915 101.861 167.317 101.861 167.813C101.861 168.309 101.461 168.71 100.968 168.71Z" fill="#355889"/>
<path fill-rule="evenodd" clip-rule="evenodd" d="M100.968 176.61H84.9928C84.4996 176.61 84.0994 176.208 84.0994 175.712C84.0994 175.216 84.4996 174.814 84.9928 174.814H100.968C101.461 174.814 101.861 175.216 101.861 175.712C101.861 176.208 101.461 176.61 100.968 176.61Z" fill="#355889"/>
<path fill-rule="evenodd" clip-rule="evenodd" d="M100.968 184.508H84.9928C84.4996 184.508 84.0994 184.107 84.0994 183.611C84.0994 183.115 84.4996 182.713 84.9928 182.713H100.968C101.461 182.713 101.861 183.115 101.861 183.611C101.861 184.107 101.461 184.508 100.968 184.508Z" fill="#355889"/>
<path fill-rule="evenodd" clip-rule="evenodd" d="M100.968 192.407H84.9928C84.4996 192.407 84.0994 192.005 84.0994 191.509C84.0994 191.013 84.4996 190.611 84.9928 190.611H100.968C101.461 190.611 101.861 191.013 101.861 191.509C101.861 192.005 101.461 192.407 100.968 192.407Z" fill="#355889"/>
<path fill-rule="evenodd" clip-rule="evenodd" d="M100.968 200.305H84.9928C84.4996 200.305 84.0994 199.903 84.0994 199.407C84.0994 198.911 84.4996 198.51 84.9928 198.51H100.968C101.461 198.51 101.861 198.911 101.861 199.407C101.861 199.903 101.461 200.305 100.968 200.305Z" fill="#355889"/>
<path fill-rule="evenodd" clip-rule="evenodd" d="M100.968 208.203H84.9928C84.4996 208.203 84.0994 207.802 84.0994 207.306C84.0994 206.81 84.4996 206.408 84.9928 206.408H100.968C101.461 206.408 101.861 206.81 101.861 207.306C101.861 207.802 101.461 208.203 100.968 208.203Z" fill="#355889"/>
<path fill-rule="evenodd" clip-rule="evenodd" d="M63.2343 150.644C62.742 150.644 62.3418 150.242 62.3418 149.746V146.251C62.3418 145.755 62.742 145.354 63.2343 145.354C63.7275 145.354 64.1269 145.755 64.1269 146.251V149.746C64.1269 150.242 63.7275 150.644 63.2343 150.644Z" fill="#355889"/>
<path fill-rule="evenodd" clip-rule="evenodd" d="M64.9722 148.897H61.4975C61.0043 148.897 60.605 148.494 60.605 147.999C60.605 147.503 61.0043 147.102 61.4975 147.102H64.9722C65.4653 147.102 65.8647 147.503 65.8647 147.999C65.8647 148.494 65.4653 148.897 64.9722 148.897Z" fill="#355889"/>
<path fill-rule="evenodd" clip-rule="evenodd" d="M143.509 25.6186C143.016 25.6186 142.616 25.2161 142.616 24.7201V21.2257C142.616 20.7297 143.016 20.3271 143.509 20.3271C144.002 20.3271 144.402 20.7297 144.402 21.2257V24.7201C144.402 25.2161 144.002 25.6186 143.509 25.6186Z" fill="#355889"/>
<path fill-rule="evenodd" clip-rule="evenodd" d="M145.247 23.8713H141.772C141.279 23.8713 140.88 23.4688 140.88 22.9728C140.88 22.4777 141.279 22.0752 141.772 22.0752H145.247C145.74 22.0752 146.139 22.4777 146.139 22.9728C146.139 23.4688 145.74 23.8713 145.247 23.8713Z" fill="#355889"/>
<path fill-rule="evenodd" clip-rule="evenodd" d="M171.649 206.588C171.568 206.588 171.485 206.577 171.403 206.554L168.061 205.595C167.587 205.458 167.312 204.962 167.448 204.485C167.584 204.008 168.078 203.737 168.551 203.868L171.893 204.827C172.367 204.964 172.642 205.46 172.506 205.937C172.395 206.331 172.037 206.588 171.649 206.588Z" fill="#355889"/>
<path fill-rule="evenodd" clip-rule="evenodd" d="M169.5 207.788C169.419 207.788 169.337 207.777 169.255 207.755C168.781 207.618 168.506 207.122 168.641 206.645L169.596 203.284C169.732 202.807 170.226 202.536 170.699 202.667C171.174 202.803 171.448 203.299 171.312 203.776L170.358 207.137C170.246 207.532 169.889 207.788 169.5 207.788Z" fill="#355889"/>
<path fill-rule="evenodd" clip-rule="evenodd" d="M154.09 101.011C154.009 101.011 153.928 101 153.845 100.977L150.504 100.017C150.03 99.881 149.755 99.3833 149.89 98.9072C150.026 98.4302 150.518 98.1541 150.994 98.2909L154.336 99.2508C154.809 99.3859 155.084 99.8836 154.948 100.36C154.837 100.754 154.479 101.011 154.09 101.011Z" fill="#355889"/>
<path fill-rule="evenodd" clip-rule="evenodd" d="M151.943 102.213C151.862 102.213 151.779 102.201 151.698 102.177C151.223 102.041 150.949 101.544 151.084 101.067L152.039 97.707C152.174 97.23 152.667 96.9539 153.142 97.0907C153.615 97.2266 153.891 97.7234 153.755 98.1995L152.801 101.561C152.688 101.955 152.331 102.213 151.943 102.213Z" fill="#355889"/>
<path fill-rule="evenodd" clip-rule="evenodd" d="M164.149 67.9279C164.149 74.8156 158.598 80.3988 151.749 80.3988C144.901 80.3988 139.349 74.8156 139.349 67.9279C139.349 61.0402 144.901 55.457 151.749 55.457C158.598 55.457 164.149 61.0402 164.149 67.9279Z" fill="#9CBFDB"/>
<path fill-rule="evenodd" clip-rule="evenodd" d="M161.039 67.9285C161.039 73.0875 156.88 77.2702 151.749 77.2702C146.62 77.2702 142.461 73.0875 142.461 67.9285C142.461 62.7686 146.62 58.5859 151.749 58.5859C156.88 58.5859 161.039 62.7686 161.039 67.9285Z" fill="#FFFFFE"/>
<path fill-rule="evenodd" clip-rule="evenodd" d="M151.749 58.9474C146.825 58.9474 142.82 62.976 142.82 67.9281C142.82 72.8803 146.825 76.9089 151.749 76.9089C156.673 76.9089 160.679 72.8803 160.679 67.9281C160.679 62.976 156.673 58.9474 151.749 58.9474ZM151.749 77.6316C146.429 77.6316 142.101 73.2785 142.101 67.9281C142.101 62.5778 146.429 58.2246 151.749 58.2246C157.069 58.2246 161.398 62.5778 161.398 67.9281C161.398 73.2785 157.069 77.6316 151.749 77.6316Z" fill="#355889"/>
<path fill-rule="evenodd" clip-rule="evenodd" d="M151.749 68.2889C151.551 68.2889 151.39 68.127 151.39 67.9279V63.1714C151.39 62.9714 151.551 62.8096 151.749 62.8096C151.948 62.8096 152.109 62.9714 152.109 63.1714V67.9279C152.109 68.127 151.948 68.2889 151.749 68.2889Z" fill="#355889"/>
<path fill-rule="evenodd" clip-rule="evenodd" d="M157.29 68.2892H151.749C151.551 68.2892 151.39 68.1273 151.39 67.9282C151.39 67.7283 151.551 67.5664 151.749 67.5664H157.29C157.489 67.5664 157.65 67.7283 157.65 67.9282C157.65 68.1273 157.489 68.2892 157.29 68.2892Z" fill="#355889"/>
<path fill-rule="evenodd" clip-rule="evenodd" d="M152.116 59.6412C152.116 59.8446 151.952 60.01 151.749 60.01C151.547 60.01 151.383 59.8446 151.383 59.6412C151.383 59.4378 151.547 59.2725 151.749 59.2725C151.952 59.2725 152.116 59.4378 152.116 59.6412Z" fill="#355889"/>
<path fill-rule="evenodd" clip-rule="evenodd" d="M157.835 62.3287C157.693 62.4733 157.46 62.4733 157.317 62.3287C157.174 62.185 157.174 61.9513 157.317 61.8076C157.46 61.6631 157.693 61.6631 157.835 61.8076C157.979 61.9513 157.979 62.185 157.835 62.3287Z" fill="#355889"/>
<path fill-rule="evenodd" clip-rule="evenodd" d="M159.99 68.2971C159.787 68.2971 159.623 68.1317 159.623 67.9283C159.623 67.724 159.787 67.5596 159.99 67.5596C160.193 67.5596 160.356 67.724 160.356 67.9283C160.356 68.1317 160.193 68.2971 159.99 68.2971Z" fill="#355889"/>
<path fill-rule="evenodd" clip-rule="evenodd" d="M157.317 74.0487C157.174 73.905 157.174 73.6713 157.317 73.5267C157.46 73.383 157.693 73.383 157.835 73.5267C157.979 73.6713 157.979 73.905 157.835 74.0487C157.693 74.1924 157.46 74.1924 157.317 74.0487Z" fill="#355889"/>
<path fill-rule="evenodd" clip-rule="evenodd" d="M151.383 76.2154C151.383 76.0111 151.547 75.8467 151.749 75.8467C151.952 75.8467 152.116 76.0111 152.116 76.2154C152.116 76.4189 151.952 76.5842 151.749 76.5842C151.547 76.5842 151.383 76.4189 151.383 76.2154Z" fill="#355889"/>
<path fill-rule="evenodd" clip-rule="evenodd" d="M145.663 73.5267C145.807 73.383 146.039 73.383 146.182 73.5267C146.325 73.6713 146.325 73.905 146.182 74.0487C146.039 74.1924 145.807 74.1924 145.663 74.0487C145.52 73.905 145.52 73.6713 145.663 73.5267Z" fill="#355889"/>
<path fill-rule="evenodd" clip-rule="evenodd" d="M143.509 67.5596C143.712 67.5596 143.876 67.724 143.876 67.9283C143.876 68.1317 143.712 68.2971 143.509 68.2971C143.307 68.2971 143.142 68.1317 143.142 67.9283C143.142 67.724 143.307 67.5596 143.509 67.5596Z" fill="#355889"/>
<path fill-rule="evenodd" clip-rule="evenodd" d="M146.182 61.8076C146.325 61.9513 146.325 62.185 146.182 62.3287C146.039 62.4733 145.807 62.4733 145.663 62.3287C145.52 62.185 145.52 61.9513 145.663 61.8076C145.807 61.6631 146.039 61.6631 146.182 61.8076Z" fill="#355889"/>
<path fill-rule="evenodd" clip-rule="evenodd" d="M169.888 63.1652H164.682C164.483 63.1652 164.322 63.0033 164.322 62.8042C164.322 62.6043 164.483 62.4424 164.682 62.4424H169.888C170.087 62.4424 170.248 62.6043 170.248 62.8042C170.248 63.0033 170.087 63.1652 169.888 63.1652Z" fill="#355889"/>
<path fill-rule="evenodd" clip-rule="evenodd" d="M169.888 73.4132H164.682C164.483 73.4132 164.322 73.2513 164.322 73.0514C164.322 72.8514 164.483 72.6904 164.682 72.6904H169.888C170.087 72.6904 170.248 72.8514 170.248 73.0514C170.248 73.2513 170.087 73.4132 169.888 73.4132Z" fill="#355889"/>
<path fill-rule="evenodd" clip-rule="evenodd" d="M176.361 68.2911H166.636C166.437 68.2911 166.276 68.1301 166.276 67.9302C166.276 67.7302 166.437 67.5684 166.636 67.5684H176.361C176.56 67.5684 176.721 67.7302 176.721 67.9302C176.721 68.1301 176.56 68.2911 176.361 68.2911Z" fill="#355889"/>
<path fill-rule="evenodd" clip-rule="evenodd" d="M187.579 208.783H193.331V202.999H187.579V208.783Z" fill="#FFFFFE"/>
<path fill-rule="evenodd" clip-rule="evenodd" d="M188.025 208.334H192.884V203.447H188.025V208.334ZM187.133 209.231H193.776V202.55H187.133V209.231Z" fill="#365889"/>
<path fill-rule="evenodd" clip-rule="evenodd" d="M200.609 204.271H195.403C195.204 204.271 195.043 204.109 195.043 203.909C195.043 203.709 195.204 203.548 195.403 203.548H200.609C200.808 203.548 200.968 203.709 200.968 203.909C200.968 204.109 200.808 204.271 200.609 204.271Z" fill="#355889"/>
<path fill-rule="evenodd" clip-rule="evenodd" d="M202.566 208.235H195.53C195.261 208.235 195.043 208.073 195.043 207.873C195.043 207.673 195.261 207.512 195.53 207.512H202.566C202.834 207.512 203.051 207.673 203.051 207.873C203.051 208.073 202.834 208.235 202.566 208.235Z" fill="#355889"/>
<path fill-rule="evenodd" clip-rule="evenodd" d="M205.128 206.141H195.403C195.204 206.141 195.043 205.98 195.043 205.78C195.043 205.58 195.204 205.418 195.403 205.418H205.128C205.327 205.418 205.488 205.58 205.488 205.78C205.488 205.98 205.327 206.141 205.128 206.141Z" fill="#355889"/>
<path fill-rule="evenodd" clip-rule="evenodd" d="M61.2944 123.905H67.0456V118.121H61.2944V123.905Z" fill="#FFFFFE"/>
<path fill-rule="evenodd" clip-rule="evenodd" d="M61.7402 123.456H66.5988V118.57H61.7402V123.456ZM60.8477 124.354H67.4914V117.672H60.8477V124.354Z" fill="#365889"/>
<path fill-rule="evenodd" clip-rule="evenodd" d="M54.0155 119.393H59.2219C59.4198 119.393 59.5808 119.231 59.5808 119.032C59.5808 118.832 59.4198 118.67 59.2219 118.67H54.0155C53.8167 118.67 53.6558 118.832 53.6558 119.032C53.6558 119.231 53.8167 119.393 54.0155 119.393Z" fill="#355889"/>
<path fill-rule="evenodd" clip-rule="evenodd" d="M52.0592 123.356H59.0954C59.3639 123.356 59.5808 123.195 59.5808 122.995C59.5808 122.795 59.3639 122.633 59.0954 122.633H52.0592C51.7906 122.633 51.5737 122.795 51.5737 122.995C51.5737 123.195 51.7906 123.356 52.0592 123.356Z" fill="#355889"/>
<path fill-rule="evenodd" clip-rule="evenodd" d="M49.4967 121.263H59.2217C59.4206 121.263 59.5807 121.101 59.5807 120.902C59.5807 120.702 59.4206 120.54 59.2217 120.54H49.4967C49.2979 120.54 49.137 120.702 49.137 120.902C49.137 121.101 49.2979 121.263 49.4967 121.263Z" fill="#355889"/>
<path fill-rule="evenodd" clip-rule="evenodd" d="M236.697 217.061H238.482V139.855H236.697V217.061Z" fill="#335889"/>
<path fill-rule="evenodd" clip-rule="evenodd" d="M237.785 149.197H237.393C234.48 149.197 232.097 146.8 232.097 143.871V136.737C232.097 133.808 234.48 131.411 237.393 131.411H237.785C240.699 131.411 243.082 133.808 243.082 136.737V143.871C243.082 146.8 240.699 149.197 237.785 149.197Z" fill="#9CBFDB"/>
<path fill-rule="evenodd" clip-rule="evenodd" d="M244.779 144.031C245.406 144.132 246.034 144.234 246.662 144.336C247.084 144.403 247.265 143.755 246.84 143.687C246.213 143.585 245.584 143.483 244.956 143.382C244.535 143.314 244.353 143.963 244.779 144.031Z" fill="#335889"/>
<path fill-rule="evenodd" clip-rule="evenodd" d="M244.713 139.917C245.205 139.829 245.696 139.818 246.193 139.865C246.621 139.906 246.619 139.232 246.193 139.192C245.633 139.139 245.088 139.169 244.536 139.268C244.111 139.343 244.291 139.991 244.713 139.917Z" fill="#335889"/>
<path fill-rule="evenodd" clip-rule="evenodd" d="M244.509 136.169C244.99 135.977 245.472 135.784 245.953 135.592C246.349 135.435 246.176 134.783 245.775 134.943C245.294 135.135 244.812 135.327 244.331 135.52C243.935 135.677 244.108 136.329 244.509 136.169Z" fill="#335889"/>
<path fill-rule="evenodd" clip-rule="evenodd" d="M228.095 144.658C228.589 144.589 229.068 144.474 229.539 144.312C229.945 144.171 229.771 143.521 229.361 143.662C228.889 143.825 228.411 143.939 227.917 144.009C227.492 144.068 227.672 144.716 228.095 144.658Z" fill="#335889"/>
<path fill-rule="evenodd" clip-rule="evenodd" d="M227.226 139.872C227.846 139.889 228.445 139.982 229.043 140.151C229.457 140.269 229.635 139.619 229.22 139.502C228.567 139.317 227.903 139.217 227.226 139.198C226.795 139.186 226.795 139.86 227.226 139.872Z" fill="#335889"/>
<path fill-rule="evenodd" clip-rule="evenodd" d="M227.81 134.333C228.292 134.488 228.774 134.643 229.256 134.797C229.667 134.929 229.844 134.279 229.434 134.147C228.952 133.993 228.47 133.838 227.988 133.683C227.577 133.552 227.4 134.202 227.81 134.333Z" fill="#335889"/>
<path fill-rule="evenodd" clip-rule="evenodd" d="M233.424 218.108L234.614 207.789H240.416L241.755 217.959L233.424 218.108Z" fill="#355889"/>
<path fill-rule="evenodd" clip-rule="evenodd" d="M69.6026 168.702C69.3392 167.062 68.1833 162.828 65.6408 164.168C61.5267 166.337 66.4895 174.573 61.5319 176.025C61.2668 172.742 60.5653 170.48 59.0918 170.615C56.0527 170.892 56.86 178.003 56.8109 179.603C56.761 181.197 56.6818 182.831 56.6104 184.481C53.0342 185.126 53.7408 175.745 51.5658 174.447C48.1842 172.431 47.4655 176.926 47.5584 179.003C47.7168 182.537 48.6619 186.765 51.9618 188.642C53.0514 189.261 54.969 189.959 56.4632 189.833C56.4469 192.659 56.5674 195.467 57.0313 198.148C57.0364 198.176 57.0838 198.176 57.0889 198.148C57.0898 198.146 57.0898 198.144 57.0898 198.142L59.0935 198.25C59.0926 198.262 59.0918 198.275 59.0918 198.287C59.0728 199.174 60.4491 199.174 60.4612 198.287C60.4853 196.582 61.5275 188.209 61.6523 181.114C63.2524 181.354 65.2638 180.605 66.4154 179.755C69.8298 177.236 70.2301 172.603 69.6026 168.702Z" fill="#2FAB64"/>
<path fill-rule="evenodd" clip-rule="evenodd" d="M57.354 197.774L59.4842 197.89L59.4731 198.262C59.4679 198.439 59.5316 198.495 59.5798 198.523C59.6848 198.586 59.8397 198.587 59.9499 198.525C60.0385 198.476 60.0798 198.399 60.0816 198.283C60.0893 197.698 60.2098 196.402 60.3759 194.61C60.6996 191.109 61.1893 185.819 61.2719 181.108L61.2797 180.673L61.7083 180.737C63.1852 180.958 65.1201 180.238 66.1908 179.449C69.8892 176.72 69.6809 171.584 69.2282 168.764C69.0294 167.529 68.3356 165.032 67.1324 164.427C66.733 164.225 66.3027 164.252 65.8173 164.507C64.0649 165.432 64.1639 167.66 64.268 170.018C64.3825 172.611 64.5124 175.551 61.6386 176.393L61.191 176.524L61.1531 176.056C60.8889 172.785 60.2649 171.616 59.7881 171.214C59.5867 171.043 59.3767 170.973 59.1262 170.997C56.9185 171.198 57.0872 176.12 57.169 178.486C57.1853 178.967 57.1982 179.361 57.1905 179.616C57.1518 180.864 57.095 182.138 57.0373 183.423L56.9762 184.804L56.6775 184.858C54.2297 185.298 53.5411 181.985 52.9326 179.059C52.541 177.178 52.1356 175.232 51.3722 174.777C50.5433 174.283 49.8582 174.192 49.3358 174.507C48.2022 175.191 47.8769 177.618 47.938 178.986C48.0835 182.23 48.9312 186.479 52.1494 188.309C53.2597 188.94 55.0749 189.564 56.4314 189.452L56.8453 189.418L56.8428 189.835C56.8256 192.99 56.9882 195.524 57.354 197.774ZM59.7648 199.335C59.5626 199.335 59.3612 199.283 59.1873 199.178C58.973 199.048 58.8232 198.85 58.7544 198.614L57.2774 198.534L56.7395 198.553L56.6577 198.213C56.2627 195.937 56.0793 193.391 56.0819 190.231C54.438 190.23 52.6348 189.463 51.775 188.975C48.2547 186.972 47.3329 182.457 47.1789 179.021C47.1178 177.639 47.407 174.779 48.945 173.852C49.7257 173.381 50.6733 173.471 51.7595 174.12C52.8113 174.747 53.2115 176.673 53.6763 178.902C54.3037 181.922 54.8692 184.097 56.2454 184.13L56.2782 183.389C56.3358 182.107 56.3926 180.837 56.4305 179.592C56.4382 179.348 56.4253 178.972 56.409 178.512C56.3134 175.713 56.1344 170.502 59.0573 170.236C59.5092 170.193 59.9198 170.326 60.2778 170.629C61.0929 171.319 61.6145 172.914 61.8667 175.497C63.7128 174.669 63.6173 172.517 63.5089 170.051C63.3987 167.558 63.2842 164.981 65.4644 163.831C66.1727 163.459 66.8484 163.428 67.4724 163.743C69.2893 164.657 69.9124 168.237 69.9779 168.642C70.459 171.633 70.6647 177.095 66.6401 180.065C65.5186 180.892 63.6276 181.62 62.0242 181.535C61.92 186.167 61.4484 191.27 61.1325 194.68C60.9741 196.389 60.8493 197.738 60.8416 198.293C60.8355 198.683 60.6453 199.011 60.3191 199.193C60.1487 199.288 59.9568 199.335 59.7648 199.335Z" fill="#00A458"/>
<path fill-rule="evenodd" clip-rule="evenodd" d="M65.6667 217.226H51.1356C50.3601 217.226 49.7413 216.716 49.5949 215.958L46.2959 198.925L47.6644 198.656L50.9643 215.69C50.9893 215.823 51.0994 215.823 51.1356 215.823H65.6667C65.7029 215.823 65.8131 215.823 65.838 215.691L69.1112 198.657L70.4806 198.923L67.2074 215.957C67.0619 216.716 66.4431 217.226 65.6667 217.226Z" fill="#365889"/>
<path fill-rule="evenodd" clip-rule="evenodd" d="M46.4431 193.444H70.5633C70.9738 193.444 71.3104 193.901 71.3104 194.461V198.148C71.3104 198.708 70.9738 199.165 70.5633 199.165H46.4431C46.0326 199.165 45.696 198.708 45.696 198.148V194.461C45.696 193.901 46.0326 193.444 46.4431 193.444Z" fill="#9CBFDB"/>
<path fill-rule="evenodd" clip-rule="evenodd" d="M46.4431 193.827C46.2701 193.827 46.0755 194.099 46.0755 194.461V198.15C46.0755 198.512 46.2701 198.783 46.4431 198.783H70.5624C70.7362 198.783 70.9307 198.512 70.9307 198.15V194.461C70.9307 194.099 70.7362 193.827 70.5624 193.827H46.4431ZM70.5624 199.548H46.4431C45.8216 199.548 45.3164 198.92 45.3164 198.15V194.461C45.3164 193.69 45.8216 193.062 46.4431 193.062H70.5624C71.1846 193.062 71.6899 193.69 71.6899 194.461V198.15C71.6899 198.92 71.1846 199.548 70.5624 199.548Z" fill="#355889"/>
<path fill-rule="evenodd" clip-rule="evenodd" d="M46.4431 193.764C46.24 193.764 46.0136 194.049 46.0136 194.461V198.148C46.0136 198.559 46.24 198.846 46.4431 198.846H70.5624C70.7664 198.846 70.9927 198.559 70.9927 198.148V194.461C70.9927 194.049 70.7664 193.764 70.5624 193.764H46.4431ZM70.5624 199.485H46.4431C45.8561 199.485 45.3784 198.886 45.3784 198.148V194.461C45.3784 193.724 45.8561 193.125 46.4431 193.125H70.5624C71.1503 193.125 71.6279 193.724 71.6279 194.461V198.148C71.6279 198.886 71.1503 199.485 70.5624 199.485Z" fill="#9CBFDB"/>
<path fill-rule="evenodd" clip-rule="evenodd" d="M46.4869 194.145C46.4525 194.183 46.3931 194.291 46.3931 194.461V198.149C46.3931 198.344 46.4714 198.457 46.5007 198.476L70.5623 198.463C70.5339 198.457 70.6122 198.344 70.6122 198.149V194.461C70.6122 194.265 70.5339 194.152 70.5055 194.132L46.4869 194.145ZM70.5623 199.866H46.443C45.6469 199.866 44.9988 199.096 44.9988 198.149V194.461C44.9988 193.513 45.6469 192.742 46.443 192.742H70.5623C71.3593 192.742 72.0074 193.513 72.0074 194.461V198.149C72.0074 199.096 71.3593 199.866 70.5623 199.866Z" fill="#355889"/>
<path fill-rule="evenodd" clip-rule="evenodd" d="M49.0734 178.964C49.4702 179.015 49.8661 179.065 50.2629 179.116C50.6889 179.171 50.6855 178.497 50.2629 178.443C49.8661 178.392 49.4702 178.341 49.0734 178.29C48.6473 178.236 48.6508 178.909 49.0734 178.964Z" fill="#00A458"/>
<path fill-rule="evenodd" clip-rule="evenodd" d="M50.824 173.669C50.824 173.868 50.824 174.068 50.824 174.267C50.824 174.701 51.4936 174.702 51.4936 174.267C51.4936 174.068 51.4936 173.868 51.4936 173.669C51.4936 173.235 50.824 173.235 50.824 173.669Z" fill="#00A458"/>
<path fill-rule="evenodd" clip-rule="evenodd" d="M53.1393 179.842C53.4303 179.679 53.7203 179.517 54.0104 179.355C54.3874 179.143 54.05 178.562 53.673 178.773C53.3821 178.936 53.092 179.098 52.802 179.261C52.425 179.472 52.7624 180.053 53.1393 179.842Z" fill="#00A458"/>
<path fill-rule="evenodd" clip-rule="evenodd" d="M49.7007 187.589C50.051 187.343 50.4004 187.097 50.7499 186.851C51.1002 186.606 50.7662 186.021 50.4116 186.271C50.0622 186.516 49.7128 186.762 49.3633 187.008C49.013 187.255 49.347 187.838 49.7007 187.589Z" fill="#00A458"/>
<path fill-rule="evenodd" clip-rule="evenodd" d="M47.192 181.8C47.4398 181.898 47.6886 181.996 47.9373 182.094C48.3384 182.253 48.5131 181.602 48.1155 181.445C47.8667 181.347 47.618 181.248 47.3693 181.151C46.9682 180.992 46.7943 181.643 47.192 181.8Z" fill="#00A458"/>
<path fill-rule="evenodd" clip-rule="evenodd" d="M52.0513 184.926C52.2105 184.938 52.3052 185.014 52.4033 185.132C52.6779 185.467 53.1495 184.989 52.8767 184.656C52.6615 184.395 52.3827 184.276 52.0513 184.253C51.6209 184.222 51.6235 184.895 52.0513 184.926Z" fill="#00A458"/>
<path fill-rule="evenodd" clip-rule="evenodd" d="M53.5197 188.093C53.4474 188.564 53.499 188.967 53.6832 189.406C53.8502 189.803 54.4277 189.46 54.2616 189.066C54.1532 188.808 54.123 188.547 54.1652 188.273C54.2306 187.848 53.586 187.666 53.5197 188.093Z" fill="#00A458"/>
<path fill-rule="evenodd" clip-rule="evenodd" d="M57.0175 188.217C57.2155 188.27 57.4126 188.323 57.6105 188.376C58.0271 188.488 58.2044 187.838 57.7878 187.727C57.5907 187.674 57.3928 187.62 57.1957 187.568C56.7791 187.456 56.6009 188.105 57.0175 188.217Z" fill="#00A458"/>
<path fill-rule="evenodd" clip-rule="evenodd" d="M59.1547 181.599C59.1203 181.981 59.2631 182.33 59.5558 182.578C59.8828 182.856 60.3588 182.382 60.0292 182.102C59.8579 181.957 59.8045 181.819 59.8243 181.599C59.8639 181.168 59.1934 181.17 59.1547 181.599Z" fill="#00A458"/>
<path fill-rule="evenodd" clip-rule="evenodd" d="M58.3051 176.788C58.1106 177.055 58.0762 177.327 58.1321 177.646C58.207 178.072 58.8525 177.892 58.7776 177.467C58.757 177.331 58.7914 177.219 58.8835 177.128C59.1383 176.778 58.5582 176.442 58.3051 176.788Z" fill="#00A458"/>
<path fill-rule="evenodd" clip-rule="evenodd" d="M61.9812 178.756C61.9812 178.955 61.9812 179.155 61.9812 179.354C61.9812 179.788 62.6508 179.788 62.6508 179.354C62.6508 179.155 62.6508 178.955 62.6508 178.756C62.6508 178.323 61.9812 178.322 61.9812 178.756Z" fill="#00A458"/>
<path fill-rule="evenodd" clip-rule="evenodd" d="M55.7506 177.7C55.8987 177.8 56.0476 177.899 56.1965 178C56.5562 178.24 56.8919 177.658 56.5347 177.418C56.3858 177.319 56.2369 177.219 56.088 177.119C55.7291 176.878 55.3934 177.461 55.7506 177.7Z" fill="#00A458"/>
<path fill-rule="evenodd" clip-rule="evenodd" d="M56.8703 172.115C56.9994 172.266 57.064 172.423 57.0786 172.622C57.1122 173.051 57.7818 173.055 57.7482 172.622C57.719 172.236 57.5933 171.932 57.3437 171.638C57.0631 171.309 56.5914 171.786 56.8703 172.115Z" fill="#00A458"/>
<path fill-rule="evenodd" clip-rule="evenodd" d="M58.5601 170.079C58.5601 170.377 58.5601 170.677 58.5601 170.976C58.5601 171.409 59.2297 171.41 59.2297 170.976C59.2297 170.677 59.2297 170.377 59.2297 170.079C59.2297 169.645 58.5601 169.644 58.5601 170.079Z" fill="#00A458"/>
<path fill-rule="evenodd" clip-rule="evenodd" d="M62.6991 174.033C62.7955 174.135 62.8919 174.237 62.9891 174.34C63.2869 174.654 63.7594 174.178 63.4625 173.864C63.3652 173.761 63.2689 173.659 63.1725 173.557C62.8747 173.243 62.4021 173.719 62.6991 174.033Z" fill="#00A458"/>
<path fill-rule="evenodd" clip-rule="evenodd" d="M63.3626 170.021C63.6596 170.038 63.9565 170.055 64.2526 170.072C64.683 170.097 64.6821 169.423 64.2526 169.398C63.9565 169.382 63.6596 169.365 63.3626 169.347C62.9323 169.323 62.934 169.996 63.3626 170.021Z" fill="#00A458"/>
<path fill-rule="evenodd" clip-rule="evenodd" d="M64.311 164.63C64.509 164.83 64.7078 165.029 64.9058 165.229C65.2113 165.535 65.6847 165.059 65.3792 164.753C65.1812 164.553 64.9824 164.353 64.7844 164.154C64.4797 163.847 64.0055 164.323 64.311 164.63Z" fill="#00A458"/>
<path fill-rule="evenodd" clip-rule="evenodd" d="M66.8906 162.896C66.8906 163.245 66.8906 163.595 66.8906 163.944C66.8906 164.376 67.5602 164.377 67.5602 163.944C67.5602 163.595 67.5602 163.245 67.5602 162.896C67.5602 162.463 66.8906 162.463 66.8906 162.896Z" fill="#00A458"/>
<path fill-rule="evenodd" clip-rule="evenodd" d="M68.1042 169.197C68.2023 169.046 68.3004 168.896 68.3994 168.746C68.637 168.383 68.0577 168.045 67.821 168.406C67.7229 168.556 67.6248 168.707 67.5258 168.857C67.2883 169.219 67.8675 169.557 68.1042 169.197Z" fill="#00A458"/>
<path fill-rule="evenodd" clip-rule="evenodd" d="M65.8345 175.809C66.0833 175.712 66.332 175.614 66.5816 175.517C66.9784 175.362 66.8054 174.711 66.4035 174.868C66.1547 174.965 65.906 175.063 65.6564 175.16C65.2596 175.316 65.4326 175.967 65.8345 175.809Z" fill="#00A458"/>
<path fill-rule="evenodd" clip-rule="evenodd" d="M68.798 174.87C69.0459 174.819 69.2929 174.767 69.5408 174.715C69.9625 174.627 69.7835 173.978 69.3626 174.066C69.1147 174.118 68.8677 174.169 68.6198 174.221C68.1981 174.309 68.3771 174.958 68.798 174.87Z" fill="#00A458"/>
<path fill-rule="evenodd" clip-rule="evenodd" d="M66.8906 178.008C66.8906 178.058 66.8906 178.108 66.8906 178.157C66.8906 178.591 67.5602 178.592 67.5602 178.157C67.5602 178.108 67.5602 178.058 67.5602 178.008C67.5602 177.575 66.8906 177.574 66.8906 178.008Z" fill="#00A458"/>
<path fill-rule="evenodd" clip-rule="evenodd" d="M61.1419 188.317C61.2908 188.217 61.4397 188.117 61.5886 188.017C61.945 187.778 61.6102 187.195 61.2504 187.436C61.1015 187.536 60.9526 187.635 60.8037 187.735C60.4474 187.974 60.7822 188.557 61.1419 188.317Z" fill="#00A458"/>
<path fill-rule="evenodd" clip-rule="evenodd" d="M60.7513 190.798C61.0181 190.542 61.3039 190.392 61.6628 190.308C62.082 190.209 61.9047 189.56 61.4846 189.659C61.019 189.768 60.6231 189.99 60.2788 190.322C59.9664 190.622 60.4406 191.098 60.7513 190.798Z" fill="#00A458"/>
<path fill-rule="evenodd" clip-rule="evenodd" d="M57.9944 191.203C58.0443 191.303 58.0951 191.402 58.145 191.501C58.3404 191.888 58.9188 191.547 58.7234 191.161C58.6726 191.062 58.6227 190.962 58.5719 190.864C58.3765 190.477 57.799 190.818 57.9944 191.203Z" fill="#00A458"/>
<path fill-rule="evenodd" clip-rule="evenodd" d="M55.4451 191.928C55.8204 192.123 56.187 192.173 56.601 192.089C57.0228 192.003 56.8446 191.354 56.4229 191.439C56.1879 191.487 55.9934 191.456 55.7825 191.346C55.4012 191.146 55.0621 191.727 55.4451 191.928Z" fill="#00A458"/>
<path fill-rule="evenodd" clip-rule="evenodd" d="M60.9794 185.541C61.4244 185.485 61.8702 185.429 62.316 185.373C62.7378 185.319 62.7429 184.646 62.316 184.699C61.8702 184.756 61.4244 184.812 60.9794 184.868C60.5576 184.921 60.5525 185.595 60.9794 185.541Z" fill="#00A458"/>
<path fill-rule="evenodd" clip-rule="evenodd" d="M120.935 156.036C128.141 149.485 135.346 142.934 142.552 136.383C143.619 135.413 142.037 133.83 140.973 134.797C133.768 141.348 126.563 147.899 119.358 154.45C118.291 155.42 119.872 157.003 120.935 156.036Z" fill="#C4DDEA"/>
<path fill-rule="evenodd" clip-rule="evenodd" d="M145.365 166.061C152.57 159.51 159.775 152.959 166.981 146.407C168.048 145.436 166.466 143.853 165.403 144.82C158.198 151.371 150.992 157.923 143.787 164.474C142.72 165.444 144.302 167.027 145.365 166.061Z" fill="#C4DDEA"/>
<path fill-rule="evenodd" clip-rule="evenodd" d="M118.82 173.486C133.922 158.677 149.023 143.867 164.125 129.057C165.155 128.047 163.576 126.46 162.547 127.47C147.446 142.28 132.344 157.09 117.242 171.9C116.212 172.91 117.791 174.496 118.82 173.486Z" fill="#C4DDEA"/>
<path fill-rule="evenodd" clip-rule="evenodd" d="M187.094 98.0314H188.065V35.3281H187.094V98.0314Z" fill="#365889"/>
<path fill-rule="evenodd" clip-rule="evenodd" d="M191.537 98.032C191.537 100.231 189.765 102.012 187.579 102.012C185.394 102.012 183.622 100.231 183.622 98.032C183.622 95.8342 185.394 94.0527 187.579 94.0527C189.765 94.0527 191.537 95.8342 191.537 98.032Z" fill="#365889"/>
<path fill-rule="evenodd" clip-rule="evenodd" d="M187.634 111.385C187.569 111.385 186.277 111.372 185.334 110.426C184.704 109.794 184.386 108.916 184.386 107.818C184.386 107.527 184.62 107.291 184.909 107.291C185.198 107.291 185.433 107.527 185.433 107.818C185.433 108.626 185.649 109.253 186.074 109.68C186.707 110.315 187.626 110.332 187.634 110.332C189.112 110.332 190.313 109.123 190.313 107.639C190.313 106.153 189.112 104.946 187.635 104.946C187.346 104.946 187.112 104.71 187.112 104.419V101.493C187.112 101.201 187.346 100.966 187.635 100.966C187.924 100.966 188.159 101.201 188.159 101.493V103.929C189.966 104.186 191.36 105.752 191.36 107.639C191.36 109.705 189.69 111.385 187.635 111.385H187.634Z" fill="#365889"/>
<path fill-rule="evenodd" clip-rule="evenodd" d="M166.851 113.836C166.651 113.801 166.485 113.64 166.454 113.426C166.415 113.159 166.598 112.911 166.864 112.871L188.286 109.698C188.552 109.657 188.798 109.843 188.837 110.109C188.876 110.377 188.693 110.624 188.427 110.664L167.005 113.837C166.953 113.846 166.901 113.844 166.851 113.836Z" fill="#365889"/>
<path fill-rule="evenodd" clip-rule="evenodd" d="M207.972 121.005C207.924 120.997 207.876 120.981 207.831 120.957L188.132 110.614C187.894 110.489 187.802 110.194 187.926 109.955C188.05 109.715 188.343 109.622 188.581 109.747L208.28 120.091C208.518 120.216 208.61 120.511 208.486 120.75C208.385 120.943 208.174 121.041 207.972 121.005Z" fill="#365889"/>
<path fill-rule="evenodd" clip-rule="evenodd" d="M206.365 162.365L153.9 153.196C151.152 152.716 149.31 150.085 149.788 147.321L155.037 116.94C155.515 114.176 158.131 112.324 160.88 112.804L213.343 121.973C216.092 122.453 217.933 125.084 217.456 127.848L212.206 158.229C211.729 160.993 209.113 162.845 206.365 162.365Z" fill="#FFFFFE"/>
<path fill-rule="evenodd" clip-rule="evenodd" d="M160.164 113.432C157.985 113.432 156.05 115.009 155.665 117.241L150.48 147.25C150.271 148.46 150.543 149.678 151.245 150.682C151.948 151.687 152.997 152.355 154.2 152.565L206.295 161.668C208.774 162.106 211.147 160.424 211.579 157.928L216.764 127.919C216.973 126.709 216.701 125.49 215.998 124.486C215.296 123.482 214.246 122.814 213.045 122.604L160.949 113.499C160.686 113.453 160.423 113.432 160.164 113.432ZM207.08 163.084C206.745 163.084 206.406 163.055 206.064 162.996L153.971 153.892C152.415 153.62 151.059 152.756 150.15 151.458C149.242 150.16 148.891 148.583 149.161 147.019L154.346 117.01C154.904 113.782 157.969 111.613 161.178 112.173L213.273 121.277C214.828 121.548 216.185 122.412 217.093 123.711C218.001 125.008 218.353 126.585 218.084 128.149L212.899 158.158C212.399 161.044 209.898 163.083 207.08 163.084Z" fill="#365889"/>
<path fill-rule="evenodd" clip-rule="evenodd" d="M205.971 159.074L155.374 150.232C153.618 149.926 152.442 148.245 152.747 146.479L157.54 118.736C157.846 116.97 159.516 115.787 161.273 116.093L211.87 124.935C213.626 125.243 214.802 126.923 214.497 128.69L209.703 156.432C209.399 158.198 207.727 159.382 205.971 159.074Z" fill="#9CBFDB"/>
<path fill-rule="evenodd" clip-rule="evenodd" d="M205.967 158.391C206.671 158.513 207.383 158.353 207.967 157.94C208.553 157.526 208.943 156.907 209.064 156.199L213.817 128.692C214.07 127.23 213.091 125.832 211.637 125.579L161.276 116.777C159.824 116.525 158.433 117.507 158.179 118.97L153.427 146.476C153.305 147.185 153.464 147.899 153.876 148.486C154.287 149.075 154.902 149.467 155.607 149.59L205.967 158.391ZM206.434 159.778C206.204 159.778 205.971 159.758 205.739 159.718L155.378 150.916C154.321 150.732 153.398 150.144 152.781 149.262C152.163 148.38 151.924 147.308 152.108 146.245L156.86 118.74C157.239 116.545 159.32 115.068 161.505 115.451L211.865 124.252C214.048 124.634 215.516 126.728 215.136 128.924L210.384 156.428C210.2 157.492 209.616 158.419 208.739 159.041C208.054 159.526 207.255 159.778 206.434 159.778Z" fill="#355889"/>
<path fill-rule="evenodd" clip-rule="evenodd" d="M181.968 154.88L195.061 142.812L202.307 158.434L181.968 154.88Z" fill="#FFFFFE"/>
<path fill-rule="evenodd" clip-rule="evenodd" d="M182.94 154.594L201.54 157.845L194.913 143.557L182.94 154.594ZM203.073 159.023L180.998 155.166L195.208 142.068L203.073 159.023Z" fill="#365889"/>
<path fill-rule="evenodd" clip-rule="evenodd" d="M156.081 150.356L179.292 128.962L192.138 156.657L156.081 150.356Z" fill="#FFFFFE"/>
<path fill-rule="evenodd" clip-rule="evenodd" d="M157.051 150.07L191.371 156.068L179.144 129.706L157.051 150.07ZM192.904 157.246L155.11 150.641L179.439 128.218L192.904 157.246Z" fill="#365889"/>
<path fill-rule="evenodd" clip-rule="evenodd" d="M206.891 133.018C206.584 134.794 204.904 135.984 203.138 135.675C201.372 135.366 200.189 133.677 200.496 131.9C200.803 130.124 202.483 128.935 204.249 129.243C206.015 129.552 207.199 131.242 206.891 133.018Z" fill="#FFFFFE"/>
<path fill-rule="evenodd" clip-rule="evenodd" d="M203.688 129.643C203.116 129.643 202.559 129.819 202.082 130.157C201.47 130.59 201.063 131.237 200.935 131.978C200.807 132.718 200.974 133.465 201.404 134.08C201.834 134.695 202.478 135.104 203.215 135.233C203.946 135.362 204.692 135.195 205.304 134.761C205.916 134.329 206.323 133.682 206.452 132.941C206.716 131.411 205.693 129.951 204.173 129.685C204.011 129.657 203.849 129.643 203.688 129.643ZM203.701 136.173C203.489 136.173 203.275 136.155 203.061 136.118C201.055 135.767 199.707 133.841 200.056 131.824C200.225 130.846 200.762 129.994 201.569 129.423C202.374 128.853 203.352 128.631 204.326 128.801C205.297 128.97 206.145 129.511 206.713 130.322C207.28 131.133 207.499 132.118 207.33 133.095C207.163 134.072 206.626 134.925 205.818 135.496C205.19 135.941 204.455 136.173 203.701 136.173Z" fill="#365889"/>
<path fill-rule="evenodd" clip-rule="evenodd" d="M179.061 38.6037H227.714V33.2188H179.061V38.6037Z" fill="#9CBFDB"/>
<path fill-rule="evenodd" clip-rule="evenodd" d="M255.44 142.934H268.397V2.52455H255.44V142.934ZM253.843 144.54H269.994V0.917969H253.843V144.54Z" fill="#365889"/>
<path fill-rule="evenodd" clip-rule="evenodd" d="M255.664 15.0548H268.173V2.47403H255.664V15.0548ZM254.046 16.6831H269.792V0.84668H254.046V16.6831Z" fill="#365889"/>
<path fill-rule="evenodd" clip-rule="evenodd" d="M268.41 16.4444L254.282 2.23623L255.427 1.08496L269.555 15.294L268.41 16.4444Z" fill="#365889"/>
<path fill-rule="evenodd" clip-rule="evenodd" d="M255.427 16.4444L254.282 15.294L268.41 1.08496L269.555 2.23623L255.427 16.4444Z" fill="#365889"/>
<path fill-rule="evenodd" clip-rule="evenodd" d="M255.664 29.2629H268.173V16.6829H255.664V29.2629ZM254.046 30.8911H269.792V15.0547H254.046V30.8911Z" fill="#365889"/>
<path fill-rule="evenodd" clip-rule="evenodd" d="M268.41 30.6525L254.282 16.4443L255.427 15.2939L269.555 29.5021L268.41 30.6525Z" fill="#365889"/>
<path fill-rule="evenodd" clip-rule="evenodd" d="M255.427 30.6525L254.282 29.5021L268.41 15.2939L269.555 16.4443L255.427 30.6525Z" fill="#365889"/>
<path fill-rule="evenodd" clip-rule="evenodd" d="M255.664 43.4717H268.173V30.8909H255.664V43.4717ZM254.046 45.0991H269.792V29.2627H254.046V45.0991Z" fill="#365889"/>
<path fill-rule="evenodd" clip-rule="evenodd" d="M268.41 44.8614L254.282 30.6524L255.427 29.502L269.555 43.7101L268.41 44.8614Z" fill="#365889"/>
<path fill-rule="evenodd" clip-rule="evenodd" d="M255.427 44.8614L254.282 43.7101L268.41 29.502L269.555 30.6524L255.427 44.8614Z" fill="#365889"/>
<path fill-rule="evenodd" clip-rule="evenodd" d="M255.664 57.6798H268.173V45.099H255.664V57.6798ZM254.046 59.3081H269.792V43.4717H254.046V59.3081Z" fill="#365889"/>
<path fill-rule="evenodd" clip-rule="evenodd" d="M268.41 59.0694L254.282 44.8612L255.427 43.71L269.555 57.9181L268.41 59.0694Z" fill="#365889"/>
<path fill-rule="evenodd" clip-rule="evenodd" d="M255.427 59.0694L254.282 57.9181L268.41 43.71L269.555 44.8612L255.427 59.0694Z" fill="#365889"/>
<path fill-rule="evenodd" clip-rule="evenodd" d="M255.664 71.8888H268.173V59.3089H255.664V71.8888ZM254.046 73.5171H269.792V57.6807H254.046V73.5171Z" fill="#365889"/>
<path fill-rule="evenodd" clip-rule="evenodd" d="M268.41 73.2774L254.282 59.0692L255.427 57.918L269.555 72.127L268.41 73.2774Z" fill="#365889"/>
<path fill-rule="evenodd" clip-rule="evenodd" d="M255.427 73.2774L254.282 72.127L268.41 57.918L269.555 59.0692L255.427 73.2774Z" fill="#365889"/>
<path fill-rule="evenodd" clip-rule="evenodd" d="M255.664 86.0977H268.173V73.5169H255.664V86.0977ZM254.046 87.7251H269.792V71.8887H254.046V87.7251Z" fill="#365889"/>
<path fill-rule="evenodd" clip-rule="evenodd" d="M268.41 87.4864L254.282 73.2774L255.427 72.127L269.555 86.3351L268.41 87.4864Z" fill="#365889"/>
<path fill-rule="evenodd" clip-rule="evenodd" d="M255.427 87.4864L254.282 86.3351L268.41 72.127L269.555 73.2774L255.427 87.4864Z" fill="#365889"/>
<path fill-rule="evenodd" clip-rule="evenodd" d="M255.664 100.306H268.173V87.725H255.664V100.306ZM254.046 101.934H269.792V86.0977H254.046V101.934Z" fill="#365889"/>
<path fill-rule="evenodd" clip-rule="evenodd" d="M268.41 101.695L254.282 87.4872L255.427 86.3359L269.555 100.544L268.41 101.695Z" fill="#365889"/>
<path fill-rule="evenodd" clip-rule="evenodd" d="M255.427 101.695L254.282 100.544L268.41 86.3359L269.555 87.4872L255.427 101.695Z" fill="#365889"/>
<path fill-rule="evenodd" clip-rule="evenodd" d="M255.664 114.514H268.173V101.934H255.664V114.514ZM254.046 116.142H269.792V100.306H254.046V116.142Z" fill="#365889"/>
<path fill-rule="evenodd" clip-rule="evenodd" d="M268.41 115.903L254.282 101.695L255.427 100.544L269.555 114.753L268.41 115.903Z" fill="#365889"/>
<path fill-rule="evenodd" clip-rule="evenodd" d="M255.427 115.903L254.282 114.753L268.41 100.544L269.555 101.695L255.427 115.903Z" fill="#365889"/>
<path fill-rule="evenodd" clip-rule="evenodd" d="M255.664 128.722H268.173V116.142H255.664V128.722ZM254.046 130.35H269.792V114.514H254.046V130.35Z" fill="#365889"/>
<path fill-rule="evenodd" clip-rule="evenodd" d="M268.41 130.112L254.282 115.903L255.427 114.753L269.555 128.961L268.41 130.112Z" fill="#365889"/>
<path fill-rule="evenodd" clip-rule="evenodd" d="M255.427 130.112L254.282 128.961L268.41 114.753L269.555 115.903L255.427 130.112Z" fill="#365889"/>
<path fill-rule="evenodd" clip-rule="evenodd" d="M255.664 142.931H268.173V130.35H255.664V142.931ZM254.046 144.558H269.792V128.722H254.046V144.558Z" fill="#365889"/>
<path fill-rule="evenodd" clip-rule="evenodd" d="M268.41 144.32L254.282 130.112L255.427 128.961L269.555 143.169L268.41 144.32Z" fill="#365889"/>
<path fill-rule="evenodd" clip-rule="evenodd" d="M255.427 144.32L254.282 143.169L268.41 128.961L269.555 130.112L255.427 144.32Z" fill="#365889"/>
<path fill-rule="evenodd" clip-rule="evenodd" d="M283.776 29.049H296.284V16.4682H283.776V29.049ZM282.157 30.6772H297.903V14.8408H282.157V30.6772Z" fill="#365889"/>
<path fill-rule="evenodd" clip-rule="evenodd" d="M283.538 30.4385L282.394 29.2873L296.521 15.0791L297.667 16.2304L283.538 30.4385Z" fill="#365889"/>
<path fill-rule="evenodd" clip-rule="evenodd" d="M296.521 30.4385L282.394 16.2304L283.538 15.0791L297.667 29.2873L296.521 30.4385Z" fill="#365889"/>
<path fill-rule="evenodd" clip-rule="evenodd" d="M269.647 29.049H282.157V16.4682H269.647V29.049ZM268.029 30.6772H283.776V14.8408H268.029V30.6772Z" fill="#365889"/>
<path fill-rule="evenodd" clip-rule="evenodd" d="M269.411 30.4385L268.266 29.2873L282.394 15.0791L283.538 16.2304L269.411 30.4385Z" fill="#365889"/>
<path fill-rule="evenodd" clip-rule="evenodd" d="M282.394 30.4385L268.266 16.2304L269.411 15.0791L283.538 29.2873L282.394 30.4385Z" fill="#365889"/>
<path fill-rule="evenodd" clip-rule="evenodd" d="M255.52 29.049H268.029V16.4682H255.52V29.049ZM253.901 30.6772H269.648V14.8408H253.901V30.6772Z" fill="#365889"/>
<path fill-rule="evenodd" clip-rule="evenodd" d="M241.393 29.049H253.901V16.4682H241.393V29.049ZM239.774 30.6772H255.52V14.8408H239.774V30.6772Z" fill="#365889"/>
<path fill-rule="evenodd" clip-rule="evenodd" d="M241.155 30.4385L240.011 29.2873L254.139 15.0791L255.283 16.2304L241.155 30.4385Z" fill="#365889"/>
<path fill-rule="evenodd" clip-rule="evenodd" d="M254.139 30.4385L240.011 16.2304L241.155 15.0791L255.283 29.2873L254.139 30.4385Z" fill="#365889"/>
<path fill-rule="evenodd" clip-rule="evenodd" d="M227.264 29.049H239.774V16.4682H227.264V29.049ZM225.646 30.6772H241.393V14.8408H225.646V30.6772Z" fill="#365889"/>
<path fill-rule="evenodd" clip-rule="evenodd" d="M227.028 30.4385L225.883 29.2873L240.011 15.0791L241.155 16.2304L227.028 30.4385Z" fill="#365889"/>
<path fill-rule="evenodd" clip-rule="evenodd" d="M240.011 30.4385L225.883 16.2304L227.028 15.0791L241.155 29.2873L240.011 30.4385Z" fill="#365889"/>
<path fill-rule="evenodd" clip-rule="evenodd" d="M213.137 29.049H225.646V16.4682H213.137V29.049ZM211.518 30.6772H227.264V14.8408H211.518V30.6772Z" fill="#365889"/>
<path fill-rule="evenodd" clip-rule="evenodd" d="M212.328 30.6774H198.199C197.872 30.6774 197.577 30.4792 197.452 30.1745C197.327 29.8707 197.396 29.5201 197.628 29.2873L211.755 15.0791L212.9 16.2304L200.153 29.0492H211.992L225.883 15.0791L227.028 16.2304L212.9 30.4385C212.748 30.5909 212.542 30.6774 212.328 30.6774Z" fill="#365889"/>
<path fill-rule="evenodd" clip-rule="evenodd" d="M225.883 30.4385L211.755 16.2304L212.9 15.0791L227.028 29.2873L225.883 30.4385Z" fill="#365889"/>
<path fill-rule="evenodd" clip-rule="evenodd" d="M255.506 158.749H268.365V146.168H255.506V158.749ZM253.843 160.377H270.029V144.541H253.843V160.377Z" fill="#365889"/>
<path fill-rule="evenodd" clip-rule="evenodd" d="M268.609 160.139L254.087 145.931L255.263 144.779L269.785 158.987L268.609 160.139Z" fill="#365889"/>
<path fill-rule="evenodd" clip-rule="evenodd" d="M255.263 160.139L254.087 158.987L268.609 144.779L269.785 145.931L255.263 160.139Z" fill="#365889"/>
<path fill-rule="evenodd" clip-rule="evenodd" d="M255.506 215.583H268.365V203.002H255.506V215.583ZM253.843 217.211H270.029V201.375H253.843V217.211Z" fill="#365889"/>
<path fill-rule="evenodd" clip-rule="evenodd" d="M268.609 216.972L254.087 202.764L255.263 201.612L269.785 215.82L268.609 216.972Z" fill="#365889"/>
<path fill-rule="evenodd" clip-rule="evenodd" d="M255.263 216.972L254.087 215.82L268.609 201.612L269.785 202.764L255.263 216.972Z" fill="#365889"/>
<path fill-rule="evenodd" clip-rule="evenodd" d="M255.506 171.611H268.365V159.031H255.506V171.611ZM253.843 173.239H270.029V157.402H253.843V173.239Z" fill="#365889"/>
<path fill-rule="evenodd" clip-rule="evenodd" d="M268.609 173.001L254.087 158.792L255.263 157.642L269.785 171.85L268.609 173.001Z" fill="#365889"/>
<path fill-rule="evenodd" clip-rule="evenodd" d="M255.263 173.001L254.087 171.85L268.609 157.642L269.785 158.792L255.263 173.001Z" fill="#365889"/>
<path fill-rule="evenodd" clip-rule="evenodd" d="M255.506 185.819H268.365V173.239H255.506V185.819ZM253.843 187.447H270.029V171.611H253.843V187.447Z" fill="#365889"/>
<path fill-rule="evenodd" clip-rule="evenodd" d="M268.609 187.209L254.087 173.001L255.263 171.85L269.785 186.058L268.609 187.209Z" fill="#365889"/>
<path fill-rule="evenodd" clip-rule="evenodd" d="M255.263 187.209L254.087 186.058L268.609 171.85L269.785 173.001L255.263 187.209Z" fill="#365889"/>
<path fill-rule="evenodd" clip-rule="evenodd" d="M255.506 200.028H268.365V187.447H255.506V200.028ZM253.843 201.655H270.029V185.819H253.843V201.655Z" fill="#365889"/>
<path fill-rule="evenodd" clip-rule="evenodd" d="M268.609 201.417L254.087 187.209L255.263 186.058L269.785 200.266L268.609 201.417Z" fill="#365889"/>
<path fill-rule="evenodd" clip-rule="evenodd" d="M255.263 201.417L254.087 200.266L268.609 186.058L269.785 187.209L255.263 201.417Z" fill="#365889"/>
<path fill-rule="evenodd" clip-rule="evenodd" d="M89.3919 87.022C91.1151 87.022 91.1185 84.3291 89.3919 84.3291C87.6688 84.3291 87.6662 87.022 89.3919 87.022Z" fill="#355889"/>
<path fill-rule="evenodd" clip-rule="evenodd" d="M234.59 58.8941C236.313 58.8941 236.316 56.2012 234.59 56.2012C232.867 56.2012 232.864 58.8941 234.59 58.8941Z" fill="#355889"/>
<path fill-rule="evenodd" clip-rule="evenodd" d="M294.692 155.248C294.891 155.248 295.089 155.248 295.288 155.248C295.987 155.248 296.659 154.629 296.626 153.901C296.594 153.172 296.038 152.555 295.288 152.555C295.089 152.555 294.891 152.555 294.692 152.555C293.992 152.555 293.321 153.174 293.354 153.901C293.386 154.63 293.942 155.248 294.692 155.248Z" fill="#355889"/>
<path fill-rule="evenodd" clip-rule="evenodd" d="M36.4305 174.998C38.1536 174.998 38.1562 172.305 36.4305 172.305C34.7074 172.305 34.7048 174.998 36.4305 174.998Z" fill="#355889"/>
<path fill-rule="evenodd" clip-rule="evenodd" d="M164.371 45.728C166.095 45.728 166.097 43.0342 164.371 43.0342C162.648 43.0342 162.646 45.728 164.371 45.728Z" fill="#355889"/>
</g>
<defs>
<clipPath id="clip0_2707_657">
<rect width="346" height="219" fill="white"/>
</clipPath>
</defs>
</svg>
