<svg width="35" height="34" viewBox="0 0 35 34" fill="none" xmlns="http://www.w3.org/2000/svg">
<g id="Group 1743">
<path id="Vector" d="M25.3755 6.06247L21.5792 8.32891L19.936 7.64898L18.9161 3.39941H15.2332L14.1566 7.64898L12.5135 8.32891L8.77385 6.11914L6.16745 8.72554L8.37722 12.4652L7.69729 14.1083L3.44772 15.1282V18.8112L7.69729 19.8877L8.37722 21.5309L6.16745 25.2705L8.77385 27.8769L12.5135 25.6671L14.1566 26.3471L15.2332 30.5966H18.9161L19.9927 26.3471L21.6359 25.6671L25.3755 27.8769L27.9819 25.2705L25.7154 21.5309L26.3954 19.8877L30.6449 18.8112V15.1282L26.3954 14.0517L25.7154 12.4652L27.9252 8.72554L25.3755 6.06247ZM25.5455 15.0149L29.5117 16.0348V17.9613L25.5455 18.9812L24.4122 21.6442L26.5087 25.1572L25.1488 26.517L21.6359 24.4206L21.5792 24.4773V12.4652C21.5792 11.5019 20.8426 10.7653 19.8794 10.7653H14.3833C13.7033 10.7653 13.1367 11.162 12.8534 11.7852L9.90706 18.1312H12.0602L12.8534 20.851C13.0801 21.5876 13.7033 22.0975 14.4966 22.0975H14.7799V24.3639H15.9131V20.9643H14.4966C14.2699 20.9643 14.0433 20.7943 13.93 20.5677L12.9667 16.998H11.7202L13.8733 12.2385C13.9866 12.0119 14.1566 11.8985 14.3833 11.8985H19.8794C20.2193 11.8985 20.446 12.1252 20.446 12.4652V24.9305L19.0295 25.4972L18.0096 29.4634H16.0831L15.0632 25.4972L12.4001 24.3639L8.88717 26.4604L7.52731 25.1005L9.62376 21.5876L8.49054 18.9245L4.52428 17.9046V15.9781L8.49054 14.9582L9.62376 12.2952L7.52731 8.7822L8.88717 7.42234L12.4001 9.51879L15.0632 8.38557L16.0831 4.41931H18.0096L19.0295 8.38557L21.6925 9.51879L25.2055 7.42234L26.5654 8.7822L24.4689 12.2952L25.5455 15.0149Z" fill="white"/>
<path id="Vector_2" d="M17.0463 16.4319H18.1795V15.2987H19.3128V14.1654H18.1795V13.0322H17.0463V14.1654H15.9131V15.2987H17.0463V16.4319Z" fill="white"/>
<path id="Vector_3" d="M1.18129 1.92647L4.24097 4.98616C4.58094 5.32612 4.97757 5.4961 5.43085 5.4961C5.82748 5.4961 6.22411 5.32612 6.56407 5.09948C12.2302 0.113322 20.6726 -0.169983 26.7353 4.41955L27.4153 3.51297C20.9559 -1.41652 11.8902 -1.13322 5.82748 4.24957C5.60084 4.41955 5.26087 4.41955 5.09089 4.1929L1.97454 1.13322H4.01433V0H0.0480709V3.96626H1.18129V1.92647Z" fill="white"/>
<path id="Vector_4" d="M5.03425 29.8042C5.65752 29.181 5.71418 28.1611 5.09091 27.4811C0.0480926 21.7017 -0.178551 13.1459 4.58096 7.13989L3.67439 6.45996C-1.42509 12.9193 -1.19845 22.0984 4.241 28.2177C4.41098 28.4444 4.41098 28.7843 4.241 29.011L1.18131 32.0707V30.0309H0.0480927V33.9971H4.01435V32.8639H1.97456L5.03425 29.8042Z" fill="white"/>
<path id="Vector_5" d="M30.0784 33.9966H34.0446V30.0303H32.9114V32.0701L29.8517 29.0104C29.2284 28.3872 28.2085 28.3305 27.5286 28.9538C21.8625 33.9399 13.4201 34.2232 7.41401 29.6337L6.73408 30.5403C13.1368 35.4131 22.1458 35.1298 28.2652 29.747C28.4919 29.577 28.8318 29.577 29.0585 29.747L32.1181 32.8067H30.0784V33.9966Z" fill="white"/>
<path id="Vector_6" d="M29.5117 26.8573L30.4183 27.5372C35.5178 21.0778 35.2911 11.8988 29.8517 5.77941C29.6817 5.55276 29.6817 5.2128 29.8517 4.98616L32.9114 1.92647V3.96626H34.0446V0H30.0783V1.13322H32.1181L29.0584 4.1929C28.3785 4.81617 28.3785 5.83607 28.9451 6.516C34.0446 12.2954 34.2712 20.8512 29.5117 26.8573Z" fill="white"/>
</g>
</svg>
