<svg width="43" height="20" viewBox="0 0 43 20" fill="none" xmlns="http://www.w3.org/2000/svg">
<path id="Vector" d="M9.85417 20C7.10694 20 4.77778 19.0303 2.86667 17.0909C0.955555 15.1515 0 12.7879 0 10C0 7.21212 0.955555 4.84848 2.86667 2.90909C4.77778 0.969697 7.10694 0 9.85417 0C10.959 0 12.0191 0.19697 13.0344 0.590909C14.0497 0.984848 14.9604 1.54545 15.7667 2.27273L18.8125 5.09091L16.125 7.54545L13.3479 5C12.8701 4.57576 12.3326 4.24242 11.7354 4C11.1382 3.75758 10.5111 3.63636 9.85417 3.63636C8.12222 3.63636 6.6441 4.25758 5.41979 5.5C4.19549 6.74242 3.58333 8.24242 3.58333 10C3.58333 11.7576 4.19549 13.2576 5.41979 14.5C6.6441 15.7424 8.12222 16.3636 9.85417 16.3636C10.5111 16.3636 11.1382 16.2424 11.7354 16C12.3326 15.7576 12.8701 15.4242 13.3479 15L27.2333 2.27273C28.0396 1.54545 28.9503 0.984848 29.9656 0.590909C30.9809 0.19697 32.041 0 33.1458 0C35.8931 0 38.2222 0.969697 40.1333 2.90909C42.0444 4.84848 43 7.21212 43 10C43 12.7879 42.0444 15.1515 40.1333 17.0909C38.2222 19.0303 35.8931 20 33.1458 20C32.041 20 30.9809 19.803 29.9656 19.4091C28.9503 19.0152 28.0396 18.4545 27.2333 17.7273L24.1875 14.9091L26.875 12.4545L29.6521 15C30.1299 15.4242 30.6674 15.7576 31.2646 16C31.8618 16.2424 32.4889 16.3636 33.1458 16.3636C34.8778 16.3636 36.3559 15.7424 37.5802 14.5C38.8045 13.2576 39.4167 11.7576 39.4167 10C39.4167 8.24242 38.8045 6.74242 37.5802 5.5C36.3559 4.25758 34.8778 3.63636 33.1458 3.63636C32.4889 3.63636 31.8618 3.75758 31.2646 4C30.6674 4.24242 30.1299 4.57576 29.6521 5L15.7667 17.7273C14.9604 18.4545 14.0497 19.0152 13.0344 19.4091C12.0191 19.803 10.959 20 9.85417 20Z" fill="#0904F2"/>
</svg>
