<svg width="34" height="34" viewBox="0 0 34 34" fill="none" xmlns="http://www.w3.org/2000/svg">
<g id="Group 1754">
<path id="Vector" d="M24.3973 20.9705C24.058 19.8559 23.4719 18.8319 22.6827 17.9749C21.8934 17.1178 20.9211 16.4494 19.8382 16.0197C20.6063 15.4281 21.1701 14.611 21.4504 13.6829C21.7307 12.7548 21.7134 11.7621 21.401 10.8444C21.0886 9.92652 20.4967 9.12952 19.7084 8.56512C18.9201 8.00072 17.9749 7.69727 17.0053 7.69727C16.0358 7.69727 15.0906 8.00072 14.3022 8.56512C13.514 9.12952 12.9221 9.92652 12.6097 10.8444C12.2972 11.7621 12.2799 12.7548 12.5603 13.6829C12.8405 14.611 13.4043 15.4281 14.1725 16.0197C13.087 16.448 12.1123 17.1158 11.3209 17.9733C10.5295 18.8308 9.94188 19.8559 9.6018 20.9721C9.4906 21.3569 9.47963 21.7638 9.56981 22.1541C9.66006 22.5444 9.84846 22.9051 10.1172 23.2022C10.9843 24.1688 12.0453 24.9419 13.2309 25.4712C14.4167 26.0004 15.7007 26.2739 16.9992 26.2739C18.2976 26.2739 19.5816 26.0004 20.7674 25.4712C21.9531 24.9419 23.014 24.1688 23.8811 23.2022C24.1502 22.9051 24.3389 22.5441 24.4293 22.1534C24.5196 21.7629 24.5086 21.3557 24.3973 20.9705ZM16.9999 9.27217C17.6112 9.27217 18.2089 9.45345 18.7172 9.79307C19.2255 10.1327 19.6216 10.6155 19.8556 11.1803C20.0895 11.7451 20.1507 12.3665 20.0314 12.9661C19.9122 13.5657 19.6178 14.1164 19.1855 14.5487C18.7533 14.9809 18.2025 15.2754 17.603 15.3946C17.0033 15.5139 16.3819 15.4527 15.8171 15.2187C15.2523 14.9848 14.7695 14.5886 14.4299 14.0803C14.0903 13.572 13.909 12.9744 13.909 12.3631C13.909 11.5433 14.2346 10.7571 14.8143 10.1775C15.394 9.5978 16.1801 9.27217 16.9999 9.27217ZM22.7336 22.1667C22.0113 22.9722 21.1274 23.6165 20.1395 24.0576C19.1516 24.4987 18.0818 24.7266 16.9999 24.7266C15.918 24.7266 14.8483 24.4987 13.8603 24.0576C12.8724 23.6165 11.9885 22.9722 11.2663 22.1667C11.1743 22.0667 11.1092 21.945 11.0772 21.8129C11.0452 21.6808 11.0472 21.5428 11.0831 21.4118C11.4625 20.1371 12.2434 19.0191 13.3095 18.2241C14.3757 17.429 15.67 16.9996 16.9999 16.9996C18.3298 16.9996 19.6242 17.429 20.6903 18.2241C21.7565 19.0191 22.5373 20.1371 22.9167 21.4118C22.9527 21.5428 22.9547 21.6808 22.9227 21.8129C22.8906 21.945 22.8255 22.0667 22.7336 22.1667Z" fill="#00D8FF"/>
<path id="Vector_2" d="M15.6143 3.25072L16.2271 2.63794V5.40895C16.2271 5.6139 16.3086 5.81044 16.4534 5.95536C16.5983 6.10027 16.7949 6.18168 16.9998 6.18168C17.2048 6.18168 17.4014 6.10027 17.5462 5.95536C17.6911 5.81044 17.7726 5.6139 17.7726 5.40895V2.63794L18.3854 3.25072C18.5311 3.39148 18.7263 3.46936 18.9289 3.4676C19.1315 3.46584 19.3253 3.38458 19.4686 3.2413C19.6118 3.09803 19.6931 2.90422 19.6949 2.70161C19.6966 2.499 19.6188 2.30381 19.478 2.15807L17.5462 0.226248C17.4013 0.081384 17.2048 0 16.9998 0C16.7949 0 16.5984 0.081384 16.4535 0.226248L14.5217 2.15807C14.3809 2.30381 14.303 2.499 14.3048 2.70161C14.3066 2.90422 14.3879 3.09803 14.5311 3.2413C14.6744 3.38458 14.8682 3.46584 15.0708 3.4676C15.2734 3.46936 15.4686 3.39148 15.6143 3.25072Z" fill="#00D8FF"/>
<path id="Vector_3" d="M18.3854 30.7493L17.7726 31.3621V28.5911C17.7726 28.3862 17.6911 28.1896 17.5462 28.0447C17.4014 27.8998 17.2048 27.8184 16.9998 27.8184C16.7949 27.8184 16.5983 27.8998 16.4534 28.0447C16.3086 28.1896 16.2271 28.3862 16.2271 28.5911V31.3621L15.6143 30.7493C15.4686 30.6085 15.2734 30.5306 15.0708 30.5324C14.8682 30.5342 14.6744 30.6155 14.5311 30.7588C14.3879 30.902 14.3066 31.0958 14.3048 31.2984C14.303 31.501 14.3809 31.6962 14.5217 31.842L16.4535 33.7738C16.5984 33.9187 16.7949 34.0001 16.9998 34.0001C17.2048 34.0001 17.4013 33.9187 17.5462 33.7738L19.478 31.842C19.6188 31.6962 19.6966 31.501 19.6949 31.2984C19.6931 31.0958 19.6118 30.902 19.4686 30.7588C19.3253 30.6155 19.1315 30.5342 18.9289 30.5324C18.7263 30.5306 18.5311 30.6085 18.3854 30.7493Z" fill="#00D8FF"/>
<path id="Vector_4" d="M33.7736 16.4534L31.8417 14.5216C31.696 14.3808 31.5008 14.3029 31.2982 14.3047C31.0956 14.3065 30.9018 14.3878 30.7585 14.5311C30.6152 14.6743 30.534 14.8681 30.5322 15.0707C30.5304 15.2733 30.6083 15.4685 30.7491 15.6143L31.3619 16.227H28.5908C28.3859 16.227 28.1893 16.3085 28.0444 16.4534C27.8996 16.5983 27.8181 16.7948 27.8181 16.9998C27.8181 17.2047 27.8996 17.4013 28.0444 17.5462C28.1893 17.6911 28.3859 17.7725 28.5908 17.7725H31.3619L30.7491 18.3853C30.6753 18.4565 30.6164 18.5418 30.5759 18.6361C30.5354 18.7304 30.5141 18.8318 30.5132 18.9344C30.5123 19.037 30.5319 19.1388 30.5707 19.2337C30.6096 19.3286 30.6669 19.4149 30.7395 19.4875C30.8121 19.5601 30.8984 19.6174 30.9933 19.6563C31.0882 19.6951 31.19 19.7147 31.2926 19.7138C31.3952 19.7129 31.4966 19.6916 31.5909 19.6511C31.6852 19.6106 31.7705 19.5517 31.8417 19.4779L33.7736 17.5461C33.9184 17.4012 33.9998 17.2047 33.9998 16.9998C33.9998 16.7948 33.9184 16.5983 33.7736 16.4534Z" fill="#00D8FF"/>
<path id="Vector_5" d="M2.63794 17.7725H5.40895C5.6139 17.7725 5.81044 17.6911 5.95536 17.5462C6.10027 17.4013 6.18168 17.2047 6.18168 16.9998C6.18168 16.7948 6.10027 16.5983 5.95536 16.4534C5.81044 16.3085 5.6139 16.227 5.40895 16.227H2.63794L3.25072 15.6143C3.39148 15.4685 3.46936 15.2733 3.4676 15.0707C3.46584 14.8681 3.38458 14.6743 3.2413 14.5311C3.09803 14.3878 2.90422 14.3065 2.70161 14.3047C2.499 14.3029 2.30381 14.3808 2.15807 14.5216L0.226248 16.4534C0.081384 16.5983 0 16.7948 0 16.9998C0 17.2047 0.081384 17.4012 0.226248 17.5461L2.15807 19.4779C2.22936 19.5517 2.31462 19.6106 2.4089 19.6511C2.50318 19.6916 2.60457 19.7129 2.70718 19.7138C2.80978 19.7147 2.91153 19.6951 3.00649 19.6563C3.10146 19.6174 3.18774 19.5601 3.2603 19.4875C3.33285 19.4149 3.39022 19.3286 3.42908 19.2337C3.46793 19.1388 3.48748 19.037 3.48659 18.9344C3.4857 18.8318 3.46438 18.7304 3.42389 18.6361C3.38339 18.5418 3.32452 18.4565 3.25072 18.3853L2.63794 17.7725Z" fill="#00D8FF"/>
<path id="Vector_6" d="M5.52485 9.02979C5.7298 9.02979 5.92635 8.94835 6.07126 8.80346C6.21614 8.65857 6.29759 8.46199 6.29759 8.25706V7.39006L8.25801 9.34893C8.40475 9.484 8.59793 9.55702 8.7973 9.55293C8.99666 9.54883 9.18668 9.46777 9.3277 9.32675C9.46872 9.1858 9.54971 8.99571 9.55388 8.79635C9.55797 8.59698 9.48487 8.4038 9.34988 8.25706L7.39023 6.29741H8.25724C8.46216 6.29741 8.65875 6.21597 8.80363 6.07109C8.94852 5.92617 9.02997 5.72963 9.02997 5.52468C9.02997 5.31974 8.94852 5.1232 8.80363 4.97828C8.65875 4.83337 8.46216 4.75195 8.25724 4.75195H5.52485C5.31992 4.75195 5.12336 4.83337 4.97845 4.97828C4.83354 5.1232 4.75212 5.31974 4.75212 5.52468V8.25706C4.75212 8.46199 4.83354 8.65857 4.97845 8.80346C5.12336 8.94835 5.31992 9.02979 5.52485 9.02979Z" fill="#00D8FF"/>
<path id="Vector_7" d="M28.4749 24.9706C28.27 24.9706 28.0734 25.052 27.9285 25.1969C27.7836 25.3418 27.7022 25.5384 27.7022 25.7433V26.6111L25.7418 24.6514C25.595 24.5164 25.4018 24.4433 25.2025 24.4474C25.0031 24.4515 24.813 24.5326 24.6721 24.6736C24.531 24.8146 24.45 25.0046 24.4459 25.204C24.4418 25.4034 24.5149 25.5966 24.6499 25.7433L26.6095 27.7029H25.7418C25.5368 27.7029 25.3402 27.7844 25.1954 27.9293C25.0505 28.0742 24.969 28.2707 24.969 28.4757C24.969 28.6806 25.0505 28.8772 25.1954 29.0221C25.3402 29.167 25.5368 29.2484 25.7418 29.2484H28.4749C28.6798 29.2484 28.8764 29.167 29.0213 29.0221C29.1662 28.8772 29.2476 28.6806 29.2476 28.4757V25.7433C29.2476 25.5384 29.1662 25.3418 29.0213 25.1969C28.8764 25.052 28.6798 24.9706 28.4749 24.9706Z" fill="#00D8FF"/>
<path id="Vector_8" d="M25.1955 9.57611C25.4004 9.57603 25.5969 9.49467 25.7418 9.3497L27.7022 7.39006V8.25706C27.7022 8.46199 27.7837 8.65857 27.9285 8.80346C28.0734 8.94835 28.27 9.02979 28.4749 9.02979C28.6799 9.02979 28.8764 8.94835 29.0213 8.80346C29.1662 8.65857 29.2477 8.46199 29.2477 8.25706V5.52468C29.2477 5.31974 29.1662 5.1232 29.0213 4.97828C28.8764 4.83337 28.6799 4.75195 28.4749 4.75195H25.7418C25.5369 4.75195 25.3403 4.83337 25.1954 4.97828C25.0505 5.1232 24.9691 5.31974 24.9691 5.52468C24.9691 5.72963 25.0505 5.92617 25.1954 6.07109C25.3403 6.21597 25.5369 6.29741 25.7418 6.29741H26.6088L24.6499 8.25706C24.5419 8.36517 24.4683 8.50279 24.4385 8.6527C24.4087 8.80253 24.424 8.95793 24.4825 9.0991C24.541 9.24028 24.64 9.36091 24.767 9.44583C24.894 9.53075 25.0426 9.57611 25.1955 9.57611Z" fill="#00D8FF"/>
<path id="Vector_9" d="M8.25801 24.6514L6.29759 26.6111V25.7433C6.29759 25.5384 6.21614 25.3418 6.07126 25.1969C5.92635 25.052 5.7298 24.9706 5.52485 24.9706C5.31992 24.9706 5.12336 25.052 4.97845 25.1969C4.83354 25.3418 4.75212 25.5384 4.75212 25.7433V28.4757C4.75212 28.6806 4.83354 28.8772 4.97845 29.0221C5.12336 29.167 5.31992 29.2484 5.52485 29.2484H8.25801C8.46294 29.2484 8.65952 29.167 8.80441 29.0221C8.94929 28.8772 9.03074 28.6806 9.03074 28.4757C9.03074 28.2707 8.94929 28.0742 8.80441 27.9293C8.65952 27.7844 8.46294 27.7029 8.25801 27.7029H7.391L9.34988 25.7433C9.48487 25.5966 9.55797 25.4034 9.55388 25.204C9.54971 25.0046 9.46872 24.8146 9.3277 24.6736C9.18668 24.5326 8.99666 24.4515 8.7973 24.4474C8.59793 24.4433 8.40475 24.5164 8.25801 24.6514Z" fill="#00D8FF"/>
</g>
</svg>
