<svg width="27" height="21" viewBox="0 0 27 21" fill="none" xmlns="http://www.w3.org/2000/svg">
<path id="User Experience Design" d="M0 20.0601V18.8287H2.98507V2.07498C2.98507 1.54016 3.18719 1.07063 3.59142 0.666402C3.99565 0.262173 4.46517 0.0600586 5 0.0600586H24.4776V0.880954H5C4.65174 0.880954 4.36567 0.992894 4.14179 1.21677C3.91791 1.44066 3.80597 1.72673 3.80597 2.07498V18.8287H11.7537V20.0601H0ZM17.0149 20.0601C16.7295 20.0601 16.4902 19.9635 16.2971 19.7704C16.104 19.5773 16.0075 19.338 16.0075 19.0526V5.39588C16.0075 5.11043 16.104 4.87117 16.2971 4.67808C16.4902 4.48497 16.7295 4.38842 17.0149 4.38842H25C25.2854 4.38842 25.5247 4.48497 25.7178 4.67808C25.9109 4.87117 26.0075 5.11043 26.0075 5.39588V19.0526C26.0075 19.338 25.9109 19.5773 25.7178 19.7704C25.5247 19.9635 25.2854 20.0601 25 20.0601H17.0149ZM16.8284 18.8287H25.1866V5.20931H16.8284V18.8287Z" fill="#0904F2"/>
</svg>
