<svg width="23" height="34" viewBox="0 0 23 34" fill="none" xmlns="http://www.w3.org/2000/svg">
<g id="Group 1183">
<path id="Vector" d="M11.3247 17.0067C11.3247 13.8831 13.857 11.3379 16.9935 11.3379C20.1171 11.3379 22.6622 13.8702 22.6622 17.0067C22.6622 20.1303 20.1299 22.6754 16.9935 22.6754C13.8699 22.6754 11.3247 20.1303 11.3247 17.0067Z" fill="#1ABCFE"/>
<path id="Vector_2" d="M0 28.3309C0 25.2073 2.53231 22.6621 5.66877 22.6621H11.3375V28.3309C11.3375 31.4545 8.80523 33.9996 5.66877 33.9996C2.53231 33.9996 0 31.4673 0 28.3309Z" fill="#0ACF83"/>
<path id="Vector_3" d="M11.3247 0.0128544V11.3375H16.9935C20.1171 11.3375 22.6622 8.80523 22.6622 5.66877C22.6622 2.54516 20.1299 0 16.9935 0H11.3247V0.0128544Z" fill="#FF7262"/>
<path id="Vector_4" d="M0 5.68244C0 8.80605 2.53231 11.3512 5.66877 11.3512H11.3375V0.0136719H5.66877C2.53231 0.0136719 0 2.54598 0 5.68244Z" fill="#F24E1E"/>
<path id="Vector_5" d="M0 17.0067C0 20.1303 2.53231 22.6754 5.66877 22.6754H11.3375V11.3379H5.66877C2.53231 11.3379 0 13.8831 0 17.0067Z" fill="#A259FF"/>
</g>
</svg>
