<svg width="148" height="36" viewBox="0 0 148 36" fill="none" xmlns="http://www.w3.org/2000/svg">
<g id="Asset 1 1" clip-path="url(#clip0_93_834)">
<g id="Layer 1">
<g id="Group">
<g id="Group_2">
<path id="Vector" d="M2.88573 21.4187H0V1.21289H2.88573V21.4187ZM14.7493 12.4123H2.59944V9.90156H14.7521V12.4123H14.7493ZM14.4887 1.21289H17.3745V21.4187H14.4887V1.21289Z" fill="white"/>
<path id="Vector_2" d="M25.0553 21.5903C23.9188 21.5903 22.9225 21.3985 22.0665 21.012C21.2105 20.6284 20.5521 20.093 20.0883 19.4088C19.6274 18.7274 19.3955 17.9516 19.3955 17.0842C19.3955 16.2167 19.593 15.5068 19.9881 14.834C20.3832 14.1612 21.0273 13.6202 21.9234 13.2165C22.8194 12.8128 24.0247 12.6096 25.5449 12.6096H30.3945V14.6021H25.6594C24.2738 14.6021 23.3405 14.834 22.8595 15.2949C22.3786 15.7558 22.1381 16.3141 22.1381 16.9697C22.1381 17.7197 22.4358 18.3209 23.0342 18.7732C23.6296 19.2256 24.457 19.4517 25.5162 19.4517C26.5755 19.4517 27.4658 19.2198 28.2445 18.7589C29.0232 18.298 29.5872 17.6224 29.9336 16.7378L30.4832 18.6444C30.1168 19.5491 29.4726 20.2648 28.548 20.7944C27.6233 21.324 26.461 21.5874 25.0553 21.5874V21.5903ZM30.0767 21.4156V18.1835L29.9336 17.5766V12.0628C29.9336 10.889 29.59 9.97866 28.9087 9.33452C28.2245 8.69038 27.1996 8.36689 25.834 8.36689C24.9293 8.36689 24.0447 8.51575 23.1773 8.81349C22.3127 9.11122 21.5798 9.51202 20.9844 10.0101L19.8307 7.93174C20.6208 7.29619 21.5684 6.81237 22.6734 6.47456C23.7814 6.13675 24.9379 5.9707 26.1518 5.9707C28.2474 5.9707 29.8649 6.48029 31.0014 7.49945C32.1379 8.51862 32.7048 10.0789 32.7048 12.1744V21.4128H30.0767V21.4156Z" fill="white"/>
<path id="Vector_3" d="M35.3901 27.0174V6.11879H38.0468V10.247L37.8722 13.7969L38.1613 17.3468V27.0174H35.3901ZM43.5005 21.5895C42.2294 21.5895 41.07 21.2975 40.0222 20.7077C38.9744 20.1209 38.1356 19.2506 37.5115 18.0968C36.8845 16.9431 36.5725 15.5003 36.5725 13.7683C36.5725 12.0362 36.8759 10.5934 37.4829 9.43967C38.0898 8.28595 38.9171 7.41852 39.9649 6.84309C41.0127 6.26766 42.1922 5.97852 43.5005 5.97852C45.0006 5.97852 46.329 6.30488 47.4827 6.96046C48.6364 7.61605 49.5525 8.52357 50.2253 9.68873C50.898 10.8539 51.2359 12.2137 51.2359 13.774C51.2359 15.3342 50.898 16.6998 50.2253 17.8735C49.5525 19.0473 48.6393 19.9605 47.4827 20.6161C46.329 21.2717 45.0006 21.5981 43.5005 21.5981V21.5895ZM43.2686 19.1647C44.2506 19.1647 45.1295 18.9442 45.911 18.5005C46.6897 18.0568 47.3052 17.4269 47.7575 16.611C48.2099 15.7923 48.436 14.8447 48.436 13.7683C48.436 12.6918 48.2099 11.7242 47.7575 10.9255C47.3052 10.1267 46.6897 9.50551 45.911 9.06464C45.1323 8.6209 44.2506 8.40046 43.2686 8.40046C42.2867 8.40046 41.4364 8.6209 40.6577 9.06464C39.879 9.50838 39.2635 10.1296 38.8112 10.9255C38.3589 11.7242 38.1327 12.6718 38.1327 13.7683C38.1327 14.8647 38.3589 15.7951 38.8112 16.611C39.2635 17.4298 39.879 18.0596 40.6577 18.5005C41.4364 18.9442 42.3067 19.1647 43.2686 19.1647Z" fill="white"/>
<path id="Vector_4" d="M52.6216 27.0174V6.11879H55.2783V10.247L55.1036 13.7969L55.3928 17.3468V27.0174H52.6216ZM60.732 21.5895C59.4609 21.5895 58.3014 21.2975 57.2536 20.7077C56.2058 20.1209 55.367 19.2506 54.7429 18.0968C54.116 16.9431 53.8039 15.5003 53.8039 13.7683C53.8039 12.0362 54.1074 10.5934 54.7143 9.43967C55.3212 8.28595 56.1486 7.41852 57.1964 6.84309C58.2442 6.26766 59.4236 5.97852 60.732 5.97852C62.2321 5.97852 63.5604 6.30488 64.7141 6.96046C65.8679 7.61605 66.784 8.52357 67.4567 9.68873C68.1295 10.8539 68.4673 12.2137 68.4673 13.774C68.4673 15.3342 68.1295 16.6998 67.4567 17.8735C66.784 19.0473 65.8707 19.9605 64.7141 20.6161C63.5604 21.2717 62.2321 21.5981 60.732 21.5981V21.5895ZM60.5001 19.1647C61.482 19.1647 62.3609 18.9442 63.1425 18.5005C63.9211 18.0568 64.5367 17.4269 64.989 16.611C65.4413 15.7923 65.6675 14.8447 65.6675 13.7683C65.6675 12.6918 65.4413 11.7242 64.989 10.9255C64.5367 10.1267 63.9211 9.50551 63.1425 9.06464C62.3638 8.6209 61.482 8.40046 60.5001 8.40046C59.5181 8.40046 58.6679 8.6209 57.8892 9.06464C57.1105 9.50838 56.495 10.1296 56.0427 10.9255C55.5903 11.7242 55.3642 12.6718 55.3642 13.7683C55.3642 14.8647 55.5903 15.7951 56.0427 16.611C56.495 17.4298 57.1105 18.0596 57.8892 18.5005C58.6679 18.9442 59.5382 19.1647 60.5001 19.1647Z" fill="white"/>
<path id="Vector_5" d="M70.0848 27.1904C69.3548 27.1904 68.642 27.0702 67.9492 26.8297C67.2564 26.5892 66.6609 26.2371 66.1599 25.7762L67.3423 23.6978C67.7259 24.0642 68.1496 24.3419 68.6133 24.5337C69.0743 24.7255 69.5667 24.8229 70.0848 24.8229C70.7576 24.8229 71.3159 24.6482 71.7596 24.3018C72.2033 23.9554 72.6156 23.3399 72.9992 22.4553L73.9525 20.3483L74.2417 20.0019L80.245 6.11719H82.959L75.5414 22.9449C75.0976 24.0213 74.6024 24.8687 74.0556 25.4842C73.5059 26.0997 72.9047 26.5377 72.252 26.7982C71.5964 27.0587 70.875 27.1876 70.0877 27.1876L70.0848 27.1904ZM73.7206 21.9085L66.7353 6.12005H69.6211L75.5671 19.7442L73.7206 21.9085Z" fill="white"/>
</g>
<g id="Group_3">
<path id="Vector_6" d="M85.5783 21.4187V1.21289H86.3856L95.9102 17.7514H95.4779L104.945 1.21289H105.753L105.781 21.4187H104.828L104.799 2.65575H105.117L95.9389 18.6189H95.4207L86.1824 2.65575H86.5288V21.4187H85.5754H85.5783Z" fill="white"/>
<path id="Vector_7" d="M110.691 2.51082C110.442 2.51082 110.218 2.41349 110.027 2.22168C109.835 2.02987 109.738 1.81802 109.738 1.58613C109.738 1.31703 109.835 1.09086 110.027 0.907644C110.218 0.724423 110.439 0.632812 110.691 0.632812C110.96 0.632812 111.186 0.724423 111.369 0.907644C111.553 1.09086 111.644 1.30844 111.644 1.5575C111.644 1.80657 111.553 2.02987 111.369 2.22168C111.186 2.41349 110.96 2.51082 110.691 2.51082ZM110.23 21.4169V6.43862H111.183V21.4198H110.23V21.4169Z" fill="white"/>
<path id="Vector_8" d="M115.134 21.4196V0H116.087V21.4196H115.134Z" fill="white"/>
<path id="Vector_9" d="M123.997 21.5047C122.861 21.5047 121.896 21.3301 121.097 20.9866C120.299 20.6402 119.689 20.1449 119.265 19.5007C118.841 18.8566 118.63 18.1209 118.63 17.2935C118.63 16.5635 118.804 15.885 119.148 15.258C119.494 14.634 120.067 14.133 120.866 13.7579C121.664 13.3829 122.738 13.194 124.083 13.194H129.886V13.9726H124.083C122.446 13.9726 121.289 14.2818 120.605 14.8973C119.921 15.5128 119.58 16.2915 119.58 17.2363C119.58 18.2955 119.975 19.1372 120.762 19.7613C121.553 20.3882 122.649 20.7003 124.052 20.7003C125.455 20.7003 126.583 20.3882 127.487 19.7613C128.392 19.1372 129.076 18.2468 129.537 17.0903L129.855 17.7258C129.468 18.8623 128.775 19.7756 127.776 20.4684C126.777 21.1612 125.515 21.5076 123.995 21.5076L123.997 21.5047ZM129.568 21.4188V17.9262L129.54 17.4052V11.7196C129.54 10.2367 129.145 9.11156 128.358 8.34147C127.567 7.57137 126.422 7.18775 124.922 7.18775C123.826 7.18775 122.824 7.37669 121.919 7.75172C121.014 8.12675 120.236 8.61343 119.58 9.2089L119.059 8.5161C119.772 7.84333 120.645 7.30799 121.687 6.91292C122.726 6.51785 123.814 6.32031 124.948 6.32031C126.737 6.32031 128.108 6.77836 129.062 7.6916C130.015 8.60485 130.49 9.94751 130.49 11.7196V21.4188H129.566H129.568Z" fill="white"/>
<path id="Vector_10" d="M141.346 6.32031C142.577 6.32031 143.642 6.56079 144.535 7.04174C145.431 7.5227 146.127 8.22982 146.628 9.1631C147.129 10.0964 147.378 11.2472 147.378 12.6128V21.416H146.425V12.6701C146.425 10.8808 145.972 9.52381 145.068 8.59912C144.163 7.67443 142.892 7.21351 141.257 7.21351C140.006 7.21351 138.93 7.46258 138.025 7.96357C137.12 8.46457 136.428 9.17455 135.947 10.0992C135.466 11.0239 135.225 12.1004 135.225 13.3314V21.4131H134.272V6.43769H135.197V10.6518L135.082 10.3912C135.543 9.14019 136.31 8.14966 137.378 7.41677C138.446 6.68675 139.769 6.32031 141.346 6.32031Z" fill="white"/>
</g>
<path id="Vector_11" d="M50.1768 33.9499C36.4381 33.9499 24.085 31.1042 15.5366 26.5781C23.2405 32.2809 35.8856 35.9997 50.1768 35.9997C64.468 35.9997 77.1131 32.2809 84.8169 26.5781C76.2685 31.1042 63.9155 33.9499 50.1768 33.9499Z" fill="#0F52BA"/>
</g>
</g>
</g>
<defs>
<clipPath id="clip0_93_834">
<rect width="147.378" height="36" fill="white"/>
</clipPath>
</defs>
</svg>
