<svg width="93" height="23" viewBox="0 0 93 23" fill="none" xmlns="http://www.w3.org/2000/svg">
<g id="Asset 1 2">
<g id="Layer 1">
<g id="Group">
<g id="Group_2">
<path id="Vector" d="M4.68334 12.9962H3V1.43164H4.68334V12.9962ZM11.6037 7.84147H4.51634V6.4045H11.6054V7.84147H11.6037ZM11.4518 1.43164H13.1351V12.9962H11.4518V1.43164Z" fill="#0F52BA"/>
<path id="Vector_2" d="M17.6158 13.094C16.9528 13.094 16.3716 12.9842 15.8723 12.763C15.373 12.5434 14.9889 12.237 14.7183 11.8454C14.4495 11.4555 14.3142 11.0114 14.3142 10.515C14.3142 10.0185 14.4294 9.61216 14.6599 9.22711C14.8904 8.84206 15.2661 8.53238 15.7888 8.30135C16.3115 8.07032 17.0146 7.95399 17.9013 7.95399H20.7303V9.09439H17.9681C17.1599 9.09439 16.6154 9.22711 16.3349 9.49091C16.0543 9.75471 15.9141 10.0742 15.9141 10.4494C15.9141 10.8787 16.0877 11.2228 16.4368 11.4817C16.7841 11.7406 17.2667 11.87 17.8846 11.87C18.5025 11.87 19.0219 11.7373 19.4761 11.4735C19.9304 11.2097 20.2593 10.823 20.4614 10.3167L20.782 11.408C20.5683 11.9257 20.1925 12.3354 19.6531 12.6385C19.1137 12.9416 18.4357 13.0923 17.6158 13.0923V13.094ZM20.5449 12.994V11.1442L20.4614 10.7968V7.64104C20.4614 6.96925 20.261 6.4482 19.8636 6.07954C19.4644 5.71088 18.8666 5.52573 18.07 5.52573C17.5423 5.52573 17.0263 5.61093 16.5203 5.78133C16.0159 5.95174 15.5884 6.18113 15.241 6.46623L14.568 5.27667C15.029 4.91292 15.5817 4.63602 16.2263 4.44267C16.8726 4.24933 17.5473 4.1543 18.2554 4.1543C19.4778 4.1543 20.4213 4.44595 21.0843 5.02926C21.7473 5.61257 22.0779 6.50555 22.0779 7.70494V12.9924H20.5449V12.994Z" fill="#0F52BA"/>
<path id="Vector_3" d="M23.6443 16.2006V4.23947H25.194V6.60219L25.0922 8.63394L25.2608 10.6657V16.2006H23.6443ZM28.3753 13.0939C27.6339 13.0939 26.9575 12.9268 26.3463 12.5893C25.7351 12.2534 25.2458 11.7553 24.8817 11.095C24.516 10.4347 24.334 9.60885 24.334 8.61755C24.334 7.62626 24.511 6.80045 24.865 6.14013C25.2191 5.47981 25.7017 4.98335 26.3129 4.65401C26.9241 4.32467 27.6122 4.15918 28.3753 4.15918C29.2504 4.15918 30.0253 4.34597 30.6983 4.72119C31.3713 5.0964 31.9057 5.61581 32.2981 6.28268C32.6906 6.94955 32.8876 7.72784 32.8876 8.62083C32.8876 9.51381 32.6906 10.2954 32.2981 10.9672C31.9057 11.639 31.373 12.1616 30.6983 12.5369C30.0253 12.9121 29.2504 13.0989 28.3753 13.0989V13.0939ZM28.2401 11.7061C28.8129 11.7061 29.3256 11.58 29.7815 11.326C30.2357 11.072 30.5947 10.7116 30.8586 10.2446C31.1225 9.77597 31.2544 9.23363 31.2544 8.61755C31.2544 8.00147 31.1225 7.44766 30.8586 6.99052C30.5947 6.53337 30.2357 6.17782 29.7815 5.92549C29.3272 5.67152 28.8129 5.54536 28.2401 5.54536C27.6673 5.54536 27.1713 5.67152 26.7171 5.92549C26.2628 6.17946 25.9038 6.53501 25.6399 6.99052C25.3761 7.44766 25.2441 7.99 25.2441 8.61755C25.2441 9.2451 25.3761 9.77761 25.6399 10.2446C25.9038 10.7132 26.2628 11.0737 26.7171 11.326C27.1713 11.58 27.679 11.7061 28.2401 11.7061Z" fill="#0F52BA"/>
<path id="Vector_4" d="M33.696 16.2006V4.23947H35.2458V6.60219L35.1439 8.63394L35.3126 10.6657V16.2006H33.696ZM38.4271 13.0939C37.6856 13.0939 37.0093 12.9268 36.3981 12.5893C35.7869 12.2534 35.2976 11.7553 34.9335 11.095C34.5678 10.4347 34.3857 9.60885 34.3857 8.61755C34.3857 7.62626 34.5628 6.80045 34.9168 6.14013C35.2708 5.47981 35.7535 4.98335 36.3647 4.65401C36.9759 4.32467 37.6639 4.15918 38.4271 4.15918C39.3022 4.15918 40.077 4.34597 40.75 4.72119C41.423 5.0964 41.9574 5.61581 42.3499 6.28268C42.7423 6.94955 42.9394 7.72784 42.9394 8.62083C42.9394 9.51381 42.7423 10.2954 42.3499 10.9672C41.9574 11.639 41.4247 12.1616 40.75 12.5369C40.077 12.9121 39.3022 13.0989 38.4271 13.0989V13.0939ZM38.2918 11.7061C38.8646 11.7061 39.3773 11.58 39.8332 11.326C40.2875 11.072 40.6465 10.7116 40.9104 10.2446C41.1742 9.77597 41.3061 9.23363 41.3061 8.61755C41.3061 8.00147 41.1742 7.44766 40.9104 6.99052C40.6465 6.53337 40.2875 6.17782 39.8332 5.92549C39.379 5.67152 38.8646 5.54536 38.2918 5.54536C37.719 5.54536 37.223 5.67152 36.7688 5.92549C36.3146 6.17946 35.9555 6.53501 35.6917 6.99052C35.4278 7.44766 35.2959 7.99 35.2959 8.61755C35.2959 9.2451 35.4278 9.77761 35.6917 10.2446C35.9555 10.7132 36.3146 11.0737 36.7688 11.326C37.223 11.58 37.7307 11.7061 38.2918 11.7061Z" fill="#0F52BA"/>
<path id="Vector_5" d="M43.8828 16.2993C43.457 16.2993 43.0411 16.2305 42.637 16.0929C42.2329 15.9552 41.8855 15.7537 41.5933 15.4899L42.283 14.3003C42.5067 14.5101 42.7539 14.669 43.0244 14.7788C43.2933 14.8886 43.5805 14.9443 43.8828 14.9443C44.2752 14.9443 44.6009 14.8443 44.8597 14.6461C45.1186 14.4478 45.3591 14.0955 45.5828 13.5892L46.1389 12.3833L46.3076 12.185L49.8096 4.23828H51.3927L47.0658 13.8694C46.8069 14.4855 46.518 14.9705 46.1991 15.3228C45.8784 15.675 45.5277 15.9257 45.147 16.0748C44.7646 16.2239 44.3437 16.2977 43.8845 16.2977L43.8828 16.2993ZM46.0037 13.2763L41.9289 4.23992H43.6123L47.0808 12.0376L46.0037 13.2763Z" fill="#0F52BA"/>
</g>
<g id="Group_3">
<path id="Vector_6" d="M52.9209 12.9962V1.43164H53.3918L58.9478 10.8973H58.6957L64.2183 1.43164H64.6892L64.7059 12.9962H64.1498L64.1331 2.25745H64.3185L58.9645 11.3938H58.6622L53.2732 2.25745H53.4753V12.9962H52.9192H52.9209Z" fill="#0F52BA"/>
<path id="Vector_7" d="M67.57 2.17349C67.4247 2.17349 67.2945 2.11778 67.1826 2.008C67.0707 1.89822 67.0139 1.77697 67.0139 1.64425C67.0139 1.49024 67.0707 1.36079 67.1826 1.25593C67.2945 1.15106 67.4231 1.09863 67.57 1.09863C67.727 1.09863 67.8589 1.15106 67.9658 1.25593C68.0727 1.36079 68.1261 1.48532 68.1261 1.62787C68.1261 1.77042 68.0727 1.89822 67.9658 2.008C67.8589 2.11778 67.727 2.17349 67.57 2.17349ZM67.3012 12.9942V4.42152H67.8573V12.9958H67.3012V12.9942Z" fill="#0F52BA"/>
<path id="Vector_8" d="M70.1619 12.9956V0.736328H70.718V12.9956H70.1619Z" fill="#0F52BA"/>
<path id="Vector_9" d="M75.3319 13.0451C74.6689 13.0451 74.1061 12.9452 73.6402 12.7486C73.1743 12.5503 72.8186 12.2668 72.5714 11.8982C72.3243 11.5295 72.2007 11.1084 72.2007 10.6349C72.2007 10.2171 72.3026 9.82874 72.5029 9.4699C72.705 9.11271 73.039 8.82597 73.5049 8.61133C73.9709 8.39668 74.5971 8.28854 75.382 8.28854H78.767V8.73422H75.382C74.4268 8.73422 73.7521 8.91117 73.353 9.26345C72.9538 9.61573 72.7551 10.0614 72.7551 10.6021C72.7551 11.2084 72.9856 11.6901 73.4448 12.0473C73.9057 12.4061 74.5453 12.5847 75.3636 12.5847C76.1819 12.5847 76.8399 12.4061 77.3676 12.0473C77.8953 11.6901 78.2944 11.1805 78.5633 10.5185L78.7487 10.8823C78.5232 11.5328 78.1191 12.0555 77.5363 12.452C76.9534 12.8485 76.217 13.0468 75.3302 13.0468L75.3319 13.0451ZM78.5817 12.996V10.997L78.565 10.6988V7.44471C78.565 6.59597 78.3345 5.95203 77.8753 5.51128C77.4144 5.07052 76.7464 4.85096 75.8713 4.85096C75.2317 4.85096 74.6472 4.9591 74.1195 5.17374C73.5918 5.38839 73.1375 5.66693 72.7551 6.00774L72.4512 5.61123C72.867 5.22618 73.3763 4.91978 73.9842 4.69366C74.5904 4.46755 75.225 4.35449 75.8863 4.35449C76.9301 4.35449 77.73 4.61665 78.2861 5.13934C78.8422 5.66202 79.1194 6.43048 79.1194 7.44471V12.996H78.58H78.5817Z" fill="#0F52BA"/>
<path id="Vector_10" d="M85.452 4.35449C86.1701 4.35449 86.7913 4.49213 87.3123 4.7674C87.835 5.04266 88.2408 5.44737 88.5331 5.98153C88.8253 6.51568 88.9706 7.17436 88.9706 7.95593V12.9943H88.4145V7.9887C88.4145 6.96463 88.1507 6.18798 87.6229 5.65874C87.0952 5.12951 86.3538 4.86571 85.4002 4.86571C84.6704 4.86571 84.0425 5.00826 83.5148 5.29499C82.9871 5.58173 82.5829 5.98808 82.3024 6.51732C82.0218 7.04656 81.8815 7.66263 81.8815 8.36719V12.9927H81.3254V4.42167H81.8648V6.83355L81.798 6.68445C82.0669 5.96842 82.5145 5.4015 83.1374 4.98204C83.7603 4.56422 84.5318 4.35449 85.452 4.35449Z" fill="#0F52BA"/>
</g>
<path id="Vector_11" d="M32.2697 20.1674C24.2555 20.1674 17.0495 18.5387 12.063 15.9482C16.5569 19.2121 23.9332 21.3406 32.2697 21.3406C40.6063 21.3406 47.9826 19.2121 52.4765 15.9482C47.4899 18.5387 40.284 20.1674 32.2697 20.1674Z" fill="#EF4136"/>
</g>
</g>
</g>
</svg>
