<svg width="42" height="42" viewBox="0 0 42 42" fill="none" xmlns="http://www.w3.org/2000/svg">
<path d="M3.49999 42.0001H34.9999C35.3865 42.0001 35.6999 41.6867 35.6999 41.3001V23.1001H34.2999V40.6001H3.49999C2.34028 40.6001 1.4 39.6598 1.4 38.5001C1.4 37.3404 2.34028 36.4001 3.49999 36.4001H4.89998C5.28656 36.4001 5.59998 36.0867 5.59998 35.7001V14.7002H16.7999V13.3002H5.59998V8.40019C5.59998 8.01362 5.28656 7.7002 4.89998 7.7002H3.49999C1.56782 7.70259 0.00239258 9.26801 0 11.2002V38.5001C0.00239258 40.4323 1.56782 41.9977 3.49999 42.0001ZM1.4 14.0002V11.2002C1.4 10.0405 2.34028 9.10019 3.49999 9.10019H4.19999V35.0001H3.49999C2.74257 34.9991 2.00532 35.2448 1.4 35.7001V14.0002Z" fill="black"/>
<path d="M16.099 16.7998H7.69902C7.31245 16.7998 6.99902 17.1132 6.99902 17.4998V23.0998C6.99902 23.4864 7.31245 23.7998 7.69902 23.7998H16.099C16.4856 23.7998 16.799 23.4864 16.799 23.0998V20.9998H19.599V19.5998H16.799V17.4998C16.799 17.1132 16.4856 16.7998 16.099 16.7998ZM15.399 22.3998H8.39902V18.1998H15.399V22.3998Z" fill="black"/>
<path d="M23.099 36.4002H31.4989C31.8855 36.4002 32.1989 36.0867 32.1989 35.7002V30.1002C32.1989 29.7136 31.8855 29.4002 31.4989 29.4002H27.999V25.2002H26.599V29.4002H23.099C22.7124 29.4002 22.399 29.7136 22.399 30.1002V32.2002H16.799V30.1002C16.799 29.7136 16.4856 29.4002 16.099 29.4002H7.69902C7.31245 29.4002 6.99902 29.7136 6.99902 30.1002V35.7002C6.99902 36.0867 7.31245 36.4002 7.69902 36.4002H16.099C16.4856 36.4002 16.799 36.0867 16.799 35.7002V33.6002H22.399V35.7002C22.399 36.0867 22.7124 36.4002 23.099 36.4002ZM23.799 30.8002H30.7989V35.0002H23.799V30.8002ZM15.399 35.0002H8.39902V30.8002H15.399V35.0002Z" fill="black"/>
<path d="M30.0998 5.60059C26.6203 5.60059 23.7998 8.42108 23.7998 11.9006C23.7998 15.38 26.6203 18.2005 30.0998 18.2005C33.5793 18.2005 36.3998 15.38 36.3998 11.9006C36.396 8.42279 33.5776 5.60435 30.0998 5.60059ZM30.0998 16.8005C27.3934 16.8005 25.1998 14.6069 25.1998 11.9006C25.1998 9.19423 27.3934 7.00058 30.0998 7.00058C32.8061 7.00058 34.9998 9.19423 34.9998 11.9006C34.9967 14.6055 32.8048 16.7975 30.0998 16.8005Z" fill="black"/>
<path d="M41.3001 14.7C41.6867 14.7 42.0001 14.3865 42.0001 14V9.79997C42.0001 9.4134 41.6867 9.09997 41.3001 9.09997H38.75C38.6006 8.6406 38.4154 8.19353 38.1963 7.76287L40.0023 5.96331C40.1339 5.83206 40.2081 5.65365 40.2081 5.46771C40.2081 5.28177 40.1339 5.10335 40.0023 4.9721L37.0301 1.99711C36.8988 1.86586 36.7207 1.79204 36.5352 1.79204C36.3496 1.79238 36.1715 1.86621 36.0402 1.9978L34.2373 3.80385C33.8066 3.58476 33.3595 3.39984 32.9002 3.25014V0.699998C32.9002 0.313427 32.5867 0 32.2002 0H28.0002C27.6136 0 27.3002 0.313427 27.3002 0.699998V3.25014C26.8408 3.39984 26.3937 3.58476 25.9631 3.80385L24.1628 1.9978C24.0316 1.86621 23.8535 1.79238 23.6679 1.79204C23.4823 1.79204 23.3042 1.86586 23.173 1.99711L20.1973 4.97005C20.0657 5.1013 19.9915 5.27972 19.9915 5.46566C19.9915 5.65159 20.0657 5.83001 20.1973 5.96126L22.0034 7.76082C21.7843 8.19216 21.5994 8.63992 21.4503 9.09997H18.9002C18.5136 9.09997 18.2002 9.4134 18.2002 9.79997V14C18.2002 14.3865 18.5136 14.7 18.9002 14.7H21.4503C21.5997 15.1593 21.785 15.6064 22.004 16.0371L20.198 17.8366C20.0661 17.9679 19.9919 18.1466 19.9919 18.3326C19.9919 18.5188 20.0661 18.6973 20.198 18.8285L23.1702 21.796C23.4437 22.0691 23.8867 22.0691 24.1601 21.796L25.9603 19.9961C26.392 20.2152 26.8401 20.4001 27.3002 20.5498V23.0999C27.3002 23.4865 27.6136 23.7999 28.0002 23.7999H32.2002C32.5867 23.7999 32.9002 23.4865 32.9002 23.0999V20.5498C33.3599 20.4001 33.8069 20.2152 34.2379 19.9961L36.0382 21.796C36.3116 22.0687 36.7539 22.0687 37.0273 21.796L40.0023 18.8278C40.1343 18.6966 40.2084 18.5182 40.2084 18.3319C40.2084 18.1456 40.1343 17.9672 40.0023 17.8359L38.1963 16.0364C38.4154 15.6061 38.6006 15.159 38.75 14.7H41.3001ZM37.551 13.8215C37.3667 14.5185 37.0895 15.1874 36.7262 15.8101C36.5659 16.0853 36.6114 16.4339 36.837 16.6584L38.5169 18.3329L36.5338 20.3119L34.86 18.6361C34.6355 18.4112 34.2872 18.3661 34.0124 18.526C33.3899 18.8893 32.7207 19.1665 32.0238 19.3501C31.7155 19.4304 31.5005 19.7086 31.5002 20.0268V22.3999H28.7002V20.0268C28.7002 19.709 28.4859 19.4311 28.1786 19.3501C27.4817 19.1665 26.8124 18.8893 26.19 18.526C25.9152 18.3661 25.5669 18.4112 25.3424 18.6361L23.6672 20.3112L21.6841 18.3329L23.364 16.6584C23.5896 16.4339 23.6351 16.0853 23.4748 15.8101C23.1115 15.1874 22.8343 14.5185 22.65 13.8215C22.569 13.5143 22.2912 13.3 21.9733 13.3H19.6002V10.5H21.9733C22.2908 10.4996 22.5683 10.2857 22.6494 9.97839C22.8336 9.28147 23.1108 8.61257 23.4741 7.98982C23.6344 7.71467 23.5889 7.36604 23.3634 7.14148L21.6834 5.46634L23.6672 3.48256L25.3424 5.16249C25.5669 5.38807 25.9156 5.43353 26.1907 5.27323C26.8131 4.9099 27.4823 4.6327 28.1793 4.44916C28.4862 4.36781 28.6998 4.09027 28.7002 3.77308V1.4H31.5002V3.77308C31.5002 4.09095 31.7145 4.36883 32.0217 4.44984C32.7187 4.63338 33.3879 4.91058 34.0103 5.27391C34.2858 5.4349 34.6351 5.38944 34.86 5.16317L36.5352 3.48324L38.5189 5.46703L36.839 7.14217C36.6134 7.36673 36.568 7.71536 36.7286 7.9905C37.0916 8.61326 37.3688 9.28215 37.553 9.97907C37.634 10.2853 37.9105 10.4989 38.227 10.5H40.6001V13.3H38.227C37.9095 13.3003 37.632 13.5143 37.551 13.8215Z" fill="black"/>
<path d="M30.0998 9.09961C28.5535 9.09961 27.2998 10.3533 27.2998 11.8996C27.2998 13.4459 28.5535 14.6996 30.0998 14.6996C31.6461 14.6996 32.8998 13.4459 32.8998 11.8996C32.8998 10.3533 31.6461 9.09961 30.0998 9.09961ZM30.0998 13.2996C29.3267 13.2996 28.6998 12.6727 28.6998 11.8996C28.6998 11.1265 29.3267 10.4996 30.0998 10.4996C30.8729 10.4996 31.4998 11.1265 31.4998 11.8996C31.4998 12.6727 30.8729 13.2996 30.0998 13.2996Z" fill="black"/>
</svg>
