<svg width="32" height="34" viewBox="0 0 32 34" fill="none" xmlns="http://www.w3.org/2000/svg">
<g id="layer1">
<path id="path2161" d="M13.7793 0.338731C13.2222 0.617402 13.017 1.03282 12.8673 1.37245C12.7176 1.71209 12.6238 1.97898 12.3648 2.27558C12.1059 2.57217 11.662 2.91653 10.7799 3.27167C9.89784 3.62681 9.341 3.6865 8.94712 3.6524C8.55324 3.6183 8.30097 3.48742 7.95656 3.34692C7.54334 3.17835 7.11528 3.07044 6.57532 3.23847C6.03536 3.40649 5.49538 3.79844 4.74361 4.53449C3.99185 5.27055 3.58723 5.80112 3.40885 6.33742C3.22096 6.90228 3.36212 7.37195 3.49739 7.71756C3.63266 8.06317 3.75773 8.31768 3.78515 8.70923C3.81256 9.10078 3.74259 9.65359 3.37122 10.5254C2.99984 11.3973 2.651 11.8276 2.34635 12.0849C2.0417 12.3421 1.76255 12.4406 1.41334 12.5995C0.99316 12.7908 0.62347 13.0371 0.368555 13.558C0.11364 14.0788 0.00897384 14.7663 0 15.8667C0.00899526 16.9671 0.11364 17.6546 0.368555 18.1754C0.646941 18.7442 1.06415 18.9749 1.41334 19.1339C1.76254 19.2928 2.04172 19.3913 2.34635 19.6485C2.65099 19.9058 2.99984 20.3361 3.37122 21.208C3.74259 22.0798 3.81256 22.6326 3.78515 23.0242C3.75771 23.4157 3.63266 23.6702 3.49739 24.0158C3.3443 24.407 3.23046 24.8597 3.40885 25.396C3.57751 25.903 3.99185 26.4628 4.74361 27.1989C5.49538 27.935 6.06765 28.337 6.57532 28.4949C7.16698 28.6791 7.61216 28.527 7.95656 28.3865C8.30097 28.246 8.55324 28.1151 8.94712 28.081C9.32263 28.0485 9.89784 28.1066 10.7799 28.4617C11.2809 28.6634 11.6352 28.8625 11.9 29.0505V30.0344C11.8997 30.9664 12.6512 31.7333 13.5989 31.7333V32.3022C13.5989 33.2342 14.3547 34 15.3022 34H16.4311C17.3786 34 18.1344 33.2342 18.1344 32.3022V31.7333C19.0821 31.7333 19.8335 30.9664 19.8333 30.0344V29.0505C20.0981 28.8624 20.4523 28.6634 20.9533 28.4617C21.8354 28.1066 22.4106 28.0484 22.7862 28.081C23.18 28.1151 23.4323 28.2459 23.7767 28.3864C24.1211 28.5269 24.5663 28.679 25.158 28.4949C25.6656 28.3369 26.2379 27.9349 26.9897 27.1989C27.7414 26.4628 28.1558 25.903 28.3244 25.3959C28.5028 24.8596 28.389 24.407 28.2359 24.0158C28.1006 23.6702 27.9755 23.4157 27.9481 23.0241C27.9207 22.6326 27.9907 22.0798 28.3621 21.2079C28.7334 20.3361 29.0823 19.9057 29.3869 19.6485C29.6916 19.3912 29.9707 19.2928 30.3199 19.1338C30.6691 18.9749 31.0863 18.7442 31.3647 18.1754C31.6196 17.6545 31.7243 16.9671 31.7333 15.8667C31.7243 14.7662 31.6196 14.0788 31.3647 13.5579C31.1098 13.0371 30.7401 12.7907 30.3199 12.5995C29.9707 12.4405 29.6916 12.3421 29.3869 12.0848C29.0823 11.8276 28.7334 11.3972 28.3621 10.5254C27.9907 9.65355 27.9207 9.10073 27.9481 8.70918C27.9755 8.31763 28.1006 8.06313 28.2359 7.71752C28.3712 7.3719 28.5123 6.90223 28.3244 6.33738C28.146 5.80108 27.7414 5.2705 26.9897 4.53445C26.2379 3.79839 25.6979 3.40645 25.158 3.23842C24.618 3.0704 24.1899 3.1783 23.7767 3.34688C23.4323 3.48738 23.18 3.61825 22.7862 3.65235C22.3923 3.68644 21.8354 3.62675 20.9533 3.27162C20.0713 2.91648 19.6274 2.57212 19.3685 2.27553C19.1095 1.97893 19.0157 1.71204 18.866 1.37241C18.7163 1.03277 18.511 0.617355 17.954 0.338684C17.4953 0.109206 16.8922 0.00976628 15.8666 0C14.841 0.00987551 14.238 0.109253 13.7793 0.338731ZM17.4482 1.35138C17.6273 1.44097 17.7087 1.54559 17.8334 1.8284C17.958 2.11119 18.1168 2.5642 18.5151 3.02039C18.9134 3.47657 19.5329 3.92028 20.5306 4.32195C21.5282 4.72361 22.2785 4.83355 22.8824 4.78126C23.4864 4.72895 23.9211 4.51437 24.2084 4.39721C24.424 4.30925 24.5772 4.24696 24.8182 4.32195C25.0592 4.39693 25.5009 4.66281 26.195 5.34239C26.8891 6.02196 27.1618 6.43594 27.2486 6.69707C27.3114 6.8858 27.2904 7.01582 27.1778 7.30358C27.0652 7.59134 26.8604 8.02586 26.8181 8.62949C26.7758 9.23312 26.8957 9.98099 27.3162 10.9681C27.7366 11.9552 28.1964 12.561 28.6587 12.9514C29.121 13.3418 29.5703 13.5011 29.8507 13.6288C30.0459 13.7176 30.2195 13.8 30.3443 14.0549C30.4688 14.3092 30.5911 14.8522 30.5999 15.8666C30.5912 16.8811 30.4762 17.409 30.3443 17.6784C30.2195 17.9333 30.0413 18.0177 29.8507 18.1045C29.5703 18.2322 29.121 18.3915 28.6587 18.7819C28.1964 19.1723 27.7366 19.7781 27.3162 20.7652C26.8957 21.7523 26.7758 22.5002 26.8181 23.1038C26.8604 23.7074 27.0652 24.142 27.1778 24.4297C27.2566 24.6309 27.3276 24.799 27.2486 25.0362C27.1697 25.2735 26.8891 25.7113 26.195 26.3909C25.5009 27.0705 25.0791 27.3346 24.8182 27.4158C24.628 27.475 24.4956 27.4533 24.2084 27.3361C23.9211 27.2189 23.4864 27.0043 22.8824 26.952C22.2785 26.8997 21.5282 27.0097 20.5306 27.4113C20.2703 27.5161 20.0446 27.624 19.8333 27.7334V26.6344C20.5823 26.6332 20.581 25.5163 19.8421 25.5C19.8778 25.1145 20.0775 24.7006 20.4342 24.2073C20.8285 23.6619 21.3932 23.0486 21.9737 22.3379C23.1347 20.9166 24.3665 19.0799 24.3665 16.3724C24.3665 11.7605 20.5677 8.01483 15.8666 7.93333C11.1654 8.01484 7.36658 11.7605 7.36658 16.3724C7.36658 19.0799 8.59845 20.9166 9.75942 22.3379C10.3399 23.0486 10.9047 23.6619 11.2989 24.2073C11.6553 24.7002 11.8507 25.117 11.8866 25.5022C11.1459 25.5172 11.1492 26.6344 11.8999 26.6344V27.7334C11.6886 27.624 11.4629 27.5161 11.2026 27.4113C10.205 27.0097 9.45475 26.8997 8.85076 26.952C8.24676 27.0043 7.81206 27.2189 7.52485 27.3361C7.23764 27.4533 7.10518 27.475 6.91502 27.4158C6.65412 27.3346 6.23228 27.0705 5.5382 26.3909C4.84411 25.7113 4.56346 25.2735 4.48455 25.0362C4.40563 24.799 4.47663 24.6309 4.55538 24.4297C4.66799 24.142 4.8728 23.7074 4.91508 23.1038C4.95736 22.5002 4.83751 21.7523 4.41703 20.7652C3.99655 19.7781 3.53682 19.1723 3.07453 18.7819C2.61223 18.3915 2.16288 18.2322 1.88253 18.1045C1.6919 18.0178 1.51367 17.9333 1.38892 17.6784C1.25703 17.409 1.14203 16.8811 1.13325 15.8666C1.14203 14.8522 1.26443 14.3092 1.38892 14.0549C1.51367 13.8 1.68732 13.7176 1.88253 13.6288C2.16289 13.5011 2.61222 13.3418 3.07453 12.9514C3.53683 12.561 3.99655 11.9552 4.41703 10.9681C4.83752 9.98099 4.95736 9.23312 4.91508 8.62949C4.8728 8.02586 4.66799 7.59134 4.55538 7.30358C4.44277 7.01582 4.42178 6.88581 4.48455 6.69707C4.57142 6.43594 4.84411 6.02196 5.5382 5.34239C6.23228 4.66281 6.67404 4.39693 6.91502 4.32195C7.156 4.24696 7.3092 4.30931 7.52485 4.39721C7.81206 4.51438 8.24676 4.72896 8.85076 4.78126C9.45475 4.83356 10.205 4.72362 11.2026 4.32195C12.2003 3.92028 12.8198 3.47657 13.2181 3.02039C13.6164 2.5642 13.7752 2.11119 13.8998 1.8284C14.0245 1.5456 14.1059 1.44097 14.285 1.35138C14.4995 1.24408 14.9828 1.1408 15.8666 1.13778C16.7504 1.14078 17.2337 1.24408 17.4482 1.35138ZM15.8666 9.07221C19.9615 9.15357 23.2333 12.3893 23.2333 16.3725C23.2333 18.6692 22.2018 20.2693 21.0961 21.623C20.5433 22.2998 19.9703 22.9117 19.5145 23.5421C19.0839 24.1378 18.7389 24.7762 18.7022 25.5H16.4311V22.3844L18.2517 20.5682C18.625 20.2096 18.363 19.5794 17.8455 19.5909C17.6952 19.5944 17.5523 19.6572 17.4482 19.7658L15.8666 21.3418L14.2851 19.7658C14.181 19.6572 14.0381 19.5943 13.8877 19.5909C13.3702 19.5794 13.1083 20.2096 13.4816 20.5682L15.2978 22.3844V25.5H13.0267C12.99 24.7762 12.6494 24.1378 12.2187 23.5421C11.763 22.9117 11.19 22.2998 10.6372 21.623C9.53147 20.2693 8.49999 18.6692 8.49999 16.3725C8.49999 12.3893 11.7717 9.15356 15.8666 9.07221ZM15.8666 10.5663C15.1109 10.5663 15.1109 11.7008 15.8666 11.7008C17.5555 11.7008 19.1149 12.5965 19.9584 14.0516C20.3766 14.7197 21.3054 14.1039 20.9368 13.4827C19.8907 11.6782 17.9569 10.5663 15.8666 10.5663ZM21.5355 15.3C21.223 15.2987 20.9685 15.5508 20.9666 15.8633C20.9648 16.1754 21.2157 16.4303 21.5278 16.4333C21.8403 16.4363 22.0963 16.1858 22.1 15.87C22.1 15.5546 21.8476 15.3012 21.5355 15.3Z" fill="white"/>
</g>
</svg>
