<svg width="50" height="31" viewBox="0 0 50 31" fill="none" xmlns="http://www.w3.org/2000/svg">
<g id="Group 1289">
<path id="Vector" d="M12.5765 10.2392C12.5765 9.72354 12.3945 9.35775 12.0512 9.14725C11.7054 8.92887 11.2019 8.82089 10.5383 8.82089V6.91792C10.8318 6.92073 11.125 6.89677 11.4142 6.84633C11.6751 6.79356 11.8922 6.71106 12.067 6.59944C12.2358 6.48984 12.3708 6.33547 12.457 6.15357C12.548 5.9728 12.5868 5.75563 12.5765 5.50085V2.96881C12.5765 2.57572 12.6269 2.24086 12.7282 1.96545C12.8289 1.68398 13.0096 1.45589 13.2699 1.27997C13.5356 1.0992 13.8935 0.966955 14.3448 0.882028C14.7961 0.797101 15.3761 0.760704 16.0646 0.760704V2.55206C15.8523 2.55812 15.6582 2.57632 15.4835 2.60787C15.3136 2.64002 15.168 2.69886 15.0455 2.78985C14.9284 2.86872 14.8392 2.98094 14.7749 3.1235C14.7106 3.26605 14.6791 3.45289 14.6791 3.68159V6.06258C14.6469 7.05501 14.0263 7.64465 12.8155 7.83028V7.92612C13.4258 8.01711 13.8929 8.20759 14.2108 8.49938C14.5286 8.79117 14.6888 9.18668 14.6718 9.68593V12.0408C14.6718 12.2689 14.7033 12.4552 14.7676 12.5989C14.8244 12.7335 14.9182 12.8493 15.0382 12.9326C15.17 13.0215 15.3194 13.0813 15.4762 13.1079C15.6682 13.1408 15.8625 13.1595 16.0573 13.1637V14.9635C15.3621 14.9635 14.7834 14.9211 14.3375 14.8422C13.8917 14.7634 13.5277 14.6238 13.2626 14.4443C13.0018 14.2623 12.8222 14.0409 12.7209 13.7588C12.6196 13.4767 12.5692 13.14 12.5692 12.7476V10.2392M17.1086 11.2504C17.1086 11.0078 17.1432 10.7912 17.2117 10.6213C17.2772 10.4583 17.381 10.3135 17.5144 10.1991C17.6357 10.093 17.7904 10.0159 17.9603 9.96862C18.1301 9.9213 18.3133 9.89704 18.5099 9.89704C18.6875 9.89613 18.8643 9.92023 19.0352 9.96862C19.2051 10.0171 19.3537 10.0936 19.4811 10.1991C19.6145 10.3136 19.7186 10.4584 19.7844 10.6213C19.859 10.7912 19.896 11.0011 19.896 11.2504C19.896 11.4894 19.8596 11.6932 19.7844 11.857C19.7092 12.0208 19.6024 12.1676 19.4811 12.2792C19.3524 12.3915 19.1999 12.4732 19.0352 12.5183C18.8714 12.571 18.6955 12.5971 18.5099 12.5971C18.3238 12.5984 18.1385 12.5719 17.9603 12.5183C17.7956 12.4732 17.6432 12.3915 17.5144 12.2792C17.3854 12.1608 17.2821 12.0171 17.2111 11.857C17.1381 11.6633 17.1037 11.4574 17.1086 11.2504ZM21.6 16.3072C21.3452 16.3072 21.0826 16.289 20.8114 16.2514C20.5403 16.2138 20.3152 16.1665 20.1344 16.1082V14.1974C20.2847 14.2473 20.4389 14.2846 20.5955 14.309C20.7386 14.3357 20.9006 14.349 21.0808 14.349C21.2083 14.3499 21.335 14.3284 21.455 14.2853C21.5782 14.2475 21.6867 14.1725 21.7656 14.0706C21.8566 13.9699 21.9276 13.8316 21.9804 13.6563C22.0338 13.4864 22.0592 13.2662 22.0592 12.989V3.48747H24.4881V13.3536C24.491 13.7415 24.4372 14.1277 24.3286 14.5001C24.2279 14.861 24.0605 15.1674 23.8269 15.4403C23.5988 15.7109 23.3016 15.9232 22.9352 16.0773C22.5688 16.2314 22.1223 16.3078 21.5976 16.3078M21.9616 1.18655C21.9616 0.958463 21.9961 0.769803 22.0647 0.621181C22.1257 0.477674 22.2216 0.351713 22.3437 0.254781C22.4651 0.159542 22.6064 0.0928132 22.7659 0.0558092C22.9297 0.0194119 23.1032 0 23.2834 0C23.4636 0 23.634 0.0181987 23.793 0.0558092C23.9519 0.0934198 24.0963 0.158935 24.2073 0.254781C24.3333 0.349776 24.4322 0.476097 24.4942 0.621181C24.5688 0.769803 24.6058 0.958463 24.6058 1.18655C24.6058 1.40979 24.5694 1.59784 24.4942 1.75192C24.4251 1.90601 24.3304 2.03097 24.2073 2.12621C24.0902 2.2172 23.9525 2.28272 23.793 2.32518C23.6258 2.36324 23.4548 2.38196 23.2834 2.38099C23.1094 2.38167 22.9358 2.36296 22.7659 2.32518C22.614 2.28596 22.4707 2.21846 22.3437 2.12621C22.2225 2.02519 22.1269 1.89694 22.0647 1.75192C21.9955 1.59784 21.9616 1.40979 21.9616 1.18655ZM32.9305 9.73992C32.9305 10.207 32.8456 10.6159 32.6757 10.9653C32.5089 11.3119 32.2601 11.6125 31.9508 11.8413C31.6378 12.0748 31.258 12.2501 30.8122 12.3666C30.3663 12.4831 29.8671 12.5486 29.315 12.5486C29.0239 12.5486 28.7521 12.5383 28.5022 12.517C28.2595 12.5013 28.0169 12.4721 27.7936 12.4297C27.5759 12.3886 27.3607 12.3355 27.1488 12.2707C26.9344 12.2042 26.7243 12.1244 26.5197 12.0317V10.025C26.743 10.1367 26.9765 10.2374 27.2204 10.3283L27.9605 10.5674L28.669 10.719C28.9025 10.7554 29.1179 10.7748 29.3138 10.7748C29.5322 10.7748 29.7172 10.7566 29.8719 10.719C30.026 10.6765 30.151 10.6207 30.2462 10.5516C30.3387 10.4868 30.4128 10.399 30.4609 10.2968C30.5084 10.1974 30.5329 10.0885 30.5325 9.97832C30.5348 9.87723 30.5158 9.77678 30.4767 9.68351C30.4446 9.59251 30.3675 9.50031 30.2462 9.40446C30.1249 9.30376 29.9429 9.19214 29.7045 9.07082L28.7569 8.60979L27.739 8.0978C27.4576 7.91581 27.2234 7.72897 27.0384 7.51665C26.8576 7.30433 26.7229 7.0629 26.6319 6.79174C26.541 6.51573 26.4967 6.18936 26.4967 5.81204C26.4967 5.39772 26.5755 5.03678 26.7357 4.72922C26.8952 4.41621 27.1203 4.15597 27.4127 3.94911C27.7051 3.74225 28.0557 3.58817 28.4639 3.48808C28.8783 3.38192 29.3375 3.32853 29.841 3.32853C30.351 3.32602 30.8592 3.38757 31.3539 3.51173C31.8622 3.64463 32.3557 3.82878 32.8268 4.06133L32.0946 5.77443C31.7195 5.59493 31.334 5.43814 30.9402 5.30491C30.5863 5.18488 30.2153 5.12301 29.8416 5.12171C29.5122 5.12171 29.2738 5.17994 29.1258 5.3037C29.0551 5.36105 28.9989 5.43417 28.9616 5.51718C28.9243 5.6002 28.907 5.6908 28.911 5.78171C28.911 5.88787 28.9292 5.98372 28.9668 6.06865C29.0032 6.14751 29.0785 6.23243 29.1901 6.32343C29.3017 6.40835 29.4582 6.5042 29.6596 6.61036L30.4482 6.98465L31.4673 7.47844C31.7706 7.63798 32.0303 7.82057 32.2474 8.02803C32.4631 8.23226 32.634 8.47913 32.7491 8.75295C32.8662 9.02896 32.9311 9.36321 32.9311 9.7563M37.249 12.7469C37.249 13.14 37.1987 13.4767 37.0974 13.7582C36.9961 14.0397 36.8135 14.2677 36.5478 14.4437C36.2869 14.6244 35.9321 14.7567 35.4801 14.8416C35.0282 14.9265 34.4489 14.9629 33.7604 14.9629V13.1692C33.9727 13.1631 34.1638 13.1449 34.3336 13.1133C34.5035 13.0818 34.6466 13.0224 34.7583 12.9314C34.8796 12.8525 34.973 12.7403 35.0373 12.5977C35.1065 12.4546 35.1404 12.2683 35.1404 12.0396V9.65863C35.1247 9.15938 35.2787 8.76387 35.6015 8.47208C35.9242 8.1803 36.3901 7.98921 36.9949 7.89882V7.80298C35.7901 7.61735 35.1714 7.02772 35.1398 6.03528V3.65429C35.1398 3.4262 35.1052 3.23997 35.0367 3.0962C34.9789 2.95974 34.8817 2.84359 34.7577 2.76256C34.6292 2.67273 34.4822 2.61282 34.3276 2.58724C34.1383 2.55345 33.9466 2.53479 33.7543 2.53143V0.741899C34.4495 0.741899 35.0282 0.784362 35.4741 0.863223C35.9199 0.942084 36.2809 1.08161 36.5417 1.26117C36.8074 1.44315 36.9906 1.66457 37.0913 1.94665C37.192 2.22266 37.243 2.55691 37.243 2.95V5.48204C37.2369 5.73682 37.2776 5.95521 37.3625 6.13477C37.4487 6.31667 37.5837 6.47104 37.7525 6.58064C37.9345 6.69225 38.1426 6.77475 38.3974 6.82753C38.6582 6.87606 38.9518 6.89911 39.2812 6.89911V8.80208C38.6176 8.80208 38.1104 8.91128 37.7604 9.12845C37.4147 9.34683 37.243 9.71262 37.243 10.2204V12.7287" fill="#555588"/>
<g id="Vector_2">
<path d="M1.82622 29.4519C1.64423 29.4519 1.48651 29.4398 1.35184 29.4143C1.21656 29.3931 1.09949 29.3628 1 29.3233V28.4692C1.12802 28.5027 1.25812 28.5276 1.38945 28.5438C1.53765 28.5659 1.68731 28.5766 1.83714 28.576C1.97035 28.5756 2.10292 28.5576 2.23144 28.5226C2.36492 28.4914 2.48919 28.4293 2.5942 28.3412C2.70461 28.2521 2.79317 28.1289 2.86112 27.9736C2.92906 27.8183 2.96242 27.6181 2.96242 27.3767V19.5822H3.9591V27.2705C3.9591 27.6436 3.90572 27.9669 3.79895 28.2411C3.70712 28.4974 3.55746 28.7291 3.36158 28.9181C3.17213 29.1021 2.94211 29.2391 2.69005 29.3179C2.43041 29.4071 2.07615 29.4513 1.7601 29.4513M8.9152 26.5669H8.87274C8.76617 26.7143 8.64855 26.8534 8.5209 26.983C8.28635 27.2097 7.99227 27.3652 7.67284 27.4313C7.50177 27.4677 7.30523 27.4847 7.08078 27.4847C6.8357 27.4847 6.61004 27.4483 6.40379 27.3779C6.20191 27.3166 6.01735 27.2085 5.86511 27.0625C5.71588 26.9169 5.59819 26.7349 5.51327 26.5189C5.42834 26.2987 5.39194 26.0336 5.39194 25.7406C5.39194 25.1583 5.59637 24.7094 5.99856 24.397C6.41107 24.084 7.02982 23.9135 7.87545 23.885L8.85636 23.8474V23.4798C8.85636 23.2414 8.82967 23.043 8.77629 22.8828C8.72654 22.7227 8.65193 22.5947 8.55184 22.4988C8.45194 22.3968 8.32676 22.3231 8.18908 22.2853C8.02943 22.2405 7.86412 22.219 7.69832 22.2216C7.41786 22.2194 7.13887 22.2624 6.8721 22.349C6.62125 22.4337 6.37711 22.5372 6.14173 22.6584L5.80081 21.928C6.06408 21.7861 6.35708 21.6647 6.68041 21.5653C7.01053 21.4648 7.35386 21.4145 7.69893 21.416C8.06169 21.416 8.3741 21.4536 8.63737 21.5283C8.90428 21.5992 9.12267 21.7151 9.29252 21.874C9.47135 22.0385 9.60538 22.2458 9.68197 22.4764C9.76811 22.7209 9.8033 23.0187 9.8033 23.3669V27.3706H9.11539L8.9152 26.5669ZM7.33799 26.6973C7.54317 26.6991 7.74708 26.6649 7.94036 26.596C8.12069 26.5318 8.28441 26.4282 8.41959 26.2927C8.55487 26.1544 8.65981 25.9815 8.73504 25.7758C8.8139 25.5659 8.85211 25.3209 8.85211 25.04V24.5122L8.08959 24.5498C7.7699 24.5638 7.50117 24.5996 7.2846 24.6566C7.06804 24.7136 6.89333 24.7937 6.76291 24.8968C6.64158 24.9963 6.5427 25.1188 6.48568 25.2644C6.42645 25.4193 6.39741 25.584 6.40015 25.7497C6.40015 26.0773 6.48507 26.3169 6.65614 26.4698C6.82721 26.6227 7.05773 26.6991 7.33859 26.6991M10.6247 21.5234H11.6268L12.6945 24.781L12.834 25.2341L12.9941 25.7995L13.1379 26.343L13.2289 26.7325H13.2665L13.3575 26.343L13.5013 25.7995L13.6614 25.2341L13.8009 24.781L14.8625 21.5234H15.8489L13.8495 27.3773H12.618L10.6247 21.5234ZM19.8198 26.5669H19.7774C19.6708 26.7143 19.5532 26.8534 19.4255 26.983C19.191 27.2097 18.8969 27.3652 18.5775 27.4313C18.4064 27.4677 18.2099 27.4847 17.9854 27.4847C17.7403 27.4847 17.5147 27.4483 17.3084 27.3779C17.1065 27.3166 16.922 27.2085 16.7697 27.0625C16.6205 26.9169 16.5028 26.7349 16.4179 26.5189C16.333 26.2987 16.2966 26.0336 16.2966 25.7406C16.2966 25.1583 16.501 24.7094 16.9032 24.397C17.3157 24.084 17.9345 23.9135 18.7801 23.885L19.761 23.8474V23.4798C19.761 23.2414 19.7343 23.043 19.6809 22.8828C19.6312 22.7227 19.5566 22.5947 19.4565 22.4988C19.3566 22.3968 19.2314 22.3231 19.0937 22.2853C18.9341 22.2405 18.7688 22.219 18.603 22.2216C18.3225 22.2194 18.0435 22.2624 17.7767 22.349C17.5259 22.4337 17.2817 22.5372 17.0464 22.6584L16.7054 21.928C16.9687 21.7861 17.2617 21.6647 17.585 21.5653C17.9154 21.4647 18.2589 21.4144 18.6042 21.416C18.9669 21.416 19.2793 21.4536 19.5426 21.5283C19.8095 21.5992 20.0279 21.7151 20.1978 21.874C20.3766 22.0385 20.5106 22.2458 20.5872 22.4764C20.6734 22.7209 20.7085 23.0187 20.7085 23.3669V27.3706H20.0109L19.8198 26.5669ZM18.2426 26.7003C18.4478 26.7022 18.6517 26.6679 18.845 26.599C19.0253 26.5348 19.189 26.4312 19.3242 26.2957C19.4595 26.1562 19.5645 25.9845 19.6397 25.7789C19.7185 25.569 19.7567 25.3239 19.7567 25.043V24.5153L18.9942 24.5529C18.6745 24.5668 18.4058 24.6026 18.1892 24.6596C17.9727 24.7167 17.798 24.7967 17.6675 24.8999C17.5462 24.9993 17.4473 25.1219 17.3903 25.2675C17.3311 25.4223 17.302 25.587 17.3048 25.7528C17.3048 26.0803 17.3897 26.32 17.5608 26.4728C17.7349 26.6257 17.9624 26.7021 18.2432 26.7021M26.6953 25.293C26.6953 25.6375 26.6328 25.9469 26.5085 26.2211C26.3903 26.4879 26.2114 26.7235 25.9862 26.909C25.7587 27.091 25.4814 27.2414 25.1551 27.3409C24.8275 27.4368 24.4599 27.4847 24.051 27.4847C23.6792 27.4866 23.3081 27.4545 22.9421 27.3888C22.6006 27.3282 22.3149 27.2372 22.0838 27.1171V26.1683L22.4944 26.3382L22.9797 26.4819L23.5075 26.5887C23.686 26.6131 23.866 26.6257 24.0462 26.6263C24.6146 26.6263 25.035 26.5195 25.3043 26.3066C25.5773 26.0931 25.715 25.788 25.715 25.3894C25.7185 25.2189 25.6914 25.0492 25.6349 24.8883C25.5852 24.7464 25.4954 24.6166 25.3631 24.4989C25.2418 24.3776 25.0629 24.2562 24.8457 24.1531C24.5795 24.0142 24.3053 23.8914 24.0243 23.7855C23.7373 23.6755 23.4608 23.5399 23.1981 23.3803C22.9676 23.231 22.7753 23.0636 22.6218 22.8792C22.4726 22.6942 22.361 22.4849 22.2858 22.2501C22.2148 22.0154 22.179 21.7491 22.179 21.4506C22.179 21.1376 22.236 20.8591 22.3488 20.6135C22.4588 20.3729 22.6231 20.1611 22.8287 19.9947C23.0461 19.818 23.2961 19.6857 23.5645 19.6053C23.8527 19.5167 24.1687 19.4718 24.5133 19.4718C24.9361 19.4718 25.3164 19.5124 25.6537 19.5943C25.9916 19.6732 26.2919 19.7739 26.5546 19.8977L26.1906 20.7287C25.9601 20.6256 25.6968 20.537 25.402 20.4618C25.1063 20.3831 24.8016 20.3438 24.4957 20.3447C24.0619 20.3447 23.7253 20.446 23.4887 20.648C23.3704 20.7466 23.2762 20.8708 23.2131 21.0112C23.1501 21.1517 23.1198 21.3046 23.1247 21.4585C23.1247 21.6611 23.1514 21.837 23.2048 21.9863C23.262 22.138 23.3531 22.2747 23.4711 22.386C23.5955 22.5031 23.7592 22.6153 23.9564 22.7221C24.1626 22.8252 24.415 22.9356 24.7135 23.0527C25.0044 23.1652 25.2875 23.2969 25.5609 23.447C25.7874 23.5679 25.9942 23.7226 26.1742 23.9056C26.3373 24.0746 26.4627 24.2765 26.5418 24.4977C26.6267 24.7221 26.6722 24.9963 26.6722 25.302M30.2841 27.4841C29.9249 27.4841 29.5889 27.4234 29.2771 27.3185C28.967 27.207 28.6875 27.0242 28.4612 26.7846C28.2306 26.5396 28.0487 26.2284 27.9176 25.8516C27.786 25.4713 27.7205 25.0145 27.7205 24.4807C27.7205 23.9226 27.7811 23.4494 27.9231 23.0624C28.0584 22.6711 28.2428 22.3551 28.4775 22.1136C28.709 21.8732 28.9937 21.6904 29.3086 21.5798C29.6241 21.4688 29.9638 21.4142 30.3277 21.4142C30.6004 21.4137 30.8723 21.444 31.1382 21.5046C31.3685 21.5527 31.5922 21.6278 31.8049 21.7284L31.5167 22.5498C31.4348 22.5134 31.3444 22.4806 31.245 22.4485C31.1455 22.413 31.0442 22.3826 30.9416 22.3575C30.8349 22.329 30.7293 22.3078 30.6262 22.2938C30.5295 22.2767 30.4314 22.2678 30.3332 22.2671C29.7751 22.2671 29.3626 22.4467 29.1121 22.8058C28.8561 23.1613 28.7281 23.7157 28.7281 24.4692C28.7281 25.2189 28.8494 25.7685 29.1121 26.1167C29.3717 26.4613 29.7642 26.6336 30.2901 26.6336C30.5527 26.6367 30.8145 26.6045 31.0684 26.5377C31.2874 26.4759 31.5014 26.3974 31.7084 26.303V27.1668C31.5132 27.2716 31.3052 27.3505 31.0897 27.4016C30.8731 27.4549 30.5922 27.4816 30.2756 27.4816M35.5956 21.4166L35.9414 21.4324C36.0523 21.4375 36.1628 21.4501 36.272 21.47L36.1507 22.366L35.8474 22.3235C35.7443 22.309 35.6472 22.3023 35.5544 22.3023C35.3299 22.3023 35.1261 22.3484 34.9478 22.4406C34.76 22.5319 34.5958 22.6651 34.4679 22.8301C34.3283 23.011 34.2253 23.2175 34.1646 23.4379C34.0907 23.6925 34.0548 23.9566 34.0579 24.2217V27.3779H33.0873V21.524H33.8759L33.993 22.5959H34.0354L34.3181 22.1531C34.4167 22.0156 34.5313 21.8903 34.6596 21.78C34.7867 21.6703 34.9307 21.582 35.0861 21.5185C35.2609 21.449 35.4476 21.4146 35.6357 21.4172M38.3352 27.3773H37.3646V21.5234H38.3352V27.3773ZM37.4495 19.4761C37.5619 19.3792 37.7064 19.328 37.8547 19.3323C37.9292 19.3313 38.0032 19.3441 38.0731 19.3699C38.1416 19.3897 38.2039 19.4264 38.2545 19.4767C38.3099 19.5299 38.3519 19.5956 38.377 19.6683C38.4092 19.743 38.4255 19.834 38.4255 19.9401C38.4255 20.1464 38.3685 20.3011 38.2557 20.4042C38.1453 20.5037 38.013 20.5534 37.8553 20.5534C37.6976 20.5534 37.5563 20.4788 37.4458 20.3787C37.3391 20.2792 37.2881 20.1239 37.2893 19.9274C37.2899 19.7272 37.3494 19.5719 37.4495 19.4761ZM42.7732 27.4835C42.5809 27.4857 42.3892 27.4624 42.203 27.4143C42.0331 27.3682 41.8778 27.3075 41.7389 27.2323C41.6073 27.1569 41.4855 27.0656 41.3761 26.9606C41.2751 26.8599 41.1824 26.7511 41.0989 26.6354H41.0352L41.0674 26.9812L41.0886 27.2693L41.0995 27.4986V29.9991H40.1289V21.5234H40.9175L41.0571 22.312H41.0995C41.1809 22.1881 41.2737 22.0722 41.3768 21.9656C41.4812 21.8543 41.6017 21.759 41.7341 21.6829C41.8794 21.5985 42.0355 21.534 42.1981 21.4912C42.3855 21.4393 42.5793 21.4142 42.7738 21.4166C43.1074 21.4166 43.412 21.4803 43.6856 21.6083C43.9591 21.7363 44.1921 21.928 44.3832 22.1846C44.5785 22.437 44.7289 22.7518 44.8363 23.1285C44.9437 23.5052 44.9965 23.9426 44.9965 24.44C44.9965 24.9411 44.9431 25.3821 44.8363 25.7625C44.7296 26.1386 44.5785 26.4558 44.3832 26.7112C44.1915 26.9672 43.9585 27.1601 43.6856 27.2924C43.4126 27.4137 43.0407 27.4841 42.7065 27.4841M42.587 22.2216C42.317 22.2216 42.0877 22.2623 41.8991 22.3442C41.714 22.4261 41.563 22.5504 41.4459 22.7172C41.3288 22.8841 41.2469 23.0921 41.1899 23.3408C41.1323 23.6306 41.1021 23.9251 41.0995 24.2204V24.4388C41.0967 24.7601 41.1198 25.081 41.1687 25.3985C41.2184 25.6757 41.3003 25.9105 41.4138 26.1022C41.526 26.2859 41.6865 26.4353 41.8778 26.5341C42.0695 26.6299 42.3097 26.6779 42.5979 26.6779C43.0832 26.6779 43.429 26.4837 43.6534 26.0967C43.8809 25.7085 43.9943 25.1528 43.9949 24.4285C43.9949 23.6884 43.8809 23.1364 43.654 22.7706C43.4271 22.4048 43.0741 22.2216 42.587 22.2216ZM48.2364 26.6894C48.3001 26.6894 48.3717 26.6833 48.45 26.6785L48.6847 26.6518L48.8873 26.6142L49.0311 26.5766V27.3124C48.985 27.3336 48.9262 27.3549 48.8491 27.3761C48.772 27.3986 48.6936 27.4164 48.6144 27.4295C48.5294 27.4477 48.4403 27.4598 48.3475 27.4671C48.2572 27.4777 48.1665 27.4829 48.0757 27.4829C47.8555 27.4829 47.651 27.4543 47.4691 27.3979C47.2835 27.3426 47.1146 27.2419 46.9777 27.1049C46.8424 26.9654 46.7363 26.7798 46.658 26.545C46.5791 26.3066 46.5409 26.0082 46.5409 25.649V22.252H45.7147V21.82L46.5409 21.4039L46.9571 20.1773H47.517V21.521H48.9886V22.2513H47.517V25.6484C47.517 25.993 47.5776 26.2526 47.682 26.4267C47.7863 26.6008 47.9804 26.6876 48.2364 26.6876" fill="black"/>
<path d="M1.82622 29.4519C1.64423 29.4519 1.48651 29.4398 1.35184 29.4143C1.21656 29.3931 1.09949 29.3628 1 29.3233V28.4692C1.12802 28.5027 1.25812 28.5276 1.38945 28.5438C1.53765 28.5659 1.68731 28.5766 1.83714 28.576C1.97035 28.5756 2.10292 28.5576 2.23144 28.5226C2.36492 28.4914 2.48919 28.4293 2.5942 28.3412C2.70461 28.2521 2.79317 28.1289 2.86112 27.9736C2.92906 27.8183 2.96242 27.6181 2.96242 27.3767V19.5822H3.9591V27.2705C3.9591 27.6436 3.90572 27.9669 3.79895 28.2411C3.70712 28.4974 3.55746 28.7291 3.36158 28.9181C3.17213 29.1021 2.94211 29.2391 2.69005 29.3179C2.43041 29.4071 2.07615 29.4513 1.7601 29.4513M7.33799 26.6973C7.54317 26.6991 7.74708 26.6649 7.94036 26.596C8.12069 26.5318 8.28441 26.4282 8.41959 26.2927C8.55487 26.1544 8.65981 25.9815 8.73504 25.7758C8.8139 25.5659 8.85211 25.3209 8.85211 25.04V24.5122L8.08959 24.5498C7.7699 24.5638 7.50117 24.5996 7.2846 24.6566C7.06804 24.7136 6.89333 24.7937 6.76291 24.8968C6.64158 24.9963 6.5427 25.1188 6.48568 25.2644C6.42645 25.4193 6.39741 25.584 6.40015 25.7497C6.40015 26.0773 6.48508 26.3169 6.65614 26.4698C6.82721 26.6227 7.05773 26.6991 7.33859 26.6991M18.2426 26.7003C18.4478 26.7022 18.6517 26.6679 18.845 26.599C19.0253 26.5348 19.189 26.4312 19.3242 26.2957C19.4595 26.1562 19.5645 25.9845 19.6397 25.7789C19.7185 25.569 19.7567 25.3239 19.7567 25.043V24.5153L18.9942 24.5529C18.6745 24.5668 18.4058 24.6026 18.1892 24.6596C17.9727 24.7167 17.798 24.7967 17.6675 24.8999C17.5462 24.9993 17.4473 25.1219 17.3903 25.2675C17.3311 25.4223 17.302 25.587 17.3048 25.7528C17.3048 26.0803 17.3897 26.32 17.5608 26.4728C17.7349 26.6257 17.9624 26.7021 18.2432 26.7021M26.6953 25.293C26.6953 25.6375 26.6328 25.9469 26.5085 26.2211C26.3903 26.4879 26.2114 26.7235 25.9861 26.909C25.7587 27.091 25.4814 27.2414 25.1551 27.3409C24.8275 27.4368 24.4599 27.4847 24.051 27.4847C23.6792 27.4866 23.3081 27.4545 22.9421 27.3888C22.6006 27.3282 22.3149 27.2372 22.0838 27.1171V26.1683L22.4944 26.3382L22.9797 26.4819L23.5075 26.5887C23.686 26.6131 23.866 26.6257 24.0462 26.6263C24.6146 26.6263 25.035 26.5195 25.3043 26.3066C25.5773 26.0931 25.715 25.788 25.715 25.3894C25.7185 25.2189 25.6914 25.0492 25.6349 24.8883C25.5852 24.7464 25.4954 24.6166 25.3631 24.4989C25.2418 24.3776 25.0629 24.2562 24.8457 24.1531C24.5795 24.0142 24.3053 23.8914 24.0243 23.7855C23.7373 23.6755 23.4608 23.5399 23.1981 23.3803C22.9676 23.231 22.7753 23.0636 22.6218 22.8792C22.4726 22.6942 22.361 22.4849 22.2858 22.2501C22.2148 22.0154 22.179 21.7491 22.179 21.4506C22.179 21.1376 22.236 20.8591 22.3488 20.6135C22.4588 20.3729 22.6231 20.1611 22.8287 19.9947C23.0461 19.818 23.2961 19.6857 23.5645 19.6053C23.8527 19.5167 24.1687 19.4718 24.5133 19.4718C24.9361 19.4718 25.3164 19.5124 25.6537 19.5943C25.9916 19.6732 26.2919 19.7739 26.5546 19.8977L26.1906 20.7287C25.9601 20.6256 25.6968 20.537 25.402 20.4618C25.1063 20.3831 24.8016 20.3438 24.4957 20.3447C24.0619 20.3447 23.7253 20.446 23.4887 20.648C23.3704 20.7466 23.2762 20.8708 23.2131 21.0112C23.1501 21.1517 23.1198 21.3046 23.1247 21.4585C23.1247 21.6611 23.1514 21.837 23.2048 21.9863C23.262 22.138 23.3531 22.2747 23.4711 22.386C23.5955 22.5031 23.7592 22.6153 23.9564 22.7221C24.1626 22.8252 24.415 22.9356 24.7135 23.0527C25.0044 23.1652 25.2875 23.2969 25.5609 23.447C25.7874 23.5679 25.9942 23.7226 26.1742 23.9056C26.3373 24.0746 26.4627 24.2765 26.5418 24.4977C26.6267 24.7221 26.6722 24.9963 26.6722 25.302M30.2841 27.4841C29.9249 27.4841 29.5889 27.4234 29.2771 27.3185C28.967 27.207 28.6875 27.0242 28.4612 26.7846C28.2306 26.5396 28.0487 26.2284 27.9176 25.8516C27.786 25.4713 27.7205 25.0145 27.7205 24.4807C27.7205 23.9226 27.7811 23.4494 27.9231 23.0624C28.0584 22.6711 28.2428 22.3551 28.4775 22.1136C28.709 21.8732 28.9937 21.6904 29.3086 21.5798C29.6241 21.4688 29.9638 21.4142 30.3277 21.4142C30.6004 21.4137 30.8723 21.444 31.1382 21.5046C31.3685 21.5527 31.5922 21.6278 31.8049 21.7284L31.5167 22.5498C31.4348 22.5134 31.3444 22.4806 31.245 22.4485C31.1455 22.413 31.0442 22.3826 30.9416 22.3575C30.8349 22.329 30.7293 22.3078 30.6262 22.2938C30.5295 22.2767 30.4314 22.2678 30.3332 22.2671C29.7751 22.2671 29.3626 22.4467 29.1121 22.8058C28.8561 23.1613 28.7281 23.7157 28.7281 24.4692C28.7281 25.2189 28.8494 25.7685 29.1121 26.1167C29.3717 26.4613 29.7642 26.6336 30.2901 26.6336C30.5527 26.6367 30.8145 26.6045 31.0684 26.5377C31.2874 26.4759 31.5014 26.3974 31.7084 26.303V27.1668C31.5132 27.2716 31.3052 27.3505 31.0897 27.4016C30.8731 27.4549 30.5922 27.4816 30.2756 27.4816M35.5956 21.4166L35.9414 21.4324C36.0523 21.4375 36.1628 21.4501 36.272 21.47L36.1507 22.366L35.8474 22.3235C35.7443 22.309 35.6472 22.3023 35.5544 22.3023C35.3299 22.3023 35.1261 22.3484 34.9478 22.4406C34.76 22.5319 34.5958 22.6651 34.4679 22.8301C34.3283 23.011 34.2253 23.2175 34.1646 23.4379C34.0907 23.6925 34.0548 23.9566 34.0579 24.2217V27.3779H33.0873V21.524H33.8759L33.993 22.5959H34.0354L34.3181 22.1531C34.4167 22.0156 34.5313 21.8903 34.6596 21.78C34.7867 21.6703 34.9307 21.582 35.0861 21.5185C35.2609 21.449 35.4476 21.4146 35.6357 21.4172M42.7732 27.4835C42.5809 27.4857 42.3892 27.4624 42.203 27.4143C42.0331 27.3682 41.8778 27.3075 41.7389 27.2323C41.6073 27.1569 41.4855 27.0656 41.3761 26.9606C41.2751 26.8599 41.1824 26.7511 41.0989 26.6354H41.0352L41.0674 26.9812L41.0886 27.2693L41.0995 27.4986V29.9991H40.1289V21.5234H40.9175L41.0571 22.312H41.0995C41.1809 22.1881 41.2737 22.0722 41.3768 21.9656C41.4812 21.8543 41.6017 21.759 41.7341 21.6829C41.8794 21.5985 42.0355 21.534 42.1981 21.4912C42.3855 21.4393 42.5793 21.4142 42.7738 21.4166C43.1074 21.4166 43.412 21.4803 43.6856 21.6083C43.9591 21.7363 44.1921 21.928 44.3832 22.1846C44.5785 22.437 44.7289 22.7518 44.8363 23.1285C44.9437 23.5052 44.9965 23.9426 44.9965 24.44C44.9965 24.9411 44.9431 25.3821 44.8363 25.7625C44.7296 26.1386 44.5785 26.4558 44.3832 26.7112C44.1915 26.9672 43.9585 27.1601 43.6856 27.2924C43.4126 27.4137 43.0407 27.4841 42.7065 27.4841M48.2364 26.6894C48.3001 26.6894 48.3717 26.6833 48.45 26.6785L48.6847 26.6518L48.8873 26.6142L49.0311 26.5766V27.3124C48.985 27.3336 48.9262 27.3549 48.8491 27.3761C48.772 27.3986 48.6936 27.4164 48.6144 27.4295C48.5294 27.4477 48.4403 27.4598 48.3474 27.4671C48.2572 27.4777 48.1665 27.4829 48.0757 27.4829C47.8555 27.4829 47.651 27.4543 47.4691 27.3979C47.2835 27.3426 47.1146 27.2419 46.9777 27.1049C46.8424 26.9654 46.7363 26.7798 46.658 26.545C46.5791 26.3066 46.5409 26.0082 46.5409 25.649V22.252H45.7147V21.82L46.5409 21.4039L46.9571 20.1773H47.517V21.521H48.9886V22.2513H47.517V25.6484C47.517 25.993 47.5776 26.2526 47.682 26.4267C47.7863 26.6008 47.9804 26.6876 48.2364 26.6876M8.9152 26.5669H8.87274C8.76617 26.7143 8.64855 26.8534 8.5209 26.983C8.28635 27.2097 7.99227 27.3652 7.67284 27.4313C7.50177 27.4677 7.30523 27.4847 7.08078 27.4847C6.8357 27.4847 6.61004 27.4483 6.40379 27.3779C6.20191 27.3166 6.01735 27.2085 5.86511 27.0625C5.71588 26.9169 5.59819 26.7349 5.51327 26.5189C5.42834 26.2987 5.39194 26.0336 5.39194 25.7406C5.39194 25.1583 5.59637 24.7094 5.99856 24.397C6.41107 24.084 7.02982 23.9135 7.87545 23.885L8.85636 23.8474V23.4798C8.85636 23.2414 8.82967 23.043 8.77629 22.8828C8.72654 22.7227 8.65193 22.5947 8.55184 22.4988C8.45194 22.3968 8.32676 22.3231 8.18908 22.2853C8.02943 22.2405 7.86412 22.219 7.69832 22.2216C7.41786 22.2194 7.13887 22.2624 6.8721 22.349C6.62125 22.4337 6.37711 22.5372 6.14173 22.6584L5.80081 21.928C6.06408 21.7861 6.35708 21.6647 6.68041 21.5653C7.01053 21.4648 7.35386 21.4145 7.69893 21.416C8.06169 21.416 8.3741 21.4536 8.63737 21.5283C8.90428 21.5992 9.12267 21.7151 9.29252 21.874C9.47135 22.0385 9.60538 22.2458 9.68197 22.4764C9.76811 22.7209 9.8033 23.0187 9.8033 23.3669V27.3706H9.11539L8.9152 26.5669ZM10.6247 21.5234H11.6268L12.6945 24.781L12.834 25.2341L12.9941 25.7995L13.1379 26.343L13.2289 26.7325H13.2665L13.3575 26.343L13.5013 25.7995L13.6614 25.2341L13.8009 24.781L14.8625 21.5234H15.8489L13.8495 27.3773H12.618L10.6247 21.5234ZM19.8198 26.5669H19.7774C19.6708 26.7143 19.5532 26.8534 19.4255 26.983C19.191 27.2097 18.8969 27.3652 18.5775 27.4313C18.4064 27.4677 18.2099 27.4847 17.9854 27.4847C17.7403 27.4847 17.5147 27.4483 17.3084 27.3779C17.1065 27.3166 16.922 27.2085 16.7697 27.0625C16.6205 26.9169 16.5028 26.7349 16.4179 26.5189C16.333 26.2987 16.2966 26.0336 16.2966 25.7406C16.2966 25.1583 16.501 24.7094 16.9032 24.397C17.3157 24.084 17.9345 23.9135 18.7801 23.885L19.761 23.8474V23.4798C19.761 23.2414 19.7343 23.043 19.6809 22.8828C19.6312 22.7227 19.5566 22.5947 19.4565 22.4988C19.3566 22.3968 19.2314 22.3231 19.0937 22.2853C18.9341 22.2405 18.7688 22.219 18.603 22.2216C18.3225 22.2194 18.0435 22.2624 17.7767 22.349C17.5259 22.4337 17.2817 22.5372 17.0464 22.6584L16.7054 21.928C16.9687 21.7861 17.2617 21.6647 17.585 21.5653C17.9154 21.4647 18.2589 21.4144 18.6042 21.416C18.9669 21.416 19.2793 21.4536 19.5426 21.5283C19.8095 21.5992 20.0279 21.7151 20.1978 21.874C20.3766 22.0385 20.5106 22.2458 20.5872 22.4764C20.6734 22.7209 20.7085 23.0187 20.7085 23.3669V27.3706H20.0109L19.8198 26.5669ZM38.3352 27.3773H37.3646V21.5234H38.3352V27.3773ZM37.4495 19.4761C37.5619 19.3792 37.7064 19.328 37.8547 19.3323C37.9292 19.3313 38.0032 19.3441 38.0731 19.3699C38.1416 19.3897 38.2039 19.4264 38.2545 19.4767C38.3099 19.5299 38.3519 19.5956 38.377 19.6683C38.4092 19.743 38.4255 19.834 38.4255 19.9401C38.4255 20.1464 38.3685 20.3011 38.2557 20.4042C38.1453 20.5037 38.013 20.5534 37.8553 20.5534C37.6976 20.5534 37.5563 20.4788 37.4458 20.3787C37.3391 20.2792 37.2881 20.1239 37.2893 19.9274C37.2899 19.7272 37.3494 19.5719 37.4495 19.4761ZM42.587 22.2216C42.317 22.2216 42.0877 22.2623 41.8991 22.3442C41.714 22.4261 41.563 22.5504 41.4459 22.7172C41.3288 22.8841 41.2469 23.0921 41.1899 23.3408C41.1323 23.6306 41.1021 23.9251 41.0995 24.2204V24.4388C41.0967 24.7601 41.1198 25.081 41.1687 25.3985C41.2184 25.6757 41.3003 25.9105 41.4138 26.1022C41.526 26.2859 41.6865 26.4353 41.8778 26.5341C42.0695 26.6299 42.3097 26.6779 42.5979 26.6779C43.0832 26.6779 43.429 26.4837 43.6534 26.0967C43.8809 25.7085 43.9943 25.1528 43.9949 24.4285C43.9949 23.6884 43.8809 23.1364 43.654 22.7706C43.4271 22.4048 43.0741 22.2216 42.587 22.2216Z" stroke="black"/>
</g>
</g>
</svg>
