<svg width="65" height="30" viewBox="0 0 65 30" fill="none" xmlns="http://www.w3.org/2000/svg">
<g id="Group 1555">
<path id="Vector" d="M7.14544 23.1909C7.14544 23.1909 5.99299 23.8921 7.94766 24.0929C10.2956 24.3929 11.5544 24.3434 14.1593 23.8425C14.1593 23.8425 14.8604 24.2925 15.8126 24.6447C9.95124 27.1492 2.5376 24.4947 7.14609 23.1922L7.14544 23.1909ZM6.3941 19.9351C6.3941 19.9351 5.14186 20.8873 7.09522 21.0876C9.64992 21.338 11.6607 21.3876 15.1108 20.6871C15.1108 20.6871 15.5609 21.188 16.3129 21.4384C9.24946 23.5425 1.33428 21.638 6.3941 19.9351ZM20.2209 25.6458C20.2209 25.6458 21.0727 26.347 19.2687 26.8981C15.9124 27.8999 5.19208 28.2005 2.18606 26.8981C1.13405 26.448 3.13828 25.7893 3.78919 25.6961C4.44139 25.546 4.79098 25.546 4.79098 25.546C3.63918 24.7438 -2.87376 27.1994 1.48429 27.894C13.4568 29.8474 23.3254 27.0422 20.2196 25.64L20.2209 25.6458ZM7.6959 16.5286C7.6959 16.5286 2.23563 17.8311 5.74189 18.2818C7.24458 18.482 10.2004 18.4318 12.9553 18.2315C15.2093 18.0313 17.464 17.6302 17.464 17.6302C17.464 17.6302 16.6618 17.9811 16.1113 18.3313C10.5506 19.7838 -0.11949 19.1335 2.93675 17.6302C5.54167 16.378 7.6959 16.5215 7.6959 16.5215V16.5286ZM17.4647 21.9889C23.0749 19.0833 20.47 16.2782 18.6667 16.6291C18.2167 16.7295 18.0145 16.8293 18.0145 16.8293C18.0145 16.8293 18.1645 16.5293 18.5154 16.4288C22.0718 15.1766 24.8776 20.1856 17.3629 22.1396C17.3629 22.1396 17.4131 22.0894 17.4634 21.9896L17.4647 21.9889ZM8.24767 29.9034C13.6577 30.2543 21.9244 29.7032 22.124 27.1485C22.124 27.1485 21.7236 28.1503 17.6655 28.9017C13.057 29.7534 7.34632 29.653 3.98876 29.1019C3.98876 29.1019 4.68988 29.7026 8.24767 29.9034Z" fill="#4E7896"/>
<path id="Vector_2" d="M14.0585 0C14.0585 0 17.1643 3.15668 11.1027 7.91518C6.24379 11.7723 9.99398 13.9768 11.1027 16.4813C8.24737 13.9266 6.19357 11.6725 7.59582 9.56787C9.65027 6.46207 15.3108 4.95938 14.0585 0ZM12.4554 14.3772C13.9079 16.0306 12.0543 17.5339 12.0543 17.5339C12.0543 17.5339 15.7614 15.6295 14.0579 13.275C12.5056 11.021 11.303 9.91876 17.8146 6.1614C17.8146 6.1614 7.54494 8.71609 12.4548 14.3766L12.4554 14.3772Z" fill="#F58219"/>
<path id="Vector_3" d="M44.5577 20.3273V12.7114C44.5577 10.7679 43.4698 9.44779 40.7501 9.44779C39.1959 9.44779 37.8739 9.83651 36.709 10.3022L37.0978 11.7012C37.9522 11.3901 39.0413 11.0796 40.2062 11.0796C41.6828 11.0796 42.3819 11.7012 42.3819 12.9449V13.9558H41.611C37.8804 13.9558 36.1716 15.3548 36.1716 17.6082C36.1716 19.4735 37.3371 20.5614 39.4353 20.5614C40.7566 20.5614 41.7669 19.9398 42.6989 19.1624L42.8541 20.3279H44.5629L44.5577 20.3273ZM42.3806 17.841C41.6045 18.5402 40.7488 18.9289 39.9714 18.9289C38.9605 18.9289 38.3396 18.3074 38.3396 17.2201C38.3396 16.1329 38.9611 15.3548 41.448 15.3548H42.3806V17.8417V17.841ZM51.8611 20.3279H49.1414L45.8784 9.68193H48.2101L50.2306 16.2105L50.6969 18.1541C51.7078 15.3561 52.484 12.4812 52.7951 9.68389H55.1261C54.5045 13.181 53.4173 16.9886 51.8624 20.3299L51.8611 20.3279ZM64.45 20.3279V12.7114C64.45 10.7679 63.3621 9.44779 60.6411 9.44779C59.0869 9.44779 57.7662 9.83651 56.6 10.3022L56.9112 11.7012C57.8438 11.3901 58.9317 11.0796 60.0972 11.0796C61.5738 11.0796 62.2729 11.7012 62.2729 12.9449V13.9558H61.4968C57.7662 13.9558 56.0574 15.3548 56.0574 17.6082C56.0574 19.4735 57.1453 20.5614 59.2434 20.5614C60.6424 20.5614 61.6527 19.9398 62.5847 19.1624L62.7399 20.3279H64.4487H64.45ZM62.2743 17.841C61.4981 18.5402 60.6424 18.9289 59.865 18.9289C58.8541 18.9289 58.2332 18.3074 58.2332 17.2201C58.2332 16.1329 58.8547 15.3548 61.3416 15.3548H62.2743V17.8417V17.841ZM33.7545 22.115C33.133 23.0476 32.2003 23.7468 31.0348 24.1355L30.0239 22.8924C30.8014 22.4261 31.5781 21.7269 31.8892 21.1053C32.2003 20.5614 32.278 19.784 32.278 17.9969V5.87305H34.6096V17.841C34.6096 20.2503 34.3755 21.1823 33.7545 22.115Z" fill="#4E7896"/>
</g>
</svg>
