<svg width="16" height="16" viewBox="0 0 16 16" fill="none" xmlns="http://www.w3.org/2000/svg">
<g id="linkedin 1" clip-path="url(#clip0_219_749)">
<path id="Vector" d="M15.996 16.0005V15.9998H16V10.1318C16 7.26114 15.382 5.0498 12.026 5.0498C10.4127 5.0498 9.33004 5.93514 8.88804 6.77447H8.84137V5.3178H5.65937V15.9998H8.97271V10.7105C8.97271 9.31781 9.23671 7.97114 10.9614 7.97114C12.6607 7.97114 12.686 9.56048 12.686 10.7998V16.0005H15.996Z" fill="#007BB5"/>
<path id="Vector_2" d="M0.264206 5.31836H3.58154V16.0004H0.264206V5.31836Z" fill="#007BB5"/>
<path id="Vector_3" d="M1.92133 0C0.860667 0 0 0.860667 0 1.92133C0 2.982 0.860667 3.86067 1.92133 3.86067C2.982 3.86067 3.84267 2.982 3.84267 1.92133C3.842 0.860667 2.98133 0 1.92133 0V0Z" fill="#007BB5"/>
</g>
<defs>
<clipPath id="clip0_219_749">
<rect width="16" height="16" fill="white"/>
</clipPath>
</defs>
</svg>
