<svg width="49" height="30" viewBox="0 0 49 30" fill="none" xmlns="http://www.w3.org/2000/svg">
<g id="Group 1568">
<path id="Vector" d="M24.2107 29.9979C24.049 29.9979 23.8885 29.9555 23.7467 29.8739L22.2699 28.9996C22.0494 28.8762 22.157 28.8326 22.2297 28.8075C22.5238 28.7045 22.5835 28.6812 22.8974 28.503C22.9304 28.4841 22.9736 28.4908 23.0074 28.5107L24.1419 29.1839C24.1829 29.2061 24.241 29.2061 24.279 29.1839L28.7027 26.6305C28.7436 26.6073 28.7702 26.5597 28.7702 26.5109V21.4063C28.7702 21.3554 28.7436 21.31 28.7018 21.2845L24.2799 18.7333C24.2389 18.7089 24.1847 18.7089 24.1437 18.7333L19.7227 21.2845C19.6798 21.3088 19.6526 21.3565 19.6526 21.4052V26.5098C19.6526 26.5585 19.6792 26.6051 19.7213 26.6283L20.9326 27.3281C21.5904 27.657 21.9923 27.2694 21.9923 26.8797V21.8415C21.9923 21.7695 22.0488 21.7141 22.1208 21.7141H22.6811C22.7508 21.7141 22.8084 21.7695 22.8084 21.8415V26.8819C22.8084 27.7589 22.3301 28.2627 21.4985 28.2627C21.2427 28.2627 21.0412 28.2627 20.4787 27.9859L19.3182 27.317C19.0314 27.1509 18.8542 26.8409 18.8542 26.5098V21.4052C18.8542 21.073 19.0314 20.763 19.3182 20.5991L23.7463 18.0445C24.0264 17.8862 24.3985 17.8862 24.6764 18.0445L29.099 20.6002C29.3846 20.7652 29.5629 21.0741 29.5629 21.4063V26.5109C29.5629 26.842 29.3846 27.1509 29.099 27.317L24.6764 29.8716C24.5347 29.9535 24.3741 29.9956 24.2102 29.9956" fill="#689F63"/>
<path id="Vector_2" d="M25.577 26.4824C23.6415 26.4824 23.2357 25.594 23.2357 24.8487C23.2357 24.7779 23.2928 24.7214 23.3638 24.7214H23.9351C23.9983 24.7214 24.0514 24.7674 24.0614 24.8297C24.1477 25.4119 24.4046 25.7056 25.575 25.7056C26.5074 25.7056 26.9038 25.495 26.9038 25.0006C26.9038 24.716 26.7909 24.5045 25.3425 24.3627C24.1311 24.2432 23.3826 23.9763 23.3826 23.0074C23.3826 22.1149 24.1356 21.5834 25.3968 21.5834C26.813 21.5834 27.515 22.0751 27.6036 23.1314C27.6069 23.168 27.5936 23.2034 27.5693 23.23C27.5449 23.2555 27.5106 23.271 27.4752 23.271H26.9005C26.8407 23.271 26.7886 23.2289 26.7765 23.1713C26.638 22.559 26.3036 22.363 25.3946 22.363C24.3769 22.363 24.2585 22.7173 24.2585 22.9831C24.2585 23.3053 24.398 23.3994 25.771 23.581C27.1308 23.7615 27.7763 24.0162 27.7763 24.9718C27.7763 25.9351 26.9725 26.4876 25.5706 26.4876M30.9587 21.0741H31.1071C31.2289 21.0741 31.2522 20.9888 31.2522 20.939C31.2522 20.8083 31.1625 20.8083 31.1126 20.8083H30.9598L30.9587 21.0741ZM30.7782 20.6555H31.1071C31.22 20.6555 31.4415 20.6555 31.4415 20.908C31.4415 21.084 31.3286 21.1206 31.261 21.1427C31.3928 21.1516 31.4016 21.238 31.4194 21.3598C31.4282 21.4362 31.4426 21.5679 31.4692 21.6122H31.2665C31.261 21.5679 31.23 21.3243 31.23 21.311C31.2167 21.2568 31.1979 21.2302 31.1304 21.2302H30.9631V21.6133H30.7782V20.6555ZM30.3829 21.1317C30.3829 21.5281 30.7029 21.8492 31.096 21.8492C31.4924 21.8492 31.8124 21.5214 31.8124 21.1317C31.8124 20.7341 31.488 20.4186 31.0949 20.4186C30.7074 20.4186 30.3818 20.7297 30.3818 21.1305M31.9498 21.1339C31.9498 21.6034 31.5655 21.9865 31.0971 21.9865C30.6321 21.9865 30.2445 21.6078 30.2445 21.1339C30.2445 20.6511 30.6409 20.2812 31.0971 20.2812C31.5567 20.2812 31.9486 20.6522 31.9486 21.1339" fill="#689F63"/>
<path id="Vector_3" fill-rule="evenodd" clip-rule="evenodd" d="M10.5122 10.0266C10.5122 9.82281 10.4048 9.63567 10.229 9.53436L5.53892 6.83587C5.45975 6.78937 5.37105 6.76501 5.28114 6.76168H5.23264C5.14273 6.76501 5.05404 6.78937 4.97354 6.83587L0.283689 9.53436C0.108958 9.63623 0 9.82336 0 10.0271L0.0102979 17.2954C0.0102979 17.3962 0.0623408 17.4903 0.150925 17.5401C0.237294 17.5933 0.345809 17.5933 0.432178 17.5401L3.22035 15.9434C3.39641 15.8386 3.50382 15.6535 3.50382 15.4518V12.0562C3.50382 11.8536 3.61123 11.6665 3.78673 11.5657L4.97376 10.882C5.0619 10.8311 5.15868 10.8059 5.25722 10.8059C5.35422 10.8059 5.45322 10.8309 5.53892 10.8819L6.72539 11.5654C6.90101 11.6661 7.00886 11.8533 7.00886 12.0559V15.4512C7.00886 15.6527 7.1177 15.8388 7.29288 15.9428L10.0793 17.5385C10.1668 17.5905 10.2756 17.5905 10.3627 17.5385C10.4487 17.4886 10.5032 17.3945 10.5032 17.2937L10.5122 10.0266ZM32.6436 13.8108C32.6436 13.8615 32.6166 13.9083 32.5727 13.9333L30.9618 14.8619C30.9181 14.887 30.864 14.887 30.8204 14.8619L29.2093 13.9333C29.165 13.9082 29.1384 13.8613 29.1384 13.8108V11.951C29.1384 11.9003 29.165 11.8536 29.2082 11.8281L30.8182 10.898C30.8625 10.8725 30.9167 10.8725 30.961 10.898L32.5721 11.8281C32.6164 11.8536 32.643 11.9003 32.643 11.951L32.6436 13.8108ZM33.0787 0.0358525C32.9908 -0.0130901 32.8838 -0.0117613 32.797 0.0388422C32.7107 0.0897778 32.6573 0.182791 32.6573 0.283555V7.48098C32.6573 7.55185 32.6196 7.61718 32.5583 7.65262C32.4974 7.68805 32.4215 7.68805 32.3601 7.65262L31.1852 6.97595C31.0103 6.87474 30.7948 6.87474 30.6192 6.97595L25.9276 9.68362C25.7523 9.78438 25.6441 9.97152 25.6441 10.173V15.5899C25.6441 15.7926 25.7523 15.9786 25.9276 16.0805L30.6192 18.79C30.7944 18.8908 31.0101 18.8908 31.1858 18.79L35.8774 16.0794C36.0524 15.9775 36.1609 15.7915 36.1609 15.5888V2.08867C36.1609 1.88316 36.049 1.69414 35.8697 1.59371L33.0787 0.0358525ZM48.7019 11.9021C48.8762 11.8009 48.9835 11.614 48.9835 11.4124V10.0996C48.9835 9.89766 48.8761 9.7113 48.7015 9.60965L44.0397 6.90342C43.8637 6.80155 43.6478 6.80155 43.4717 6.90342L38.7812 9.61076C38.6051 9.71263 38.4977 9.89866 38.4977 10.1013V15.516C38.4977 15.7197 38.6073 15.908 38.7834 16.0087L43.444 18.6651C43.6157 18.7637 43.826 18.7648 43.9999 18.6684L46.8191 17.1016C46.9076 17.0518 46.9641 16.9577 46.9641 16.8558C46.9641 16.7539 46.9099 16.6587 46.8213 16.6089L42.102 13.9004C42.0134 13.8506 41.9591 13.7565 41.9591 13.6557V11.9571C41.9591 11.8557 42.0123 11.7622 42.1009 11.7117L43.5691 10.8647C43.6566 10.8137 43.764 10.8137 43.8515 10.8647L45.3209 11.7117C45.4084 11.7616 45.4626 11.8557 45.4626 11.9565V13.2919C45.4626 13.3926 45.5169 13.4867 45.6044 13.5377C45.6918 13.5875 45.8003 13.5875 45.8878 13.5366L48.7019 11.9021Z" fill="#333333"/>
<path id="Vector_4" fill-rule="evenodd" clip-rule="evenodd" d="M43.6871 11.6475C43.7203 11.6279 43.762 11.6279 43.7956 11.6475L44.6959 12.1668C44.7295 12.1863 44.7501 12.2222 44.7501 12.261V13.3007C44.7501 13.3395 44.7295 13.3753 44.6959 13.3948L43.7956 13.9141C43.762 13.9337 43.7203 13.9337 43.6871 13.9141L42.7875 13.3948C42.7531 13.3753 42.7321 13.3395 42.7321 13.3007V12.261C42.7321 12.2222 42.752 12.1863 42.7863 12.1668L43.6871 11.6475Z" fill="#689F63"/>
<g id="Clip path group">
<mask id="mask0_2034_4871" style="mask-type:luminance" maskUnits="userSpaceOnUse" x="12" y="6" width="12" height="13">
<g id="a">
<path id="Vector_5" d="M17.7969 6.93076L13.1318 9.62338C12.9571 9.72414 12.8499 9.91017 12.8499 10.1113V15.5002C12.8499 15.7014 12.9571 15.8874 13.1318 15.9881L17.7972 18.6828C17.9716 18.7833 18.1866 18.7833 18.3608 18.6828L23.0254 15.9881C23.1993 15.8874 23.3067 15.7013 23.3067 15.5002V10.1113C23.3067 9.91017 23.1993 9.72414 23.0243 9.62338L18.3604 6.93076C18.2729 6.8806 18.1755 6.85547 18.078 6.85547C17.9806 6.85547 17.8831 6.8806 17.7957 6.93076" fill="white"/>
</g>
</mask>
<g mask="url(#mask0_2034_4871)">
<g id="Group">
<path id="Vector_6" d="M28.021 9.16602L14.8757 2.72266L8.13556 16.4724L21.2805 22.9161L28.021 9.16602Z" fill="url(#paint0_linear_2034_4871)"/>
</g>
</g>
</g>
<g id="Clip path group_2">
<mask id="mask1_2034_4871" style="mask-type:luminance" maskUnits="userSpaceOnUse" x="12" y="6" width="12" height="13">
<g id="c">
<path id="Vector_7" d="M12.9656 15.8362C13.0102 15.8941 13.066 15.9443 13.1317 15.9819L17.1335 18.2934L17.8001 18.6765C17.8997 18.7341 18.0133 18.7585 18.1249 18.7502C18.1622 18.7472 18.1994 18.7402 18.2357 18.7299L23.1558 9.72095C23.1182 9.67998 23.0741 9.64566 23.0247 9.61687L19.9701 7.85294L18.3555 6.92392C18.3096 6.89735 18.2599 6.87852 18.2093 6.86523L12.9656 15.8362Z" fill="white"/>
</g>
</mask>
<g mask="url(#mask1_2034_4871)">
<g id="Group_2">
<path id="Vector_8" d="M7.28201 11.0671L16.5639 23.6298L28.8394 14.5603L19.557 1.99805L7.28201 11.0671Z" fill="url(#paint1_linear_2034_4871)"/>
</g>
</g>
</g>
<g id="Clip path group_3">
<mask id="mask2_2034_4871" style="mask-type:luminance" maskUnits="userSpaceOnUse" x="13" y="6" width="11" height="13">
<g id="e">
<path id="Vector_9" d="M18.0223 6.85953C17.944 6.86728 17.8675 6.89164 17.797 6.93172L13.1452 9.61658L18.1613 18.7529C18.231 18.7429 18.2997 18.7197 18.3617 18.6838L23.0267 15.9891C23.1707 15.9056 23.2693 15.7643 23.2991 15.6042L18.1856 6.86872C18.148 6.8613 18.1104 6.85742 18.0716 6.85742C18.0561 6.85742 18.0406 6.8582 18.0251 6.85964" fill="white"/>
</g>
</mask>
<g mask="url(#mask2_2034_4871)">
<g id="Group_3">
<path id="Vector_10" d="M13.1451 6.85742V18.7531H23.2971V6.85742H13.1451Z" fill="url(#paint2_linear_2034_4871)"/>
</g>
</g>
</g>
</g>
<defs>
<linearGradient id="paint0_linear_2034_4871" x1="21.4444" y1="5.9342" x2="14.7047" y2="19.683" gradientUnits="userSpaceOnUse">
<stop offset="0.3" stop-color="#3E863D"/>
<stop offset="0.5" stop-color="#55934F"/>
<stop offset="0.8" stop-color="#5AAD45"/>
</linearGradient>
<linearGradient id="paint1_linear_2034_4871" x1="11.9786" y1="17.4205" x2="24.2546" y2="8.34997" gradientUnits="userSpaceOnUse">
<stop offset="0.57" stop-color="#3E863D"/>
<stop offset="0.72" stop-color="#619857"/>
<stop offset="1" stop-color="#76AC64"/>
</linearGradient>
<linearGradient id="paint2_linear_2034_4871" x1="13.1485" y1="12.8056" x2="23.299" y2="12.8056" gradientUnits="userSpaceOnUse">
<stop offset="0.16" stop-color="#6BBF47"/>
<stop offset="0.38" stop-color="#79B461"/>
<stop offset="0.47" stop-color="#75AC64"/>
<stop offset="0.7" stop-color="#659E5A"/>
<stop offset="0.9" stop-color="#3E863D"/>
</linearGradient>
</defs>
</svg>
