<svg width="84" height="61" viewBox="0 0 84 61" fill="none" xmlns="http://www.w3.org/2000/svg">
<path id="Vector" d="M83.3487 18.437C83.3176 14.943 76.8352 13.357 60.0546 13.357C20.6798 13.357 10.6906 11.682 0 0.478516C4.49686 7.2056 6.95743 19.823 48.5753 19.1953C91.9969 18.5291 65.5074 30.346 57.8 43.6968C71.6989 31.3412 83.307 23.1971 83.3487 18.4876V18.437ZM28.019 54.3156C28.0184 55.8857 27.3918 57.3914 26.2769 58.5016C25.1621 59.6118 23.6502 60.2357 22.0737 60.2361C18.7791 60.2361 16.1155 57.5833 16.1155 54.3156C16.1149 53.5361 16.2686 52.7641 16.5678 52.0439C16.867 51.3236 17.3059 50.6691 17.8593 50.1179C18.4126 49.5667 19.0697 49.1296 19.7928 48.8315C20.516 48.5334 21.2911 48.3802 22.0737 48.3807C25.3562 48.3807 28.019 51.0343 28.019 54.3156ZM55.1342 54.3156C55.1336 55.8857 54.507 57.3914 53.3922 58.5016C52.2773 59.6118 50.7654 60.2357 49.1889 60.2361C45.8973 60.2361 43.2315 57.5833 43.2315 54.3156C43.2309 53.5361 43.3846 52.7643 43.6837 52.044C43.9829 51.3238 44.4217 50.6694 44.975 50.1182C45.5283 49.567 46.1852 49.1298 46.9083 48.8317C47.6314 48.5336 48.4063 48.3803 49.1889 48.3807C52.4714 48.3807 55.1342 51.0343 55.1342 54.3156Z" fill="url(#paint0_linear_2038_4105)"/>
<defs>
<linearGradient id="paint0_linear_2038_4105" x1="19088.9" y1="5941.15" x2="19088.9" y2="0.478516" gradientUnits="userSpaceOnUse">
<stop stop-color="#04B6F0"/>
<stop offset="1" stop-color="#3ECAF0"/>
</linearGradient>
</defs>
</svg>
