<svg width="45" height="42" viewBox="0 0 45 42" fill="none" xmlns="http://www.w3.org/2000/svg">
<path d="M14.012 16.3735C13.8944 16.1538 13.6643 16.0096 13.4064 15.9935L7.22315 15.6008C6.90274 15.5707 6.60652 15.7597 6.48964 16.0439L2.03211 26.8933C1.9123 27.1845 2.01006 27.5156 2.27173 27.7053C2.40257 27.8004 2.55985 27.8481 2.71636 27.8481C2.8714 27.8481 3.02653 27.8019 3.15737 27.7081L6.85717 25.0658L9.01138 25.4759C9.36273 25.5425 9.71398 25.3591 9.84189 25.0392C10.9988 22.1532 12.3915 19.4696 13.9797 17.0638C14.1172 16.8551 14.1296 16.5926 14.012 16.3735ZM8.69381 23.9877L6.82263 23.6315C6.61832 23.593 6.40514 23.6392 6.23761 23.7581L4.34214 25.1118L7.66192 17.0314L12.0996 17.3128C10.8208 19.3743 9.67867 21.6127 8.69381 23.9877Z" fill="black"/>
<path d="M27.7198 35.1218L27.3075 29.2323C27.2898 28.9858 27.1384 28.7668 26.9076 28.6548C26.6776 28.5428 26.4019 28.5539 26.183 28.6855C23.6561 30.1981 20.839 31.5246 17.8088 32.6263C17.4737 32.7474 17.2796 33.082 17.3503 33.4172L17.7809 35.4689L15.0065 38.9918C14.8095 39.2424 14.8102 39.5867 15.0094 39.836C15.1513 40.0137 15.3695 40.1124 15.5944 40.1124C15.6841 40.1124 15.7745 40.0963 15.8626 40.0655L27.2546 35.8202C27.5529 35.7091 27.7411 35.4262 27.7198 35.1218ZM17.7324 37.8636L19.1537 36.0584C19.2787 35.8995 19.3272 35.6965 19.286 35.5012L18.912 33.7198C21.4064 32.7818 23.7561 31.6941 25.9205 30.4761L26.2167 34.7018L17.7324 37.8636Z" fill="black"/>
<path d="M21.3138 21H16.3616C16.0948 21 15.8494 21.1379 15.7192 21.3598L9.50356 31.9965C9.34189 32.2737 9.39624 32.6209 9.63586 32.8407C9.77626 32.9695 9.96068 33.0367 10.146 33.0367C10.2768 33.0367 10.4083 33.0038 10.5259 32.9352L21.6945 26.4983C21.9142 26.3717 22.0487 26.1449 22.0487 25.8999V21.7C22.0488 21.3136 21.7195 21 21.3138 21ZM20.5789 25.5057L12.1349 30.3726L16.7931 22.4006V22.3999H20.5789V25.5057Z" fill="black"/>
<path d="M44.0645 0.67434C44.0343 0.333494 43.7507 0.0632783 43.3927 0.0345669C43.1487 0.0163556 18.9456 -1.59288 8.46943 24.5397C8.36581 24.798 8.43119 25.0892 8.63627 25.2845L12.131 28.6128C12.2949 28.7689 12.5242 28.8403 12.7543 28.8109C12.9829 28.7794 13.1828 28.6478 13.2945 28.4553L16.7959 22.4006H20.5795V25.5147L14.1838 29.3603C13.995 29.4745 13.8707 29.6635 13.8458 29.8749C13.8208 30.0863 13.8987 30.2969 14.0567 30.4474L17.5514 33.7758C17.6918 33.9095 17.8793 33.9808 18.0711 33.9808C18.1593 33.9808 18.2482 33.9662 18.3335 33.9347C45.774 23.9566 44.0851 0.906082 44.0645 0.67434ZM40.2088 13.0932C37.6298 19.1702 31.7281 27.432 18.2525 32.4641L15.7462 30.0772L21.7068 26.4933C21.9199 26.3645 22.0493 26.1412 22.0493 25.9011V21.7013C22.0493 21.3149 21.72 21.0013 21.3143 21.0013H16.3606C16.0924 21.0013 15.8462 21.1406 15.7168 21.3639L12.4778 26.965L10.0135 24.6173C19.2101 2.27307 38.8131 1.3589 42.6239 1.41001C42.6511 3.04238 42.4938 7.70832 40.2088 13.0932Z" fill="black"/>
<path d="M12.5899 30.9156C12.4304 30.714 12.1761 30.616 11.927 30.6412C11.9527 30.4032 11.8498 30.1617 11.6388 30.0098C10.5305 29.2118 9.10028 28.9465 7.71343 29.2811C6.2413 29.6373 5.0374 30.5935 4.41121 31.9059L0.0661554 41.0104C-0.060979 41.2763 -0.00146013 41.5893 0.21534 41.795C0.355739 41.9294 0.543857 42.0001 0.734989 42.0001C0.83792 42.0001 0.94154 41.9791 1.0393 41.9371L10.599 37.7983C11.9763 37.2026 12.9803 36.056 13.3544 34.654C13.7064 33.3346 13.4278 31.9718 12.5899 30.9156ZM11.93 34.3097C11.6668 35.2973 10.9598 36.1044 9.99117 36.5244L2.21521 39.8905L5.74965 32.4842C6.18988 31.5617 7.03805 30.8882 8.07511 30.6377C8.34781 30.5719 8.62189 30.5397 8.89235 30.5397C9.35024 30.5397 9.7978 30.6328 10.2057 30.8141L9.50606 31.9936C9.34361 32.2672 9.39288 32.6109 9.62656 32.8328C9.86024 33.0561 10.2211 33.1023 10.5078 32.9476L11.7462 32.2805C12.0475 32.8979 12.1159 33.6111 11.93 34.3097Z" fill="black"/>
<path d="M44.0643 0.67484C44.0341 0.333995 43.7504 0.0637807 43.3925 0.0350694C43.1058 0.0133308 36.2927 -0.478043 28.2802 3.03721C28.0619 3.13237 27.9068 3.32416 27.8641 3.54958C27.8215 3.77501 27.898 4.00593 28.0678 4.16761L39.7243 15.2691C39.8632 15.4014 40.0507 15.4741 40.2439 15.4741C40.2873 15.4741 40.3307 15.4706 40.374 15.4636C40.6107 15.423 40.8113 15.2754 40.912 15.0674C44.6037 7.43644 44.0878 0.947105 44.0643 0.67484ZM40.0058 13.5562L29.8662 3.89953C35.732 1.54135 40.8686 1.37892 42.6244 1.40698C42.6538 3.0806 42.4884 7.95726 40.0058 13.5562Z" fill="black"/>
<path d="M32.4588 11.0868C29.9871 8.73279 25.9661 8.73279 23.4944 11.0868C21.0227 13.4408 21.0227 17.2703 23.4944 19.6243C24.7299 20.8016 26.3535 21.3896 27.9763 21.3896C29.5998 21.3896 31.2226 20.8009 32.4588 19.6243C34.9305 17.2703 34.9305 13.4407 32.4588 11.0868ZM31.4196 18.6345C29.5212 20.4425 26.4321 20.4425 24.5337 18.6345C22.6353 16.8265 22.6353 13.8845 24.5337 12.0765C25.4826 11.1728 26.7298 10.7207 27.9763 10.7207C29.2229 10.7207 30.4701 11.1728 31.4197 12.0765C33.318 13.8845 33.318 16.8265 31.4196 18.6345Z" fill="black"/>
<path d="M29.4377 16.7477C28.6322 17.5162 27.3211 17.5155 26.5148 16.7477C25.7092 15.9798 25.7092 14.7318 26.5148 13.9638C27.3203 13.1967 28.6314 13.196 29.4377 13.9638C29.7244 14.2375 30.1904 14.2375 30.477 13.9638C30.7643 13.6902 30.7643 13.2478 30.477 12.9741C29.0989 11.661 26.8543 11.661 25.4755 12.9741C24.0967 14.2872 24.0967 16.4243 25.4755 17.7374C26.165 18.394 27.0712 18.7223 27.9766 18.7223C28.8829 18.7223 29.7883 18.394 30.477 17.7374C30.7643 17.4637 30.7643 17.0213 30.477 16.7477C30.1903 16.474 29.7244 16.474 29.4377 16.7477Z" fill="black"/>
</svg>
