<svg width="22" height="22" viewBox="0 0 22 22" fill="none" xmlns="http://www.w3.org/2000/svg">
<g id="Business_Management_PersonChart2 1" clip-path="url(#clip0_2095_499)">
<g id="Group">
<path id="Vector" d="M13.6887 6.84399H16.622V10.7551H17.5998V6.3551C17.5998 6.06177 17.4043 5.86621 17.1109 5.86621H13.1998C12.9065 5.86621 12.7109 6.06177 12.7109 6.3551V16.6218H13.6887V6.84399Z" fill="#0904F2"/>
<path id="Vector_2" d="M7.8225 0.977778H10.7558V20.5333H11.7336V0.488889C11.7336 0.195556 11.5381 0 11.2447 0H7.33362C7.04028 0 6.84473 0.195556 6.84473 0.488889V20.5333H7.8225V0.977778Z" fill="#0904F2"/>
<path id="Vector_3" d="M1.95532 10.7551H4.88865V20.5329H5.86643V10.2662C5.86643 9.9729 5.67087 9.77734 5.37754 9.77734H1.46643C1.17309 9.77734 0.977539 9.9729 0.977539 10.2662V20.5329H1.95532V10.7551Z" fill="#0904F2"/>
<path id="Vector_4" d="M22 21.0225H0V22.0002H22V21.0225Z" fill="#0904F2"/>
<path id="Vector_5" d="M13.6887 19.0665C13.6887 18.2354 15.5954 17.6488 16.9643 17.5999C17.0132 17.5999 17.062 17.5999 17.1109 17.5999C17.1598 17.5999 17.2087 17.5999 17.2576 17.5999C18.6265 17.6488 20.5332 18.2354 20.5332 19.0665V20.5332H21.5109V19.0665C21.5109 17.8932 20.1909 17.2088 18.8709 16.8665C19.3109 16.3777 19.5554 15.6932 19.5554 15.0088V14.3243C19.5554 12.9554 18.4798 11.8799 17.1109 11.8799C15.742 11.8799 14.6665 12.9554 14.6665 14.3243V15.0088C14.6665 15.6932 14.9109 16.3288 15.3509 16.8177C14.0309 17.1599 12.7109 17.8932 12.7109 19.0665V20.5332H13.6887V19.0665ZM15.6443 14.3243C15.6443 13.4932 16.2798 12.8577 17.1109 12.8577C17.942 12.8577 18.5776 13.4932 18.5776 14.3243V15.0088C18.6265 15.791 18.0398 16.5243 17.2576 16.6221H16.9643C16.182 16.5243 15.5954 15.791 15.6443 15.0088V14.3243Z" fill="#0904F2"/>
</g>
</g>
<defs>
<clipPath id="clip0_2095_499">
<rect width="22" height="22" fill="white"/>
</clipPath>
</defs>
</svg>
