<svg width="18" height="22" viewBox="0 0 18 22" fill="none" xmlns="http://www.w3.org/2000/svg">
<g id="Clean_Energy_GreenPower 1" clip-path="url(#clip0_2095_371)">
<g id="Group">
<path id="Vector" d="M6.93862 0.035623L6.03418 0.276367L6.34921 1.44443L7.25365 1.20369L6.93862 0.035623Z" fill="#0904F2"/>
<path id="Vector_2" d="M2.75781 2.22504L2.0957 2.88281L2.95644 3.73791L3.61855 3.08014L2.75781 2.22504Z" fill="#0904F2"/>
<path id="Vector_3" d="M0.25884 6.18733L0.0166016 7.08594L1.19249 7.39878L1.43473 6.50018L0.25884 6.18733Z" fill="#0904F2"/>
<path id="Vector_4" d="M1.2119 10.5142L0.0361328 10.8271L0.278465 11.7257L1.45424 11.4127L1.2119 10.5142Z" fill="#0904F2"/>
<path id="Vector_5" d="M3.10293 14.1273L2.24219 14.9824L2.90429 15.6402L3.76503 14.7851L3.10293 14.1273Z" fill="#0904F2"/>
<path id="Vector_6" d="M14.8877 13.9799L14.2256 14.6377L15.0863 15.4928L15.7484 14.835L14.8877 13.9799Z" fill="#0904F2"/>
<path id="Vector_7" d="M16.6535 10.3173L16.4111 11.2158L17.5869 11.5288L17.8292 10.6303L16.6535 10.3173Z" fill="#0904F2"/>
<path id="Vector_8" d="M17.5596 5.99465L16.3838 6.30762L16.6261 7.20613L17.8019 6.89316L17.5596 5.99465Z" fill="#0904F2"/>
<path id="Vector_9" d="M14.935 2.07654L14.0742 2.93164L14.7363 3.58941L15.5971 2.73431L14.935 2.07654Z" fill="#0904F2"/>
<path id="Vector_10" d="M10.7066 0.00576379L10.3916 1.17383L11.296 1.41457L11.6111 0.246508L10.7066 0.00576379Z" fill="#0904F2"/>
<path id="Vector_11" d="M8.9425 11.3493L9.22341 12.233C9.78523 12.047 11.7516 11.3028 12.1262 9.67489C12.688 7.39583 11.2834 5.34931 9.64478 4.41908L9.22341 4.18652L8.98932 4.65164C8.61477 5.3028 8.14659 5.81443 7.53795 6.27955C6.69521 7.02373 5.71203 7.81443 5.47793 9.34931C5.29066 10.4191 6.22703 12.0005 7.58477 12.5121C7.6784 13.1168 7.86568 13.7214 8.09977 14.2795L8.9425 13.8609C7.91249 11.7679 8.66159 9.90745 9.31705 8.27955C9.41069 7.95396 9.55114 7.6749 9.64478 7.39583L8.75523 7.07024C8.66159 7.34931 8.52113 7.62838 8.4275 7.90745C7.91249 9.02373 7.58477 10.1865 7.49113 11.4423C6.78885 11.0237 6.36749 10.2795 6.32067 9.48885C6.50794 8.32606 7.25704 7.6749 8.05295 6.97722C8.56795 6.55862 9.08296 6.04699 9.4575 5.48885C10.7684 6.37257 11.4239 7.90745 11.0962 9.44234C10.9557 10.6516 9.27023 11.2563 8.9425 11.3493Z" fill="#0904F2"/>
<path id="Vector_12" d="M9.03595 21.0699H8.52095L7.58458 20.1396H6.46094V21.0699H7.16321L8.09958 22.0001H9.45732L10.3937 21.0699H11.1428V20.1396H9.97232L9.03595 21.0699Z" fill="#0904F2"/>
<path id="Vector_13" d="M12.079 16.8838H5.52441V17.814H12.079V16.8838Z" fill="#0904F2"/>
<path id="Vector_14" d="M12.079 18.7441H5.52441V19.6744H12.079V18.7441Z" fill="#0904F2"/>
<path id="Vector_15" d="M8.80222 2.46484C5.43129 2.46484 2.71582 5.16252 2.71582 8.51135C2.71582 10.2323 3.37128 11.9067 4.54174 13.1625C5.15038 13.7672 5.52493 14.6044 5.52493 15.4881V16.4183H6.4613V15.4881C6.4613 14.3718 5.99311 13.3021 5.1972 12.5114C4.21401 11.4416 3.65219 9.99973 3.65219 8.51135C3.65219 5.67415 5.9463 3.39508 8.80222 3.39508C11.6581 3.39508 13.9523 5.67415 13.9523 8.51135C13.9523 9.99973 13.3904 11.3951 12.4072 12.5114C11.6113 13.3021 11.1431 14.3718 11.1431 15.4881V16.4183H12.0795V15.4881C12.0795 14.6044 12.4541 13.7672 13.0627 13.1625C14.2332 11.9067 14.8886 10.2323 14.8886 8.51135C14.8886 5.16252 12.1263 2.46484 8.80222 2.46484Z" fill="#0904F2"/>
</g>
</g>
<defs>
<clipPath id="clip0_2095_371">
<rect width="17.8378" height="22" fill="white"/>
</clipPath>
</defs>
</svg>
