<svg width="26" height="22" viewBox="0 0 26 22" fill="none" xmlns="http://www.w3.org/2000/svg">
<g id="Business_Management_PersonArrows 1" clip-path="url(#clip0_2095_415)">
<g id="Group">
<path id="Vector" d="M17.2333 15.19V14.1424C17.2333 12.8852 15.819 12.1519 14.4047 11.7852C14.8761 11.2614 15.138 10.5805 15.138 9.84714V9.06143C15.138 7.59476 13.9856 6.44238 12.519 6.44238C11.0523 6.44238 9.89993 7.59476 9.89993 9.06143V9.79476C9.89993 10.5281 10.1618 11.209 10.6333 11.7329C9.21897 12.0995 7.80469 12.8329 7.80469 14.09V15.1376H8.85231V14.09C8.85231 13.1995 10.8952 12.571 12.3618 12.5186C12.4142 12.5186 12.4666 12.5186 12.519 12.5186C12.5714 12.5186 12.6237 12.5186 12.6761 12.5186C14.1428 12.571 16.1856 13.1995 16.1856 14.09V15.1376H17.2333V15.19ZM14.0904 9.79476C14.1428 10.6329 13.5142 11.4186 12.6761 11.5233H12.3618C11.5237 11.4186 10.8952 10.6329 10.9475 9.79476V9.06143C10.9475 8.17095 11.6285 7.49 12.519 7.49C13.4094 7.49 14.0904 8.17095 14.0904 9.06143V9.79476Z" fill="#0904F2"/>
<path id="Vector_2" d="M5.18571 11C5.18571 6.96667 8.48571 3.66667 12.519 3.66667C15.0333 3.66667 17.3905 4.97619 18.7524 7.07143L19.6429 6.49524C17.181 2.56667 11.9952 1.41429 8.06667 3.87619C5.60476 5.39524 4.13809 8.06667 4.13809 10.9476V11.9952H4.81905L3.5619 14.1952L1.99048 11.9952H2.51429V10.9476C2.51429 5.44762 6.96667 0.995238 12.4667 0.995238V0C6.39048 0 1.46667 4.92381 1.46667 11H0L3.66667 16.1333L6.65238 11H5.18571Z" fill="#0904F2"/>
<path id="Vector_3" d="M19.1717 2.25286C18.805 1.99096 18.4383 1.72906 18.0717 1.51953L17.5479 2.41001C17.9145 2.61953 18.2288 2.82905 18.5431 3.09096L19.1717 2.25286Z" fill="#0904F2"/>
<path id="Vector_4" d="M16.9713 0.942485C16.6046 0.785342 16.2903 0.68058 15.9237 0.523438L15.6094 1.51868C15.9237 1.62344 16.2379 1.7282 16.5522 1.88534L16.9713 0.942485Z" fill="#0904F2"/>
<path id="Vector_5" d="M14.667 0.209877C14.3004 0.157496 13.9861 0.105115 13.6194 0.0527344L13.5146 1.10035C13.8289 1.15273 14.1432 1.20512 14.4575 1.2575L14.667 0.209877Z" fill="#0904F2"/>
<path id="Vector_6" d="M21.3714 5.86621L18.4381 10.9995H19.8524C19.9048 15.0329 16.6571 18.2805 12.6238 18.3329C10.1095 18.3329 7.75238 17.0757 6.39048 14.9281L5.5 15.5043C7.9619 19.3805 13.0952 20.5853 16.9714 18.1234C19.4333 16.6043 20.9 13.8805 20.9 10.9995V9.95193H20.219L21.4238 7.75193L22.9952 9.95193H22.419V10.9995C22.419 16.4995 17.9667 20.9519 12.519 20.9519V21.9995C18.5952 21.9995 23.4667 17.0757 23.4667 10.9995H25.0381L21.3714 5.86621Z" fill="#0904F2"/>
<path id="Vector_7" d="M5.91895 19.7473C6.28561 20.0092 6.65228 20.2711 7.01895 20.4806L7.54275 19.5901C7.17609 19.3806 6.8618 19.1711 6.54752 18.9092L5.91895 19.7473Z" fill="#0904F2"/>
<path id="Vector_8" d="M8.17188 21.0571C8.53854 21.2143 8.85283 21.319 9.21949 21.4762L9.53378 20.4809C9.21949 20.3762 8.90521 20.2714 8.59092 20.1143L8.17188 21.0571Z" fill="#0904F2"/>
<path id="Vector_9" d="M10.4238 21.7908C10.7905 21.8432 11.1048 21.8955 11.4714 21.9479L11.5762 20.9003C11.2619 20.8479 10.9476 20.7955 10.6334 20.7432L10.4238 21.7908Z" fill="#0904F2"/>
</g>
</g>
<defs>
<clipPath id="clip0_2095_415">
<rect width="25.0905" height="22" fill="white"/>
</clipPath>
</defs>
</svg>
