<svg width="22" height="22" viewBox="0 0 22 22" fill="none" xmlns="http://www.w3.org/2000/svg">
<g id="Group">
<path id="Vector" d="M10.3535 -7.14734e-05L9.41016 0.12207L9.87429 3.70686L10.8177 3.58471L10.3535 -7.14734e-05Z" fill="#0904F2"/>
<path id="Vector_2" d="M7.41406 2.55275L6.56934 2.99023L7.96929 5.69333L8.81401 5.25585L7.41406 2.55275Z" fill="#0904F2"/>
<path id="Vector_3" d="M3.40875 3.07341L2.76465 3.77344L5.42477 6.22101L6.06887 5.52098L3.40875 3.07341Z" fill="#0904F2"/>
<path id="Vector_4" d="M2.73792 6.96662L2.37207 7.84473L5.18202 9.01546L5.54787 8.13735L2.73792 6.96662Z" fill="#0904F2"/>
<path id="Vector_5" d="M0.0434841 9.87196L0 10.8223L3.61117 10.9875L3.65466 10.0372L0.0434841 9.87196Z" fill="#0904F2"/>
<path id="Vector_6" d="M4.86586 12.414L1.96094 13.3232L2.24508 14.231L5.15 13.3218L4.86586 12.414Z" fill="#0904F2"/>
<path id="Vector_7" d="M4.75173 15.0153L1.89062 17.2246L2.47204 17.9775L5.33314 15.7682L4.75173 15.0153Z" fill="#0904F2"/>
<path id="Vector_8" d="M7.13426 16.1164L5.49414 18.6807L6.29548 19.1932L7.93561 16.6289L7.13426 16.1164Z" fill="#0904F2"/>
<path id="Vector_9" d="M8.75771 18.2647L7.9668 21.792L8.89504 22.0001L9.68595 18.4728L8.75771 18.2647Z" fill="#0904F2"/>
<path id="Vector_10" d="M12.1982 17.3543L11.2549 17.4766L11.646 20.4953L12.5894 20.3731L12.1982 17.3543Z" fill="#0904F2"/>
<path id="Vector_11" d="M14.746 17.6327L13.9014 18.0703L15.5642 21.2799L16.4088 20.8423L14.746 17.6327Z" fill="#0904F2"/>
<path id="Vector_12" d="M15.9312 15.2004L15.2871 15.9004L17.5272 17.9615L18.1713 17.2615L15.9312 15.2004Z" fill="#0904F2"/>
<path id="Vector_13" d="M18.0962 13.7547L17.7305 14.6328L21.0673 16.0227L21.433 15.1446L18.0962 13.7547Z" fill="#0904F2"/>
<path id="Vector_14" d="M17.389 11.1688L17.3457 12.1191L20.3867 12.2578L20.43 11.3075L17.389 11.1688Z" fill="#0904F2"/>
<path id="Vector_15" d="M21.5951 7.56968L18.1455 8.64941L18.4296 9.5572L21.8792 8.47746L21.5951 7.56968Z" fill="#0904F2"/>
<path id="Vector_16" d="M18.3182 5.27111L15.8994 7.11914L16.4769 7.87501L18.8957 6.02698L18.3182 5.27111Z" fill="#0904F2"/>
<path id="Vector_17" d="M16.849 1.59846L14.9014 4.64355L15.7027 5.15609L17.6504 2.111L16.849 1.59846Z" fill="#0904F2"/>
<path id="Vector_18" d="M12.8428 1.99155L12.1768 4.96191L13.105 5.17005L13.771 2.19968L12.8428 1.99155Z" fill="#0904F2"/>
<path id="Vector_19" d="M15.0603 9.17798L13.6334 7.75109C13.4431 7.56084 13.1577 7.56084 12.9675 7.75109L9.97101 10.7476L8.87706 9.65361C8.68681 9.46336 8.40143 9.46336 8.21118 9.65361L6.78429 11.0805C6.59404 11.2707 6.59404 11.5561 6.78429 11.7464L9.63807 14.6002C9.82832 14.7904 10.1137 14.7904 10.304 14.6002L15.0603 9.84386C15.2029 9.65361 15.2505 9.36823 15.0603 9.17798ZM9.92345 13.6013L7.73555 11.4134L8.49656 10.6524L9.59051 11.7464C9.78076 11.9366 10.0661 11.9366 10.2564 11.7464L13.2529 8.74991L14.0139 9.51092L9.92345 13.6013Z" fill="#0904F2"/>
</g>
</svg>
