<svg width="20" height="22" viewBox="0 0 20 22" fill="none" xmlns="http://www.w3.org/2000/svg">
<g id="Approved_PersonCheck 3" clip-path="url(#clip0_2095_394)">
<g id="Group">
<path id="Vector" d="M2.27395 8.11283C2.22847 9.39616 3.22899 10.4962 4.50238 10.542H4.54785C5.82124 10.4962 6.86723 9.44199 6.82176 8.15866V8.11283V7.47116C6.86723 6.18783 5.86672 5.08783 4.59333 5.04199H4.54785C3.27447 5.08783 2.22847 6.14199 2.27395 7.42533V7.47116V8.11283ZM3.18351 8.11283V7.47116C3.13803 6.69199 3.72925 6.00449 4.50238 5.95866C4.50238 5.95866 4.50238 5.95866 4.54785 5.95866C5.32098 6.00449 5.95767 6.64616 5.91219 7.42533C5.91219 7.42533 5.91219 7.42533 5.91219 7.47116V8.11283C5.95767 8.89199 5.36646 9.57949 4.59333 9.62533C4.59333 9.62533 4.59333 9.62533 4.54785 9.62533C3.77473 9.57949 3.13803 8.93783 3.18351 8.11283Z" fill="#0904F2"/>
<path id="Vector_2" d="M12.0517 13.3375C12.0063 13.2917 11.9153 13.2917 11.8244 13.2917H7.27655C7.09464 13.2917 6.9582 13.3833 6.86725 13.5208L6.45794 14.3458L4.77526 13.3375L4.32048 14.1167L6.04864 15.1708L5.86673 15.5833H3.18352V13.75H2.27396V15.5833C2.27396 16.0875 2.68327 16.5 3.18352 16.5H5.41195L4.72978 17.875H3.18352C2.13753 17.875 0.909623 17.5542 0.909623 16.0417V14.2083C0.909623 12.6042 1.59179 11.9167 3.18352 11.9167H5.45743C6.36699 12.0542 7.23107 12.3292 8.0042 12.7875L8.4135 11.9625C7.50394 11.4583 6.50342 11.0917 5.45743 11H3.18352C1.09154 11 6.26128e-05 12.1 6.26128e-05 14.2083V16.0417C-0.0454154 17.2333 0.682233 18.2875 1.81918 18.6083V22H2.72874V18.7917C2.86518 18.7917 3.04709 18.7917 3.18352 18.7917H4.275L4.13856 19.0208C4.04761 19.25 4.09309 19.525 4.32048 19.6167C4.41143 19.7083 4.45691 19.7083 4.54787 19.7083H6.82177V22H7.73133V19.7083H9.09567C9.27758 19.7083 9.41401 19.6167 9.50497 19.4792L10.2781 17.875H10.3236C10.8238 17.875 11.3241 17.6 11.5515 17.0958L11.8698 16.4083C12.0063 16.1333 12.0063 15.8125 11.8244 15.5375C11.7334 15.4 11.6424 15.3083 11.5515 15.2625L12.1882 13.9333C12.3701 13.75 12.2791 13.475 12.0517 13.3375ZM10.7784 16.7292C10.6874 16.8667 10.551 17.0042 10.3691 16.9583H9.41402L9.8688 16.0417H11.1422L10.7784 16.7292ZM10.6419 15.125H9.55045C9.36854 15.125 9.2321 15.2167 9.14115 15.3542L8.23159 17.1875C8.14063 17.4167 8.18611 17.6917 8.4135 17.7833C8.50445 17.875 8.54993 17.875 8.64089 17.875H9.27758L8.8228 18.7917H5.27551L7.54942 14.2083H11.0967L10.6419 15.125Z" fill="#0904F2"/>
<path id="Vector_3" d="M17.7366 0H9.55057C8.55005 0 7.73145 0.825 7.73145 1.83333V7.79167C7.73145 8.8 8.55005 9.625 9.55057 9.625H10.0053V11.4583C10.0053 11.8708 10.2782 12.1917 10.642 12.3292C10.733 12.375 10.824 12.375 10.9149 12.375C11.1878 12.375 11.4606 12.2375 11.6426 12.0083L13.4162 9.625H17.2818C18.5552 9.625 19.5557 8.61667 19.5557 7.33333V1.83333C19.5557 0.825 18.7371 0 17.7366 0ZM18.6462 7.33333C18.6462 8.1125 18.055 8.70833 17.2818 8.70833H13.1888C13.0524 8.70833 12.9159 8.75417 12.825 8.89167L10.9149 11.4583V9.16667C10.9149 8.89167 10.733 8.70833 10.4601 8.70833H9.55057C9.05031 8.70833 8.64101 8.29583 8.64101 7.79167V1.83333C8.64101 1.32917 9.05031 0.916667 9.55057 0.916667H17.7366C18.2369 0.916667 18.6462 1.32917 18.6462 1.83333V7.33333Z" fill="#0904F2"/>
<path id="Vector_4" d="M13.1437 6.18711L11.6885 4.72044L11.0518 5.36211L13.2347 7.56211L16.7365 3.02461L16.0089 2.47461L13.1437 6.18711Z" fill="#0904F2"/>
</g>
</g>
<defs>
<clipPath id="clip0_2095_394">
<rect width="19.5556" height="22" fill="white"/>
</clipPath>
</defs>
</svg>
