<svg width="22" height="22" viewBox="0 0 22 22" fill="none" xmlns="http://www.w3.org/2000/svg">
<g id="People-Orgs_HandsTogether 1" clip-path="url(#clip0_2095_444)">
<g id="Group">
<path id="Vector" d="M19.759 13.9044L19.4389 14.2245L18.7528 13.5842C18.3412 13.1268 18.0667 12.5322 18.021 11.9376C17.8838 11.0686 17.4264 10.2911 16.8318 9.69646L15.231 8.09563C14.7736 7.54677 13.9503 7.50103 13.4014 7.95841C13.3557 8.00415 13.31 8.04989 13.2642 8.09563L12.9441 8.41579L11.3432 6.81496C11.1145 6.54053 10.7486 6.40332 10.3827 6.40332C10.0168 6.40332 9.65093 6.54053 9.42224 6.81496L9.05633 7.18087C8.50748 6.63201 7.63845 6.63201 7.13533 7.18087C6.58648 7.72972 6.58648 8.59875 7.13533 9.10187L6.86091 9.42203C6.31205 9.97089 6.31205 10.8399 6.81517 11.3888L7.13533 11.7089L6.86091 11.9834C6.31205 12.5322 6.31205 13.4012 6.81517 13.9501L10.7029 17.8378C11.1603 18.2495 11.7091 18.5239 12.3495 18.7069C12.7154 18.7983 13.0355 18.9355 13.31 19.1642L13.9503 19.8046L13.6301 20.1247L15.5511 22.0457L16.1915 21.4054L14.9108 20.1247L19.759 15.2765L21.0854 16.5572L21.7258 15.9168L19.759 13.9044ZM14.5449 19.0728L13.9046 18.4324C13.5387 18.1123 13.0813 17.8836 12.5782 17.7921C12.1208 17.7006 11.6634 17.4719 11.2975 17.1518L7.4555 13.264C7.27255 13.0811 7.31829 12.7609 7.50124 12.578L7.77567 12.2578L10.0626 14.5447L10.7029 13.9044L7.4555 10.657C7.27255 10.474 7.31829 10.1538 7.50124 9.97089L7.8214 9.69646L11.3432 13.264L11.9836 12.6237L7.77567 8.41579C7.68419 8.32432 7.63845 8.23284 7.63845 8.09563C7.63845 7.95841 7.68419 7.86694 7.77567 7.77546C7.95862 7.59251 8.23305 7.59251 8.416 7.77546L12.6239 11.9834L13.2642 11.343L9.69667 7.77546L10.0626 7.40956C10.154 7.31808 10.2455 7.27234 10.3827 7.27234C10.5199 7.27234 10.6114 7.31808 10.7029 7.40956L14.2705 10.9314L14.9108 10.2911L13.6301 9.01039L13.9503 8.69022C14.0875 8.50727 14.3162 8.46153 14.4992 8.59875C14.5449 8.64448 14.5906 8.64448 14.5906 8.69022L16.1915 10.2911C16.6946 10.7484 17.0148 11.3888 17.152 12.0291C17.2434 12.8066 17.6093 13.5842 18.1582 14.1331L18.7985 14.7734L14.5449 19.0728Z" fill="#0904F2"/>
<path id="Vector_2" d="M2.2869 8.09578L2.92723 8.73611C3.15593 9.01054 3.29314 9.33071 3.38462 9.69661C3.52183 10.2912 3.842 10.8401 4.25364 11.2974L5.48857 12.5781L6.1289 11.9378L4.84823 10.6571C4.52807 10.2912 4.34511 9.83383 4.2079 9.37645C4.07069 8.87333 3.842 8.41595 3.52183 8.05004L2.8815 7.40971L7.0894 3.20181L7.77547 3.88788C8.37006 4.43674 9.10187 4.80264 9.92516 4.89412C10.6112 5.03133 11.2058 5.3515 11.6632 5.85462L13.264 7.45545L13.9044 6.81511L12.3035 5.21428C11.7089 4.57395 10.9314 4.16231 10.0624 4.02509C9.46778 3.97936 8.87318 3.70493 8.4158 3.29329L7.77547 2.60721L8.09563 2.28705L6.17464 0.320312L5.48857 0.960645L6.76923 2.28705L1.921 7.13528L0.640333 5.85462L0 6.44921L1.921 8.37021L2.2869 8.09578Z" fill="#0904F2"/>
<path id="Vector_3" d="M9.10187 17.4262C8.59875 17.5635 8.18711 17.7921 7.77547 18.1123L7.13514 18.7526L2.92724 14.5447L3.56757 13.9044C4.07069 13.3556 4.43659 12.6695 4.52807 11.8919L3.61331 11.709C3.56757 12.2578 3.29314 12.8067 2.92724 13.2183L2.2869 13.9044L1.96674 13.5842L0 15.5052L0.640333 16.1456L1.921 14.8649L6.76923 19.7131L5.48857 21.0395L6.1289 21.6799L8.0499 19.7589L7.77547 19.4387L8.4158 18.7526C8.69023 18.524 9.0104 18.3867 9.3763 18.2953C9.60499 18.2038 9.83368 18.158 10.0624 18.0666L9.69647 17.1975C9.51351 17.289 9.28482 17.3805 9.10187 17.4262Z" fill="#0904F2"/>
<path id="Vector_4" d="M13.9046 3.56757L14.5449 2.92724L18.7528 7.13514L18.1125 7.77547C17.7923 8.14137 17.5636 8.59875 17.4264 9.10187C17.3349 9.33056 17.2892 9.51351 17.1977 9.69647L18.021 10.0624C18.1125 9.83368 18.2039 9.60499 18.2497 9.3763C18.3412 9.0104 18.4784 8.69023 18.7071 8.4158L19.3474 7.77547L19.6676 8.09563L21.5886 6.17464L21.0397 5.48857L19.759 6.76923L14.8651 1.921L16.1457 0.640333L15.5054 0L13.5844 1.921L13.9046 2.24116L13.2642 2.92724C12.8526 3.33888 12.3037 3.56757 11.7549 3.65904L11.9378 4.5738C12.6696 4.43659 13.3557 4.07069 13.9046 3.56757Z" fill="#0904F2"/>
</g>
</g>
<defs>
<clipPath id="clip0_2095_444">
<rect width="21.6798" height="22" fill="white"/>
</clipPath>
</defs>
</svg>
