<svg width="18" height="22" viewBox="0 0 18 22" fill="none" xmlns="http://www.w3.org/2000/svg">
<g id="Business_Management_PersonPuzzle 1" clip-path="url(#clip0_2095_432)">
<g id="Group">
<path id="Vector" d="M17.142 17.0047C17.0962 16.913 17.0504 16.8672 16.9587 16.8214L13.7504 15.1255C13.5212 14.988 13.2462 15.0339 13.1087 15.263C12.9712 15.4922 13.017 15.7672 13.2462 15.9047C13.2462 15.9047 13.292 15.9047 13.292 15.9505L15.7212 17.2339L14.5295 17.8755C14.1629 18.0589 13.7962 18.288 13.7962 18.7005C13.7962 19.113 14.117 19.2505 14.3004 19.3422C14.5295 19.4339 14.7587 19.5255 15.0337 19.5255C15.3545 19.5714 15.6754 19.663 15.9504 19.8464C15.8129 20.0297 15.5837 20.213 15.3545 20.3047C14.8504 20.5797 14.2545 20.7172 13.6587 20.6714C13.3379 20.6714 13.0629 20.488 12.9254 20.213C12.8337 20.0297 12.6504 19.8464 12.467 19.7547C11.917 19.4339 11.5045 19.4797 10.817 19.8464L8.61705 21.0839L6.41705 19.8922H6.55455C7.05872 19.8005 7.79205 19.663 8.11288 19.0672C8.20455 18.8839 8.25038 18.6547 8.15872 18.4255C7.97538 17.9672 7.56288 17.6005 7.10455 17.3714C6.41705 17.0047 5.59205 16.8214 4.81288 16.913C4.21705 16.9589 3.71288 17.2797 3.43788 17.7839C3.39205 17.8297 3.34622 17.8755 3.30038 17.9672C3.07122 18.1047 3.02538 18.1047 2.52122 17.8755L1.42122 17.2339L7.15038 14.163C7.37955 14.0255 7.47122 13.7505 7.33372 13.5214C7.19622 13.2922 6.92122 13.2005 6.69205 13.338L0.22955 16.8214C0.000383128 16.9589 -0.0454502 17.2339 0.0462165 17.463C0.0920498 17.5547 0.137883 17.6005 0.22955 17.6464L2.06288 18.6547C2.79622 19.0214 3.16288 19.0672 3.71288 18.7464C3.89622 18.6547 4.07955 18.4714 4.17122 18.288C4.30872 18.013 4.62955 17.8297 4.90455 17.8297C5.50038 17.7839 6.09622 17.9214 6.60038 18.1964C6.82955 18.288 7.01288 18.4714 7.19622 18.6547C6.92122 18.838 6.60038 18.9297 6.27955 18.9755C6.05038 19.0214 5.77538 19.0672 5.54622 19.1589C5.36288 19.2505 5.04205 19.4339 5.04205 19.8005C5.04205 20.1672 5.40872 20.3964 5.77538 20.6255L8.29622 22.0005C8.43372 22.0922 8.57122 22.0922 8.70872 22.0005L11.1379 20.7172C11.642 20.4422 11.6879 20.488 11.917 20.6255C11.9629 20.6714 12.0087 20.7172 12.0545 20.763C12.3295 21.2672 12.8337 21.588 13.4295 21.6339C14.2087 21.7255 15.0337 21.5422 15.7212 21.1755C16.1795 20.9922 16.5462 20.5797 16.7754 20.1214C16.867 19.8922 16.8212 19.663 16.7295 19.4797C16.4087 18.9297 15.6754 18.7922 15.1712 18.7005L15.1254 18.6089L16.9587 17.6464C17.1879 17.5089 17.2796 17.2339 17.142 17.0047Z" fill="#0904F2"/>
<path id="Vector_2" d="M8.02083 12.3295V16.9587C8.02083 17.2337 8.20417 17.417 8.47917 17.417C8.75417 17.417 8.9375 17.2337 8.9375 16.9587V8.25033C8.9375 7.97533 8.75417 7.79199 8.47917 7.79199C8.20417 7.79199 8.02083 7.97533 8.02083 8.25033V11.367C7.51667 11.1378 7.15 10.6795 7.10417 10.0837V7.79199C7.10417 6.18783 9.12083 5.95866 10.3125 5.95866C11.5042 5.95866 13.5208 6.18783 13.5208 7.79199V10.0837C13.475 10.6337 13.1083 11.1378 12.6042 11.367V8.25033C12.6042 7.97533 12.4208 7.79199 12.1458 7.79199C11.8708 7.79199 11.6875 7.97533 11.6875 8.25033V16.9587C11.6875 17.2337 11.8708 17.417 12.1458 17.417C12.4208 17.417 12.6042 17.2337 12.6042 16.9587V12.3295C13.6125 12.0545 14.3458 11.1378 14.4375 10.0837V7.79199C14.4375 6.05033 12.925 5.04199 10.3125 5.04199C7.7 5.04199 6.1875 6.05033 6.1875 7.79199V10.0837C6.27917 11.1378 7.0125 12.0087 8.02083 12.3295Z" fill="#0904F2"/>
<path id="Vector_3" d="M10.2211 4.58346C10.267 4.58346 10.267 4.58346 10.3128 4.58346C11.3211 4.58346 12.1461 3.75846 12.1461 2.75013C12.1461 2.7043 12.1461 2.7043 12.1461 2.65846V1.92513C12.1461 0.916797 11.3211 0.0917969 10.3128 0.0917969C9.30446 0.0917969 8.47946 0.916797 8.47946 1.92513V2.65846C8.43363 3.6668 9.21279 4.53763 10.2211 4.58346ZM9.39613 1.92513C9.39613 1.42096 9.80863 1.00846 10.3128 1.00846C10.817 1.00846 11.2295 1.42096 11.2295 1.92513V2.65846C11.2295 3.16263 10.817 3.57513 10.3128 3.57513C9.80863 3.57513 9.39613 3.16263 9.39613 2.65846V1.92513Z" fill="#0904F2"/>
<path id="Vector_4" d="M9.85449 11.4583V16.9583C9.85449 17.2333 10.0378 17.4167 10.3128 17.4167C10.5878 17.4167 10.7712 17.2333 10.7712 16.9583V11.4583C10.7712 11.1833 10.5878 11 10.3128 11C10.0378 11 9.85449 11.1833 9.85449 11.4583Z" fill="#0904F2"/>
</g>
</g>
<defs>
<clipPath id="clip0_2095_432">
<rect width="17.1875" height="22" fill="white"/>
</clipPath>
</defs>
</svg>
