<svg width="63" height="30" viewBox="0 0 63 30" fill="none" xmlns="http://www.w3.org/2000/svg">
<g id="5151e0c8492e5103c096af88a51e39be">
<path id="Vector" d="M21.0686 8.65202C19.6992 7.08452 17.5205 6.30064 14.5337 6.30064H4.60612L0 30H5.16239L6.38708 23.6994H10.8091C12.7604 23.6994 14.3655 23.4949 15.6259 23.0842C16.8859 22.6747 18.0312 21.9874 19.062 21.0225C19.9273 20.2273 20.6267 19.3504 21.163 18.3911C21.6984 17.4324 22.0789 16.3745 22.3039 15.2173C22.8502 12.4079 22.4379 10.2198 21.0686 8.65202ZM16.9677 14.8553C16.6108 16.6895 15.9236 17.9985 14.9051 18.7828C13.886 19.5673 12.3356 19.9594 10.2544 19.9594H7.11378L9.04156 10.0405H12.5789C14.5404 10.0405 15.8474 10.4024 16.5009 11.1265C17.1538 11.851 17.3098 13.0937 16.9677 14.8553ZM41.4782 12.671L39.3351 23.6994H34.1317L36.1694 13.2135C36.4011 12.0205 36.3161 11.2068 35.9132 10.7731C35.5109 10.3392 34.6538 10.1219 33.3433 10.1219H29.2501L26.6116 23.6994H21.4895L26.0956 0H31.2177L29.9931 6.30064H34.5563C37.427 6.30064 39.4074 6.80195 40.4974 7.80298C41.5876 8.80462 41.9138 10.4275 41.4782 12.671ZM61.3641 8.65202C59.9947 7.08452 57.816 6.30064 54.8297 6.30064H44.9021L40.296 30H45.4584L46.6831 23.6994H51.1051C53.0564 23.6994 54.6609 23.4949 55.9214 23.0842C57.1814 22.6747 58.3267 21.9874 59.3575 21.0225C60.2227 20.2273 60.9227 19.3504 61.4587 18.3911C61.9941 17.4324 62.3744 16.3745 62.5994 15.2173C63.1456 12.4079 62.7339 10.2198 61.3641 8.65202ZM57.2636 14.8553C56.9068 16.6895 56.2196 17.9985 55.2005 18.7828C54.1819 19.5673 52.6311 19.9594 50.5498 19.9594H47.4098L49.3376 10.0405H52.8745C54.836 10.0405 56.143 10.4024 56.7969 11.1265C57.4498 11.851 57.6052 13.0937 57.2636 14.8553Z" fill="#6082BB"/>
</g>
</svg>
