<svg width="16" height="16" viewBox="0 0 16 16" fill="none" xmlns="http://www.w3.org/2000/svg">
<path id="Vector" d="M8 0C3.58882 0 0 3.58882 0 8C0 11.438 2.18003 14.3757 5.23004 15.505C5.1422 14.7219 5.15597 13.4393 5.30093 12.8183C5.43667 12.235 6.17788 9.10103 6.17788 9.10103C6.17788 9.10103 5.95412 8.65292 5.95412 7.99108C5.95412 6.95102 6.5567 6.17502 7.30711 6.17502C7.94535 6.17502 8.25312 6.65419 8.25312 7.2283C8.25312 7.87029 7.84496 8.82923 7.63356 9.71799C7.45724 10.4627 8.0069 11.0698 8.74091 11.0698C10.07 11.0698 11.0917 9.66822 11.0917 7.64536C11.0917 5.8549 9.80543 4.60286 7.96837 4.60286C5.8408 4.60286 4.59192 6.19888 4.59192 7.84842C4.59192 8.49098 4.83929 9.18013 5.14848 9.5552C5.20945 9.62939 5.21837 9.69412 5.20026 9.76947C5.1436 10.0056 5.01762 10.5136 4.99259 10.6177C4.96009 10.7549 4.88415 10.7834 4.74263 10.7175C3.80845 10.2826 3.22455 8.91725 3.22455 7.82023C3.22455 5.46143 4.93822 3.29473 8.16595 3.29473C10.7603 3.29473 12.7763 5.14302 12.7763 7.614C12.7763 10.1914 11.1509 12.2655 8.89566 12.2655C8.13778 12.2655 7.42561 11.8717 7.182 11.4066C7.182 11.4066 6.80694 12.8344 6.71576 13.1844C6.55838 13.7898 5.8847 15.0439 5.54651 15.6136C6.32016 15.8635 7.14428 16 8 16C12.4113 16 16 12.4113 16 8C16 3.58882 12.4113 0 8 0Z" fill="#BD081C"/>
</svg>
