<svg width="37" height="42" viewBox="0 0 37 42" fill="none" xmlns="http://www.w3.org/2000/svg">
<path d="M30.663 12.4688H18.2598C17.7841 12.4688 17.3984 12.836 17.3984 13.2891C17.3984 13.7421 17.7841 14.1094 18.2598 14.1094H30.663C31.1387 14.1094 31.5244 13.7421 31.5244 13.2891C31.5244 12.836 31.1387 12.4688 30.663 12.4688Z" fill="black"/>
<path d="M27.649 16.6466C27.4888 16.494 27.2666 16.4062 27.04 16.4062C26.8135 16.4062 26.5913 16.494 26.4311 16.6466C26.2709 16.7992 26.1787 17.0108 26.1787 17.2266C26.1787 17.4423 26.2709 17.654 26.4311 17.8065C26.5913 17.9591 26.8135 18.0469 27.04 18.0469C27.2666 18.0469 27.4888 17.9591 27.649 17.8065C27.8092 17.654 27.9014 17.4423 27.9014 17.2266C27.9014 17.0108 27.8092 16.7992 27.649 16.6466Z" fill="black"/>
<path d="M18.8687 3.7677C18.7085 3.61512 18.4863 3.52734 18.2598 3.52734C18.0332 3.52734 17.811 3.61512 17.6508 3.7677C17.4906 3.92028 17.3984 4.13192 17.3984 4.34766C17.3984 4.5634 17.4906 4.77505 17.6508 4.92762C17.811 5.0802 18.0332 5.16798 18.2598 5.16798C18.4863 5.16798 18.7085 5.0802 18.8687 4.92762C19.0289 4.77505 19.1211 4.5634 19.1211 4.34766C19.1211 4.13192 19.0289 3.92028 18.8687 3.7677Z" fill="black"/>
<path d="M23.4171 16.4062H18.2598C17.7841 16.4062 17.3984 16.7735 17.3984 17.2266C17.3984 17.6796 17.7841 18.0469 18.2598 18.0469H23.4171C23.8928 18.0469 24.2784 17.6796 24.2784 17.2266C24.2784 16.7735 23.8928 16.4062 23.4171 16.4062Z" fill="black"/>
<path d="M30.663 21.3281H18.2598C17.7841 21.3281 17.3984 21.6954 17.3984 22.1484C17.3984 22.6015 17.7841 22.9688 18.2598 22.9688H30.663C31.1387 22.9688 31.5244 22.6015 31.5244 22.1484C31.5244 21.6954 31.1387 21.3281 30.663 21.3281Z" fill="black"/>
<path d="M27.649 25.506C27.4888 25.3534 27.2666 25.2656 27.04 25.2656C26.8135 25.2656 26.5913 25.3534 26.4311 25.506C26.2709 25.6586 26.1787 25.8702 26.1787 26.0859C26.1787 26.3017 26.2709 26.5133 26.4311 26.6659C26.5913 26.8185 26.8135 26.9063 27.04 26.9063C27.2666 26.9063 27.4888 26.8185 27.649 26.6659C27.8092 26.5133 27.9014 26.3017 27.9014 26.0859C27.9014 25.8702 27.8092 25.6586 27.649 25.506Z" fill="black"/>
<path d="M23.4171 25.2656H18.2598C17.7841 25.2656 17.3984 25.6329 17.3984 26.0859C17.3984 26.539 17.7841 26.9063 18.2598 26.9063H23.4171C23.8928 26.9063 24.2784 26.539 24.2784 26.0859C24.2784 25.6329 23.8928 25.2656 23.4171 25.2656Z" fill="black"/>
<path d="M30.663 30.1875H18.2598C17.7841 30.1875 17.3984 30.5548 17.3984 31.0078C17.3984 31.4609 17.7841 31.8281 18.2598 31.8281H30.663C31.1387 31.8281 31.5244 31.4609 31.5244 31.0078C31.5244 30.5548 31.1387 30.1875 30.663 30.1875Z" fill="black"/>
<path d="M27.649 34.3654C27.4888 34.2128 27.2666 34.125 27.04 34.125C26.8135 34.125 26.5913 34.2128 26.4311 34.3654C26.2709 34.5179 26.1787 34.7296 26.1787 34.9453C26.1787 35.1611 26.2709 35.3727 26.4311 35.5253C26.5913 35.6779 26.8135 35.7656 27.04 35.7656C27.2666 35.7656 27.4888 35.6779 27.649 35.5253C27.8092 35.3727 27.9014 35.1611 27.9014 34.9453C27.9014 34.7296 27.8092 34.5179 27.649 34.3654Z" fill="black"/>
<path d="M23.4171 34.125H18.2598C17.7841 34.125 17.3984 34.4923 17.3984 34.9453C17.3984 35.3984 17.7841 35.7656 18.2598 35.7656H23.4171C23.8928 35.7656 24.2784 35.3984 24.2784 34.9453C24.2784 34.4923 23.8928 34.125 23.4171 34.125Z" fill="black"/>
<path d="M32.3206 3.19929H25.7419C24.7909 2.33625 23.5053 1.80468 22.0911 1.80468H21.3366C20.7598 0.717116 19.5747 0 18.26 0C16.9454 0 15.7604 0.717116 15.1835 1.80468H14.4271C13.0129 1.80468 11.7275 2.33625 10.7765 3.19929H4.19965C1.88398 3.19929 0 4.99356 0 7.19897V38.0003C0 40.2057 1.88398 42 4.19965 42H32.3205C34.6362 42 36.5201 40.2057 36.5201 38.0003V7.19897C36.5202 4.99356 34.6363 3.19929 32.3206 3.19929ZM14.4272 3.44531H15.7697C16.1571 3.44531 16.4968 3.19897 16.5999 2.84336C16.8053 2.13519 17.488 1.64062 18.2601 1.64062C19.0322 1.64062 19.7149 2.13519 19.9202 2.84336C20.0233 3.19897 20.3631 3.44531 20.7505 3.44531H22.0911C23.9606 3.44531 25.4995 4.81933 25.6531 6.56257H10.8653C11.0189 4.81933 12.5578 3.44531 14.4272 3.44531ZM34.7976 38.0004C34.7976 39.3012 33.6864 40.3595 32.3206 40.3595H4.19965C2.83385 40.3595 1.72265 39.3012 1.72265 38.0004V7.19897C1.72265 5.8982 2.83385 4.83992 4.19965 4.83992H9.56977C9.28759 5.45613 9.13006 6.13552 9.13006 6.84968V7.38288C9.13006 7.83594 9.51567 8.20319 9.99138 8.20319H26.527C27.0028 8.20319 27.3884 7.83594 27.3884 7.38288V6.84968C27.3884 6.1356 27.2308 5.45613 26.9487 4.83992H32.3206C33.6864 4.83992 34.7976 5.8982 34.7976 7.19897V38.0004Z" fill="black"/>
<path d="M12.7827 12.2715C12.4464 11.9512 11.901 11.9512 11.5646 12.2714L7.88142 15.7793L6.7468 14.6987C6.41045 14.3784 5.86506 14.3784 5.52863 14.6987C5.19228 15.019 5.19228 15.5384 5.52863 15.8588L7.27238 17.5195C7.4406 17.6798 7.66101 17.7598 7.88142 17.7598C8.10184 17.7598 8.32234 17.6798 8.49047 17.5195L12.7827 13.4317C13.1191 13.1113 13.1191 12.5919 12.7827 12.2715Z" fill="black"/>
<path d="M10.6803 30.1875H6.5459C6.07019 30.1875 5.68457 30.5548 5.68457 31.0078V34.9453C5.68457 35.3983 6.07019 35.7656 6.5459 35.7656H10.6803C11.156 35.7656 11.5416 35.3983 11.5416 34.9453V31.0078C11.5416 30.5548 11.156 30.1875 10.6803 30.1875ZM9.81894 34.125H7.40723V31.8281H9.81894V34.125Z" fill="black"/>
<path d="M10.6803 21.3281H6.5459C6.07019 21.3281 5.68457 21.6954 5.68457 22.1484V26.0859C5.68457 26.5389 6.07019 26.9062 6.5459 26.9062H10.6803C11.156 26.9062 11.5416 26.5389 11.5416 26.0859V22.1484C11.5416 21.6954 11.156 21.3281 10.6803 21.3281ZM9.81894 25.2656H7.40723V22.9687H9.81894V25.2656Z" fill="black"/>
</svg>
