<svg width="59" height="23" viewBox="0 0 59 23" fill="none" xmlns="http://www.w3.org/2000/svg">
<g id="Group 1304">
<g id="Group 258">
<g id="Group">
<path id="Vector" d="M12.1023 10.8242C11.8727 11.2387 11.521 11.5723 11.0454 11.8266C10.5698 12.0809 9.98029 12.2081 9.27517 12.2081H7.97227V15.306H5.87012V6.67773H9.27517C9.96378 6.67773 10.545 6.79663 11.0206 7.03442C11.4962 7.27221 11.8529 7.59918 12.089 8.01697C12.3268 8.43475 12.4457 8.91364 12.4457 9.45528C12.4457 9.95563 12.3301 10.4114 12.1023 10.8259V10.8242ZM10.0133 10.2529C10.2098 10.0646 10.3089 9.79876 10.3089 9.45363C10.3089 9.1085 10.2098 8.84263 10.0133 8.65438C9.81681 8.46613 9.51792 8.372 9.11664 8.372H7.97392V10.5353H9.11664C9.51792 10.5353 9.81681 10.4411 10.0133 10.2529Z" fill="#231F20"/>
<path id="Vector_2" d="M16.5643 8.69836C16.9326 8.48204 17.3421 8.37305 17.7929 8.37305V10.5974H17.2149C16.6898 10.5974 16.2968 10.7097 16.0342 10.9359C15.7717 11.1622 15.6412 11.5568 15.6412 12.1216V15.3054H13.5391V8.44736H15.6412V9.59008C15.8873 9.21358 16.1944 8.91634 16.5627 8.69836H16.5643Z" fill="#231F20"/>
<path id="Vector_3" d="M20.1096 14.9718C19.5729 14.6845 19.1502 14.275 18.843 13.7432C18.5359 13.2115 18.3823 12.5873 18.3823 11.8756C18.3823 11.1639 18.5376 10.5512 18.8497 10.0129C19.1601 9.47619 19.5878 9.06501 20.1278 8.77768C20.6678 8.49035 21.2755 8.34668 21.9476 8.34668C22.6197 8.34668 23.2257 8.49035 23.7657 8.77768C24.3073 9.06501 24.7317 9.47619 25.0438 10.0129C25.3559 10.5496 25.5111 11.1705 25.5111 11.8756C25.5111 12.5807 25.3526 13.2016 25.0372 13.7383C24.7218 14.275 24.2908 14.6862 23.7475 14.9735C23.2026 15.2608 22.5949 15.4045 21.9228 15.4045C21.2507 15.4045 20.6463 15.2608 20.1096 14.9735V14.9718ZM22.9483 13.1405C23.2306 12.8449 23.3727 12.4238 23.3727 11.8739C23.3727 11.324 23.2356 10.9029 22.9615 10.6074C22.6874 10.3118 22.3488 10.1648 21.9476 10.1648C21.5463 10.1648 21.1979 10.3101 20.927 10.6008C20.6562 10.8914 20.5208 11.3158 20.5208 11.8723C20.5208 12.4288 20.6546 12.8433 20.9204 13.1389C21.1863 13.4344 21.5199 13.5814 21.9228 13.5814C22.3257 13.5814 22.6659 13.4344 22.9483 13.1389V13.1405Z" fill="#231F20"/>
<path id="Vector_4" d="M34.7289 6.67578L31.669 15.304H29.0384L25.9785 6.67578H28.2161L30.3546 13.1903L32.5046 6.67578H34.7289Z" fill="#062DFB"/>
<path id="Vector_5" d="M42.0291 12.3805H37.2732C37.3062 12.8066 37.4433 13.1319 37.6844 13.3581C37.9255 13.5843 38.2227 13.6966 38.5761 13.6966C39.0996 13.6966 39.4645 13.4754 39.6693 13.0328H41.9052C41.7896 13.4836 41.5832 13.8882 41.2843 14.2498C40.9854 14.6098 40.6106 14.8938 40.1597 15.097C39.7089 15.3017 39.2053 15.4041 38.6488 15.4041C37.9767 15.4041 37.3789 15.2604 36.8538 14.9731C36.3286 14.6858 35.9191 14.2763 35.6252 13.7445C35.3296 13.2128 35.1826 12.5886 35.1826 11.8769C35.1826 11.1651 35.3279 10.5409 35.6186 10.0092C35.9092 9.47747 36.3171 9.06629 36.8422 8.78061C37.3657 8.49327 37.9684 8.34961 38.6488 8.34961C39.3291 8.34961 39.9021 8.48832 40.419 8.7674C40.9359 9.04647 41.3388 9.44279 41.6294 9.95966C41.9201 10.4765 42.0654 11.0776 42.0654 11.7662C42.0654 11.9627 42.0538 12.1675 42.0291 12.3805ZM39.9153 11.213C39.9153 10.853 39.7931 10.5657 39.5471 10.3527C39.301 10.1397 38.9939 10.0323 38.6257 10.0323C38.2574 10.0323 37.9767 10.1347 37.7339 10.3395C37.4928 10.5442 37.3426 10.8349 37.2848 11.2114H39.9153V11.213Z" fill="#062DFB"/>
<path id="Vector_6" d="M49.2752 9.15248C49.7541 9.67265 49.9935 10.3877 49.9935 11.2976V15.3037H47.9046V11.5799C47.9046 11.1209 47.7857 10.7642 47.5479 10.5115C47.3101 10.2572 46.9898 10.1301 46.5901 10.1301C46.1905 10.1301 45.8685 10.2572 45.6307 10.5115C45.3929 10.7658 45.274 11.1225 45.274 11.5799V15.3037H43.1719V8.44571H45.274V9.35559C45.487 9.0534 45.7744 8.8123 46.1344 8.63726C46.4944 8.46057 46.9006 8.37305 47.3514 8.37305C48.154 8.37305 48.7963 8.63396 49.2752 9.15413V9.15248Z" fill="#062DFB"/>
<path id="Vector_7" d="M51.4392 10.0068C51.705 9.47502 52.0683 9.06384 52.5274 8.77816C52.9865 8.49083 53.4984 8.34716 54.0631 8.34716C54.514 8.34716 54.9251 8.44129 55.2983 8.62954C55.6715 8.81779 55.9638 9.0721 56.1769 9.3908V6.20703H58.279V15.3026H56.1769V14.32C55.9803 14.6487 55.6996 14.9096 55.3347 15.1061C54.9697 15.3026 54.5453 15.4017 54.0631 15.4017C53.4984 15.4017 52.9865 15.2563 52.5274 14.9657C52.0683 14.6751 51.705 14.2606 51.4392 13.7239C51.1733 13.1872 51.0396 12.5663 51.0396 11.8612C51.0396 11.1561 51.1733 10.5385 51.4392 10.0051V10.0068ZM55.7409 10.6343C55.4503 10.3321 55.0952 10.1801 54.6774 10.1801C54.2597 10.1801 53.9046 10.3304 53.614 10.6293C53.3234 10.9282 53.178 11.3394 53.178 11.8645C53.178 12.3896 53.3234 12.8041 53.614 13.1113C53.9046 13.4184 54.2597 13.572 54.6774 13.572C55.0952 13.572 55.4503 13.4201 55.7409 13.1179C56.0315 12.8157 56.1769 12.4012 56.1769 11.8761C56.1769 11.3509 56.0315 10.9381 55.7409 10.6343Z" fill="#062DFB"/>
</g>
<path id="Vector_8" d="M9.56618 20.6169H4.43879C2.79406 20.6169 1.46143 19.2843 1.46143 17.6396V4.43879C1.46143 2.79406 2.79406 1.46143 4.43879 1.46143H9.56618V0H3.96651C1.77518 0 0 1.77518 0 3.96651V18.1135C0 20.3032 1.77518 22.08 3.96651 22.08H9.56618V20.6186V20.6169Z" fill="#062DFB"/>
<path id="Vector_9" d="M4.58386 18.9792C5.22317 18.9792 5.74144 18.461 5.74144 17.8216C5.74144 17.1823 5.22317 16.6641 4.58386 16.6641C3.94454 16.6641 3.42627 17.1823 3.42627 17.8216C3.42627 18.461 3.94454 18.9792 4.58386 18.9792Z" fill="#062DFB"/>
<g id="Group_2">
<path id="Vector_10" d="M17.6687 4.43879V5.91508H19.1301V3.96651C19.1301 1.77684 17.355 0 15.1636 0H9.56396V1.46143H14.6914C16.3361 1.46143 17.6687 2.79406 17.6687 4.43879Z" fill="#062DFB"/>
<path id="Vector_11" d="M17.6687 16.6641V17.64C17.6687 19.2847 16.3361 20.6174 14.6914 20.6174H9.56396V22.0788H15.1636C17.3533 22.0788 19.1301 20.3036 19.1301 18.1123V16.6641H17.6687Z" fill="#062DFB"/>
</g>
</g>
</g>
</svg>
