<svg width="96" height="36" viewBox="0 0 96 36" fill="none" xmlns="http://www.w3.org/2000/svg">
<g id="Group 259">
<g id="Group 258">
<g id="Group">
<path id="Vector" d="M19.7324 17.6493C19.3581 18.3251 18.7847 18.8689 18.0093 19.2836C17.2338 19.6982 16.2727 19.9055 15.123 19.9055H12.9987V24.9564H9.57129V10.8887H15.123C16.2457 10.8887 17.1935 11.0825 17.9689 11.4702C18.7443 11.8579 19.3258 12.391 19.7108 13.0722C20.0985 13.7534 20.2924 14.5342 20.2924 15.4173C20.2924 16.2331 20.1039 16.9762 19.7324 17.652V17.6493ZM16.3265 16.7177C16.6469 16.4108 16.8084 15.9773 16.8084 15.4146C16.8084 14.8519 16.6469 14.4184 16.3265 14.1115C16.0061 13.8045 15.5188 13.6511 14.8645 13.6511H13.0014V17.1781H14.8645C15.5188 17.1781 16.0061 17.0246 16.3265 16.7177Z" fill="white"/>
<path id="Vector_2" d="M27.0072 14.1847C27.6076 13.832 28.2753 13.6543 29.0103 13.6543V17.281H28.068C27.2118 17.281 26.571 17.464 26.1429 17.8329C25.7148 18.2018 25.5021 18.8452 25.5021 19.766V24.957H22.0747V13.7755H25.5021V15.6386C25.9033 15.0247 26.4041 14.5401 27.0045 14.1847H27.0072Z" fill="white"/>
<path id="Vector_3" d="M32.7879 24.4113C31.9129 23.9428 31.2236 23.2751 30.7229 22.4081C30.2221 21.5412 29.9717 20.5234 29.9717 19.363C29.9717 18.2026 30.2248 17.2037 30.7336 16.326C31.2398 15.451 31.9371 14.7806 32.8175 14.3121C33.698 13.8436 34.6888 13.6094 35.7846 13.6094C36.8804 13.6094 37.8685 13.8436 38.7489 14.3121C39.632 14.7806 40.3239 15.451 40.8328 16.326C41.3417 17.201 41.5947 18.2134 41.5947 19.363C41.5947 20.5127 41.3363 21.525 40.822 22.4C40.3078 23.2751 39.6051 23.9455 38.7193 24.414C37.8308 24.8824 36.84 25.1167 35.7442 25.1167C34.6484 25.1167 33.663 24.8824 32.7879 24.414V24.4113ZM37.4161 21.4254C37.8765 20.9435 38.1081 20.2569 38.1081 19.3603C38.1081 18.4638 37.8846 17.7772 37.4377 17.2953C36.9908 16.8133 36.4388 16.5737 35.7846 16.5737C35.1303 16.5737 34.5622 16.8106 34.1207 17.2845C33.6791 17.7584 33.4583 18.4503 33.4583 19.3576C33.4583 20.265 33.6764 20.9408 34.1099 21.4227C34.5434 21.9046 35.0872 22.1443 35.7442 22.1443C36.4011 22.1443 36.9557 21.9046 37.4161 21.4227V21.4254Z" fill="white"/>
<path id="Vector_4" d="M56.6234 10.8867L51.6344 24.9545H47.3455L42.3564 10.8867H46.0046L49.4913 21.5082L52.9968 10.8867H56.6234Z" fill="white"/>
<path id="Vector_5" d="M68.5269 20.1854H60.7728C60.8267 20.8801 61.0501 21.4105 61.4432 21.7793C61.8363 22.1482 62.321 22.3313 62.8971 22.3313C63.7506 22.3313 64.3456 21.9705 64.6795 21.2489H68.325C68.1365 21.9839 67.8 22.6436 67.3127 23.2332C66.8253 23.8201 66.2142 24.2832 65.4791 24.6144C64.7441 24.9483 63.9229 25.1152 63.0156 25.1152C61.9198 25.1152 60.9451 24.8809 60.089 24.4125C59.2328 23.944 58.5651 23.2763 58.0858 22.4093C57.6039 21.5424 57.3643 20.5247 57.3643 19.3642C57.3643 18.2038 57.6012 17.1861 58.075 16.3191C58.5489 15.4522 59.2139 14.7818 60.0701 14.316C60.9236 13.8475 61.9063 13.6133 63.0156 13.6133C64.1249 13.6133 65.0591 13.8394 65.9018 14.2945C66.7446 14.7495 67.4015 15.3956 67.8754 16.2384C68.3492 17.0811 68.5862 18.0611 68.5862 19.1838C68.5862 19.5042 68.5673 19.8381 68.5269 20.1854ZM65.0807 18.2819C65.0807 17.695 64.8814 17.2265 64.4803 16.8792C64.0791 16.5318 63.5783 16.3568 62.9779 16.3568C62.3775 16.3568 61.9198 16.5238 61.524 16.8576C61.1309 17.1915 60.8859 17.6653 60.7917 18.2792H65.0807V18.2819Z" fill="white"/>
<path id="Vector_6" d="M80.3412 14.9251C81.122 15.7732 81.5124 16.939 81.5124 18.4225V24.9543H78.1065V18.8829C78.1065 18.1344 77.9127 17.5529 77.525 17.1409C77.1373 16.7263 76.615 16.519 75.9634 16.519C75.3118 16.519 74.7868 16.7263 74.3991 17.1409C74.0114 17.5556 73.8176 18.1371 73.8176 18.8829V24.9543H70.3901V13.7728H73.8176V15.2563C74.1649 14.7636 74.6334 14.3705 75.2203 14.0851C75.8072 13.797 76.4696 13.6543 77.2046 13.6543C78.5131 13.6543 79.5604 14.0797 80.3412 14.9278V14.9251Z" fill="white"/>
<path id="Vector_7" d="M83.8679 16.3163C84.3013 15.4493 84.8937 14.7789 85.6422 14.3132C86.3906 13.8447 87.2253 13.6104 88.1461 13.6104C88.8811 13.6104 89.5515 13.7639 90.16 14.0708C90.7685 14.3778 91.245 14.7924 91.5924 15.312V10.1211H95.0198V24.9508H91.5924V23.3488C91.272 23.8846 90.8142 24.31 90.2192 24.6304C89.6242 24.9508 88.9323 25.1123 88.1461 25.1123C87.2253 25.1123 86.3906 24.8754 85.6422 24.4016C84.8937 23.9277 84.3013 23.2519 83.8679 22.3769C83.4344 21.5018 83.2163 20.4895 83.2163 19.3399C83.2163 18.1902 83.4344 17.1832 83.8679 16.3136V16.3163ZM90.8816 17.3394C90.4077 16.8467 89.8288 16.599 89.1477 16.599C88.4665 16.599 87.8876 16.844 87.4138 17.3313C86.9399 17.8186 86.703 18.4891 86.703 19.3452C86.703 20.2014 86.9399 20.8772 87.4138 21.378C87.8876 21.8788 88.4665 22.1292 89.1477 22.1292C89.8288 22.1292 90.4077 21.8815 90.8816 21.3888C91.3554 20.8961 91.5924 20.2203 91.5924 19.3641C91.5924 18.5079 91.3554 17.8348 90.8816 17.3394Z" fill="white"/>
</g>
<path id="Vector_8" d="M15.597 33.6145H7.23715C4.55553 33.6145 2.38277 31.4418 2.38277 28.7602V7.23715C2.38277 4.55553 4.55553 2.38277 7.23715 2.38277H15.597V0H6.46713C2.89432 0 0 2.89432 0 6.46713V29.5329C0 33.103 2.89432 36 6.46713 36H15.597V33.6172V33.6145Z" fill="white"/>
<path id="Vector_9" d="M7.47379 30.9447C8.51616 30.9447 9.36116 30.0997 9.36116 29.0573C9.36116 28.0149 8.51616 27.1699 7.47379 27.1699C6.43143 27.1699 5.58643 28.0149 5.58643 29.0573C5.58643 30.0997 6.43143 30.9447 7.47379 30.9447Z" fill="white"/>
<g id="Group_2">
<path id="Vector_10" d="M28.8085 7.23715V9.64416H31.1913V6.46713C31.1913 2.89702 28.297 0 24.7241 0H15.5942V2.38277H23.9541C26.6357 2.38277 28.8085 4.55553 28.8085 7.23715Z" fill="white"/>
<path id="Vector_11" d="M28.8085 27.1699V28.7611C28.8085 31.4427 26.6357 33.6155 23.9541 33.6155H15.5942V35.9983H24.7241C28.2943 35.9983 31.1913 33.104 31.1913 29.5312V27.1699H28.8085Z" fill="white"/>
</g>
</g>
</g>
</svg>
