<svg width="104" height="30" viewBox="0 0 104 30" fill="none" xmlns="http://www.w3.org/2000/svg">
<g id="Group">
<path id="Vector" d="M38.9738 12.7714C38.9738 9.60104 38.07 7.97428 36.2621 7.88488C35.5428 7.8511 34.8406 7.96284 34.1572 8.2305C33.612 8.4254 33.2476 8.61875 33.0517 8.81391V16.3804C34.2081 17.106 35.2351 17.4459 36.1306 17.3906C38.0276 17.2653 38.9736 15.7274 38.9736 12.7712L38.9738 12.7714ZM41.204 12.9029C41.204 14.5133 40.8264 15.8498 40.0666 16.9132C39.2199 18.1164 38.0466 18.7359 36.5464 18.7699C35.4155 18.8063 34.2505 18.4516 33.0517 17.7089V24.5857L31.1123 23.894V8.62992C31.4307 8.2396 31.8399 7.90437 32.3337 7.61982C33.488 6.94728 34.8908 6.60114 36.5435 6.58425L36.5711 6.61179C38.0796 6.59282 39.2425 7.20949 40.0593 8.46828C40.8207 9.62053 41.2027 11.0974 41.2027 12.9029H41.204ZM53.0539 17.416C53.0539 19.576 52.8375 21.0723 52.4043 21.9039C51.9692 22.7355 51.1418 23.3997 49.9199 23.8945C48.9291 24.2848 47.8574 24.4974 46.7074 24.5333L46.387 23.3111C47.5564 23.1521 48.3794 22.9928 48.8568 22.8337C49.7967 22.5154 50.442 22.0274 50.7962 21.3738C51.0805 20.8411 51.2206 19.825 51.2206 18.3204V17.8154C49.9121 18.4135 48.4897 18.7212 47.051 18.7172C46.0962 18.7172 45.2538 18.4183 44.5282 17.8154C43.7135 17.1598 43.3061 16.328 43.3061 15.3202V7.24873L45.2454 6.58451V14.709C45.2454 15.5769 45.5256 16.2453 46.0856 16.7141C46.6456 17.1829 47.3714 17.408 48.2607 17.3911C49.1494 17.3721 50.1024 17.0283 51.1145 16.3555V6.87712H53.0539V17.416ZM60.6272 18.6639L59.9885 18.6914C58.8918 18.6914 58.0364 18.4305 57.4254 17.9066C56.8165 17.3825 56.5107 16.6593 56.5107 15.736V8.09459H55.1854V6.87452H56.5107V3.63684L58.448 2.94715V6.87686H60.6272V8.09693H58.448V15.685C58.448 16.4127 58.6429 16.9285 59.0337 17.2297C59.3715 17.4779 59.9017 17.62 60.6272 17.6559V18.666V18.6639ZM72.3698 18.5049H70.4304V11.0189C70.4304 10.2575 70.2522 9.60156 69.8977 9.05428C69.4882 8.43476 68.9196 8.125 68.1896 8.125C67.3009 8.125 66.1886 8.5938 64.854 9.53166V18.5049H62.9146V0.611207L64.854 0V8.14995C66.093 7.24821 67.4469 6.79864 68.9172 6.79864C69.9442 6.79864 70.7761 7.14426 71.4125 7.83421C72.0512 8.52389 72.3693 9.38301 72.3693 10.41V18.5075L72.3698 18.5049ZM82.6777 12.4661C82.6777 11.2481 82.4438 10.2424 81.9859 9.44642C81.4384 8.47712 80.5879 7.96518 79.4377 7.91243C77.312 8.0356 76.2507 9.55894 76.2507 12.4783C76.2507 13.8171 76.4716 14.9353 76.917 15.8306C77.4856 16.974 78.3385 17.5387 79.4759 17.5197C81.6104 17.5028 82.6775 15.8181 82.6775 12.4632L82.6777 12.4661ZM84.8016 12.4791C84.8016 14.2124 84.358 15.6554 83.4763 16.8077C82.5023 18.0977 81.157 18.745 79.4405 18.745C77.7389 18.745 76.4126 18.0953 75.4557 16.8077C74.5878 15.6554 74.1551 14.2126 74.1551 12.4791C74.1551 10.8497 74.6242 9.47865 75.5618 8.36278C76.5526 7.17882 77.8556 6.58477 79.466 6.58477C81.0764 6.58477 82.3877 7.17882 83.3978 8.36278C84.3333 9.4789 84.8045 10.8497 84.8045 12.4791H84.8016ZM95.92 18.5049H93.9806V10.5945C93.9806 9.72656 93.7197 9.04986 93.1976 8.56183C92.6779 8.07588 91.9796 7.84044 91.112 7.85941C90.191 7.87631 89.3147 8.17775 88.4829 8.76115V18.5049H86.5435V8.52155C87.6596 7.70895 88.6866 7.17804 89.6245 6.93013C90.5093 6.69625 91.2876 6.58451 91.9628 6.58451C92.4232 6.58451 92.8562 6.62868 93.2634 6.71808C94.0248 6.89427 94.6446 7.22092 95.1222 7.70038C95.6549 8.2305 95.92 8.86978 95.92 9.61222V18.5049Z" fill="#646464"/>
<path id="Vector_2" d="M11.9576 0.682104C10.9597 0.686781 10.0067 0.771758 9.16841 0.920142C6.69838 1.35672 6.25011 2.26989 6.25011 3.95409V6.17855H12.0867V6.91995H4.05683C2.36042 6.91995 0.875021 7.93967 0.410898 9.87905C-0.124947 12.1022 -0.148855 13.4896 0.410898 15.811C0.825906 17.5392 1.81678 18.7701 3.51293 18.7701H5.51988V16.1036C5.51988 14.177 7.18667 12.4777 9.16581 12.4777H14.9959C16.6188 12.4777 17.9142 11.1415 17.9142 9.5116V3.95383C17.9142 2.37202 16.5798 1.18365 14.9959 0.919882C13.9934 0.753047 12.9529 0.677166 11.955 0.681844L11.9576 0.682104ZM8.79836 2.47077C9.40125 2.47077 9.8937 2.97127 9.8937 3.58638C9.8937 4.19966 9.40125 4.69523 8.79836 4.69523C8.19339 4.69523 7.70302 4.1994 7.70302 3.58638C7.70302 2.97101 8.19313 2.47077 8.79836 2.47077Z" fill="url(#paint0_linear_2034_4847)"/>
<path id="Vector_3" d="M18.6474 6.91992V9.51183C18.6474 11.5214 16.9437 13.2123 15.0014 13.2123H9.17131C7.57443 13.2123 6.25301 14.5792 6.25301 16.1785V21.7365C6.25301 23.3183 7.62848 24.2486 9.17131 24.7026C11.0164 25.2457 12.7907 25.344 15.0014 24.7026C16.471 24.2772 17.9197 23.421 17.9197 21.7365V19.512H12.0896V18.7706H20.838C22.5344 18.7706 23.1664 17.5875 23.7563 15.8115C24.3657 13.9831 24.3397 12.2248 23.7563 9.87955C23.3372 8.19093 22.5365 6.92044 20.838 6.92044H18.6474V6.91992ZM15.3684 20.9951C15.9733 20.9951 16.4637 21.4909 16.4637 22.1039C16.4637 22.7193 15.9736 23.2196 15.3684 23.2196C14.7655 23.2196 14.273 22.7191 14.273 22.1039C14.273 21.4907 14.7655 20.9951 15.3684 20.9951Z" fill="url(#paint1_linear_2034_4847)"/>
<path id="Vector_4" d="M99.6965 5.14638H100.036V3.01418H100.842V2.76003H98.891V3.01418H99.6965V5.14638ZM101.143 5.14638H101.434V3.19894L102.065 5.14638H102.388L103.045 3.20518V5.14638H103.362V2.75977H102.943L102.225 4.8044L101.613 2.75977H101.144V5.14638" fill="#646464"/>
<path id="Vector_5" opacity="0.444" d="M19.9749 28.4816C19.9749 29.3192 16.473 29.9984 12.1532 29.9984C7.83335 29.9984 4.33138 29.3194 4.33138 28.4816C4.33138 27.6438 7.83335 26.9648 12.1532 26.9648C16.473 26.9648 19.9749 27.6438 19.9749 28.4816Z" fill="url(#paint2_radial_2034_4847)"/>
</g>
<defs>
<linearGradient id="paint0_linear_2034_4847" x1="0.00212763" y1="0.681584" x2="13.3523" y2="12.2784" gradientUnits="userSpaceOnUse">
<stop stop-color="#5A9FD4"/>
<stop offset="1" stop-color="#306998"/>
</linearGradient>
<linearGradient id="paint1_linear_2034_4847" x1="15.2254" y1="21.9168" x2="10.4582" y2="15.1068" gradientUnits="userSpaceOnUse">
<stop stop-color="#FFD43B"/>
<stop offset="1" stop-color="#FFE873"/>
</linearGradient>
<radialGradient id="paint2_radial_2034_4847" cx="0" cy="0" r="1" gradientUnits="userSpaceOnUse" gradientTransform="translate(12.1532 28.4816) rotate(-90) scale(1.51672 6.66664)">
<stop stop-color="#B8B8B8" stop-opacity="0.498"/>
<stop offset="1" stop-color="#7F7F7F" stop-opacity="0"/>
</radialGradient>
</defs>
</svg>
