<svg width="94" height="32" viewBox="0 0 94 32" fill="none" xmlns="http://www.w3.org/2000/svg">
<g id="Group 1275">
<g id="Group">
<path id="Vector" d="M17.9538 19.1305C19.7007 19.1305 21.1167 17.7144 21.1167 15.9676C21.1167 14.2208 19.7007 12.8047 17.9538 12.8047C16.207 12.8047 14.791 14.2208 14.791 15.9676C14.791 17.7144 16.207 19.1305 17.9538 19.1305Z" fill="#00D8FF"/>
<g id="Group_2">
<path id="Vector_2" fill-rule="evenodd" clip-rule="evenodd" d="M17.954 9.54102C22.2006 9.54102 26.1456 10.1504 29.1201 11.1744C32.704 12.4082 34.9075 14.2784 34.9075 15.9718C34.9075 17.7365 32.5722 19.7233 28.7236 20.9985C25.814 21.9625 21.9851 22.4657 17.954 22.4657C13.821 22.4657 9.90731 21.9933 6.9649 20.9879C3.24221 19.7155 1 17.7029 1 15.9718C1 14.2921 3.10389 12.4364 6.63737 11.2045C9.62297 10.1635 13.6654 9.54102 17.9535 9.54102H17.954Z" stroke="#00D8FF" stroke-width="1.66272"/>
<path id="Vector_3" fill-rule="evenodd" clip-rule="evenodd" d="M12.356 12.7724C14.4776 9.09375 16.9761 5.98073 19.3492 3.91555C22.2084 1.42733 24.9293 0.452871 26.3963 1.29878C27.925 2.18037 28.4795 5.19598 27.6614 9.16682C27.0436 12.169 25.5661 15.7371 23.5523 19.2292C21.4875 22.8095 19.1232 25.9639 16.7824 28.0099C13.8205 30.5991 10.9569 31.5361 9.4573 30.6713C8.00217 29.8327 7.44572 27.0826 8.14378 23.4062C8.73358 20.2998 10.2137 16.487 12.3553 12.7724L12.356 12.7724Z" stroke="#00D8FF" stroke-width="1.66272"/>
<path id="Vector_4" fill-rule="evenodd" clip-rule="evenodd" d="M12.3609 19.2413C10.2334 15.5668 8.78485 11.8467 8.18022 8.75941C7.45241 5.03963 7.967 2.19557 9.43259 1.3472C10.9598 0.463029 13.8494 1.48868 16.881 4.18055C19.1731 6.21571 21.5268 9.2771 23.5465 12.7659C25.6173 16.3427 27.1692 19.9665 27.773 23.0162C28.5369 26.8755 27.9186 29.8243 26.4204 30.6916C24.9667 31.5331 22.3066 30.6422 19.4701 28.2012C17.0735 26.139 14.5094 22.9524 12.3609 19.2413V19.2413Z" stroke="#00D8FF" stroke-width="1.66272"/>
</g>
</g>
<path id="Vector_5" fill-rule="evenodd" clip-rule="evenodd" d="M53.0625 24.049L49.1857 18.192C51.145 18.0191 52.9105 16.5995 52.9105 14.0059C52.9105 11.3668 51.0376 9.67773 48.4104 9.67773H42.6407V24.0381H44.4281V18.3322H47.2919L50.9521 24.0381L53.0625 24.049ZM48.1965 16.7715H44.429V11.2812H48.1965C49.8983 11.2812 51.0604 12.4006 51.0604 14.0159C51.0604 15.6312 49.8974 16.7733 48.1965 16.7733V16.7715ZM59.7157 24.3065C61.4175 24.3065 62.8162 23.7469 63.85 22.714L63.0747 21.6583C62.2556 22.4983 61.0508 22.9715 59.8668 22.9715C57.6281 22.9715 56.2494 21.3353 56.1202 19.3769H64.538V18.9674C64.538 15.846 62.6861 13.3907 59.5419 13.3907C56.5707 13.3907 54.4184 15.8241 54.4184 18.8381C54.4184 22.0897 56.6362 24.2984 59.7148 24.2984L59.7157 24.3065ZM62.9464 18.1911H56.1211C56.2076 16.5985 57.3041 14.7239 59.5228 14.7239C61.8916 14.7239 62.9245 16.6404 62.9464 18.1911ZM75.2628 24.0481V16.8998C75.2628 14.3808 73.4336 13.3898 71.2368 13.3898C69.535 13.3898 68.2009 13.9494 67.0816 15.1125L67.8351 16.2318C68.7606 15.2417 69.7734 14.7894 71.022 14.7894C72.529 14.7894 73.6493 15.5857 73.6493 16.9853V18.8582C72.8093 17.889 71.6254 17.4367 70.2039 17.4367C68.4384 17.4367 66.5637 18.5351 66.5637 20.8602C66.5637 23.1208 68.4366 24.3056 70.2039 24.3056C71.6035 24.3056 72.7884 23.8106 73.6493 22.8632V24.0463L75.2628 24.0481ZM70.7854 23.1435C69.2784 23.1435 68.2227 22.1971 68.2227 20.883C68.2227 19.548 69.2784 18.6006 70.7854 18.6006C71.9266 18.6006 73.0241 19.0311 73.6493 19.8929V21.8522C73.025 22.7131 71.9266 23.1435 70.7854 23.1435ZM83.0709 24.3065C84.9656 24.3065 86.0849 23.5312 86.8821 22.4983L85.8055 21.5082C85.1166 22.4337 84.2339 22.8641 83.1664 22.8641C80.9487 22.8641 79.5718 21.1414 79.5718 18.8381C79.5718 16.5348 80.9496 14.834 83.1664 14.834C84.243 14.834 85.1257 15.2435 85.8055 16.1899L86.8821 15.1998C86.0858 14.166 84.9656 13.3916 83.0709 13.3916C79.9704 13.3916 77.8819 15.7604 77.8819 18.8391C77.8819 21.9395 79.9704 24.2993 83.0709 24.2993V24.3065ZM91.7708 24.3065C92.7172 24.3065 93.2997 24.0263 93.7092 23.6395L93.236 22.4337C93.0203 22.6703 92.5989 22.8641 92.1376 22.8641C91.4277 22.8641 91.0819 22.3045 91.0819 21.5291V15.0697H93.1932V13.6491H91.0819V10.8071H89.4666V13.6491H87.7439V15.0706H89.4666V21.8749C89.4666 23.4256 90.2419 24.3084 91.7708 24.3084V24.3065Z" fill="#00D8FF"/>
</g>
</svg>
