<svg width="46" height="42" viewBox="0 0 46 42" fill="none" xmlns="http://www.w3.org/2000/svg">
<path d="M6.29518 15.8468C6.52776 15.3347 6.78539 14.8392 7.06296 14.3628C7.41561 13.753 7.80329 13.1743 8.22088 12.624C8.43352 12.343 8.84864 12.281 9.14376 12.4835C9.43889 12.6883 9.50392 13.0814 9.29137 13.3624C8.89619 13.8817 8.5386 14.4176 8.21594 14.9726C8.04848 15.2584 7.89081 15.5514 7.74329 15.8468H10.1543C10.5219 15.8468 10.817 16.1278 10.817 16.4756V19.4601V21.992C10.817 22.5756 10.6845 23.1306 10.4469 23.6331C11.1423 23.9094 11.7351 24.2619 12.1877 24.6693C12.8379 25.2504 13.2106 25.9484 13.2106 26.7058V29.7808C13.2106 30.1286 12.9129 30.412 12.5477 30.412H8.43854C8.65612 30.7669 8.88869 31.1147 9.13379 31.4505C9.59153 32.077 10.0916 32.6653 10.6318 33.2108C10.882 33.4632 10.8694 33.861 10.6018 34.0992C10.3367 34.3374 9.91912 34.3254 9.66899 34.073C9.0813 33.4751 8.5386 32.8391 8.04839 32.1698C7.63821 31.6077 7.26306 31.0217 6.92532 30.4119H0.662781C0.297687 30.4119 0 30.1285 0 29.7807V26.7057C0 25.9531 0.367653 25.2623 1.00793 24.6811C1.46311 24.2691 2.06334 23.9118 2.76362 23.6331C2.52601 23.1305 2.39349 22.5755 2.39349 21.9919V19.46V18.3691C2.39349 17.6736 2.69109 17.0424 3.17132 16.5851C3.65147 16.1302 4.31434 15.8467 5.04215 15.8467H6.29518V15.8468ZM41.4571 21.0417L37.9656 19.9151L35.6822 20.9821V21.9921C35.6822 22.7472 36.0074 23.4355 36.53 23.9334C37.0527 24.4312 37.7755 24.7408 38.5683 24.7408C39.3637 24.7408 40.0839 24.4312 40.6092 23.9334C41.1319 23.4356 41.4571 22.7472 41.4571 21.9921V21.0417ZM35.6822 19.584L37.593 18.6931C37.7504 18.605 37.9456 18.5812 38.1331 18.6407L41.4571 19.7126V18.3692C41.4571 18.0214 41.3094 17.7071 41.0668 17.4783C40.8267 17.2474 40.4966 17.1068 40.1314 17.1068H37.0051C36.6425 17.1068 36.3123 17.2473 36.0697 17.4783C35.8296 17.707 35.682 18.0214 35.682 18.3692V19.584H35.6822ZM3.7165 18.8289H9.49386V17.1069H5.04206C4.67943 17.1069 4.34681 17.2473 4.10665 17.4784C3.86657 17.7071 3.71641 18.0215 3.71641 18.3693V18.8289H3.7165ZM9.49386 20.0889H3.7165V21.9921C3.7165 22.7472 4.04171 23.4355 4.56694 23.9334C5.0897 24.4312 5.81248 24.7408 6.60531 24.7408C7.39805 24.7408 8.12092 24.4312 8.64359 23.9334C9.16882 23.4356 9.49395 22.7472 9.49395 21.9921V20.0889H9.49386ZM25.4754 32.5535C24.53 32.6845 22.9894 32.6702 21.7115 31.596C21.2638 31.8437 20.5559 32.12 19.6981 32.0533V33.5801C19.6981 34.3352 20.0234 35.0236 20.5485 35.5238C21.0713 36.0216 21.7939 36.3312 22.5868 36.3312C23.3821 36.3312 24.1024 36.0216 24.6276 35.5238C25.1503 35.0236 25.4754 34.3352 25.4754 33.5801V32.5535ZM19.6981 30.7908C20.6611 30.9195 21.3389 30.3192 21.3389 30.3168L21.3413 30.3192L21.3563 30.3049C21.6314 30.0786 22.0465 30.1072 22.2867 30.3693C23.3221 31.503 24.7577 31.4196 25.4755 31.2863V29.9572C25.4755 29.6118 25.3254 29.295 25.0854 29.0663C24.8452 28.8377 24.5151 28.6947 24.1499 28.6947H21.0236C20.6611 28.6947 20.3284 28.8377 20.0882 29.0663C19.8481 29.295 19.6981 29.6118 19.6981 29.9572V30.7908H19.6981ZM9.70146 24.7027C8.9036 25.5292 7.78573 26.0032 6.60522 26.0032C5.42471 26.0032 4.30675 25.5292 3.50889 24.7051C2.85114 24.9385 2.30588 25.241 1.91829 25.5912C1.54067 25.9342 1.323 26.3152 1.323 26.7059V29.1521H11.8874V26.7059C11.8874 26.3129 11.6673 25.9294 11.2822 25.584C10.8945 25.2362 10.3542 24.9362 9.70146 24.7027ZM42.7801 21.9921C42.7801 22.5757 42.6475 23.1307 42.4099 23.6332C43.1103 23.9119 43.708 24.2692 44.1632 24.6789C44.8059 25.2601 45.1736 25.9508 45.1736 26.7059V29.7809C45.1736 30.1287 44.8784 30.4121 44.5133 30.4121H38.2257C37.8855 31.0004 37.5029 31.5768 37.0852 32.1366C36.5875 32.8012 36.0423 33.4348 35.4545 34.0303C35.2044 34.2828 34.7867 34.2947 34.5217 34.0565C34.2566 33.8183 34.244 33.4206 34.4917 33.1681C35.0418 32.6131 35.5496 32.0224 36.0098 31.4078C36.2523 31.0839 36.4824 30.7528 36.7 30.4122H32.6258C32.2606 30.4122 31.963 30.1288 31.963 29.781V26.706C31.963 25.9485 32.3356 25.2554 32.9833 24.6719C33.436 24.2645 34.0313 23.9097 34.7291 23.6334C34.489 23.1308 34.3564 22.5758 34.3564 21.9922V18.3694C34.3564 17.6739 34.6565 17.0427 35.1342 16.5854C35.6143 16.1304 36.2771 15.8469 37.0049 15.8469H37.4376C37.295 15.5564 37.14 15.2705 36.9749 14.9894C36.6472 14.4273 36.2797 13.8794 35.877 13.3554C35.6619 13.0743 35.7245 12.6813 36.0196 12.4766C36.3121 12.2717 36.7248 12.3312 36.9424 12.6123C37.3726 13.1744 37.7703 13.7651 38.1279 14.3796C38.4055 14.8536 38.6582 15.3443 38.8858 15.8469H40.1312C40.8614 15.8469 41.5244 16.1304 42.0045 16.5853C42.4822 17.0426 42.7798 17.6738 42.7798 18.3693V21.9921H42.7801ZM41.6646 24.7051C40.8667 25.5292 39.7512 26.0032 38.5682 26.0032C37.3877 26.0032 36.2723 25.5292 35.472 24.7051C34.8193 24.9362 34.2765 25.2387 33.8889 25.5864C33.5062 25.9317 33.2886 26.3152 33.2886 26.7059V29.1521H43.8505V26.7059C43.8505 26.3152 43.6328 25.9342 43.2527 25.5912C42.8676 25.241 42.3224 24.9385 41.6646 24.7051ZM26.7985 33.5801C26.7985 34.1636 26.666 34.721 26.4284 35.2212C27.1287 35.5023 27.7264 35.8571 28.1816 36.2692C28.4292 36.4931 28.6368 36.7337 28.7969 36.9886C29.3271 36.7742 29.8423 36.5336 30.345 36.2669C31.0402 35.8976 31.7106 35.4761 32.3507 35.0116C32.6409 34.7996 33.0535 34.852 33.2761 35.1283C33.4962 35.4046 33.4411 35.8 33.151 36.0096C32.4658 36.5074 31.743 36.9624 30.9852 37.3648C30.4025 37.6745 29.8022 37.9532 29.1894 38.1938C29.1919 38.2271 29.1919 38.2629 29.1919 38.2962V41.3712C29.1919 41.719 28.8967 42 28.5317 42H16.6443C16.2792 42 15.9816 41.7189 15.9816 41.3712V38.2962C15.9816 38.2629 15.984 38.2295 15.984 38.1962C15.3537 37.9509 14.741 37.6746 14.1483 37.3673C13.393 36.9766 12.6727 36.5336 11.9874 36.0454C11.6948 35.8381 11.6373 35.4451 11.8549 35.1664C12.0725 34.8901 12.4877 34.8329 12.7778 35.0426C13.4105 35.4927 14.0783 35.9001 14.7785 36.2645C15.2938 36.5336 15.8265 36.7742 16.3743 36.991C16.5343 36.7386 16.7395 36.5004 16.9845 36.2764C17.4396 35.862 18.0399 35.5047 18.7477 35.2236C18.5075 34.7211 18.375 34.1661 18.375 33.5801V29.9573C18.375 29.2641 18.6726 28.633 19.1528 28.1756C19.633 27.7183 20.2958 27.4349 21.0235 27.4349H24.1499C24.8801 27.4349 25.5429 27.7183 26.0206 28.1756C26.5008 28.633 26.7984 29.2641 26.7984 29.9573V33.5801H26.7985ZM25.683 36.2931C24.8852 37.1196 23.7673 37.5912 22.5868 37.5912C21.4064 37.5912 20.2883 37.1196 19.4905 36.2931C18.8303 36.5265 18.285 36.8338 17.8948 37.1863C17.5197 37.5269 17.3046 37.908 17.3046 38.2963V40.7401H27.8689V38.2963C27.8689 37.9057 27.6513 37.5221 27.2737 37.1816C26.886 36.8314 26.3409 36.5264 25.683 36.2931ZM11.1771 11.2926C10.9144 11.5332 10.4968 11.526 10.2443 11.2759C9.99165 11.0258 9.99915 10.628 10.2617 10.3875C10.787 9.90632 11.3372 9.45854 11.915 9.04646C12.3926 8.7059 12.8978 8.38432 13.4255 8.08417C13.5957 5.93331 14.581 3.99923 16.0917 2.56286C17.7522 0.978927 20.0508 0 22.5868 0C25.1253 0 27.4213 0.978927 29.0845 2.56286C30.5825 3.98957 31.5655 5.90944 31.7455 8.04123C32.2632 8.34374 32.7634 8.67245 33.2436 9.02016C33.8214 9.43938 34.3766 9.89431 34.9019 10.3826C35.1645 10.6232 35.1695 11.021 34.9169 11.271C34.6617 11.5187 34.2441 11.5235 33.984 11.283C33.4963 10.8327 32.981 10.4112 32.4433 10.0205C32.2132 9.85137 31.9782 9.6918 31.743 9.53702C31.5379 11.9308 30.4149 13.5577 29.337 15.1155C28.3616 16.5279 27.4263 17.8808 27.4113 19.6983L27.4137 22.6113C27.4137 23.4497 27.0536 24.2096 26.4734 24.7621C25.8955 25.3124 25.0952 25.6554 24.2174 25.6554H20.9587C20.0782 25.6554 19.278 25.3124 18.7001 24.7621C18.1224 24.2095 17.7623 23.4497 17.7623 22.6113L17.7647 19.6983C17.7472 17.8809 16.8144 16.5279 15.839 15.1155C14.7635 13.5625 13.6456 11.9452 13.4355 9.56567C13.1879 9.72289 12.9453 9.88725 12.7077 10.0563C12.1625 10.4423 11.6523 10.8568 11.1771 11.2926ZM19.0853 21.6563H26.0882V20.3796H19.0853V21.6563ZM26.0606 22.9163H19.1129C19.1805 23.2854 19.368 23.6166 19.6356 23.8715C19.9757 24.1954 20.4434 24.3954 20.9587 24.3954H24.2174C24.7301 24.3954 25.1978 24.1954 25.538 23.8715C25.8056 23.6166 25.9931 23.2854 26.0606 22.9163ZM21.949 13.5578C21.8414 13.1815 21.6538 12.667 21.4413 12.0786C20.8435 10.4328 20.0482 8.24139 20.0482 6.58595C20.0482 4.99723 20.686 3.86344 22.5867 3.86344C24.4873 3.86344 25.1277 4.99723 25.1277 6.58595C25.1277 8.24139 24.3324 10.4328 23.7346 12.0786C23.5195 12.6693 23.3321 13.1886 23.2219 13.565C23.1269 13.9008 22.7642 14.0961 22.4141 14.0056C22.1767 13.9436 22.0066 13.7674 21.949 13.5578ZM21.3713 6.58595C21.3713 7.96267 22.039 9.88011 22.5868 11.3974C23.137 9.88011 23.8048 7.96267 23.8048 6.58595C23.8048 5.73324 23.4972 5.12344 22.5868 5.12344C21.6764 5.12353 21.3713 5.73332 21.3713 6.58595ZM21.9266 15.7825C21.9266 15.4347 22.2217 15.1537 22.5868 15.1537C22.9519 15.1537 23.2496 15.4348 23.2496 15.7825V16.4375C23.2496 16.7853 22.952 17.0664 22.5868 17.0664C22.2216 17.0664 21.9266 16.7853 21.9266 16.4375V15.7825ZM19.0528 19.1196H26.1206C26.2958 17.2355 27.2462 15.8588 28.2366 14.4272C29.3194 12.8599 30.4524 11.2188 30.4524 8.75119C30.4524 6.68132 29.5721 4.80909 28.149 3.45381C26.726 2.09852 24.7601 1.26008 22.5868 1.26008C20.4159 1.26008 18.45 2.09852 17.027 3.45381C15.6038 4.80909 14.7236 6.68132 14.7236 8.75119C14.7236 11.2188 15.8565 12.8599 16.9395 14.4272C17.9273 15.8588 18.8803 17.2354 19.0528 19.1196Z" fill="black"/>
</svg>
