<svg width="16" height="16" viewBox="0 0 16 16" fill="none" xmlns="http://www.w3.org/2000/svg">
<g id="Group 1061">
<path id="Ellipse 103" d="M15.75 8C15.75 12.2802 12.2802 15.75 8 15.75C3.71979 15.75 0.25 12.2802 0.25 8C0.25 3.71979 3.71979 0.25 8 0.25C12.2802 0.25 15.75 3.71979 15.75 8Z" stroke="white" stroke-width="0.5"/>
<path id="Vector" d="M11.2805 7.98079L7.88835 4.5994L8.19497 4.29278L12.0974 8.19522L8.19497 12.0977L7.88835 11.791L11.2805 8.40964L4.29254 8.40964L4.29254 7.98079L11.2805 7.98079Z" fill="white"/>
<path id="Ellipse 103_2" d="M15.75 8C15.75 12.2802 12.2802 15.75 8 15.75C3.71979 15.75 0.25 12.2802 0.25 8C0.25 3.71979 3.71979 0.25 8 0.25C12.2802 0.25 15.75 3.71979 15.75 8Z" stroke="white" stroke-width="0.5"/>
<path id="Vector_2" d="M11.1829 7.88314L7.79082 4.50174L8.09744 4.19512L11.9999 8.09756L8.09744 12L7.79082 11.6934L11.1829 8.31199L4.195 8.31199L4.195 7.88314L11.1829 7.88314Z" fill="white"/>
</g>
</svg>
