<svg width="29" height="22" viewBox="0 0 29 22" fill="none" xmlns="http://www.w3.org/2000/svg">
<path id="Vector" d="M20.0342 17.3521C20.1145 17.3571 20.201 17.3671 20.2875 17.3671C21.5129 17.3684 22.7394 17.3609 23.9647 17.3734C24.2331 17.3759 24.3134 17.2844 24.2996 17.0273C24.282 16.6924 24.2958 16.3563 24.2958 15.9424C25.6867 16.9658 27.0311 17.9541 28.4107 18.97C27.0412 19.9783 25.6967 20.9678 24.2958 22C24.2958 21.61 24.2958 21.2876 24.2958 20.9653C24.2958 20.5489 24.2958 20.5477 23.8907 20.5477C16.056 20.5477 8.22005 20.5477 0.38534 20.5477C0.00658523 20.5477 0.00658517 20.5477 0.00658517 20.1664C0.00658517 19.3399 0.017873 18.5134 0.000314841 17.6882C-0.00595594 17.4198 0.0805803 17.3596 0.337682 17.3609C4.55039 17.3684 8.7631 17.3747 12.9758 17.3634C15.1355 17.3571 16.8399 16.4629 17.9674 14.6017C20.0016 11.2406 17.8808 6.83851 13.9829 6.27163C10.9729 5.83393 8.1749 7.85437 7.66446 10.9158C7.61053 11.2343 7.60677 11.5617 7.57542 11.9454C8.0683 11.879 8.51478 11.8175 9.0202 11.7498C8.22883 13.2799 7.46505 14.7572 6.68998 16.2547C5.5023 15.0307 4.33217 13.8254 3.18838 12.6465C3.47558 12.5988 3.85684 12.5437 4.23435 12.4647C4.30583 12.4496 4.41118 12.3342 4.40867 12.2677C4.38735 11.4663 4.44254 10.6737 4.59931 9.88736C4.60432 9.86353 4.59303 9.83594 4.58551 9.78954C3.82047 9.6591 3.11062 9.38319 2.46724 8.93922C0.894528 7.85061 0.0718014 5.82515 0.458082 3.97903C0.878224 1.96736 2.39575 0.46363 4.35725 0.0924002C5.62897 -0.147144 6.80787 0.0811134 7.90275 0.753341C8.09589 0.872486 8.21378 0.890043 8.34045 0.683107C8.41445 0.561454 8.52607 0.46363 8.65399 0.31564C8.81327 0.957768 8.96251 1.55851 9.11051 2.15925C9.16067 2.36117 9.19955 2.56685 9.2585 2.76626C9.32246 2.98198 9.25724 3.07855 9.02898 3.0635C8.3693 3.01835 7.70836 2.97821 7.04867 2.93432C6.88563 2.92303 6.72385 2.90547 6.5144 2.88541C6.67744 2.67972 6.82543 2.49536 6.98722 2.29344C6.63104 2.02255 6.23849 1.8871 5.82963 1.82063C3.85308 1.49706 2.11106 3.01584 2.15119 5.01622C2.18129 6.5513 3.47558 7.92335 5.0044 8.05378C5.20255 8.07009 5.27153 7.96976 5.34804 7.82176C6.43163 5.74237 8.06328 4.2725 10.2831 3.50747C15.4189 1.7366 20.7804 4.90961 21.77 10.1031C22.2578 12.6603 21.7022 14.9955 20.1508 17.0887C20.1082 17.1464 20.0693 17.2079 20.0317 17.2693C20.0242 17.2806 20.0342 17.3032 20.0405 17.3508L20.0342 17.3521Z" fill="#0904F2"/>
</svg>
