<svg width="50" height="12" viewBox="0 0 50 12" fill="none" xmlns="http://www.w3.org/2000/svg">
<g id="Asset 1 1" clip-path="url(#clip0_1567_936)">
<g id="Layer 1">
<g id="Group">
<g id="Group_2">
<path id="Vector" d="M0.961909 7.13957H0V0.404297H0.961909V7.13957ZM4.91642 4.13742H0.866481V3.30052H4.91738V4.13742H4.91642ZM4.82958 0.404297H5.79149V7.13957H4.82958V0.404297Z" fill="white"/>
<path id="Vector_2" d="M8.35181 7.19675C7.97296 7.19675 7.64088 7.13282 7.35555 7.00399C7.07022 6.87612 6.85074 6.69767 6.69614 6.4696C6.54251 6.24248 6.46521 5.98387 6.46521 5.69473C6.46521 5.40558 6.53105 5.16892 6.66274 4.94467C6.79443 4.72041 7.00915 4.54006 7.30783 4.4055C7.60652 4.27095 8.00827 4.2032 8.51499 4.2032H10.1315V4.86737H8.55316C8.09129 4.86737 7.7802 4.94467 7.61988 5.09831C7.45956 5.25194 7.3794 5.43803 7.3794 5.65656C7.3794 5.90658 7.47865 6.10697 7.67809 6.25775C7.87658 6.40852 8.15237 6.48391 8.50545 6.48391C8.85853 6.48391 9.15531 6.40662 9.41487 6.25298C9.67443 6.09934 9.86243 5.87413 9.97789 5.57926L10.1611 6.21481C10.039 6.51636 9.82426 6.75493 9.51603 6.93147C9.20779 7.10801 8.82036 7.1958 8.35181 7.1958V7.19675ZM10.0256 7.13854V6.06117L9.97789 5.85886V4.02093C9.97789 3.62968 9.86338 3.32622 9.63626 3.11151C9.40819 2.89679 9.06656 2.78896 8.61137 2.78896C8.30982 2.78896 8.01495 2.83858 7.72581 2.93783C7.43762 3.03707 7.19332 3.17067 6.99483 3.33672L6.61026 2.64391C6.87364 2.43206 7.1895 2.27079 7.55785 2.15819C7.92716 2.04558 8.31268 1.99023 8.7173 1.99023C9.41583 1.99023 9.95499 2.1601 10.3338 2.49982C10.7127 2.83954 10.9016 3.35962 10.9016 4.05815V7.13759H10.0256V7.13854Z" fill="white"/>
<path id="Vector_3" d="M11.7968 9.00515V2.03895H12.6823V3.41501L12.6241 4.59831L12.7205 5.78161V9.00515H11.7968ZM14.5002 7.19585C14.0765 7.19585 13.69 7.09851 13.3408 6.90193C12.9915 6.7063 12.7119 6.4162 12.5039 6.03163C12.2949 5.64706 12.1909 5.1661 12.1909 4.58877C12.1909 4.01143 12.292 3.53048 12.4943 3.14591C12.6966 2.76133 12.9724 2.47219 13.3217 2.28038C13.6709 2.08857 14.0641 1.99219 14.5002 1.99219C15.0003 1.99219 15.443 2.10097 15.8276 2.3195C16.2122 2.53803 16.5175 2.84054 16.7418 3.22893C16.9661 3.61732 17.0787 4.0706 17.0787 4.59068C17.0787 5.11076 16.9661 5.56594 16.7418 5.9572C16.5175 6.34845 16.2131 6.65286 15.8276 6.87139C15.443 7.08992 15.0003 7.19871 14.5002 7.19871V7.19585ZM14.4229 6.38758C14.7502 6.38758 15.0432 6.3141 15.3037 6.16618C15.5633 6.01827 15.7684 5.80833 15.9192 5.53636C16.07 5.26344 16.1454 4.94758 16.1454 4.58877C16.1454 4.22996 16.07 3.90742 15.9192 3.64117C15.7684 3.37493 15.5633 3.16785 15.3037 3.0209C15.0441 2.87298 14.7502 2.7995 14.4229 2.7995C14.0956 2.7995 13.8122 2.87298 13.5526 3.0209C13.2931 3.16881 13.0879 3.37589 12.9371 3.64117C12.7863 3.90742 12.7109 4.22328 12.7109 4.58877C12.7109 4.95426 12.7863 5.26439 12.9371 5.53636C13.0879 5.80928 13.2931 6.01923 13.5526 6.16618C13.8122 6.3141 14.1023 6.38758 14.4229 6.38758Z" fill="white"/>
<path id="Vector_4" d="M17.5405 9.00515V2.03895H18.4261V3.41501L18.3679 4.59831L18.4643 5.78161V9.00515H17.5405ZM20.244 7.19585C19.8203 7.19585 19.4338 7.09851 19.0845 6.90193C18.7353 6.7063 18.4557 6.4162 18.2476 6.03163C18.0387 5.64706 17.9346 5.1661 17.9346 4.58877C17.9346 4.01143 18.0358 3.53048 18.2381 3.14591C18.4404 2.76133 18.7162 2.47219 19.0655 2.28038C19.4147 2.08857 19.8079 1.99219 20.244 1.99219C20.744 1.99219 21.1868 2.10097 21.5714 2.3195C21.956 2.53803 22.2613 2.84054 22.4856 3.22893C22.7098 3.61732 22.8224 4.0706 22.8224 4.59068C22.8224 5.11076 22.7098 5.56594 22.4856 5.9572C22.2613 6.34845 21.9569 6.65286 21.5714 6.87139C21.1868 7.08992 20.744 7.19871 20.244 7.19871V7.19585ZM20.1667 6.38758C20.494 6.38758 20.787 6.3141 21.0475 6.16618C21.307 6.01827 21.5122 5.80833 21.663 5.53636C21.8138 5.26344 21.8892 4.94758 21.8892 4.58877C21.8892 4.22996 21.8138 3.90742 21.663 3.64117C21.5122 3.37493 21.307 3.16785 21.0475 3.0209C20.7879 2.87298 20.494 2.7995 20.1667 2.7995C19.8394 2.7995 19.556 2.87298 19.2964 3.0209C19.0368 3.16881 18.8317 3.37589 18.6809 3.64117C18.5301 3.90742 18.4547 4.22328 18.4547 4.58877C18.4547 4.95426 18.5301 5.26439 18.6809 5.53636C18.8317 5.80928 19.0368 6.01923 19.2964 6.16618C19.556 6.3141 19.8461 6.38758 20.1667 6.38758Z" fill="white"/>
<path id="Vector_5" d="M23.3615 9.06348C23.1182 9.06348 22.8806 9.0234 22.6496 8.94324C22.4187 8.86308 22.2202 8.7457 22.0532 8.59206L22.4473 7.89926C22.5752 8.02141 22.7164 8.11397 22.871 8.17791C23.0247 8.24185 23.1888 8.27429 23.3615 8.27429C23.5858 8.27429 23.7719 8.21608 23.9198 8.10061C24.0677 7.98515 24.2051 7.77998 24.333 7.48511L24.6508 6.78276L24.7471 6.66729L26.7483 2.03906H27.6529L25.1804 7.64829C25.0325 8.00709 24.8674 8.28956 24.6851 8.49473C24.5019 8.6999 24.3015 8.8459 24.0839 8.93274C23.8654 9.01958 23.6249 9.06252 23.3625 9.06252L23.3615 9.06348ZM24.5735 7.30284L22.245 2.04002H23.2069L25.189 6.58141L24.5735 7.30284Z" fill="white"/>
</g>
<g id="Group_3">
<path id="Vector_6" d="M28.5261 7.13957V0.404297H28.7952L31.9701 5.91714H31.826L34.9818 0.404297H35.2509L35.2604 7.13957H34.9426L34.9331 0.885251H35.039L31.9796 6.20629H31.8069L28.7275 0.885251H28.8429V7.13957H28.5251H28.5261Z" fill="white"/>
<path id="Vector_7" d="M36.897 0.836941C36.814 0.836941 36.7395 0.804496 36.6756 0.74056C36.6117 0.676623 36.5792 0.606007 36.5792 0.528711C36.5792 0.439009 36.6117 0.363621 36.6756 0.302548C36.7395 0.241474 36.813 0.210938 36.897 0.210938C36.9867 0.210938 37.0621 0.241474 37.1232 0.302548C37.1842 0.363621 37.2148 0.436146 37.2148 0.519168C37.2148 0.60219 37.1842 0.676623 37.1232 0.74056C37.0621 0.804496 36.9867 0.836941 36.897 0.836941ZM36.7434 7.13897V2.14621H37.0611V7.13992H36.7434V7.13897Z" fill="white"/>
<path id="Vector_8" d="M38.3781 7.13988V0H38.6958V7.13988H38.3781Z" fill="white"/>
<path id="Vector_9" d="M41.3325 7.16889C40.9536 7.16889 40.632 7.11068 40.3658 6.99617C40.0996 6.8807 39.8963 6.71561 39.7551 6.5009C39.6138 6.28619 39.5432 6.04094 39.5432 5.76516C39.5432 5.52182 39.6014 5.29565 39.7159 5.08667C39.8314 4.87863 40.0223 4.71164 40.2885 4.58663C40.5547 4.46162 40.9126 4.39863 41.3611 4.39863H43.2954V4.6582H41.3611C40.8153 4.6582 40.4297 4.76126 40.2017 4.96643C39.9736 5.1716 39.86 5.43116 39.86 5.74607C39.86 6.09915 39.9917 6.37971 40.2541 6.58774C40.5175 6.79673 40.883 6.90074 41.3506 6.90074C41.8182 6.90074 42.1942 6.79673 42.4957 6.58774C42.7973 6.37971 43.0254 6.08293 43.179 5.6974L43.2849 5.90925C43.1561 6.2881 42.9252 6.59251 42.5921 6.82345C42.2591 7.05438 41.8382 7.16985 41.3315 7.16985L41.3325 7.16889ZM43.1895 7.14026V5.97605L43.18 5.80237V3.90718C43.18 3.41287 43.0483 3.03784 42.7858 2.78114C42.5225 2.52444 42.1407 2.39657 41.6407 2.39657C41.2752 2.39657 40.9412 2.45955 40.6397 2.58456C40.3381 2.70957 40.0786 2.8718 39.86 3.07028L39.6864 2.83935C39.924 2.6151 40.215 2.43665 40.5624 2.30496C40.9088 2.17327 41.2714 2.10742 41.6493 2.10742C42.2457 2.10742 42.7028 2.26011 43.0206 2.56452C43.3384 2.86893 43.4968 3.31649 43.4968 3.90718V7.14026H43.1885H43.1895Z" fill="white"/>
<path id="Vector_10" d="M47.1153 2.10742C47.5257 2.10742 47.8807 2.18758 48.1784 2.3479C48.4771 2.50822 48.709 2.74392 48.876 3.05502C49.043 3.36611 49.126 3.74973 49.126 4.20492V7.13931H48.8082V4.224C48.8082 3.62758 48.6574 3.17526 48.3559 2.86702C48.0543 2.55879 47.6306 2.40516 47.0858 2.40516C46.6687 2.40516 46.3099 2.48818 46.0084 2.65518C45.7068 2.82217 45.4759 3.05883 45.3156 3.36706C45.1553 3.67529 45.0751 4.0341 45.0751 4.44444V7.13836H44.7573V2.14655H45.0656V3.55124L45.0274 3.4644C45.181 3.04738 45.4368 2.7172 45.7927 2.47291C46.1487 2.22957 46.5895 2.10742 47.1153 2.10742Z" fill="white"/>
</g>
<path id="Vector_11" d="M16.7256 11.3166C12.146 11.3166 8.0283 10.3681 5.17883 8.85938C7.74679 10.7603 11.9618 11.9999 16.7256 11.9999C21.4893 11.9999 25.7043 10.7603 28.2723 8.85938C25.4228 10.3681 21.3051 11.3166 16.7256 11.3166Z" fill="#0F52BA"/>
</g>
</g>
</g>
<defs>
<clipPath id="clip0_1567_936">
<rect width="49.126" height="12" fill="white"/>
</clipPath>
</defs>
</svg>
