<svg width="32" height="12" viewBox="0 0 32 12" fill="none" xmlns="http://www.w3.org/2000/svg">
<g id="Group 259">
<g id="Group 258">
<g id="Group">
<path id="Vector" d="M6.57746 5.88439C6.45271 6.10966 6.26155 6.29095 6.00308 6.42915C5.74461 6.56736 5.42422 6.63647 5.041 6.63647H4.3329V8.32011H3.19043V3.63086H5.041C5.41524 3.63086 5.73115 3.69548 5.98962 3.82471C6.24809 3.95395 6.44194 4.13164 6.57028 4.3587C6.69952 4.58576 6.76413 4.84603 6.76413 5.14039C6.76413 5.41233 6.70131 5.66003 6.57746 5.88529V5.88439ZM5.44217 5.57387C5.54897 5.47156 5.60281 5.32707 5.60281 5.1395C5.60281 4.95193 5.54897 4.80744 5.44217 4.70512C5.33537 4.60281 5.17293 4.55166 4.95485 4.55166H4.3338V5.72734H4.95485C5.17293 5.72734 5.33537 5.67618 5.44217 5.57387Z" fill="white"/>
<path id="Vector_2" d="M9.00255 4.72953C9.20269 4.61197 9.42526 4.55273 9.67027 4.55273V5.76162H9.35616C9.07076 5.76162 8.85716 5.82265 8.71447 5.9456C8.57177 6.06855 8.50087 6.28305 8.50087 6.58998V8.32029H7.3584V4.59312H8.50087V5.21417C8.63459 5.00954 8.80152 4.848 9.00166 4.72953H9.00255Z" fill="white"/>
<path id="Vector_3" d="M10.9295 8.13774C10.6378 7.98158 10.408 7.75901 10.2411 7.47002C10.0742 7.18104 9.99072 6.8418 9.99072 6.45499C9.99072 6.06818 10.0751 5.73522 10.2447 5.44265C10.4134 5.15098 10.6459 4.92751 10.9393 4.77135C11.2328 4.61519 11.5631 4.53711 11.9283 4.53711C12.2936 4.53711 12.623 4.61519 12.9165 4.77135C13.2108 4.92751 13.4415 5.15098 13.6111 5.44265C13.7807 5.73433 13.8651 6.07177 13.8651 6.45499C13.8651 6.83821 13.7789 7.17566 13.6075 7.46733C13.4361 7.75901 13.2019 7.98248 12.9066 8.13863C12.6104 8.29479 12.2802 8.37287 11.9149 8.37287C11.5496 8.37287 11.2211 8.29479 10.9295 8.13863V8.13774ZM12.4722 7.14245C12.6257 6.9818 12.7029 6.75295 12.7029 6.45409C12.7029 6.15524 12.6284 5.92638 12.4794 5.76574C12.3304 5.60509 12.1464 5.52522 11.9283 5.52522C11.7103 5.52522 11.5209 5.60419 11.3737 5.76215C11.2265 5.9201 11.1529 6.15075 11.1529 6.4532C11.1529 6.75564 11.2256 6.98091 11.3701 7.14155C11.5146 7.3022 11.6959 7.38207 11.9149 7.38207C12.1339 7.38207 12.3187 7.3022 12.4722 7.14155V7.14245Z" fill="white"/>
<path id="Vector_4" d="M18.8743 3.63086L17.2113 8.32011H15.7817L14.1187 3.63086H15.3347L16.4969 7.17136L17.6654 3.63086H18.8743Z" fill="white"/>
<path id="Vector_5" d="M22.8425 6.72977H20.2578C20.2757 6.96132 20.3502 7.13812 20.4812 7.26107C20.6123 7.38403 20.7738 7.44505 20.9659 7.44505C21.2504 7.44505 21.4487 7.32479 21.56 7.08427H22.7752C22.7123 7.32928 22.6002 7.54916 22.4377 7.7457C22.2753 7.94135 22.0715 8.09571 21.8265 8.2061C21.5815 8.31739 21.3078 8.37303 21.0054 8.37303C20.6401 8.37303 20.3152 8.29495 20.0298 8.13879C19.7444 7.98263 19.5219 7.76006 19.3621 7.47108C19.2015 7.1821 19.1216 6.84285 19.1216 6.45605C19.1216 6.06924 19.2006 5.73 19.3585 5.44101C19.5165 5.15203 19.7381 4.92856 20.0235 4.7733C20.308 4.61714 20.6356 4.53906 21.0054 4.53906C21.3751 4.53906 21.6865 4.61445 21.9674 4.76612C22.2483 4.91779 22.4673 5.13318 22.6253 5.41409C22.7832 5.695 22.8622 6.02167 22.8622 6.39592C22.8622 6.50271 22.8559 6.614 22.8425 6.72977ZM21.6937 6.09527C21.6937 5.89962 21.6273 5.74346 21.4936 5.62769C21.3599 5.51191 21.1929 5.45358 20.9928 5.45358C20.7927 5.45358 20.6401 5.50922 20.5082 5.62051C20.3771 5.73179 20.2955 5.88975 20.2641 6.09437H21.6937V6.09527Z" fill="white"/>
<path id="Vector_6" d="M26.7804 4.97634C27.0407 5.25904 27.1708 5.64764 27.1708 6.14214V8.31939H26.0355V6.29561C26.0355 6.04612 25.9709 5.85226 25.8417 5.71495C25.7124 5.57674 25.5383 5.50764 25.3211 5.50764C25.1039 5.50764 24.9289 5.57674 24.7997 5.71495C24.6705 5.85316 24.6059 6.04701 24.6059 6.29561V8.31939H23.4634V4.59222H24.6059V5.08673C24.7216 4.92249 24.8778 4.79146 25.0734 4.69633C25.2691 4.6003 25.4899 4.55273 25.7349 4.55273C26.171 4.55273 26.5201 4.69453 26.7804 4.97724V4.97634Z" fill="white"/>
<path id="Vector_7" d="M27.956 5.44007C28.1004 5.15108 28.2979 4.92761 28.5474 4.77235C28.7969 4.61619 29.0751 4.53811 29.382 4.53811C29.627 4.53811 29.8505 4.58927 30.0533 4.69158C30.2562 4.79389 30.415 4.9321 30.5308 5.10531V3.375H31.6733V8.31823H30.5308V7.78424C30.424 7.96284 30.2714 8.10464 30.0731 8.21144C29.8747 8.31824 29.6441 8.37208 29.382 8.37208C29.0751 8.37208 28.7969 8.29311 28.5474 8.13515C28.2979 7.9772 28.1004 7.75194 27.956 7.46026C27.8115 7.16858 27.7388 6.83114 27.7388 6.44792C27.7388 6.0647 27.8115 5.72905 27.956 5.43917V5.44007ZM30.2939 5.7811C30.1359 5.61687 29.9429 5.5343 29.7159 5.5343C29.4888 5.5343 29.2959 5.61597 29.1379 5.77841C28.98 5.94085 28.901 6.16432 28.901 6.44971C28.901 6.73511 28.98 6.96037 29.1379 7.1273C29.2959 7.29423 29.4888 7.37769 29.7159 7.37769C29.9429 7.37769 30.1359 7.29513 30.2939 7.13089C30.4518 6.96665 30.5308 6.74139 30.5308 6.456C30.5308 6.1706 30.4518 5.94624 30.2939 5.7811Z" fill="white"/>
</g>
<path id="Vector_8" d="M5.19901 11.2048H2.41238C1.51851 11.2048 0.794256 10.4806 0.794256 9.58672V2.41238C0.794256 1.51851 1.51851 0.794256 2.41238 0.794256H5.19901V0H2.15571C0.964775 0 0 0.964774 0 2.15571V9.84429C0 11.0343 0.964775 12 2.15571 12H5.19901V11.2057V11.2048Z" fill="white"/>
<path id="Vector_9" d="M2.49143 10.3149C2.83888 10.3149 3.12055 10.0332 3.12055 9.68576C3.12055 9.33831 2.83888 9.05664 2.49143 9.05664C2.14397 9.05664 1.8623 9.33831 1.8623 9.68576C1.8623 10.0332 2.14397 10.3149 2.49143 10.3149Z" fill="white"/>
<g id="Group_2">
<path id="Vector_10" d="M9.60251 2.41238V3.21472H10.3968V2.15571C10.3968 0.965672 9.43199 0 8.24106 0H5.19775V0.794256H7.98438C8.87826 0.794256 9.60251 1.51851 9.60251 2.41238Z" fill="white"/>
<path id="Vector_11" d="M9.60251 9.05664V9.58704C9.60251 10.4809 8.87826 11.2052 7.98438 11.2052H5.19775V11.9994H8.24106C9.4311 11.9994 10.3968 11.0347 10.3968 9.84372V9.05664H9.60251Z" fill="white"/>
</g>
</g>
</g>
</svg>
