<svg width="35" height="16" viewBox="0 0 35 16" fill="none" xmlns="http://www.w3.org/2000/svg">
<path id="Vector" d="M7.88333 16C5.68556 16 3.82222 15.2242 2.29333 13.6727C0.764444 12.1212 0 10.2303 0 8C0 5.7697 0.764444 3.87879 2.29333 2.32727C3.82222 0.775757 5.68556 0 7.88333 0C8.76722 0 9.61528 0.157576 10.4275 0.472727C11.2397 0.787879 11.9683 1.23636 12.6133 1.81818L15.05 4.07273L12.9 6.03636L10.6783 4C10.2961 3.66061 9.86611 3.39394 9.38833 3.2C8.91056 3.00606 8.40889 2.90909 7.88333 2.90909C6.49778 2.90909 5.31528 3.40606 4.33583 4.4C3.35639 5.39394 2.86667 6.59394 2.86667 8C2.86667 9.40606 3.35639 10.6061 4.33583 11.6C5.31528 12.5939 6.49778 13.0909 7.88333 13.0909C8.40889 13.0909 8.91056 12.9939 9.38833 12.8C9.86611 12.6061 10.2961 12.3394 10.6783 12L21.7867 1.81818C22.4317 1.23636 23.1603 0.787879 23.9725 0.472727C24.7847 0.157576 25.6328 0 26.5167 0C28.7144 0 30.5778 0.775757 32.1067 2.32727C33.6356 3.87879 34.4 5.7697 34.4 8C34.4 10.2303 33.6356 12.1212 32.1067 13.6727C30.5778 15.2242 28.7144 16 26.5167 16C25.6328 16 24.7847 15.8424 23.9725 15.5273C23.1603 15.2121 22.4317 14.7636 21.7867 14.1818L19.35 11.9273L21.5 9.96364L23.7217 12C24.1039 12.3394 24.5339 12.6061 25.0117 12.8C25.4894 12.9939 25.9911 13.0909 26.5167 13.0909C27.9022 13.0909 29.0847 12.5939 30.0642 11.6C31.0436 10.6061 31.5333 9.40606 31.5333 8C31.5333 6.59394 31.0436 5.39394 30.0642 4.4C29.0847 3.40606 27.9022 2.90909 26.5167 2.90909C25.9911 2.90909 25.4894 3.00606 25.0117 3.2C24.5339 3.39394 24.1039 3.66061 23.7217 4L12.6133 14.1818C11.9683 14.7636 11.2397 15.2121 10.4275 15.5273C9.61528 15.8424 8.76722 16 7.88333 16Z" fill="#0904F2"/>
</svg>
