<svg width="61" height="12" viewBox="0 0 61 12" fill="none" xmlns="http://www.w3.org/2000/svg">
<g id="Group 348">
<g id="Group 346">
<path id="Subtract" fill-rule="evenodd" clip-rule="evenodd" d="M5 0C2.23858 0 0 2.23858 0 5V7C0 9.76142 2.23858 12 5 12H7C9.76142 12 12 9.76142 12 7V5C12 2.23858 9.76142 0 7 0H5ZM5 1C2.79086 1 1 2.79086 1 5V7C1 9.20914 2.79086 11 5 11H7C9.20914 11 11 9.20914 11 7V5C11 2.79086 9.20914 1 7 1H5Z" fill="white"/>
<rect id="Rectangle 327" x="5" y="5" width="5" height="5" rx="2.5" fill="white"/>
</g>
<g id="Ads">
<path d="M20.9897 8.66H18.3697L17.9497 9.9H16.1597L18.6997 2.88H20.6797L23.2197 9.9H21.4097L20.9897 8.66ZM20.5497 7.34L19.6797 4.77L18.8197 7.34H20.5497Z" fill="white"/>
<path d="M23.6527 7.1C23.6527 6.52667 23.7594 6.02333 23.9727 5.59C24.1927 5.15667 24.4894 4.82333 24.8627 4.59C25.236 4.35667 25.6527 4.24 26.1127 4.24C26.4794 4.24 26.8127 4.31667 27.1127 4.47C27.4194 4.62333 27.6594 4.83 27.8327 5.09V2.5H29.5427V9.9H27.8327V9.1C27.6727 9.36667 27.4427 9.58 27.1427 9.74C26.8494 9.9 26.506 9.98 26.1127 9.98C25.6527 9.98 25.236 9.86333 24.8627 9.63C24.4894 9.39 24.1927 9.05333 23.9727 8.62C23.7594 8.18 23.6527 7.67333 23.6527 7.1ZM27.8327 7.11C27.8327 6.68333 27.7127 6.34667 27.4727 6.1C27.2394 5.85333 26.9527 5.73 26.6127 5.73C26.2727 5.73 25.9827 5.85333 25.7427 6.1C25.5094 6.34 25.3927 6.67333 25.3927 7.1C25.3927 7.52667 25.5094 7.86667 25.7427 8.12C25.9827 8.36667 26.2727 8.49 26.6127 8.49C26.9527 8.49 27.2394 8.36667 27.4727 8.12C27.7127 7.87333 27.8327 7.53667 27.8327 7.11Z" fill="white"/>
<path d="M33.0498 9.98C32.5632 9.98 32.1298 9.89667 31.7498 9.73C31.3698 9.56333 31.0698 9.33667 30.8498 9.05C30.6298 8.75667 30.5065 8.43 30.4798 8.07H32.1698C32.1898 8.26333 32.2798 8.42 32.4398 8.54C32.5998 8.66 32.7965 8.72 33.0298 8.72C33.2432 8.72 33.4065 8.68 33.5198 8.6C33.6398 8.51333 33.6998 8.40333 33.6998 8.27C33.6998 8.11 33.6165 7.99333 33.4498 7.92C33.2832 7.84 33.0132 7.75333 32.6398 7.66C32.2398 7.56667 31.9065 7.47 31.6398 7.37C31.3732 7.26333 31.1432 7.1 30.9498 6.88C30.7565 6.65333 30.6598 6.35 30.6598 5.97C30.6598 5.65 30.7465 5.36 30.9198 5.1C31.0998 4.83333 31.3598 4.62333 31.6998 4.47C32.0465 4.31667 32.4565 4.24 32.9298 4.24C33.6298 4.24 34.1798 4.41333 34.5798 4.76C34.9865 5.10667 35.2198 5.56667 35.2798 6.14H33.6998C33.6732 5.94667 33.5865 5.79333 33.4398 5.68C33.2998 5.56667 33.1132 5.51 32.8798 5.51C32.6798 5.51 32.5265 5.55 32.4198 5.63C32.3132 5.70333 32.2598 5.80667 32.2598 5.94C32.2598 6.1 32.3432 6.22 32.5098 6.3C32.6832 6.38 32.9498 6.46 33.3098 6.54C33.7232 6.64667 34.0598 6.75333 34.3198 6.86C34.5798 6.96 34.8065 7.12667 34.9998 7.36C35.1998 7.58667 35.3032 7.89333 35.3098 8.28C35.3098 8.60667 35.2165 8.9 35.0298 9.16C34.8498 9.41333 34.5865 9.61333 34.2398 9.76C33.8998 9.90667 33.5032 9.98 33.0498 9.98Z" fill="white"/>
</g>
<g id="India">
<path d="M37.91 2.64V9.61H37V2.64H37.91Z" fill="white"/>
<path d="M42.1309 4.03C42.7976 4.03 43.3376 4.23333 43.7509 4.64C44.1643 5.04 44.3709 5.62 44.3709 6.38V9.61H43.4709V6.51C43.4709 5.96333 43.3343 5.54667 43.0609 5.26C42.7876 4.96667 42.4143 4.82 41.9409 4.82C41.4609 4.82 41.0776 4.97 40.7909 5.27C40.5109 5.57 40.3709 6.00667 40.3709 6.58V9.61H39.4609V4.13H40.3709V4.91C40.5509 4.63 40.7943 4.41333 41.1009 4.26C41.4143 4.10667 41.7576 4.03 42.1309 4.03Z" fill="white"/>
<path d="M45.5174 6.85C45.5174 6.29 45.6308 5.8 45.8574 5.38C46.0841 4.95333 46.3941 4.62333 46.7874 4.39C47.1874 4.15667 47.6341 4.04 48.1274 4.04C48.5541 4.04 48.9508 4.14 49.3174 4.34C49.6841 4.53333 49.9641 4.79 50.1574 5.11V2.21H51.0774V9.61H50.1574V8.58C49.9774 8.90667 49.7108 9.17667 49.3574 9.39C49.0041 9.59667 48.5908 9.7 48.1174 9.7C47.6308 9.7 47.1874 9.58 46.7874 9.34C46.3941 9.1 46.0841 8.76333 45.8574 8.33C45.6308 7.89667 45.5174 7.40333 45.5174 6.85ZM50.1574 6.86C50.1574 6.44667 50.0741 6.08667 49.9074 5.78C49.7408 5.47333 49.5141 5.24 49.2274 5.08C48.9474 4.91333 48.6374 4.83 48.2974 4.83C47.9574 4.83 47.6474 4.91 47.3674 5.07C47.0874 5.23 46.8641 5.46333 46.6974 5.77C46.5308 6.07667 46.4474 6.43667 46.4474 6.85C46.4474 7.27 46.5308 7.63667 46.6974 7.95C46.8641 8.25667 47.0874 8.49333 47.3674 8.66C47.6474 8.82 47.9574 8.9 48.2974 8.9C48.6374 8.9 48.9474 8.82 49.2274 8.66C49.5141 8.49333 49.7408 8.25667 49.9074 7.95C50.0741 7.63667 50.1574 7.27333 50.1574 6.86Z" fill="white"/>
<path d="M53.0852 3.24C52.9119 3.24 52.7652 3.18 52.6452 3.06C52.5252 2.94 52.4652 2.79333 52.4652 2.62C52.4652 2.44667 52.5252 2.3 52.6452 2.18C52.7652 2.06 52.9119 2 53.0852 2C53.2519 2 53.3919 2.06 53.5052 2.18C53.6252 2.3 53.6852 2.44667 53.6852 2.62C53.6852 2.79333 53.6252 2.94 53.5052 3.06C53.3919 3.18 53.2519 3.24 53.0852 3.24ZM53.5252 4.13V9.61H52.6152V4.13H53.5252Z" fill="white"/>
<path d="M54.7362 6.85C54.7362 6.29 54.8495 5.8 55.0762 5.38C55.3028 4.95333 55.6128 4.62333 56.0062 4.39C56.4062 4.15667 56.8495 4.04 57.3362 4.04C57.8162 4.04 58.2328 4.14333 58.5862 4.35C58.9395 4.55667 59.2028 4.81667 59.3762 5.13V4.13H60.2962V9.61H59.3762V8.59C59.1962 8.91 58.9262 9.17667 58.5662 9.39C58.2128 9.59667 57.7995 9.7 57.3262 9.7C56.8395 9.7 56.3995 9.58 56.0062 9.34C55.6128 9.1 55.3028 8.76333 55.0762 8.33C54.8495 7.89667 54.7362 7.40333 54.7362 6.85ZM59.3762 6.86C59.3762 6.44667 59.2928 6.08667 59.1262 5.78C58.9595 5.47333 58.7328 5.24 58.4462 5.08C58.1662 4.91333 57.8562 4.83 57.5162 4.83C57.1762 4.83 56.8662 4.91 56.5862 5.07C56.3062 5.23 56.0828 5.46333 55.9162 5.77C55.7495 6.07667 55.6662 6.43667 55.6662 6.85C55.6662 7.27 55.7495 7.63667 55.9162 7.95C56.0828 8.25667 56.3062 8.49333 56.5862 8.66C56.8662 8.82 57.1762 8.9 57.5162 8.9C57.8562 8.9 58.1662 8.82 58.4462 8.66C58.7328 8.49333 58.9595 8.25667 59.1262 7.95C59.2928 7.63667 59.3762 7.27333 59.3762 6.86Z" fill="white"/>
</g>
</g>
</svg>
