<svg width="53" height="61" viewBox="0 0 53 61" fill="none" xmlns="http://www.w3.org/2000/svg">
<g id="Group 1601">
<path id="Vector" d="M46.3089 12.1389C46.2673 11.8386 46.0026 11.6724 45.7838 11.6541C45.5655 11.636 40.944 11.2955 40.944 11.2955C40.944 11.2955 37.7344 8.12865 37.3821 7.77813C37.0296 7.42781 36.3412 7.53437 36.074 7.61253C36.0346 7.62405 35.3727 7.82709 34.2778 8.16383C33.2056 5.09756 31.3134 2.27978 27.9846 2.27978C27.8927 2.27978 27.7981 2.28348 27.7035 2.28883C26.7568 1.04451 25.584 0.503906 24.571 0.503906C16.8165 0.503906 13.1118 10.1382 11.9502 15.034C8.93699 15.962 6.7964 16.6217 6.52298 16.7071C4.84106 17.2314 4.78787 17.2841 4.56702 18.8592C4.40081 20.0517 0 53.8759 0 53.8759L34.2921 60.2615L52.8727 56.2666C52.8727 56.2666 46.3499 12.4393 46.3089 12.1389ZM32.3825 8.74639L29.4808 9.63896C29.4819 9.43572 29.4829 9.23577 29.4829 9.01711C29.4829 7.11143 29.2167 5.57706 28.7897 4.36071C30.505 4.57465 31.6473 6.51426 32.3825 8.74639ZM26.662 4.7386C27.1388 5.92615 27.4489 7.63043 27.4489 9.93024C27.4489 10.0479 27.4479 10.1555 27.4468 10.2643C25.5598 10.8452 23.5092 11.4759 21.4541 12.1087C22.608 7.68268 24.771 5.54497 26.662 4.7386ZM24.3581 2.57106C24.6927 2.57106 25.0299 2.68399 25.3526 2.90472C22.8674 4.06696 20.2036 6.99418 19.0786 12.8398L14.3417 14.2978C15.6593 9.83911 18.7882 2.57106 24.3581 2.57106Z" fill="#95BF46"/>
<path id="Vector_2" d="M45.784 11.6528C45.5657 11.6347 40.9442 11.2942 40.9442 11.2942C40.9442 11.2942 37.7346 8.12738 37.3823 7.77685C37.2505 7.64643 37.0727 7.57958 36.8868 7.55078L34.2939 60.2598L52.8729 56.2654C52.8729 56.2654 46.3501 12.438 46.3092 12.1376C46.2675 11.8373 46.0028 11.6711 45.784 11.6528Z" fill="#5E8E3E"/>
<path id="Vector_3" d="M27.9848 21.8572L25.6937 28.6303C25.6937 28.6303 23.6864 27.5656 21.2259 27.5656C17.6186 27.5656 17.4371 29.8154 17.4371 30.3823C17.4371 33.4758 25.5507 34.661 25.5507 41.9069C25.5507 47.6077 21.9126 51.2785 17.0072 51.2785C11.1207 51.2785 8.11035 47.6375 8.11035 47.6375L9.68651 42.4619C9.68651 42.4619 12.7809 45.1021 15.3919 45.1021C17.0981 45.1021 17.7921 43.7671 17.7921 42.7916C17.7921 38.7565 11.1356 38.5765 11.1356 31.9459C11.1356 26.3653 15.1659 20.9648 23.3015 20.9648C26.4362 20.9648 27.9848 21.8572 27.9848 21.8572Z" fill="white"/>
</g>
</svg>
