<svg width="38" height="34" viewBox="0 0 38 34" fill="none" xmlns="http://www.w3.org/2000/svg">
<g id="Group 1182">
<path id="Vector" fill-rule="evenodd" clip-rule="evenodd" d="M8.27213 1.11935L18.9572 0L29.643 1.11935L37.9158 12.1237L18.9579 34L0 12.1237L8.27213 1.11935Z" fill="#FDB300"/>
<path id="Vector_2" fill-rule="evenodd" clip-rule="evenodd" d="M7.67918 12.2559L18.9579 33.9998L0 12.2559H7.67918Z" fill="#EA6C00"/>
<path id="Vector_3" fill-rule="evenodd" clip-rule="evenodd" d="M30.239 12.2559L18.9596 33.9998L37.9175 12.2559H30.239Z" fill="#EA6C00"/>
<path id="Vector_4" fill-rule="evenodd" clip-rule="evenodd" d="M7.50732 12.2559H30.02L18.7636 33.9998L7.50732 12.2559Z" fill="#FDAD00"/>
<path id="Vector_5" fill-rule="evenodd" clip-rule="evenodd" d="M18.5662 0L8.08906 1.13131L7.50732 12.256L18.5662 0Z" fill="#FDD231"/>
<path id="Vector_6" fill-rule="evenodd" clip-rule="evenodd" d="M18.9548 0L29.4319 1.13131L30.0137 12.256L18.9548 0Z" fill="#FDD231"/>
<path id="Vector_7" fill-rule="evenodd" clip-rule="evenodd" d="M37.9175 12.2557L29.6229 1.18555L30.2181 12.2557H37.9175Z" fill="#FDAD00"/>
<g id="Group">
<path id="Vector_8" fill-rule="evenodd" clip-rule="evenodd" d="M0 12.2576L8.29381 1.1875L7.69862 12.2576H0Z" fill="#FDAD00"/>
</g>
<g id="Group_2">
<path id="Vector_9" fill-rule="evenodd" clip-rule="evenodd" d="M18.7636 0L7.50732 12.256H30.02L18.7636 0Z" fill="#FEEEB7"/>
</g>
</g>
</svg>
