<svg width="46" height="45" viewBox="0 0 46 45" fill="none" xmlns="http://www.w3.org/2000/svg">
<g id="Software_WebsiteHand 1" clip-path="url(#clip0_2028_1659)">
<g id="Group">
<path id="Vector" d="M45.8 20.3996C44.5 18.9996 42.6 18.4996 40.8 18.9996C38.7 19.4996 37.5 20.9996 36.3 23.1996L32.9 24.9996C32.1 24.2996 31.1 23.9996 30 23.9996H24.8C24.5 23.7996 24.2 23.5996 23.9 23.3996C23.1 22.5996 22.1 22.1996 21 21.9996H16C14.2 22.1996 12.6 22.9996 11.3 24.2996L8 27.5996L6.7 26.2996C6.3 25.8996 5.7 25.8996 5.3 26.2996L0.3 31.2996C-0.1 31.6996 -0.1 32.2996 0.3 32.6996L12.3 44.6996C12.7 45.0996 13.3 45.0996 13.7 44.6996L18.7 39.6996C19.1 39.2996 19.1 38.6996 18.7 38.2996L17.5 37.0996C17.7 36.9996 17.8 36.9996 18 36.9996H32C33.9 36.9996 40.7 29.6996 40.8 29.6996C42.8 27.0996 44.5 24.2996 46 21.3996C46.1 21.0996 46 20.6996 45.8 20.3996ZM13 42.5996L2.4 31.9996L6 28.3996L16.6 38.9996L13 42.5996ZM39.2 28.2996C38.1 29.5996 33 34.4996 31.9 34.9996H18C17.3 34.9996 16.6 35.1996 16 35.5996L9.4 28.9996L12.7 25.6996C13.6 24.7996 14.8 24.1996 16 23.9996H21C21.6 24.1996 22.2 24.4996 22.7 24.9996C23.3 25.4996 24 25.8996 24.8 25.9996H30C31.4 25.9996 32 26.7996 32 27.4996C32 28.1996 31.4 28.9996 30 28.9996H22V30.9996H30C32.6 30.9996 34 29.1996 34 27.4996C34 27.1996 34 26.9996 33.9 26.6996L37.5 24.8996C37.7 24.7996 37.8 24.6996 37.9 24.4996C39.1 22.1996 39.9 21.2996 41.2 20.9996C42.1 20.7996 43 20.8996 43.8 21.2996C42.4 23.6996 40.9 26.0996 39.2 28.2996Z" fill="#0904F2"/>
<path id="Vector_2" d="M6.70961 31.3026L5.29541 32.7168L7.27529 34.6967L8.68949 33.2825L6.70961 31.3026Z" fill="#0904F2"/>
<path id="Vector_3" d="M15 8H40V18H42V0H13V21H15V8ZM15 2H40V6H15V2Z" fill="#0904F2"/>
<path id="Vector_4" d="M19 3H17V5H19V3Z" fill="#0904F2"/>
<path id="Vector_5" d="M23 3H21V5H23V3Z" fill="#0904F2"/>
</g>
</g>
<defs>
<clipPath id="clip0_2028_1659">
<rect width="46" height="45" fill="white"/>
</clipPath>
</defs>
</svg>
