<svg width="29" height="34" viewBox="0 0 29 34" fill="none" xmlns="http://www.w3.org/2000/svg">
<g id="Layer_x0020_1">
<g id="_328321776">
<g id="Group">
<g id="Group_2">
<path id="Vector" fill-rule="evenodd" clip-rule="evenodd" d="M28.0844 32.2869H2.39016C2.11131 32.2869 1.89221 32.0678 1.89221 31.7889V10.7157C1.89221 10.4369 2.11131 10.2178 2.39016 10.2178H7.529C7.80785 10.2178 8.02695 10.4369 8.02695 10.7157V14.7192H12.6678C12.9467 14.7192 13.1658 14.9383 13.1658 15.2172V19.0016H17.8067C18.0855 19.0016 18.3046 19.2207 18.3046 19.4996V23.5031H22.9455C23.2244 23.5031 23.4435 23.7222 23.4435 24.001V27.8452H28.0844C28.3632 27.8452 28.5823 28.0643 28.5823 28.3431V31.8089C28.5624 32.0678 28.3433 32.2869 28.0844 32.2869ZM23.4236 31.3109H27.5864V28.7813H23.4236V31.3109ZM18.3046 31.3109H22.4476V24.4392H18.3046V31.3109ZM13.1658 31.3109H17.3486V19.9377H13.1658V31.3109ZM8.02695 31.3109H12.2097V15.6753H8.02695V31.3109ZM2.88811 31.3109H7.07089V11.1738H2.88811V31.3109Z" fill="white"/>
</g>
<g id="Group_3">
<path id="Vector_2" fill-rule="evenodd" clip-rule="evenodd" d="M4.99941 11.174C4.72056 11.174 4.50146 10.9549 4.50146 10.676V3.78442C4.52138 2.2109 4.52138 2.09139 4.50146 0.49795C4.50146 0.358524 4.5413 0.239016 4.64089 0.139426C4.72056 0.039836 4.85999 0 4.95958 0H10.3972C10.5964 0 10.7756 0.0995899 10.8553 0.278852C10.935 0.438196 10.8951 0.637375 10.7955 0.796719C10.6561 0.956063 10.5366 1.09549 10.437 1.23492C10.0785 1.67311 9.71998 2.07147 9.66022 2.23081C9.71998 2.31049 9.87932 2.48975 10.0187 2.64909C10.2179 2.86819 10.4968 3.10721 10.7955 3.46573C10.8951 3.60515 10.935 3.80433 10.8752 4.00351C10.7955 4.16286 10.6362 4.28237 10.437 4.28237C9.81957 4.28237 9.22203 4.28237 8.60457 4.28237C7.58875 4.28237 6.51318 4.28237 5.45753 4.28237V10.676C5.45753 10.9947 5.27827 11.174 4.99941 11.174ZM6.81195 3.30639C7.42941 3.30639 8.02695 3.30639 8.60457 3.30639C8.8635 3.30639 9.0826 3.30639 9.32162 3.30639C8.42531 2.37024 8.5249 2.03163 9.38137 0.995899H5.49736C5.49736 1.9918 5.49736 2.35032 5.49736 3.30639C5.93556 3.30639 6.37376 3.30639 6.81195 3.30639Z" fill="white"/>
</g>
<g id="Group_4">
<path id="Vector_3" fill-rule="evenodd" clip-rule="evenodd" d="M0.49795 30.3553C0.219098 30.3553 0 30.1362 0 29.8573V15.8749C0 15.5961 0.219098 15.377 0.49795 15.377C0.756883 15.377 0.995899 15.5961 0.995899 15.8749V29.8772C0.995899 30.1362 0.756883 30.3553 0.49795 30.3553Z" fill="white"/>
</g>
<g id="Group_5">
<path id="Vector_4" fill-rule="evenodd" clip-rule="evenodd" d="M24.8776 33.9998H5.67666C5.39781 33.9998 5.17871 33.7807 5.17871 33.5019C5.17871 33.223 5.39781 33.0039 5.67666 33.0039H24.8776C25.1565 33.0039 25.3755 33.223 25.3755 33.5019C25.3755 33.7807 25.1365 33.9998 24.8776 33.9998Z" fill="white"/>
</g>
</g>
</g>
</g>
</svg>
