<svg width="45" height="45" viewBox="0 0 45 45" fill="none" xmlns="http://www.w3.org/2000/svg">
<path id="Vector" d="M18.6646 31.9687L34.6812 15.9521L33.5833 14.8542L18.6646 29.8375L11.1729 22.3458L10.1396 23.4437L18.6646 31.9687ZM22.4862 44.95C19.3787 44.95 16.4675 44.3603 13.7525 43.181C11.0375 42.0016 8.65703 40.3903 6.6112 38.3471C4.56542 36.3038 2.9521 33.9264 1.77126 31.2148C0.59042 28.5033 0 25.5937 0 22.4862C0 19.3787 0.589668 16.4567 1.769 13.7202C2.94838 10.9836 4.55969 8.60323 6.60294 6.57897C8.64622 4.55467 11.0236 2.95211 13.7352 1.77126C16.4467 0.590422 19.3563 0 22.4638 0C25.5713 0 28.4933 0.589667 31.2298 1.769C33.9664 2.94838 36.3468 4.54893 38.371 6.57064C40.3953 8.5924 41.9979 10.9698 43.1787 13.7029C44.3596 16.436 44.95 19.3563 44.95 22.4638C44.95 25.5713 44.3603 28.4825 43.181 31.1975C42.0016 33.9125 40.4011 36.293 38.3794 38.3388C36.3576 40.3846 33.9802 41.9979 31.2471 43.1787C28.514 44.3596 25.5937 44.95 22.4862 44.95ZM22.475 43.5292C28.3306 43.5292 33.3035 41.484 37.3937 37.3937C41.484 33.3035 43.5292 28.3306 43.5292 22.475C43.5292 16.6194 41.484 11.6465 37.3937 7.55625C33.3035 3.46597 28.3306 1.42083 22.475 1.42083C16.6194 1.42083 11.6465 3.46597 7.55625 7.55625C3.46597 11.6465 1.42083 16.6194 1.42083 22.475C1.42083 28.3306 3.46597 33.3035 7.55625 37.3937C11.6465 41.484 16.6194 43.5292 22.475 43.5292Z" fill="#0904F2"/>
</svg>
