<svg width="34" height="34" viewBox="0 0 34 34" fill="none" xmlns="http://www.w3.org/2000/svg">
<g id="29581045216377796697428 1" clip-path="url(#clip0_2329_511)">
<path id="Vector" d="M28.0022 0.686439C27.9528 0.636644 27.894 0.597125 27.8293 0.570153C27.7646 0.543182 27.6951 0.529297 27.625 0.529297C27.5549 0.529297 27.4854 0.543182 27.4207 0.570153C27.356 0.597125 27.2972 0.636644 27.2478 0.686439L24.9688 2.96019C24.9185 3.00939 24.8787 3.06806 24.8513 3.13281C24.8239 3.19756 24.8097 3.26709 24.8094 3.33738C24.809 3.40856 24.8229 3.4791 24.8502 3.54481C24.8776 3.61051 24.9179 3.67005 24.9688 3.71988L24.6819 4.00675L23.4016 4.39456C23.0926 4.45788 22.8085 4.60916 22.5834 4.83019L22.2222 5.19144L18.5034 4.94175H18.4078C18.135 4.93905 17.8654 5.00065 17.6208 5.12156C17.3762 5.24247 17.1635 5.4193 17 5.63769C16.8392 5.41951 16.6296 5.24196 16.3879 5.11927C16.1462 4.99659 15.8792 4.93215 15.6081 4.93113H15.4913L11.7725 5.18081L11.4112 4.81956C11.1944 4.60774 10.9216 4.46215 10.625 4.39988L9.29688 4.00144L9.03125 3.71988C9.13134 3.62179 9.18866 3.48813 9.19062 3.348C9.19036 3.27772 9.17612 3.20818 9.14876 3.14344C9.1214 3.07869 9.08145 3.02002 9.03125 2.97081L6.75219 0.686439C6.70283 0.636644 6.64408 0.597125 6.57932 0.570153C6.51456 0.543182 6.44513 0.529297 6.375 0.529297C6.30488 0.529297 6.23544 0.543182 6.17068 0.570153C6.10598 0.597125 6.04722 0.636644 5.99781 0.686439L0.685323 5.99894C0.636087 6.04856 0.597131 6.10743 0.570696 6.17218C0.544255 6.23689 0.530855 6.30622 0.531261 6.37613C0.533216 6.51681 0.588243 6.65153 0.685323 6.75332L2.96439 9.03238C3.01377 9.08216 3.07253 9.12169 3.13726 9.14867C3.202 9.17566 3.27144 9.18953 3.34157 9.18953C3.4117 9.18953 3.48114 9.17566 3.54588 9.14867C3.61061 9.12169 3.66937 9.08216 3.71876 9.03238L4.08001 8.67113L4.30845 8.90488V10.0577C4.31061 10.407 4.38164 10.7524 4.51747 11.0742C4.65329 11.396 4.85125 11.6878 5.10001 11.933L11.2731 18.0636C11.3316 18.1168 11.3953 18.1646 11.4591 18.2124C11.2709 18.1806 11.0788 18.1806 10.8906 18.2124C10.6417 18.2672 10.4086 18.3779 10.2088 18.5363C10.0091 18.6946 9.84799 18.8963 9.73781 19.1261C9.57105 19.4662 9.52069 19.8518 9.59464 20.2233C9.66854 20.5948 9.8626 20.9317 10.1469 21.1821L12.9253 23.6099V24.1093C12.9195 24.4133 13.0026 24.7124 13.1644 24.9699L13.8125 26.1652V26.5636C13.6716 26.5636 13.5365 26.6196 13.4369 26.7192C13.3372 26.8188 13.2812 26.954 13.2812 27.0949V32.9386C13.2812 33.0795 13.3372 33.2147 13.4369 33.3143C13.5365 33.4139 13.6716 33.4699 13.8125 33.4699H21.25C21.3909 33.4699 21.526 33.4139 21.6256 33.3143C21.7253 33.2147 21.7812 33.0795 21.7812 32.9386V27.0949C21.7812 26.954 21.7253 26.8188 21.6256 26.7192C21.526 26.6196 21.3909 26.5636 21.25 26.5636H20.7506V26.2502L21.5528 25.4321C22.0435 24.9317 22.3166 24.2576 22.3125 23.5568V18.3558C22.4642 18.277 22.6037 18.1768 22.7269 18.0583L28.8894 11.9118C29.1382 11.6666 29.3361 11.3747 29.4719 11.0529C29.6077 10.7312 29.6788 10.3857 29.6809 10.0364V8.88363L29.9094 8.64988L30.2812 9.03238C30.3808 9.1313 30.5154 9.18687 30.6558 9.18687C30.7961 9.18687 30.9308 9.1313 31.0303 9.03238L33.3094 6.76394C33.4109 6.6603 33.4681 6.52122 33.4687 6.37613C33.4692 6.30622 33.4557 6.23689 33.4293 6.17218C33.4029 6.10743 33.3639 6.04856 33.3147 5.99894L28.0022 0.686439ZM17 7.66707C17.1381 7.85487 17.3139 8.01185 17.516 8.12803C17.7181 8.24422 17.9422 8.317 18.1741 8.34176L18.9869 8.42144L17.5312 9.89301C17.3344 9.7238 17.096 9.61012 16.8406 9.56363C16.6285 9.52942 16.4117 9.53845 16.2031 9.59019L15.0078 8.40019L15.8259 8.32051C16.0561 8.2983 16.2791 8.22881 16.4812 8.11635C16.6832 8.00393 16.8599 7.85099 17 7.66707ZM3.34157 7.88488L1.81689 6.37613L6.375 1.81269L7.89969 3.33738L3.34157 7.88488ZM5.84375 11.1574C5.69218 11.0102 5.57143 10.8344 5.48845 10.6402C5.40542 10.4459 5.36191 10.237 5.36031 10.0258V8.65519C5.35973 8.51585 5.3044 8.38229 5.20626 8.28332L4.82376 7.90082L8.27156 4.46363L8.65938 4.84613C8.7201 4.90743 8.7949 4.95302 8.87719 4.97894L10.3806 5.43051C10.4856 5.45112 10.5819 5.50297 10.6569 5.57926L11.1881 6.11051C11.2421 6.16443 11.307 6.20608 11.3785 6.23269C11.45 6.25926 11.5264 6.27015 11.6025 6.26457L15.5284 5.99894H15.6081C15.7476 6.00102 15.8832 6.04601 15.9963 6.12772C16.1094 6.20948 16.1946 6.32402 16.2403 6.45582C16.2689 6.54342 16.2785 6.63613 16.2684 6.72777C16.2583 6.81935 16.2288 6.90775 16.1819 6.98707C16.1305 7.06527 16.0624 7.13109 15.9824 7.17981C15.9025 7.22852 15.8128 7.25886 15.7197 7.26863L13.8125 7.47051C13.7115 7.47964 13.6152 7.51752 13.535 7.57963C13.4548 7.64178 13.3941 7.72556 13.36 7.82108C13.3259 7.91665 13.3199 8.01993 13.3427 8.11879C13.3654 8.21766 13.416 8.30792 13.4884 8.37894L15.3372 10.2224C15.1308 10.4911 15.0154 10.8186 15.0078 11.1574V11.7736C14.7603 11.6815 14.4938 11.6522 14.2322 11.6886C13.8579 11.7644 13.522 11.9692 13.2832 12.2673C13.0444 12.5653 12.9177 12.9377 12.9253 13.3196V17.1605C12.8907 17.2552 12.83 17.3381 12.75 17.3996C12.6348 17.4673 12.4996 17.4926 12.3677 17.4713C12.2358 17.4499 12.1155 17.3833 12.0275 17.2827L5.84375 11.1574ZM12.9253 18.4993V19.0677L12.3038 18.5364C12.3674 18.5416 12.4314 18.5416 12.495 18.5364C12.6394 18.5432 12.7842 18.5307 12.9253 18.4993ZM20.7188 32.4074H14.3438V27.6261H20.7188V32.4074ZM21.25 23.5568C21.2519 23.7661 21.2125 23.9738 21.1342 24.168C21.0558 24.3621 20.9399 24.539 20.7931 24.6883L19.8422 25.6605C19.7441 25.7595 19.6887 25.893 19.6881 26.0324V26.5636H14.875V26.0324C14.876 25.945 14.854 25.8589 14.8112 25.7827L14.0728 24.4386C14.0176 24.3473 13.9882 24.2426 13.9878 24.1358V23.3761C13.9877 23.3007 13.9716 23.2262 13.9404 23.1575C13.9093 23.0888 13.8639 23.0275 13.8072 22.9777L10.8481 20.3852C10.7388 20.2898 10.6644 20.1608 10.6365 20.0185C10.6086 19.8761 10.6288 19.7285 10.6941 19.5989C10.7345 19.5137 10.7937 19.4389 10.8674 19.38C10.941 19.321 11.0271 19.2797 11.1191 19.2589C11.2114 19.2362 11.3078 19.2359 11.4002 19.2581C11.4926 19.2803 11.5784 19.3243 11.6503 19.3864L13.1431 20.5977C13.2209 20.6612 13.315 20.7014 13.4147 20.7137C13.5144 20.7259 13.6155 20.7096 13.7062 20.6668C13.7967 20.6237 13.8731 20.556 13.9266 20.4714C13.9802 20.3868 14.0088 20.2888 14.0091 20.1886V13.3408C14.0028 13.2103 14.0409 13.0816 14.1172 12.9755C14.1934 12.8694 14.3032 12.7923 14.4288 12.7564C14.5009 12.746 14.5745 12.7504 14.6449 12.7696C14.7153 12.7888 14.781 12.8223 14.8378 12.868C14.8985 12.9185 14.9471 12.9819 14.9802 13.0536C15.0133 13.1253 15.03 13.2034 15.0291 13.2824C15.0291 13.4233 15.0851 13.5584 15.1847 13.658C15.2843 13.7576 15.4194 13.8136 15.5603 13.8136C15.7012 13.8136 15.8364 13.7576 15.936 13.658C16.0356 13.5584 16.0916 13.4233 16.0916 13.2824V11.1574C16.09 11.0789 16.1059 11.001 16.138 10.9293C16.1702 10.8576 16.2178 10.7941 16.2775 10.743C16.3344 10.6973 16.4001 10.6638 16.4705 10.6446C16.5408 10.6254 16.6144 10.621 16.6866 10.6314C16.8127 10.6664 16.9231 10.7434 16.9994 10.8497C17.0757 10.956 17.1134 11.0851 17.1063 11.2158V12.7511C17.1063 12.892 17.1622 13.0272 17.2619 13.1268C17.3615 13.2264 17.4966 13.2824 17.6375 13.2824C17.7784 13.2824 17.9135 13.2264 18.0131 13.1268C18.1128 13.0272 18.1688 12.892 18.1688 12.7511C18.1678 12.6722 18.1845 12.594 18.2176 12.5224C18.2507 12.4507 18.2993 12.3873 18.36 12.3368C18.4169 12.2911 18.4826 12.2576 18.5529 12.2384C18.6233 12.2192 18.6969 12.2147 18.7691 12.2252C18.8947 12.261 19.0045 12.3382 19.0807 12.4443C19.1569 12.5504 19.195 12.6791 19.1887 12.8096V14.8761C19.1887 15.017 19.2447 15.1522 19.3444 15.2518C19.444 15.3514 19.5791 15.4074 19.72 15.4074C19.8609 15.4074 19.996 15.3514 20.0956 15.2518C20.1953 15.1522 20.2512 15.017 20.2512 14.8761C20.2503 14.7972 20.267 14.719 20.3001 14.6474C20.3332 14.5757 20.3818 14.5123 20.4425 14.4618C20.4994 14.4161 20.5651 14.3826 20.6355 14.3634C20.7058 14.3442 20.7794 14.3397 20.8516 14.3502C20.9772 14.386 21.087 14.4632 21.1632 14.5693C21.2394 14.6754 21.2775 14.8041 21.2712 14.9346L21.25 23.5568ZM28.7884 8.28332C28.6903 8.38229 28.635 8.51585 28.6344 8.65519V10.0258C28.6335 10.2367 28.5908 10.4453 28.5087 10.6395C28.4267 10.8337 28.3069 11.0097 28.1562 11.1574L22.3125 16.9693V14.9346C22.3249 14.5484 22.1999 14.1703 21.9595 13.8677C21.7193 13.5651 21.3793 13.3577 21.0003 13.2824C20.7422 13.2401 20.4777 13.262 20.23 13.3461V12.8096C20.2427 12.4241 20.1183 12.0466 19.8791 11.7441C19.6398 11.4417 19.3012 11.2338 18.9231 11.1574C18.6633 11.1142 18.3968 11.1361 18.1475 11.2211V11.1946C18.1462 11.0566 18.1284 10.9192 18.0944 10.7855L20.5381 8.35769C20.6106 8.28667 20.6612 8.19641 20.6839 8.09754C20.7067 7.99868 20.7007 7.8954 20.6666 7.79983C20.6325 7.70431 20.5718 7.62053 20.4916 7.55837C20.4114 7.49627 20.3151 7.45839 20.2141 7.44926L18.2803 7.26332C18.1872 7.25354 18.0975 7.22321 18.0176 7.17449C17.9377 7.12578 17.8696 7.05996 17.8181 6.98176C17.771 6.9026 17.7409 6.81441 17.7299 6.72288C17.7189 6.6314 17.7272 6.53859 17.7544 6.45051C17.7993 6.31977 17.8827 6.20565 17.9936 6.12315C18.1045 6.0407 18.2378 5.99368 18.3759 5.98832H18.4344L22.3975 6.25394C22.4736 6.25952 22.55 6.24863 22.6215 6.22207C22.693 6.19545 22.7579 6.1538 22.8119 6.09988L23.3431 5.56863C23.4322 5.48353 23.5454 5.42785 23.6672 5.40926L25.1228 4.96831C25.2052 4.94239 25.2799 4.89681 25.3406 4.8355L25.7284 4.453L29.1709 7.89019L28.7884 8.28332ZM30.6584 7.88488L26.1003 3.33738L27.625 1.81269L32.1831 6.37613L30.6584 7.88488Z" fill="#0904F2"/>
</g>
<defs>
<clipPath id="clip0_2329_511">
<rect width="34" height="34" fill="white"/>
</clipPath>
</defs>
</svg>
