<svg width="24" height="24" viewBox="0 0 24 24" fill="none" xmlns="http://www.w3.org/2000/svg">
<g id="Group 900">
<g id="Group 899">
<g id="Group">
<g id="Group_2">
<path id="Vector" d="M11.6923 0C5.24478 0 0 5.3828 0 12C0 18.6172 5.24478 24 11.6923 24C18.1398 24 23.3846 18.6163 23.3846 12C23.3846 5.38373 18.1398 0 11.6923 0ZM11.6923 22.141C6.24465 22.141 1.81135 17.592 1.81135 12C1.81135 6.40805 6.24465 1.85902 11.6923 1.85902C17.1409 1.85902 21.5733 6.40805 21.5733 12C21.5733 17.592 17.14 22.141 11.6923 22.141Z" fill="white"/>
</g>
</g>
</g>
<g id="Group_3">
<g id="Group_4">
<path id="Vector_2" d="M17.178 7.82497C16.8094 7.48105 16.2361 7.508 15.8992 7.88816L10.3745 14.1317L7.7055 11.3469C7.35318 10.9807 6.7808 10.9751 6.42487 11.3358C6.06803 11.6955 6.06259 12.2839 6.414 12.6501L9.75504 16.1358C9.92622 16.3142 10.1581 16.4137 10.4008 16.4137C10.4062 16.4137 10.4125 16.4137 10.418 16.4146C10.668 16.409 10.9034 16.2994 11.071 16.1098L17.2395 9.13841C17.5756 8.75727 17.5484 8.16983 17.178 7.82497Z" fill="white"/>
</g>
</g>
</g>
</svg>
