<svg width="16" height="16" viewBox="0 0 16 16" fill="none" xmlns="http://www.w3.org/2000/svg">
<path id="Vector" d="M15.9999 1.84817C15.4049 2.1616 14.7709 2.36935 14.11 2.47023C14.7899 1.98267 15.3089 1.2165 15.5529 0.293017C14.919 0.746952 14.219 1.06759 13.473 1.24652C12.871 0.476753 12.013 0 11.077 0C9.26097 0 7.79897 1.77011 7.79897 3.94011C7.79897 4.25235 7.82097 4.55257 7.87497 4.83838C5.14798 4.67866 2.73499 3.1091 1.114 0.718131C0.830997 1.30777 0.664998 1.98267 0.664998 2.7092C0.664998 4.07341 1.25 5.28271 2.12199 5.98282C1.59499 5.97082 1.078 5.78708 0.639998 5.49767C0.639998 5.50968 0.639998 5.52529 0.639998 5.5409C0.639998 7.45511 1.77699 9.04509 3.26799 9.41136C3.00099 9.49903 2.70999 9.54106 2.40799 9.54106C2.19799 9.54106 1.98599 9.52665 1.78699 9.47381C2.21199 11.0338 3.41799 12.1806 4.85198 12.2178C3.73599 13.2662 2.31899 13.8979 0.784997 13.8979C0.515998 13.8979 0.257999 13.8835 0 13.8438C1.453 14.9691 3.17499 15.6115 5.03198 15.6115C11.068 15.6115 14.368 9.60711 14.368 4.40246C14.368 4.22833 14.363 4.0602 14.356 3.89328C15.0069 3.33847 15.5539 2.64556 15.9999 1.84817Z" fill="#378BFF"/>
</svg>
