<svg width="21" height="21" viewBox="0 0 21 21" fill="none" xmlns="http://www.w3.org/2000/svg">
<path id="User Interface Design" d="M17.343 6.44642L13.9862 3.23884L15.7473 1.54912C16.0768 1.22729 16.4689 1.06567 16.9234 1.06425C17.3779 1.06283 17.7709 1.222 18.1025 1.54177L19.0661 2.50117C19.3977 2.82094 19.5641 3.20137 19.5655 3.64247C19.5669 4.08358 19.4028 4.45502 19.0732 4.7568L17.343 6.44642ZM0.927518 19.2195L0.917281 15.9414L6.6638 10.3294L0.0119267 3.88398L3.93562 0.052164L10.6495 6.4974L13.9862 3.23884L17.343 6.44642L14.0374 9.73495L20.6894 16.2105L16.7656 20.0122L10.0519 13.597L4.30534 19.209L0.927518 19.2195ZM7.15821 9.87674L10.1551 6.95007L7.29532 4.16199L5.84333 5.61014L5.34601 5.13049L6.79808 3.71242L3.93844 0.954415L0.941601 3.88108L7.15821 9.87674ZM16.7318 19.11L19.7286 16.1834L16.869 13.4254L15.4169 14.8435L14.9196 14.3638L16.3717 12.9457L13.512 10.1877L10.5152 13.1144L16.7318 19.11ZM1.60721 18.5558L3.99338 18.5483L16.3515 6.47959L13.9581 4.17126L1.59998 16.24L1.60721 18.5558Z" fill="#0904F2"/>
</svg>
