<svg width="31" height="30" viewBox="0 0 31 30" fill="none" xmlns="http://www.w3.org/2000/svg">
<path d="M2.81312 29.2881C2.08812 29.2904 1.45608 29.0383 0.916996 28.5319C0.377912 28.0255 0.1073 27.4296 0.10516 26.7443L0.0301864 2.73392C0.0280464 2.04859 0.294932 1.45103 0.830843 0.941263C1.36675 0.431491 1.99721 0.175474 2.7222 0.17321L28.1221 0.0938974C28.8471 0.0916336 29.4791 0.343709 30.0182 0.850124C30.5573 1.35654 30.8279 1.95241 30.83 2.63775L30.905 26.6481C30.9072 27.3334 30.6403 27.931 30.1044 28.4408C29.5684 28.9505 28.938 29.2066 28.213 29.2088L2.81312 29.2881ZM2.80987 28.2483L28.2097 28.169C28.6764 28.1675 29.0593 28.0246 29.3584 27.74C29.6575 27.4555 29.8064 27.0927 29.805 26.6515L29.7371 4.90988L1.13727 4.99918L1.20515 26.7408C1.20653 27.182 1.35766 27.5439 1.65855 27.8265C1.95943 28.1092 2.34321 28.2498 2.80987 28.2483ZM5.46337 13.3516L5.46012 12.3118L25.31 12.2498L25.3133 13.2896L5.46337 13.3516ZM5.48698 20.9139L5.48373 19.8741L17.3337 19.8371L17.3369 20.8769L5.48698 20.9139Z" fill="#0904F2"/>
</svg>
