<svg width="40" height="30" viewBox="0 0 40 30" fill="none" xmlns="http://www.w3.org/2000/svg">
<g id="Group 452">
<path id="Vector" d="M0 29.1151V27.2885H4.67681V2.989C4.67681 2.19562 4.97838 1.49911 5.58154 0.899467C6.18466 0.299822 6.9097 0 7.75665 0H39.0114V1.21774H7.75665C7.22433 1.21774 6.78707 1.3838 6.44487 1.71591C6.10266 2.04802 5.93156 2.47238 5.93156 2.989V27.2885H18.0228V29.1151H0ZM28.4197 29.1151C27.9685 29.1151 27.5868 28.949 27.2745 28.6169C26.9622 28.2848 26.8061 27.9158 26.8061 27.5099V9.0777C26.8061 8.65057 26.9622 8.28549 27.2745 7.98245C27.5868 7.67939 27.9685 7.52785 28.4197 7.52785H38.011C38.4878 7.52785 38.9068 7.67152 39.2681 7.95887C39.6293 8.24626 39.8099 8.6192 39.8099 9.0777V27.5048C39.8099 27.9279 39.6388 28.302 39.2966 28.6272C38.9544 28.9524 38.5306 29.1151 38.0252 29.1151H28.4197ZM28.0608 27.2885H38.5551V8.74559H28.0608V27.2885Z" fill="#0904F2"/>
</g>
</svg>
