<svg width="31" height="30" viewBox="0 0 31 30" fill="none" xmlns="http://www.w3.org/2000/svg">
<path d="M25.9049 9.53862L21.0181 4.86917L23.5819 2.40936C24.0616 1.94085 24.6323 1.70556 25.294 1.7035C25.9556 1.70143 26.5278 1.93315 27.0104 2.39865L28.4133 3.79531C28.8959 4.26081 29.1383 4.81463 29.1403 5.45676C29.1423 6.0989 28.9034 6.63962 28.4235 7.07894L25.9049 9.53862ZM2.00795 28.1331L1.99305 23.3609L10.3586 15.1913L0.675077 5.80834L6.38701 0.230157L16.1607 9.61283L21.0181 4.86917L25.9049 9.53862L21.0928 14.3259L30.7764 23.7526L25.0643 29.287L15.2907 19.9482L6.92522 28.1178L2.00795 28.1331ZM11.0783 14.5323L15.441 10.2718L11.2779 6.21306L9.16417 8.3212L8.44018 7.62295L10.554 5.55858L6.39111 1.54361L2.02845 5.80411L11.0783 14.5323ZM25.0151 27.9737L29.3777 23.7132L25.2148 19.6983L23.1009 21.7626L22.377 21.0644L24.4908 19L20.3279 14.985L15.9652 19.2455L25.0151 27.9737ZM2.99742 27.1668L6.47109 27.156L24.4614 9.58691L20.9772 6.22655L2.98689 23.7956L2.99742 27.1668Z" fill="#0904F2"/>
</svg>
