<svg width="43" height="30" viewBox="0 0 43 30" fill="none" xmlns="http://www.w3.org/2000/svg">
<path d="M0.699942 29.3621C0.53239 29.3626 0.392822 29.3081 0.281238 29.1986C0.169619 29.0891 0.113551 28.9516 0.113034 28.7861C0.112518 28.6207 0.167736 28.4862 0.27869 28.3826C0.389608 28.279 0.528843 28.227 0.696396 28.2264L42.0792 28.0972C42.2467 28.0967 42.3863 28.1512 42.4979 28.2607C42.6095 28.3703 42.6656 28.5078 42.6661 28.6732C42.6666 28.8386 42.6114 28.9731 42.5004 29.0767C42.3895 29.1803 42.2503 29.2324 42.0827 29.2329L0.699942 29.3621ZM5.74215 25.836C4.93453 25.8386 4.25307 25.572 3.69778 25.0365C3.14245 24.5009 2.86356 23.8412 2.86112 23.0574L2.79857 3.02799C2.79613 2.24419 3.07089 1.58277 3.62286 1.04372C4.1748 0.504707 4.85458 0.233939 5.6622 0.231418L36.9386 0.133755C37.7463 0.131234 38.4277 0.39775 38.9831 0.933305C39.5384 1.46889 39.8172 2.12859 39.8197 2.91239L39.8822 22.9418C39.8847 23.7256 39.6099 24.387 39.058 24.9261C38.506 25.4651 37.8262 25.7358 37.0186 25.7384L5.74215 25.836ZM5.7386 24.7003L37.015 24.6027C37.4406 24.6014 37.8301 24.4281 38.1836 24.0828C38.5372 23.7375 38.7133 23.3584 38.712 22.9455L38.6495 2.91604C38.6482 2.50306 38.4697 2.12505 38.114 1.78201C37.7583 1.43897 37.3677 1.26812 36.9422 1.26944L5.66574 1.36711C5.24021 1.36843 4.85068 1.54173 4.49715 1.88698C4.14361 2.23224 3.96749 2.61135 3.96878 3.02433L4.03132 23.0537C4.03261 23.4667 4.2111 23.8447 4.56678 24.1878C4.92247 24.5308 5.31307 24.7017 5.7386 24.7003Z" fill="#0904F2"/>
</svg>
