<svg width="31" height="31" viewBox="0 0 31 31" fill="none" xmlns="http://www.w3.org/2000/svg">
<path d="M15.725 23.2362C17.2767 23.2313 18.705 22.8102 20.0099 21.9728C21.3148 21.1354 22.3099 20.026 22.9952 18.6445L8.42631 18.69C9.12027 20.0671 10.1223 21.1703 11.4323 21.9996C12.7424 22.8288 14.1733 23.241 15.725 23.2362ZM8.32018 12.311L10.2107 10.3654L12.1564 12.299L12.9298 11.5207L10.2058 8.81369L7.5419 11.5375L8.32018 12.311ZM19.2253 12.2769L21.1589 10.3312L23.0615 12.2649L23.878 11.4865L21.154 8.77951L18.447 11.5035L19.2253 12.2769ZM15.7541 30.1327C13.6801 30.1392 11.7287 29.7517 9.89988 28.9703C8.07102 28.1889 6.47898 27.1256 5.12373 25.7806C3.76852 24.4354 2.69402 22.8521 1.90022 21.0305C1.10643 19.2089 0.706292 17.2611 0.699816 15.1871C0.693339 13.1132 1.0808 11.1618 1.86219 9.33294C2.64361 7.50408 3.70686 5.91205 5.05194 4.55683C6.39706 3.20159 7.98042 2.12708 9.80203 1.33328C11.6236 0.539486 13.5714 0.139349 15.6454 0.132873C17.7193 0.126397 19.6707 0.513854 21.4996 1.29525C23.3284 2.07666 24.9205 3.13992 26.2757 4.485C27.6309 5.83012 28.7054 7.41348 29.4992 9.23509C30.293 11.0567 30.6931 13.0045 30.6996 15.0784C30.7061 17.1524 30.3186 19.1038 29.5373 20.9326C28.7558 22.7615 27.6926 24.3535 26.3475 25.7088C25.0024 27.064 23.419 28.1385 21.5974 28.9323C19.7758 29.7261 17.828 30.1262 15.7541 30.1327ZM15.7394 29.1844C19.661 29.1722 22.9798 27.801 25.6958 25.0708C28.4118 22.3406 29.7636 19.0147 29.7514 15.0931C29.7391 11.1715 28.3679 7.8527 25.6377 5.1367C22.9075 2.42073 19.5816 1.06886 15.66 1.08111C11.7384 1.09335 8.41964 2.46458 5.70364 5.1948C2.98767 7.92499 1.6358 11.2509 1.64805 15.1725C1.6603 19.0941 3.03153 22.4129 5.76175 25.1289C8.49194 27.8448 11.8178 29.1967 15.7394 29.1844Z" fill="#0904F2"/>
</svg>
