<svg width="31" height="30" viewBox="0 0 31 30" fill="none" xmlns="http://www.w3.org/2000/svg">
<path d="M17.1073 11.8846V2.00314C17.1073 1.66359 17.2467 1.3721 17.5254 1.12868C17.8041 0.885262 18.1193 0.76355 18.4711 0.76355H28.8748C29.2265 0.76355 29.5418 0.885262 29.8205 1.12868C30.0992 1.3721 30.2385 1.66432 30.2385 2.00533V7.7726C30.2385 8.15924 30.1039 8.47984 29.8346 8.7344C29.5653 8.98895 29.241 9.11623 28.8614 9.11623H20.009L17.1073 11.8846ZM18.1893 8.06618H29.1565V1.8136H18.1893V8.06618ZM28.1237 29.8309C25.009 29.8309 21.7959 28.9877 18.4844 27.3012C15.1729 25.6148 12.1565 23.459 9.43522 20.8339C6.71391 18.2087 4.4844 15.2972 2.74669 12.0993C1.00899 8.90145 0.140137 5.79107 0.140137 2.76819C0.140137 2.18179 0.341546 1.69313 0.744366 1.30223C1.14715 0.91129 1.65066 0.71582 2.25489 0.71582H5.84505C6.43522 0.71582 6.93522 0.882874 7.34506 1.21698C7.75489 1.55109 8.02538 2.00452 8.15653 2.57728L9.09096 6.30019C9.18932 6.8093 9.17292 7.27069 9.04178 7.68434C8.91063 8.098 8.68391 8.42943 8.36161 8.67865L4.17292 12.4096C6.14014 15.5915 8.28768 18.2962 10.6155 20.5236C12.9434 22.751 15.6975 24.7079 18.8778 26.3944L22.9598 22.2419C23.2877 21.8919 23.6401 21.6532 24.0172 21.5259C24.3942 21.3987 24.8123 21.3827 25.2713 21.4782L28.3205 22.1464C28.9209 22.2538 29.3906 22.5129 29.7298 22.9238C30.0689 23.3347 30.2385 23.8392 30.2385 24.4374V27.7785C30.2385 28.3649 30.0371 28.8536 29.6343 29.2445C29.2315 29.6354 28.728 29.8309 28.1237 29.8309ZM3.58276 11.5027L7.76309 7.82753C7.89424 7.70025 7.9844 7.52525 8.03358 7.30251C8.08276 7.07977 8.09096 6.87294 8.05817 6.68202L7.07456 2.52955C7.04178 2.27499 6.93522 2.08407 6.75489 1.95679C6.57456 1.82951 6.35325 1.76587 6.09096 1.76587H1.91063C1.71391 1.76587 1.54997 1.82951 1.41883 1.95679C1.28768 2.08407 1.2221 2.24317 1.2221 2.43409C1.15653 3.70688 1.34505 5.1149 1.78768 6.65816C2.2303 8.20142 2.82866 9.81627 3.58276 11.5027ZM19.9106 26.8239C21.2549 27.524 22.7467 28.0331 24.386 28.3513C26.0254 28.6695 27.386 28.8286 28.468 28.8286C28.6647 28.8286 28.8287 28.7649 28.9598 28.6376C29.091 28.5104 29.1565 28.3513 29.1565 28.1603V24.1511C29.1565 23.8965 29.091 23.6817 28.9598 23.5067C28.8287 23.3317 28.6319 23.2283 28.3696 23.1965L24.8778 22.4805C24.6811 22.4487 24.509 22.4567 24.3614 22.5044C24.2139 22.5521 24.0582 22.6396 23.8942 22.7669L19.9106 26.8239Z" fill="#0904F2"/>
</svg>
