<svg width="40" height="30" viewBox="0 0 40 30" fill="none" xmlns="http://www.w3.org/2000/svg">
<rect width="40" height="30" fill="#E5E5E5"/>
<g id="Home" clip-path="url(#clip0_250_2)">
<rect width="1440" height="4022" transform="translate(-974 -1800)" fill="white"/>
<rect id="Rectangle 131" x="-805" y="-528.564" width="1100" height="732" rx="14" transform="rotate(-0.178908 -805 -528.564)" fill="#F9F9FF"/>
<g id="Group 452">
<path id="Vector" d="M0.140137 29.8309V28.0043H4.81694V3.70482C4.81694 2.91144 5.11852 2.21493 5.72168 1.61529C6.32479 1.01564 7.04983 0.71582 7.89679 0.71582H39.1515V1.93356H7.89679C7.36447 1.93356 6.92721 2.09962 6.585 2.43173C6.2428 2.76384 6.0717 3.1882 6.0717 3.70482V28.0043H18.163V29.8309H0.140137ZM28.5598 29.8309C28.1086 29.8309 27.7269 29.6648 27.4146 29.3327C27.1024 29.0006 26.9462 28.6316 26.9462 28.2257V9.79352C26.9462 9.36639 27.1024 9.00131 27.4146 8.69828C27.7269 8.39521 28.1086 8.24367 28.5598 8.24367H38.1511C38.6279 8.24367 39.047 8.38734 39.4082 8.67469C39.7694 8.96208 39.95 9.33502 39.95 9.79352V28.2206C39.95 28.6437 39.7789 29.0178 39.4367 29.343C39.0945 29.6683 38.6707 29.8309 38.1653 29.8309H28.5598ZM28.201 28.0043H38.6953V9.46141H28.201V28.0043Z" fill="#0904F2"/>
</g>
</g>
<defs>
<clipPath id="clip0_250_2">
<rect width="1440" height="4022" fill="white" transform="translate(-974 -1800)"/>
</clipPath>
</defs>
</svg>
