<svg width="86" height="31" viewBox="0 0 86 31" fill="none" xmlns="http://www.w3.org/2000/svg">
<g id="Group 1276">
<path id="path893" fill-rule="evenodd" clip-rule="evenodd" d="M28.0332 0.0078125H34.9265L17.5205 30.0026L0 0.0078125H7.05012L17.5205 18.0652L28.0332 0.0078125Z" fill="#41B883"/>
<path id="path895" fill-rule="evenodd" clip-rule="evenodd" d="M21.5189 0H28.075L17.5116 18.0951L7.03302 0H13.4867L17.5116 6.96631L21.5189 0Z" fill="#35495E"/>
<path id="path897" fill-rule="evenodd" clip-rule="evenodd" d="M39.0398 5.92096C39.0398 5.69969 39.1626 5.51529 39.4083 5.36776C39.654 5.22025 39.9108 5.14648 40.1788 5.14648C40.551 5.14648 40.7818 5.28662 40.8711 5.56692L44.8018 18.7107L48.7101 5.56692C48.8143 5.28664 49.0377 5.14648 49.3801 5.14648C49.663 5.14648 49.9273 5.22762 50.1729 5.38989C50.4186 5.55215 50.5414 5.73655 50.5414 5.94309C50.5414 5.95784 50.5378 5.97997 50.5303 6.00947C50.5228 6.03897 50.5191 6.06848 50.5191 6.09798L45.9855 20.8129C45.8217 21.2407 45.4272 21.4546 44.8018 21.4546C44.1765 21.4546 43.7968 21.2407 43.6628 20.8129L39.0847 6.09798C39.0549 6.00947 39.0398 5.95047 39.0398 5.92096ZM50.7174 17.2501V11.4971C50.7174 11.3201 50.8105 11.1652 50.9966 11.0324C51.1827 10.8997 51.4023 10.8333 51.6554 10.8333C51.8937 10.8333 52.1058 10.9034 52.2919 11.0435C52.478 11.1836 52.5711 11.3348 52.5711 11.4971V17.2501C52.5711 17.914 52.8242 18.5114 53.3304 19.0425C53.8367 19.5735 54.4397 19.8391 55.1394 19.8391C55.8243 19.8391 56.4199 19.5772 56.9261 19.0535C57.4323 18.5299 57.6854 17.9287 57.6854 17.2501V11.4746C57.6854 11.3124 57.7785 11.1648 57.9646 11.0321C58.1507 10.8993 58.3703 10.8329 58.6234 10.8329C58.8914 10.8329 59.111 10.8956 59.2823 11.021C59.4535 11.1464 59.5391 11.2976 59.5391 11.4746V17.2501C59.5391 18.386 59.1036 19.3781 58.2326 20.2263C57.3616 21.0745 56.3306 21.4986 55.1395 21.4986C53.9335 21.4986 52.895 21.0745 52.024 20.2263C51.153 19.3781 50.7174 18.386 50.7174 17.2501ZM61.0547 17.2059V14.8825C61.0547 13.7466 61.4903 12.7656 62.3612 11.9395C63.2322 11.1134 64.2782 10.7004 65.4991 10.7004C66.6604 10.7004 67.6654 11.0876 68.5141 11.8621C69.3627 12.6365 69.7871 13.6065 69.7871 14.7719C69.7871 15.1997 69.735 15.5426 69.6307 15.8008C69.5265 16.059 69.3665 16.2434 69.1506 16.354C68.9347 16.4647 68.7337 16.5347 68.5476 16.5642C68.3615 16.5937 68.1121 16.6085 67.7994 16.6085H62.9083V17.2723C62.9083 18.0837 63.2024 18.7327 63.7905 19.2196C64.3786 19.7064 65.1416 19.9498 66.0797 19.9498C66.571 19.9498 66.999 19.876 67.3638 19.7285C67.7286 19.581 68.0226 19.4371 68.246 19.297C68.4693 19.1569 68.648 19.0868 68.782 19.0868C68.9904 19.0868 69.1691 19.179 69.318 19.3634C69.4669 19.5478 69.5413 19.7359 69.5413 19.9276C69.5413 20.2669 69.2026 20.6136 68.5251 20.9676C67.8477 21.3217 67.0102 21.4987 66.0127 21.4987C64.5535 21.4987 63.3625 21.1041 62.4393 20.3149C61.5162 19.5256 61.0547 18.4893 61.0547 17.2059ZM62.9084 15.3693H67.04C67.4272 15.3693 67.6877 15.3214 67.8217 15.2255C67.9558 15.1296 68.0227 14.9415 68.0227 14.6612C68.0227 13.9974 67.7771 13.4147 67.2857 12.9132C66.7944 12.4116 66.1914 12.1608 65.4767 12.1608C64.777 12.1608 64.174 12.3931 63.6677 12.8578C63.1615 13.3225 62.9084 13.8941 62.9084 14.5727L62.9084 15.3693ZM70.7223 20.3037C70.7223 19.9791 70.834 19.7026 71.0573 19.4739C71.2807 19.2453 71.5561 19.1309 71.8837 19.1309C72.1963 19.1309 72.4643 19.2453 72.6877 19.4739C72.911 19.7026 73.0227 19.9792 73.0227 20.3037C73.0227 20.6135 72.911 20.8827 72.6877 21.1113C72.4643 21.34 72.1963 21.4543 71.8837 21.4543C71.5561 21.4543 71.2807 21.34 71.0573 21.1113C70.834 20.8827 70.7223 20.6135 70.7223 20.3037ZM72.3722 25.5922C72.3722 25.3562 72.4467 25.1608 72.5956 25.0059C72.7445 24.851 72.9231 24.7735 73.1316 24.7735C73.7122 24.7735 74.0919 24.5596 74.2706 24.1318C74.4493 23.7041 74.5386 23.0624 74.5386 22.2067V11.4748C74.5386 11.283 74.6242 11.1281 74.7954 11.0101C74.9666 10.8921 75.1862 10.8331 75.4543 10.8331C75.7223 10.8331 75.9456 10.8921 76.1242 11.0101C76.3029 11.1281 76.3922 11.283 76.3922 11.4748V22.2067C76.3922 23.4902 76.1391 24.508 75.6329 25.2603C75.1267 26.0127 74.3599 26.3889 73.3326 26.3889C72.6924 26.3889 72.3722 26.1233 72.3722 25.5922ZM74.2929 6.89438C74.2929 6.6141 74.4045 6.37071 74.6279 6.16417C74.8512 5.95765 75.1267 5.85439 75.4542 5.85439C75.7669 5.85439 76.0349 5.95765 76.2582 6.16417C76.4815 6.3707 76.5932 6.6141 76.5932 6.89438C76.5932 7.17466 76.4815 7.42177 76.2582 7.63566C76.0349 7.84956 75.7669 7.95651 75.4542 7.95651C75.1415 7.95651 74.8698 7.84957 74.639 7.63566C74.4082 7.42176 74.2929 7.17466 74.2929 6.89438ZM77.7741 19.8167C77.7741 19.625 77.8373 19.4369 77.9639 19.2525C78.0905 19.0681 78.2431 18.9759 78.4217 18.9759C78.5408 18.9759 78.7121 19.0644 78.9354 19.2414C79.1587 19.4185 79.4788 19.5918 79.8957 19.7614C80.3126 19.9311 80.8039 20.0159 81.3697 20.0159C82.1141 20.0159 82.6538 19.8831 82.9888 19.6176C83.3238 19.3521 83.4914 19.0202 83.4914 18.6219C83.4914 18.135 83.3052 17.7478 82.933 17.4601C82.5608 17.1725 82.1067 16.9549 81.5707 16.8074C81.0347 16.6599 80.4987 16.4976 79.9627 16.3206C79.4266 16.1436 78.9726 15.8485 78.6003 15.4355C78.2281 15.0224 78.042 14.4766 78.042 13.798C78.042 12.9572 78.3435 12.2307 78.9464 11.6185C79.5494 11.0063 80.4688 10.7002 81.7046 10.7002C82.4937 10.7002 83.2158 10.8219 83.8709 11.0653C84.5261 11.3087 84.8536 11.5853 84.8536 11.8951C84.8536 12.0721 84.7829 12.2712 84.6414 12.4925C84.5 12.7138 84.3251 12.8244 84.1166 12.8244C84.057 12.8244 83.7704 12.7175 83.2568 12.5036C82.7431 12.2897 82.2332 12.1827 81.7269 12.1827C81.042 12.1827 80.5321 12.3413 80.1971 12.6585C79.8621 12.9756 79.6946 13.3334 79.6946 13.7317C79.6946 14.1447 79.8807 14.4693 80.253 14.7053C80.6252 14.9413 81.083 15.1257 81.6264 15.2585C82.1699 15.3912 82.7096 15.5535 83.2456 15.7453C83.7816 15.9371 84.2357 16.2653 84.6079 16.7299C84.9802 17.1946 85.1663 17.7957 85.1663 18.5333C85.1663 19.448 84.8387 20.1708 84.1836 20.7018C83.5285 21.2329 82.6129 21.4984 81.4366 21.4984C80.4242 21.4984 79.5607 21.3177 78.846 20.9563C78.1313 20.5949 77.7741 20.215 77.7741 19.8167Z" fill="#010101"/>
</g>
</svg>
