<svg width="43" height="30" viewBox="0 0 43 30" fill="none" xmlns="http://www.w3.org/2000/svg">
<path id="Vector" d="M0.675132 29.2459C0.507799 29.2464 0.368413 29.1919 0.256975 29.0824C0.145502 28.9728 0.0895078 28.8354 0.0889919 28.6699C0.088476 28.5045 0.143622 28.37 0.254431 28.2664C0.365204 28.1628 0.504257 28.1107 0.67159 28.1102L42.0002 27.981C42.1675 27.9805 42.3069 28.035 42.4184 28.1445C42.5298 28.2541 42.5858 28.3915 42.5864 28.557C42.5869 28.7224 42.5317 28.8569 42.4209 28.9605C42.3101 29.0641 42.1711 29.1162 42.0038 29.1167L0.675132 29.2459ZM5.71074 25.7198C4.90418 25.7223 4.22361 25.4558 3.66905 24.9203C3.11445 24.3847 2.83592 23.725 2.83348 22.9412L2.77102 2.91177C2.76857 2.12798 3.04298 1.46656 3.59423 0.927508C4.14544 0.388496 4.82433 0.117729 5.63089 0.115207L36.8664 0.0175445C37.673 0.0150227 38.3536 0.281539 38.9082 0.817094C39.4627 1.35268 39.7412 2.01238 39.7437 2.79617L39.8061 22.8256C39.8086 23.6094 39.5342 24.2708 38.983 24.8099C38.4317 25.3489 37.7528 25.6196 36.9463 25.6222L5.71074 25.7198ZM5.7072 24.5841L36.9427 24.4865C37.3677 24.4851 37.7567 24.3118 38.1098 23.9666C38.4629 23.6213 38.6387 23.2422 38.6375 22.8292L38.575 2.79983C38.5737 2.38685 38.3955 2.00884 38.0402 1.6658C37.685 1.32276 37.2949 1.1519 36.87 1.15323L5.63443 1.2509C5.20946 1.25222 4.82044 1.42552 4.46737 1.77077C4.1143 2.11603 3.93841 2.49514 3.93969 2.90812L4.00215 22.9375C4.00344 23.3505 4.1817 23.7285 4.53691 24.0716C4.89213 24.4146 5.28222 24.5855 5.7072 24.5841Z" fill="white"/>
</svg>
