<svg width="35" height="34" viewBox="0 0 35 34" fill="none" xmlns="http://www.w3.org/2000/svg">
<path id="Vector" d="M34.0425 27.8364L30.7026 16.5257C30.6601 16.379 30.5622 16.2548 30.4296 16.1792C30.2971 16.1036 30.1402 16.0826 29.9924 16.1207L25.825 17.1713C25.7487 17.191 25.6772 17.2257 25.6147 17.2736C25.5522 17.3215 25.4999 17.3814 25.4611 17.4498C25.4222 17.5183 25.3974 17.5939 25.3884 17.6721C25.3793 17.7502 25.3861 17.8295 25.4082 17.905L25.5315 18.3276C24.4314 18.2947 23.3518 18.0222 22.3678 17.5294C21.141 16.9424 18.981 15.5572 17.5958 15.5983V2.09813C19.5744 2.06027 21.5429 1.80437 23.4654 1.33508C23.5446 1.77246 23.7377 2.18124 24.0252 2.52025C24.3127 2.85926 24.6845 3.11655 25.103 3.26619L22.3032 8.0734C22.2494 8.16403 22.2211 8.2674 22.221 8.37276C22.221 9.39865 22.6286 10.3825 23.354 11.1079C24.0794 11.8333 25.0632 12.2408 26.0891 12.2408C27.115 12.2408 28.0989 11.8333 28.8242 11.1079C29.5497 10.3825 29.9572 9.39865 29.9572 8.37276C29.9571 8.2674 29.9288 8.16403 29.875 8.0734L26.9989 3.21336C27.4449 3.01601 27.8242 2.69368 28.0908 2.28535C28.3575 1.87701 28.5001 1.40016 28.5015 0.912467C28.5015 0.756793 28.4397 0.607499 28.3296 0.49742C28.2196 0.387341 28.0702 0.325505 27.9146 0.325505C27.7589 0.325505 27.6096 0.387341 27.4995 0.49742C27.3895 0.607499 27.3276 0.756793 27.3276 0.912467C27.3051 1.25284 27.154 1.57192 26.9049 1.80503C26.6559 2.03814 26.3275 2.16783 25.9864 2.16783C25.6453 2.16783 25.3169 2.03814 25.0679 1.80503C24.8188 1.57192 24.6677 1.25284 24.6452 0.912467V0.607247C24.6484 0.515464 24.6299 0.424214 24.5914 0.340842C24.5529 0.25747 24.4954 0.184293 24.4235 0.127205C24.3515 0.0701115 24.2672 0.030697 24.1773 0.0121255C24.0873 -0.00644595 23.9943 -0.00365198 23.9056 0.0202844C21.8516 0.582665 19.7365 0.892129 17.6075 0.941816V0.607247C17.6075 0.451573 17.5456 0.302279 17.4356 0.1922C17.3255 0.0821209 17.1762 0.0202844 17.0205 0.0202844C16.8649 0.0202844 16.7156 0.0821209 16.6055 0.1922C16.4954 0.302279 16.4336 0.451573 16.4336 0.607247V0.941816C14.3163 0.889277 12.2133 0.579836 10.1707 0.0202844C10.082 -0.00365198 9.98897 -0.00644595 9.89904 0.0121255C9.80912 0.030697 9.72477 0.0701115 9.65281 0.127205C9.58091 0.184293 9.52339 0.25747 9.48488 0.340842C9.44638 0.424214 9.42795 0.515464 9.43112 0.607247V0.912467C9.40858 1.25284 9.25749 1.57192 9.00844 1.80503C8.7594 2.03814 8.43105 2.16783 8.08991 2.16783C7.74876 2.16783 7.42042 2.03814 7.17137 1.80503C6.92232 1.57192 6.77124 1.25284 6.7487 0.912467C6.7487 0.756793 6.68683 0.607499 6.57678 0.49742C6.46672 0.387341 6.3174 0.325505 6.16173 0.325505C6.00607 0.325505 5.85675 0.387341 5.74669 0.49742C5.63664 0.607499 5.57477 0.756793 5.57477 0.912467C5.57025 1.4151 5.71664 1.90753 5.99498 2.32608C6.27332 2.74464 6.67081 3.07008 7.13609 3.26032L4.26585 8.09688C4.21208 8.18751 4.18373 8.29087 4.18367 8.39623C4.18367 9.42213 4.5912 10.406 5.31663 11.1314C6.04199 11.8568 7.02586 12.2643 8.05175 12.2643C9.07765 12.2643 10.0615 11.8568 10.7869 11.1314C11.5123 10.406 11.9198 9.42213 11.9198 8.39623C11.9198 8.29087 11.8914 8.18751 11.8377 8.09688L8.98502 3.2838C9.39355 3.12726 9.75418 2.86676 10.0311 2.52805C10.308 2.18935 10.4917 1.78419 10.564 1.35269C12.4865 1.82198 14.4549 2.07788 16.4336 2.11574V15.6804C16.2047 15.6804 14.0857 16.2674 13.8333 16.3613L8.38045 16.5844L8.50372 16.1852C8.52696 16.1101 8.53488 16.031 8.52702 15.9528C8.51915 15.8745 8.49562 15.7987 8.45781 15.7297C8.42007 15.6607 8.36883 15.6 8.30708 15.5512C8.24539 15.5024 8.17455 15.4665 8.09871 15.4457L3.98997 14.3187C3.84601 14.2792 3.69245 14.2961 3.56051 14.3659C3.42857 14.4357 3.32818 14.5532 3.27975 14.6943L0.0279756 25.0131C0.00379271 25.0886 -0.00484744 25.1683 0.00258351 25.2472C0.0100145 25.3261 0.0333579 25.4027 0.0712053 25.4724C0.109059 25.5421 0.160623 25.6033 0.2228 25.6525C0.284977 25.7017 0.356475 25.7378 0.43298 25.7586L4.54172 26.8797C4.61961 26.9025 4.70143 26.9087 4.7819 26.8983C4.86238 26.8878 4.93985 26.8608 5.00935 26.8189C5.07885 26.7769 5.13889 26.721 5.18573 26.6548C5.23251 26.5884 5.26503 26.5131 5.28129 26.4336C6.83087 28.5056 8.52719 30.6832 10.7694 32.0684L13.1172 33.6063C13.4314 33.8121 13.7893 33.9416 14.1624 33.9843C14.5356 34.0271 14.9135 33.9819 15.2661 33.8524C15.6186 33.7229 15.936 33.5127 16.1927 33.2386C16.4494 32.9645 16.6385 32.6341 16.7447 32.2739C17.0184 32.5078 17.3451 32.6712 17.6965 32.7498C18.0478 32.8285 18.4131 32.82 18.7604 32.725C19.1077 32.6301 19.4266 32.4517 19.689 32.2052C19.9515 31.9588 20.1498 31.6519 20.2664 31.3113C20.579 31.517 20.9369 31.6437 21.3093 31.6803C21.6817 31.717 22.0574 31.6624 22.404 31.5215C22.7506 31.3805 23.0578 31.1573 23.2989 30.8712C23.5401 30.5851 23.708 30.2446 23.7882 29.8791C24.0746 30.0188 24.387 30.0972 24.7055 30.1093C25.024 30.1214 25.3414 30.0668 25.6376 29.9491C25.9337 29.8315 26.202 29.6533 26.4253 29.4259C26.6486 29.1985 26.822 28.9271 26.9343 28.6288L28.4781 28.3706C28.6541 28.8519 28.6894 29.8086 29.4407 29.6384L33.5846 28.5877C33.6665 28.5732 33.7444 28.5413 33.8131 28.4944C33.8817 28.4474 33.9396 28.3864 33.9829 28.3153C34.0263 28.2443 34.0539 28.1648 34.0642 28.0823C34.0744 27.9997 34.0671 27.9159 34.0425 27.8364ZM26.0832 11.0669C25.4744 11.0627 24.8851 10.852 24.4116 10.4691C23.9382 10.0863 23.6087 9.55419 23.4771 8.95972H28.7187C28.5851 9.55854 28.251 10.0938 27.7717 10.477C27.2925 10.8602 26.6968 11.0683 26.0832 11.0669ZM23.8352 7.78579L26.0832 3.99402L28.3313 7.78579H23.8352ZM8.05175 3.99402L10.3057 7.78579H5.80369L8.05175 3.99402ZM8.05175 11.0669C7.4412 11.0643 6.84965 10.8544 6.37404 10.4715C5.89836 10.0887 5.56691 9.5556 5.4339 8.95972H10.6755C10.5422 9.5566 10.2099 10.0904 9.73305 10.4733C9.25626 10.8563 8.66331 11.0656 8.05175 11.0669ZM1.33103 24.7842L4.22476 15.6041L7.2124 16.4141C6.99522 17.1126 4.53585 24.9016 4.31867 25.6001L1.33103 24.7842ZM25.643 28.576C25.4436 28.7756 25.1791 28.8966 24.8978 28.9171C24.6165 28.9376 24.3372 28.8561 24.1111 28.6875L21.4521 26.5803C21.3914 26.5322 21.3216 26.4966 21.2471 26.4756C21.1725 26.4545 21.0945 26.4485 21.0175 26.4578C20.9406 26.467 20.8662 26.4915 20.7988 26.5297C20.7313 26.5678 20.6721 26.619 20.6245 26.6801C20.5292 26.8025 20.4861 26.9576 20.5049 27.1116C20.5235 27.2656 20.6024 27.4059 20.7243 27.5019L22.3032 28.7345C23.4478 29.7382 21.8219 31.1234 20.8006 30.2195L18.1945 27.9538C18.0777 27.8503 17.9246 27.7974 17.7689 27.8068C17.6131 27.8161 17.4675 27.887 17.3639 28.0037C17.2604 28.1205 17.2075 28.2735 17.2168 28.4293C17.2262 28.5851 17.2971 28.7307 17.4138 28.8343L18.8988 30.1315C18.9842 30.202 19.0538 30.2896 19.1032 30.3887C19.1526 30.4877 19.1807 30.5961 19.1857 30.7067C19.1907 30.8173 19.1724 30.9277 19.1321 31.0309C19.0918 31.1339 19.0303 31.2275 18.9517 31.3054C18.7679 31.4876 18.524 31.5964 18.2657 31.6115C18.0075 31.6267 17.7525 31.547 17.5488 31.3876C17.5488 31.3876 14.9133 29.1806 14.8723 29.1395C14.8133 29.0898 14.7451 29.0521 14.6716 29.0288C14.5981 29.0054 14.5207 28.9967 14.4438 29.0033C14.367 29.0098 14.2922 29.0315 14.2237 29.0669C14.1552 29.1024 14.0944 29.1509 14.0446 29.2099C13.9949 29.2689 13.9573 29.3371 13.9339 29.4106C13.9106 29.4841 13.9019 29.5615 13.9085 29.6383C13.915 29.7152 13.9366 29.79 13.972 29.8585C14.0075 29.927 14.0561 29.9878 14.1151 30.0375L15.3477 31.0706C16.2927 32.0919 14.7607 33.3069 13.7688 32.6084L11.4209 31.0647C9.11416 29.6736 7.31218 27.1497 5.72151 25.0542L8.01654 17.7759L12.7592 17.5822L10.4876 20.7635C8.93807 23.0703 12.1898 25.3184 14.0446 23.4694L15.0425 22.4657C15.5943 21.9405 16.3155 21.6294 17.0762 21.5886C17.837 21.5477 18.5873 21.7796 19.1923 22.2427L25.5256 27.2671C25.6252 27.3411 25.7081 27.4353 25.7688 27.5435C25.8294 27.6518 25.8665 27.7716 25.8776 27.8952C25.8887 28.0189 25.8735 28.1434 25.8331 28.2607C25.7926 28.378 25.7279 28.4855 25.643 28.576ZM26.9754 27.4021C26.8549 26.9765 26.602 26.6003 26.2535 26.3279L19.9201 21.327C19.0899 20.6861 18.057 20.3648 17.0097 20.4219C15.9624 20.479 14.9705 20.9106 14.2149 21.6381L13.2112 22.6418C12.4129 23.4988 10.699 22.542 11.4503 21.4679L14.297 17.4765L16.369 16.8896C17.2777 16.6472 18.2434 16.7432 19.0867 17.1596L21.8689 18.5683C23.1215 19.1963 24.506 19.5162 25.9072 19.5016L28.1728 27.2201L26.9754 27.4021ZM29.7165 28.3295C29.3057 26.9208 27.1691 19.6366 26.7289 18.1398L29.7342 17.3768L32.7218 27.6075L29.7165 28.3295Z" fill="#BD081C"/>
</svg>
