<svg width="43" height="34" viewBox="0 0 43 34" fill="none" xmlns="http://www.w3.org/2000/svg">
<g id="zeplin 1" clip-path="url(#clip0_60_1023)">
<path id="Vector" d="M6.55687 23.4414L4.33179 24.2544L4.21338 30.8731L11.9154 28.0595C9.27149 27.174 7.34333 25.6135 6.55687 23.4414Z" fill="#FDBD39"/>
<path id="Vector_2" d="M7.72149 16.4414L0 19.2621L4.33174 24.2566L6.55681 23.4436C5.77212 21.2786 6.25637 18.8344 7.72149 16.4414Z" fill="#F69833"/>
<path id="Vector_3" d="M20.7134 6.88827C10.8817 10.4795 4.54226 17.8917 6.55702 23.4411L42.16 10.4353C40.1452 4.88588 30.5451 3.29704 20.7134 6.88827Z" fill="#FECF33"/>
<path id="Vector_4" d="M28.0018 26.9904C37.8335 23.3991 44.1835 16.0205 42.1581 10.4375L6.55518 23.4416C8.58054 29.0263 18.1701 30.5816 28.0018 26.9904Z" fill="#EE6723"/>
<path id="Vector_5" d="M42.1578 10.4355L6.55664 23.4414C7.25297 25.3642 9.91281 26.3115 13.6419 26.3115C17.2791 26.3115 21.9342 25.4119 26.7873 23.6393C36.619 20.0481 43.5346 14.2318 42.1578 10.4355Z" fill="#F69833"/>
<path id="Vector_6" d="M35.0729 7.56836C31.4375 7.56836 26.7806 8.46793 21.9275 10.2406C12.0958 13.8318 5.18021 19.6463 6.55697 23.4426L42.1599 10.4367C41.4618 8.51388 38.8038 7.56836 35.0729 7.56836Z" fill="#FDBD39"/>
<g id="Group">
<path id="Vector_7" d="M33.1056 31.225C32.0576 31.225 30.5129 30.2795 28.5123 28.4132C26.1458 26.2058 23.4365 22.9715 20.8792 19.3078C18.3236 15.6442 16.224 11.9822 14.9657 8.99368C13.596 5.73825 13.3998 3.73762 14.3842 3.04483C14.6122 2.8893 14.8826 2.80977 15.1583 2.81684C15.9589 2.81684 17.5212 3.41243 20.4073 6.25431L20.4709 6.31616L20.4621 6.40453C20.4426 6.60954 20.425 6.81455 20.409 7.0178L20.3772 7.41898L20.0945 7.13444C16.984 4.00095 15.616 3.66339 15.1707 3.66339C15.0434 3.66339 14.9427 3.68814 14.8702 3.73939C14.4425 4.03984 14.4142 5.51026 15.7433 8.66495C16.9786 11.5987 19.0482 15.2059 21.5702 18.8218C24.0939 22.4396 26.7626 25.6243 29.0884 27.7928C31.5945 30.131 32.7238 30.3837 33.0932 30.3837C33.2205 30.3837 33.323 30.3572 33.4007 30.3024C33.8514 29.9861 33.8514 28.4114 32.3704 25.0146L32.3014 24.859L32.4499 24.7778C32.5984 24.6965 32.7433 24.6169 32.8776 24.5392L33.0561 24.4384L33.1392 24.6258C34.189 27.0329 35.1716 30.0921 33.8832 30.997C33.6552 31.1525 33.3831 31.2321 33.1056 31.225Z" fill="#EE6723"/>
<path id="Vector_8" d="M28.2399 26.8881L28.2258 27.0719C27.9766 30.147 27.3227 33.8443 25.6154 33.9945C25.5801 33.998 25.5447 33.998 25.5112 33.998C24.3518 33.998 23.2543 32.3367 22.2522 29.0619C21.3014 25.962 20.5644 21.8017 20.1773 17.3462C19.7885 12.8908 19.7938 8.66506 20.1932 5.44674C20.628 1.94035 21.4551 0.109389 22.6534 0.00334888C22.6887 -0.00018579 22.7258 -0.00195312 22.7612 -0.00195312C23.6024 -0.00195312 24.8696 0.95064 26.1668 5.38665L25.3203 5.54925C24.8873 4.06822 24.4154 2.8629 23.9471 2.03225C23.5141 1.26699 23.0917 0.8446 22.7612 0.8446C22.7506 0.8446 22.74 0.8446 22.7276 0.846368C22.208 0.892319 21.4516 2.15066 21.031 5.55101C20.6386 8.71101 20.6333 12.8749 21.0168 17.272C21.4003 21.6709 22.1249 25.7693 23.0581 28.8127C23.4752 30.1753 23.9329 31.2993 24.3836 32.061C24.7972 32.7644 25.1983 33.1515 25.5112 33.1515C25.5218 33.1515 25.5324 33.1515 25.543 33.1497C26.0396 33.1073 26.9763 31.7959 27.3704 27.185L28.2399 26.8881Z" fill="#EE6723"/>
</g>
</g>
<defs>
<clipPath id="clip0_60_1023">
<rect width="42.5362" height="34" fill="white"/>
</clipPath>
</defs>
</svg>
