<svg width="111" height="30" viewBox="0 0 111 30" fill="none" xmlns="http://www.w3.org/2000/svg">
<g id="Group 1687">
<path id="Vector" d="M32.596 22.2419V8.61431H34.3489L42.6804 19.5883V8.61431H44.3467V22.2419H42.5938L34.2522 11.1601V22.2419H32.5859H32.596ZM57.9199 21.7009C56.7839 22.1207 55.5818 22.3333 54.3707 22.3285C49.4363 22.3285 46.9681 19.9691 46.9681 15.2291C46.9681 10.7491 49.3486 8.49744 54.1209 8.49744C55.4849 8.49744 56.7603 8.69188 57.929 9.06161V10.5768C56.7603 10.1234 55.5484 9.90584 54.3143 9.90584C50.5918 9.90584 48.7301 11.6809 48.7301 15.1868C48.7301 18.9748 50.5697 20.8587 54.2277 20.8587C54.812 20.8587 55.4618 20.772 56.176 20.6209V16.0542H57.929V21.7029L57.9199 21.7009ZM60.7337 16.9821V8.60625H62.4866V16.9821C62.4866 19.6014 63.7963 20.9111 66.4156 20.9111C69.0128 20.9111 70.3446 19.6014 70.3446 16.9821V8.60625H72.0975V16.9821C72.0975 20.5534 70.2136 22.3497 66.4257 22.3497C62.6377 22.3497 60.7538 20.5534 60.7538 16.9821H60.7337ZM76.9675 8.61431V20.8315H84.1203V22.26H75.2246V8.61431H76.9776H76.9675ZM86.6429 22.2499H84.8033L91.5753 6.82812L98.3503 22.26H96.4019L94.649 17.9744H90.1457L90.6223 16.5458H94.0637L91.5098 10.3773L86.6389 22.26L86.6429 22.2499ZM100.235 22.2499V8.61431H106.058C108.655 8.61431 109.954 9.69629 109.954 11.8824C109.954 13.6575 108.676 14.9773 106.146 15.8114L110.82 22.2389H108.503L104.174 16.1137V14.9883C106.771 14.5773 108.103 13.582 108.103 11.9801C108.103 10.7249 107.398 10.0962 105.939 10.0962H102.044V22.2419H100.247L100.235 22.2499Z" fill="#B52E31"/>
<path id="Vector_2" d="M0 4.97868L13.96 0.00195312L28.2888 4.89305L25.9717 23.3553L13.96 29.9993L2.14281 23.451L0 4.97868Z" fill="#E23237"/>
<path id="Vector_3" d="M28.2897 4.8911L13.9609 0V29.9984L25.9736 23.3534L28.2897 4.8911Z" fill="#B52E31"/>
<path id="Vector_4" d="M13.9835 3.50421L5.28125 22.8439L8.52821 22.7795L10.2812 18.4072H18.0515L19.9656 22.8228L23.0605 22.8873L13.9915 3.49414L13.9835 3.50421ZM14.0036 9.71606L16.9474 15.8634H11.4266L14.0036 9.71807V9.71606Z" fill="white"/>
</g>
</svg>
