<svg width="36" height="30" viewBox="0 0 36 30" fill="none" xmlns="http://www.w3.org/2000/svg">
<g id="Testimonials_WriteMessage 1" clip-path="url(#clip0_2064_975)">
<g id="Group">
<path id="Vector" d="M34.9503 4.12497L33.4503 2.62497C33.1503 2.32497 32.7753 2.09997 32.4003 2.02497C31.9503 1.94997 31.5003 2.09997 31.1253 2.39997L17.6253 15.9C17.5503 15.975 17.4753 16.125 17.4753 16.2L16.3503 20.4C16.2753 20.775 16.5003 21.225 16.8753 21.3C16.9503 21.3 17.0253 21.3 17.1003 21.3C17.1753 21.3 17.2503 21.3 17.3253 21.3L21.4503 20.175C21.6003 20.175 21.6753 20.1 21.7503 20.025L35.2503 6.44997C35.7003 5.77497 35.6253 4.72497 34.9503 4.12497ZM20.7003 18.75L18.0003 19.5L18.7503 16.8L30.0003 5.54997L31.9503 7.49997L20.7003 18.75ZM33.0003 6.44997L31.0503 4.49997L32.0253 3.52497C32.1003 3.52497 32.2503 3.59997 32.3253 3.67497L33.8253 5.17497C33.9003 5.24997 33.9753 5.32497 33.9753 5.47497L33.0003 6.44997Z" fill="#0904F2"/>
<path id="Vector_2" d="M25.5 20.25C25.5 21.9 24.15 23.25 22.5 23.25H13.2L7.575 28.425L7.5 28.5V23.25H4.5C2.85 23.25 1.5 21.9 1.5 20.25V4.5C1.5 2.85 2.85 1.5 4.5 1.5H22.5C24.15 1.5 25.5 2.85 25.5 4.5V6H27V4.5C27 2.025 24.975 0 22.5 0H4.5C2.025 0 0 2.025 0 4.5V20.25C0 22.725 2.025 24.75 4.5 24.75H6V28.5C6 29.175 6.45 29.7 7.05 29.925C7.2 30 7.35 30 7.5 30C7.95 30 8.325 29.775 8.625 29.475L13.8 24.75H22.5C24.975 24.75 27 22.725 27 20.25V17.25H25.5V20.25Z" fill="#0904F2"/>
<path id="Vector_3" d="M20.25 6.75H6.75V8.25H20.25V6.75Z" fill="#0904F2"/>
<path id="Vector_4" d="M20.25 9.75H6.75V11.25H20.25V9.75Z" fill="#0904F2"/>
<path id="Vector_5" d="M14.25 12.75H6.75V14.25H14.25V12.75Z" fill="#0904F2"/>
</g>
</g>
<defs>
<clipPath id="clip0_2064_975">
<rect width="35.475" height="30" fill="white"/>
</clipPath>
</defs>
</svg>
