<svg width="25" height="30" viewBox="0 0 25 30" fill="none" xmlns="http://www.w3.org/2000/svg">
<g id="Group 1695">
<path id="Vector" d="M22.7709 27.4131C22.8356 27.025 23.0296 26.7017 23.2236 26.3783C23.6763 25.7316 23.9996 24.9556 23.9996 24.1149V17.6478C23.9996 16.6131 23.0942 15.7077 22.0595 15.7077H21.3481C21.0248 14.9317 20.3134 14.4143 19.5374 14.4143H18.5027C18.05 14.0263 17.5326 13.7676 16.8859 13.7676H16.2392V9.88738C16.2392 8.78798 15.3985 7.94727 14.2991 7.94727C13.1997 7.94727 12.359 8.78798 12.359 9.88738V19.3293L12.2943 19.3939L11.0009 17.3891C10.4189 16.5484 9.38412 16.1604 8.41407 16.4191C7.76736 16.5484 7.31467 17.1305 7.25 17.7772V17.9065L7.31467 18.0358C7.8967 19.7173 9.31945 23.7915 9.64281 24.2442C9.96616 24.6969 10.2895 25.0849 10.6775 25.4729C11.0656 25.861 11.4536 26.3137 11.8416 26.831V27.4131H10.5482V29.9999H11.8416V28.7065H22.8356V29.9999H24.129V27.4131H22.7709ZM22.7062 24.1149C22.6416 24.6969 22.3829 25.2789 22.0595 25.7316C21.6715 26.1843 21.4775 26.7664 21.4128 27.3484H13.0057V26.7017C13.0057 26.1197 12.4883 25.5376 11.5182 24.5029C11.1949 24.1795 10.8715 23.8562 10.6129 23.4682C10.4189 23.1448 9.31945 20.0406 8.54341 17.7772C8.67275 17.6478 8.86676 17.6478 8.9961 17.5832C9.38412 17.5832 9.70748 17.7772 9.90149 18.1005L12.0356 21.3987L13.6524 19.8466V9.88738C13.6524 9.49936 13.9111 9.24067 14.2991 9.24067C14.6871 9.24067 14.9458 9.49936 14.9458 9.88738V18.2945H16.2392V15.061H16.8859C17.1446 15.061 17.3386 15.1904 17.5326 15.3197V18.2945H18.826V15.7077H19.4727C19.7961 15.7724 20.0547 16.0311 20.1194 16.3544V18.9412H21.4128V17.0011H22.0595C22.3829 17.0658 22.6416 17.3245 22.7062 17.6478V24.1149Z" fill="#0904F2"/>
<path id="Vector_2" d="M9.12468 15.8372L9.5127 15.5785C10.4828 14.8671 11.3881 14.2204 12.1642 13.6384L11.3881 12.6037C10.7414 13.121 9.96539 13.7031 9.12468 14.2851C3.62769 10.2755 1.75225 8.46477 1.36423 6.07196C1.23489 5.42526 1.10555 3.35581 2.72231 2.0624C3.62769 1.4157 4.85643 1.15701 5.95583 1.35102C7.05523 1.54504 7.96061 2.19174 8.54265 3.09713L9.06001 4.06718L9.57737 3.1618C10.1594 2.25641 11.0648 1.60971 12.1642 1.4157C13.2636 1.22168 14.4923 1.4157 15.3977 2.12707C17.0145 3.42048 16.8205 5.48993 16.7558 6.13664C16.6911 6.654 16.4971 7.23603 16.2384 7.68873L17.4025 8.27076C17.7258 7.68873 17.9199 6.97735 18.0492 6.33065C18.1785 5.5546 18.3725 2.83844 16.1738 1.15701C14.945 0.251628 13.4576 -0.136395 11.9702 0.122287C10.8708 0.316298 9.83605 0.898332 9.06001 1.73905C8.28396 0.898332 7.24924 0.316298 6.14984 0.122287C4.72709 -0.201065 3.175 0.122287 1.94626 1.02767C-0.252531 2.7091 -0.0585194 5.42526 0.0708215 6.20131C0.523514 9.30549 3.04566 11.4396 8.73666 15.5785L9.12468 15.8372Z" fill="#0904F2"/>
</g>
</svg>
