<svg width="33" height="30" viewBox="0 0 33 30" fill="none" xmlns="http://www.w3.org/2000/svg">
<g id="Testimonials_OnlineReview 1" clip-path="url(#clip0_2064_985)">
<g id="Group">
<path id="Vector" d="M27.2727 28.6364H1.36364V5.45455H27.2727V6.81818H28.6364V0H0V30H28.6364V23.8636H27.2727V28.6364ZM1.36364 1.36364H27.2727V4.09091H1.36364V1.36364Z" fill="#0904F2"/>
<path id="Vector_2" d="M4.09118 2.04492H2.72754V3.40856H4.09118V2.04492Z" fill="#0904F2"/>
<path id="Vector_3" d="M6.81774 2.04492H5.4541V3.40856H6.81774V2.04492Z" fill="#0904F2"/>
<path id="Vector_4" d="M9.54528 2.04492H8.18164V3.40856H9.54528V2.04492Z" fill="#0904F2"/>
<path id="Vector_5" d="M29.3184 7.5H13.6366C11.7275 7.5 10.2275 9 10.2275 10.9091V19.7727C10.2275 21.6818 11.7275 23.1818 13.6366 23.1818V25.6364C13.6366 26.1818 13.9775 26.6591 14.4548 26.8636C14.5912 26.9318 14.7957 27 15.0003 27C15.3412 27 15.6821 26.8636 15.9548 26.5909L19.3639 23.1818H29.3184C31.2275 23.1818 32.7275 21.6818 32.7275 19.7727V10.9091C32.7275 9 31.2275 7.5 29.3184 7.5ZM31.3639 19.7727C31.3639 20.9318 30.4775 21.8182 29.3184 21.8182H19.0912C18.8866 21.8182 18.7503 21.8864 18.6139 22.0227L15.0003 25.6364V22.5C15.0003 22.0909 14.7275 21.8182 14.3184 21.8182H13.6366C12.4775 21.8182 11.5912 20.9318 11.5912 19.7727V10.9091C11.5912 9.75 12.4775 8.86364 13.6366 8.86364H29.3184C30.4775 8.86364 31.3639 9.75 31.3639 10.9091V19.7727Z" fill="#0904F2"/>
<path id="Vector_6" d="M26.5904 13.3639L23.6586 13.0911L22.4313 10.3639C22.295 10.023 21.8859 9.88659 21.545 10.023C21.4086 10.0911 21.2722 10.2275 21.2041 10.3639L19.9768 13.0911L17.045 13.3639C16.6359 13.3639 16.3632 13.7048 16.4313 14.1139C16.4313 14.2502 16.4995 14.3866 16.6359 14.523L18.8177 16.773L18.2722 19.7048C18.2041 19.9775 18.3404 20.2502 18.545 20.3866C18.7495 20.523 19.0222 20.5911 19.295 20.4548L21.8859 19.0911L24.4768 20.3866C24.6813 20.4548 24.9541 20.4548 25.1586 20.3184C25.3632 20.182 25.4313 19.9093 25.4313 19.6366L24.8859 16.773L27.0677 14.523C27.3404 14.2502 27.2722 13.8411 26.9995 13.5684C26.8632 13.432 26.7268 13.3639 26.5904 13.3639ZM23.5904 16.0911C23.4541 16.2275 23.3859 16.5002 23.3859 16.7048L23.7268 18.5457L22.0904 17.7275C21.8859 17.6593 21.6813 17.6593 21.4768 17.7275L19.7722 18.5457L20.1132 16.6366C20.1813 16.432 20.1132 16.1593 19.9086 16.023L18.4768 14.523L20.3859 14.3866C20.6586 14.3866 20.8632 14.182 20.9313 13.9775L21.8177 12.273L22.6359 14.0457C22.7041 14.2502 22.9768 14.3866 23.1813 14.4548L25.0904 14.6593L23.5904 16.0911Z" fill="#0904F2"/>
</g>
</g>
<defs>
<clipPath id="clip0_2064_985">
<rect width="32.7273" height="30" fill="white"/>
</clipPath>
</defs>
</svg>
