<svg width="27" height="30" viewBox="0 0 27 30" fill="none" xmlns="http://www.w3.org/2000/svg">
<g id="Group">
<path id="Vector" d="M8.29802 22.2773C6.1278 22.2773 1.91504 23.4263 1.91504 26.1071V30.0007H3.19163V26.1071C3.19163 24.639 6.25546 23.5539 8.29802 23.5539C10.3406 23.5539 13.4044 24.639 13.4044 26.1071V30.0007H14.681V26.1071C14.681 23.4263 10.4682 22.2773 8.29802 22.2773Z" fill="#0904F2"/>
<path id="Vector_2" d="M4.46777 17.2341V17.8724C4.46777 19.9788 6.19118 21.7022 8.29756 21.7022C10.4039 21.7022 12.1273 19.9788 12.1273 17.8724V17.2341C12.1273 15.1277 10.4039 13.4043 8.29756 13.4043C6.19118 13.4043 4.46777 15.1277 4.46777 17.2341ZM5.74437 17.2341C5.74437 15.8298 6.89331 14.6809 8.29756 14.6809C9.70182 14.6809 10.8508 15.8298 10.8508 17.2341V17.8724C10.8508 19.2766 9.70182 20.4256 8.29756 20.4256C6.89331 20.4256 5.74437 19.2766 5.74437 17.8724V17.2341Z" fill="#0904F2"/>
<path id="Vector_3" d="M24.2553 0H2.55319C1.14894 0 0 1.14894 0 2.55319V14.6809C0 16.0851 1.14894 17.234 2.55319 17.234H3.82979V15.9574H2.55319C1.85106 15.9574 1.2766 15.383 1.2766 14.6809V2.55319C1.2766 1.85106 1.85106 1.2766 2.55319 1.2766H24.2553C24.9574 1.2766 25.5319 1.85106 25.5319 2.55319V14.6809C25.5319 15.383 24.9574 15.9574 24.2553 15.9574H19.9787L15.3191 21V15.9574H12.766V17.234H14.0426V21.0638C14.0426 21.5745 14.2979 21.9574 14.7447 22.2128C14.9362 22.2766 15.1277 22.3404 15.3191 22.3404C15.6383 22.3404 15.8936 22.2128 16.1489 22.0213L20.5532 17.234H24.2553C25.6596 17.234 26.8085 16.0851 26.8085 14.6809V2.55319C26.8085 1.14894 25.6596 0 24.2553 0Z" fill="#0904F2"/>
<path id="Vector_4" d="M19.7871 5.10547H6.38281V6.38206H19.7871V5.10547Z" fill="#0904F2"/>
<path id="Vector_5" d="M19.7871 7.66016H6.38281V8.93675H19.7871V7.66016Z" fill="#0904F2"/>
<path id="Vector_6" d="M15.319 10.2129H6.38281V11.4895H15.319V10.2129Z" fill="#0904F2"/>
</g>
</svg>
