<svg width="68" height="35" viewBox="0 0 68 35" fill="none" xmlns="http://www.w3.org/2000/svg">
<g id="Group 1278">
<g id="Group">
<path id="Vector" fill-rule="evenodd" clip-rule="evenodd" d="M0.00383518 31.8856H2.2284V23.0729L5.70256 30.7564C6.09607 31.68 6.66142 32.0221 7.75606 32.0221C8.8507 32.0221 9.38229 31.6796 9.78885 30.7564L13.2457 23.0729V31.8856H15.4876V23.0729C15.4876 22.2176 15.1451 21.806 14.4263 21.5836C12.7322 21.0704 11.6026 21.5153 11.0895 22.6613L7.68434 30.2594L4.3985 22.6613C3.90219 21.5153 2.75539 21.0704 1.04439 21.5836C0.342506 21.806 0.000383335 22.2172 0.000383335 23.0729L0 31.8856H0.00383518ZM17.3393 24.7156H19.5812V29.5586C19.5643 29.8321 19.6667 30.4485 20.8852 30.465C21.5181 30.4822 25.711 30.465 25.7447 30.465V24.6811H27.9866V32.6044C27.9866 34.5551 25.5702 34.9824 24.4441 35H17.3946V33.5118H24.4622C25.8997 33.3577 25.7286 32.6393 25.7286 32.3996V31.8173H20.988C18.7803 31.8001 17.3597 30.8247 17.3432 29.7124V24.7148L17.3393 24.7156ZM65.426 19.1024C64.0575 19.0679 62.9958 19.2052 62.106 19.5818C61.8498 19.6854 61.4386 19.6854 61.4049 20.0099C61.5418 20.146 61.5583 20.3689 61.6783 20.5576C61.8835 20.9001 62.2433 21.3615 62.5682 21.6008C62.9279 21.8751 63.2873 22.1485 63.6632 22.3883C64.3306 22.7986 65.0835 23.0384 65.7336 23.4491C66.1102 23.6889 66.4865 23.9968 66.8631 24.2538C67.0549 24.3907 67.1711 24.6136 67.4108 24.6987V24.6469C67.2912 24.4935 67.2566 24.2711 67.1374 24.0992C66.9659 23.9286 66.7948 23.774 66.6234 23.6033C66.1275 22.936 65.5111 22.3537 64.8438 21.8751C64.2961 21.4984 63.0986 20.9852 62.8762 20.3524L62.8424 20.3179C63.2183 20.2834 63.6632 20.1464 64.023 20.0436C64.6052 19.8902 65.1353 19.924 65.7336 19.7702C66.0078 19.7011 66.2813 19.616 66.5555 19.5305V19.377C66.2475 19.069 66.0251 18.6583 65.7002 18.3675C64.8276 17.6146 63.8688 16.8786 62.8762 16.2626C62.3457 15.9205 61.6611 15.6977 61.0965 15.4073C60.8905 15.3045 60.5488 15.2531 60.4291 15.0821C60.1204 14.7062 59.9497 14.2095 59.7273 13.7642C59.2313 12.823 58.7519 11.7794 58.3242 10.7868C58.0163 10.1194 57.8276 9.45202 57.4517 8.83605C55.6889 5.92686 53.7719 4.16446 50.8286 2.43582C50.1958 2.07644 49.4429 1.92187 48.6424 1.73393L47.3591 1.6649C47.0848 1.54523 46.8114 1.21998 46.5716 1.0658C45.5963 0.449823 43.0806 -0.884917 42.3615 0.877859C41.8993 1.99014 43.0461 3.08516 43.4354 3.65013C43.7269 4.04364 44.1028 4.48856 44.3087 4.93347C44.4238 5.2242 44.4621 5.53257 44.5822 5.84056C44.8557 6.59346 45.1126 7.43227 45.472 8.13416C45.6638 8.49354 45.8652 8.87057 46.1049 9.19543C46.2418 9.38337 46.4815 9.46928 46.5325 9.77727C46.2928 10.1198 46.2763 10.6326 46.1394 11.061C45.523 12.9948 45.7627 15.3905 46.6353 16.8103C46.9095 17.238 47.5558 18.1796 48.4326 17.8198C49.2028 17.5119 49.0309 16.5365 49.2534 15.6808C49.3052 15.4756 49.2707 15.3387 49.3731 15.2014V15.2359L50.0749 16.6562C50.6054 17.4946 51.5297 18.3675 52.2995 18.9498C52.7099 19.2577 53.0352 19.7886 53.5483 19.9765V19.9247H53.5146C53.4118 19.7713 53.2576 19.7023 53.1207 19.5826C52.8127 19.2746 52.4706 18.898 52.2309 18.5559C51.5125 17.5978 50.8796 16.5365 50.3147 15.4415C50.0404 14.911 49.8007 14.3292 49.579 13.7987C49.4755 13.5932 49.4755 13.2848 49.3048 13.1828C49.0478 13.5586 48.6719 13.8847 48.4828 14.3464C48.1576 15.0821 48.1238 15.9892 48.0042 16.9304C47.9351 16.9477 47.9658 16.9304 47.9351 16.9649C47.3882 16.8284 47.1995 16.263 46.9943 15.7844C46.4811 14.5693 46.3952 12.6186 46.8401 11.2152C46.9598 10.8558 47.4737 9.72626 47.2685 9.38413C47.165 9.05889 46.8236 8.87095 46.6349 8.61398C46.4125 8.28873 46.1735 7.87833 46.0193 7.51895C45.6089 6.56009 45.4037 5.49958 44.9584 4.5411C44.7525 4.09619 44.3935 3.63402 44.1024 3.22362C43.7771 2.76145 43.4185 2.43621 43.1615 1.88889C43.076 1.70095 42.9563 1.39258 43.0933 1.187C43.127 1.05007 43.1961 0.99906 43.3322 0.964541C43.5547 0.776604 44.1883 1.01594 44.4107 1.11796C45.0436 1.37493 45.574 1.61427 46.1045 1.97327C46.3442 2.14433 46.6012 2.46957 46.9092 2.55549H47.2689C47.8166 2.67515 48.4322 2.59001 48.945 2.74343C49.8521 3.03492 50.6733 3.46219 51.4097 3.92475C53.6511 5.34502 55.4998 7.36438 56.7486 9.77765C56.9538 10.1712 57.0394 10.5306 57.2281 10.9413C57.5878 11.7801 58.0327 12.6355 58.3914 13.4574C58.7511 14.2617 59.0933 15.0836 59.6064 15.751C59.8634 16.1104 60.8898 16.2983 61.3516 16.4866C61.6941 16.6401 62.2241 16.7781 62.5329 16.9661C63.1143 17.3254 63.6962 17.7362 64.2435 18.1297C64.517 18.3346 65.373 18.7626 65.4241 19.1039L65.426 19.1024ZM47.9747 4.23158C47.7382 4.22949 47.5025 4.25824 47.2735 4.31711V4.35163H47.3073C47.4442 4.62548 47.6839 4.8138 47.855 5.05352L48.2489 5.87507L48.2826 5.84056C48.5224 5.66949 48.6424 5.39564 48.6424 4.98525C48.5396 4.86558 48.5227 4.74553 48.4372 4.62587C48.3344 4.45481 48.112 4.36889 47.9747 4.23235V4.23158Z" fill="#00678C"/>
<path id="Vector_2" fill-rule="evenodd" clip-rule="evenodd" d="M29.6953 31.8872H36.1297C36.8826 31.8872 37.6017 31.7338 38.1832 31.4596C39.1585 31.0146 39.6207 30.4163 39.6207 29.6289V27.9862C39.6207 27.3533 39.0903 26.7538 38.0298 26.3434C37.4821 26.1382 36.7974 26.0182 36.1301 26.0182H33.4261C32.519 26.0182 32.0913 25.744 31.9713 25.1456C31.9544 25.0774 31.9544 25.0087 31.9544 24.9404V23.9306C31.9544 23.8788 31.9544 23.8109 31.9713 23.7426C32.0909 23.2804 32.3307 23.1604 33.1219 23.0752H39.7101V21.5859H33.4468C32.5397 21.5859 32.0606 21.6377 31.6326 21.7746C30.3147 22.185 29.7329 22.8355 29.7329 23.9816V25.2829C29.7329 26.2917 30.8624 27.1481 32.779 27.3533C32.9842 27.3706 33.2067 27.3706 33.4291 27.3706H35.7396C35.8251 27.3706 35.9103 27.3706 35.9786 27.3878C36.6804 27.4561 36.9884 27.5758 37.1936 27.832C37.3306 27.9689 37.3651 28.089 37.3651 28.2431V29.5434C37.3651 29.6968 37.2623 29.9031 37.0571 30.0738C36.8519 30.2445 36.5259 30.3645 36.0982 30.3818C36.0127 30.3818 35.9621 30.399 35.8758 30.399H29.6953V31.8872ZM53.5499 29.3036C53.5499 30.8263 54.7006 31.6816 56.9903 31.8535C57.2128 31.8707 57.418 31.8872 57.6404 31.8872H63.4588V30.399H57.5894C56.2881 30.399 55.7921 30.0738 55.7921 29.2868V21.5859H53.5457V29.304L53.5499 29.3036ZM41.0406 29.3715V24.0671C41.0406 22.7151 41.9987 21.8932 43.8646 21.6369C44.0698 21.6197 44.275 21.6024 44.463 21.6024H48.7065C48.929 21.6024 49.1177 21.6197 49.3401 21.6369C51.2053 21.8932 52.1462 22.7147 52.1462 24.0671V29.3715C52.1462 30.4666 51.753 31.0488 50.8283 31.4427L53.0183 33.4271H50.4348L48.6551 31.8189L46.8578 31.9217H44.4622C44.0232 31.9195 43.5863 31.8622 43.1616 31.751C41.7425 31.3568 41.0406 30.6042 41.0406 29.3715ZM43.4531 29.2526C43.4531 29.3209 43.4914 29.3888 43.5049 29.4751C43.6245 30.0907 44.206 30.4332 45.0958 30.4332H47.1156L45.2676 28.7559H47.8512L49.4767 30.228C49.7854 30.0565 49.9734 29.8168 50.0416 29.5088C50.0589 29.4406 50.0589 29.3554 50.0589 29.2864V24.2036C50.0589 24.1354 50.0589 24.0675 50.0416 23.9984C49.922 23.417 49.3405 23.0921 48.4676 23.0921H45.0962C44.1036 23.0921 43.4535 23.5198 43.4535 24.2036L43.4531 29.2526Z" fill="#CE8B2C"/>
</g>
</g>
</svg>
