<svg width="34" height="30" viewBox="0 0 34 30" fill="none" xmlns="http://www.w3.org/2000/svg">
<g id="Media_FilmPhoto 1" clip-path="url(#clip0_2064_966)">
<g id="Group">
<path id="Vector" d="M5.5814 5.5814H20.2326V13.2558H21.6279V11.8605H24.4186V13.2558H25.814V0H24.4186V2.09302H21.6279V0H20.2326V4.18605H5.5814V0H4.18605V2.09302H1.39535V0H0V26.5116H1.39535V24.4186H4.18605V26.5116H5.5814V22.3256H12.5581V20.9302H5.5814V5.5814ZM21.6279 3.48837H24.4186V6.27907H21.6279V3.48837ZM21.6279 7.67442H24.4186V10.4651H21.6279V7.67442ZM4.18605 23.0233H1.39535V20.2326H4.18605V23.0233ZM4.18605 18.8372H1.39535V16.0465H4.18605V18.8372ZM4.18605 14.6512H1.39535V11.8605H4.18605V14.6512ZM4.18605 10.4651H1.39535V7.67442H4.18605V10.4651ZM4.18605 6.27907H1.39535V3.48837H4.18605V6.27907Z" fill="#0904F2"/>
<path id="Vector_2" d="M19.6743 23.2321L21.7674 24.6274L24.4185 21.2786L30.2092 27.6972L31.186 26.7204L24.4185 19.1855L21.4883 22.8135L19.3953 21.4181L15.4883 26.0925L16.6046 26.9297L19.6743 23.2321Z" fill="#0904F2"/>
<path id="Vector_3" d="M13.2559 13.9531V29.9996H33.4884V13.9531H13.2559ZM32.0931 28.6043H14.6512V15.3485H32.0931V28.6043Z" fill="#0904F2"/>
<path id="Vector_4" d="M29.3026 18.1387H27.9072V19.534H29.3026V18.1387Z" fill="#0904F2"/>
</g>
</g>
<defs>
<clipPath id="clip0_2064_966">
<rect width="33.4884" height="30" fill="white"/>
</clipPath>
</defs>
</svg>
