<svg width="40" height="30" viewBox="0 0 40 30" fill="none" xmlns="http://www.w3.org/2000/svg">
<g id="Media_PlayButton3 1" clip-path="url(#clip0_2064_957)">
<g id="Group">
<path id="Vector" d="M35.0003 24.9993V6.66602H33.3337V24.166H6.66699V25.8327H34.167C34.667 25.8327 35.0003 25.4993 35.0003 24.9993Z" fill="#0904F2"/>
<path id="Vector_2" d="M1.66667 1.66667H33.3333V3.33333H35V0.833333C35 0.333333 34.6667 0 34.1667 0H0.833333C0.333333 0 0 0.333333 0 0.833333V25C0 25.5 0.333333 25.8333 0.833333 25.8333H3.33333V24.1667H1.66667V1.66667Z" fill="#0904F2"/>
<path id="Vector_3" d="M38.3337 4.16602H5.00033C4.50033 4.16602 4.16699 4.49935 4.16699 4.99935V29.166C4.16699 29.666 4.50033 29.9993 5.00033 29.9993H38.3337C38.8337 29.9993 39.167 29.666 39.167 29.166V4.99935C39.167 4.49935 38.8337 4.16602 38.3337 4.16602ZM37.5003 28.3327H5.83366V5.83268H37.5003V28.3327Z" fill="#0904F2"/>
<path id="Vector_4" d="M16.2497 20.7509C16.4163 20.8343 16.4997 20.8343 16.6663 20.8343C16.833 20.8343 16.9997 20.8343 17.083 20.7509L25.4163 15.7509C25.833 15.5009 25.9163 15.0009 25.6663 14.5843C25.583 14.5009 25.4997 14.3343 25.4163 14.3343L17.083 9.33426C16.6663 9.08426 16.1663 9.25093 15.9163 9.66759C15.833 9.66759 15.833 9.83426 15.833 10.0009V20.0009C15.833 20.3343 15.9997 20.5843 16.2497 20.7509ZM17.4997 11.5009L23.4163 15.0009L17.4997 18.5009V11.5009Z" fill="#0904F2"/>
</g>
</g>
<defs>
<clipPath id="clip0_2064_957">
<rect width="39.1667" height="30" fill="white"/>
</clipPath>
</defs>
</svg>
