<svg width="36" height="34" viewBox="0 0 36 34" fill="none" xmlns="http://www.w3.org/2000/svg">
<g id="Money_MoneyChart 1" clip-path="url(#clip0_2034_5362)">
<g id="Group">
<path id="Vector" d="M21.1556 10.5775H25.689V15.1109H27.2001V9.82196C27.2001 9.36863 26.8979 9.06641 26.4445 9.06641H20.4001C19.9468 9.06641 19.6445 9.36863 19.6445 9.82196V31.7331H21.1556V10.5775Z" fill="#0904F2"/>
<path id="Vector_2" d="M12.089 1.51111H16.6223V31.7333H18.1334V0.755556C18.1334 0.302222 17.8312 0 17.3779 0H11.3334C10.8801 0 10.5779 0.302222 10.5779 0.755556V31.7333H12.089V1.51111Z" fill="#0904F2"/>
<path id="Vector_3" d="M3.02234 16.6224H7.55568V31.7336H9.06679V15.8669C9.06679 15.4136 8.76456 15.1113 8.31123 15.1113H2.26679C1.81345 15.1113 1.51123 15.4136 1.51123 15.8669V31.7336H3.02234V16.6224Z" fill="#0904F2"/>
<path id="Vector_4" d="M34 32.4883H0V33.9994H34V32.4883Z" fill="#0904F2"/>
<path id="Vector_5" d="M22.2134 16.9241L22.8934 18.2841C26.5956 16.3196 31.1289 17.7552 33.0934 21.4574C34.7556 24.6307 34 28.4841 31.28 30.7507L32.2623 31.8841C36.1156 28.6352 36.5689 22.9685 33.3956 19.1152C30.6756 15.7907 25.9912 14.8841 22.2134 16.9241Z" fill="#0904F2"/>
<path id="Vector_6" d="M29.4666 24.1779V23.4223C29.4666 22.2134 28.4088 21.1556 27.1999 21.1556V19.6445H25.6888V21.1556C24.4799 21.1556 23.4221 22.2134 23.4221 23.4223V23.649C23.4221 24.6312 24.1021 25.4623 25.0088 25.689L27.5021 26.4445C27.8043 26.5201 27.9555 26.7468 27.9555 27.049V27.2001C27.9555 27.5779 27.5777 27.9556 27.1999 27.9556H25.6888C25.311 27.9556 24.9332 27.5779 24.9332 27.2001V26.4445H23.4221V27.2001C23.4977 28.409 24.4799 29.3912 25.6888 29.4668V30.9779H27.1999V29.4668C28.4088 29.4668 29.4666 28.409 29.4666 27.2001V26.9734C29.4666 25.9912 28.7866 25.1601 27.8799 24.9334L25.3866 24.1779C25.1599 24.1023 24.9332 23.8756 24.8577 23.649V23.4223C24.8577 23.0445 25.2355 22.6668 25.6132 22.6668H27.1243C27.5021 22.6668 27.8799 23.0445 27.8799 23.4223V24.1779H29.4666Z" fill="#0904F2"/>
</g>
</g>
<defs>
<clipPath id="clip0_2034_5362">
<rect width="35.5111" height="34" fill="white"/>
</clipPath>
</defs>
</svg>
