<svg width="32" height="34" viewBox="0 0 32 34" fill="none" xmlns="http://www.w3.org/2000/svg">
<g id="Tools_GearWrench 1" clip-path="url(#clip0_2034_5313)">
<g id="Group">
<path id="Vector" d="M31.1787 13.4553L28.5745 13.0936C28.5021 12.7319 28.4298 12.3702 28.2851 12.0085L30.3106 10.417C30.6 10.2 30.6723 9.76596 30.4553 9.4766L28.7191 6.4383C28.5745 6.14894 28.1404 6.00426 27.8511 6.14894L25.4638 7.1617C25.1745 6.87234 24.9574 6.58298 24.6681 6.36596L25.6809 3.97872C25.8255 3.61702 25.6808 3.25532 25.3915 3.11064L22.3532 1.37447C22.0638 1.15745 21.6298 1.30213 21.4128 1.51915L19.8213 3.54468C19.4596 3.4 19.0979 3.32766 18.7362 3.25532L18.3745 0.651064C18.3021 0.289362 18.0128 0 17.6511 0H14.1787C13.817 0 13.5277 0.289362 13.4553 0.651064L13.0936 3.25532C12.7319 3.32766 12.3702 3.4 12.0085 3.54468L10.417 1.44681C10.2 1.15745 9.76596 1.08511 9.4766 1.30213L6.4383 3.0383C6.14894 3.18298 6.00426 3.54468 6.14894 3.90638L7.1617 6.29362C6.87234 6.58298 6.58298 6.87234 6.29362 7.08936L3.90638 6.14894C3.54468 6.00426 3.18298 6.14894 3.0383 6.4383L1.30213 9.4766C1.08511 9.76596 1.22979 10.2 1.44681 10.417L3.54468 12.0085C3.54468 12.0809 3.54468 12.1532 3.54468 12.1532C3.47234 12.4426 3.4 12.7319 3.32766 13.0213L0.651064 13.383C0.289362 13.4553 0 13.7447 0 14.1064V17.5787C0 17.9404 0.289362 18.2298 0.651064 18.3021L3.25532 18.6638C3.32766 19.0255 3.4 19.3872 3.54468 19.7489L1.44681 21.4128C1.15745 21.6298 1.08511 22.0638 1.30213 22.3532L3.0383 25.3915C3.18298 25.6808 3.61702 25.8255 3.90638 25.6809L6.29362 24.6681C6.58298 24.9574 6.8 25.2468 7.08936 25.4638L6.0766 27.8511C5.93191 28.2128 6.0766 28.5745 6.36596 28.7191L9.40425 30.4553C9.69362 30.6723 10.1277 30.5277 10.3447 30.3106L12.2255 27.8511L11.0681 26.983L9.54894 28.9362L7.59574 27.8511L8.53617 25.5362C8.68085 25.2468 8.53617 24.8851 8.31915 24.7404C7.81277 24.3064 7.37872 23.8723 6.94468 23.366C6.87234 23.1489 6.51064 23.0766 6.22128 23.1489L3.90638 24.0894L2.82128 22.2085L4.77447 20.6894C5.06383 20.4723 5.13617 20.1106 5.06383 19.8213C4.84681 19.2426 4.70213 18.5915 4.55745 17.9404C4.48511 17.6511 4.26809 17.3617 3.90638 17.3617L1.44681 17V14.7574L3.90638 14.4681C4.19574 14.3957 4.41277 14.2511 4.48511 13.9617C4.70213 13.4553 4.84681 12.9489 4.91915 12.3702C4.91915 12.2255 4.99149 12.0809 5.06383 11.9362C5.13617 11.6468 5.06383 11.2851 4.84681 11.1404L2.82128 9.62128L3.90638 7.66809L6.22128 8.68085C6.51064 8.82553 6.87234 8.68085 7.01702 8.46383C7.45106 7.95745 7.88511 7.5234 8.39149 7.08936C8.68085 6.87234 8.82553 6.58298 8.68085 6.22128L7.74043 3.90638L9.69362 2.82128L11.2128 4.77447C11.3574 5.06383 11.7191 5.13617 12.0085 5.06383C12.5872 4.84681 13.2383 4.70213 13.8894 4.55745C14.1787 4.48511 14.4681 4.26809 14.4681 3.90638L14.8298 1.44681H17.0723L17.3617 3.90638C17.434 4.19574 17.6511 4.48511 17.9404 4.48511C18.5915 4.62979 19.2426 4.77447 19.8213 4.99149C20.1106 5.06383 20.4723 4.99149 20.617 4.77447L22.1362 2.82128L24.0894 3.90638L23.1489 6.22128C23.0043 6.51064 23.1489 6.87234 23.366 7.01702C23.8723 7.45106 24.3064 7.88511 24.7404 8.39149C24.9574 8.60851 25.2468 8.68085 25.5362 8.60851L27.8511 7.66809L28.9362 9.62128L26.983 11.1404C26.766 11.3574 26.6213 11.6468 26.766 11.9362C26.983 12.5149 27.1277 13.166 27.2723 13.817C27.3447 14.1064 27.5617 14.3234 27.8511 14.3957L30.3106 14.7574V17L27.9234 17.3617C27.634 17.434 27.3447 17.6511 27.3447 17.9404C27.2 18.5915 27.0553 19.2426 26.8383 19.8213C26.766 20.1106 26.8383 20.4723 27.0553 20.617L29.0085 22.1362L27.9234 24.0894L25.6085 23.1489C25.3191 23.0043 24.9574 23.1489 24.8128 23.366C24.3787 23.8723 23.9447 24.3064 23.4383 24.7404C23.1489 24.9574 23.0766 25.3191 23.2213 25.6085L24.1617 27.9234L22.2085 29.0085L20.6894 27.0553L19.5319 27.9234L21.4128 30.383C21.6298 30.6723 22.0638 30.7447 22.3532 30.5277L25.3915 28.7915C25.6808 28.6468 25.8255 28.2128 25.6809 27.9234L24.6681 25.5362C24.9574 25.2468 25.2468 25.0298 25.4638 24.7404L27.8511 25.7532C28.2128 25.8979 28.5745 25.7532 28.7191 25.4638L30.4553 22.4255C30.6723 22.1362 30.5277 21.7021 30.3106 21.4851L28.2851 19.8936C28.4298 19.5319 28.5021 19.1702 28.5745 18.8085L31.1787 18.4468C31.5404 18.3745 31.8298 18.0851 31.8298 17.7234V14.2511C31.8298 13.817 31.5404 13.5277 31.1787 13.4553Z" fill="#0904F2"/>
<path id="Vector_2" d="M24.5957 15.9148C24.5957 16.3488 24.885 16.6382 25.3191 16.6382C25.7531 16.6382 26.0425 16.3488 26.0425 15.9148C26.0425 10.3446 21.485 5.78711 15.9148 5.78711C15.4808 5.78711 15.1914 6.07647 15.1914 6.51051C15.1914 6.94456 15.4808 7.23392 15.9148 7.23392C20.6893 7.23392 24.5957 11.1403 24.5957 15.9148Z" fill="#0904F2"/>
<path id="Vector_3" d="M7.23416 15.9148C7.23416 15.4808 6.9448 15.1914 6.51076 15.1914C6.07672 15.1914 5.78735 15.4808 5.78735 15.9148C5.78735 19.7489 7.88523 23.2212 11.2852 24.9574C11.3576 25.0297 11.5022 25.0297 11.6469 25.0297C12.081 25.0297 12.3703 24.7403 12.3703 24.3063C12.3703 24.0169 12.2257 23.7999 12.0086 23.6552C9.04267 22.1361 7.23416 19.1701 7.23416 15.9148Z" fill="#0904F2"/>
<path id="Vector_4" d="M22.4256 15.9157C22.4256 13.8179 21.4128 11.7923 19.6043 10.5626C18.9532 10.1285 18.0128 10.2732 17.5788 10.9243C17.4341 11.1413 17.2894 11.4306 17.2894 11.72V15.1923H14.3958V11.7923C14.3958 10.9966 13.7447 10.3455 12.949 10.3455C12.6596 10.3455 12.3703 10.4179 12.1532 10.6349C10.4171 11.7923 9.4043 13.8179 9.4043 15.9157C9.4043 18.303 10.8511 20.4732 13.0213 21.486V34.0009H14.4681V21.486C14.4681 20.9072 14.1064 20.4009 13.6 20.1838C11.9362 19.4604 10.7788 17.7966 10.8511 15.9881C10.8511 14.3243 11.6469 12.8051 13.0213 11.8647V15.1923C13.0213 15.9881 13.6724 16.6392 14.4681 16.6392H17.3617C18.1575 16.6392 18.8086 15.9881 18.8086 15.1923V11.72C20.183 12.6604 20.9788 14.2519 20.9788 15.9157C20.9788 17.7243 19.8937 19.3881 18.2298 20.1115C17.7234 20.3285 17.3617 20.8349 17.3617 21.4136V34.0009H18.8086V21.4136C20.9788 20.4732 22.4256 18.303 22.4256 15.9157Z" fill="#0904F2"/>
</g>
</g>
<defs>
<clipPath id="clip0_2034_5313">
<rect width="31.8298" height="34" fill="white"/>
</clipPath>
</defs>
</svg>
