<svg width="25" height="24" viewBox="0 0 25 24" fill="none" xmlns="http://www.w3.org/2000/svg">
<g id="Software_WebsiteHand 2" clip-path="url(#clip0_2038_3186)">
<g id="Group">
<path id="Vector" d="M24.4267 10.8807C23.7333 10.1341 22.72 9.86739 21.76 10.1341C20.64 10.4007 20 11.2007 19.36 12.3741L17.5467 13.3341C17.12 12.9607 16.5867 12.8007 16 12.8007H13.2267C13.0667 12.6941 12.9067 12.5874 12.7467 12.4807C12.32 12.0541 11.7867 11.8407 11.2 11.7341H8.53333C7.57333 11.8407 6.72 12.2674 6.02667 12.9607L4.26667 14.7207L3.57333 14.0274C3.36 13.8141 3.04 13.8141 2.82667 14.0274L0.16 16.6941C-0.0533333 16.9074 -0.0533333 17.2274 0.16 17.4407L6.56 23.8407C6.77333 24.0541 7.09333 24.0541 7.30667 23.8407L9.97333 21.1741C10.1867 20.9607 10.1867 20.6407 9.97333 20.4274L9.33333 19.7874C9.44 19.7341 9.49333 19.7341 9.6 19.7341H17.0667C18.08 19.7341 21.7067 15.8407 21.76 15.8407C22.8267 14.4541 23.7333 12.9607 24.5333 11.4141C24.5867 11.2541 24.5333 11.0407 24.4267 10.8807ZM6.93333 22.7207L1.28 17.0674L3.2 15.1474L8.85333 20.8007L6.93333 22.7207ZM20.9067 15.0941C20.32 15.7874 17.6 18.4007 17.0133 18.6674H9.6C9.22667 18.6674 8.85333 18.7741 8.53333 18.9874L5.01333 15.4674L6.77333 13.7074C7.25333 13.2274 7.89333 12.9074 8.53333 12.8007H11.2C11.52 12.9074 11.84 13.0674 12.1067 13.3341C12.4267 13.6007 12.8 13.8141 13.2267 13.8674H16C16.7467 13.8674 17.0667 14.2941 17.0667 14.6674C17.0667 15.0407 16.7467 15.4674 16 15.4674H11.7333V16.5341H16C17.3867 16.5341 18.1333 15.5741 18.1333 14.6674C18.1333 14.5074 18.1333 14.4007 18.08 14.2407L20 13.2807C20.1067 13.2274 20.16 13.1741 20.2133 13.0674C20.8533 11.8407 21.28 11.3607 21.9733 11.2007C22.4533 11.0941 22.9333 11.1474 23.36 11.3607C22.6133 12.6407 21.8133 13.9207 20.9067 15.0941Z" fill="#0904F2"/>
<path id="Vector_2" d="M3.57846 16.695L2.82422 17.4492L3.88016 18.5052L4.6344 17.7509L3.57846 16.695Z" fill="#0904F2"/>
<path id="Vector_3" d="M8.00002 4.26667H21.3333V9.6H22.4V0H6.93335V11.2H8.00002V4.26667ZM8.00002 1.06667H21.3333V3.2H8.00002V1.06667Z" fill="#0904F2"/>
<path id="Vector_4" d="M10.1333 1.59961H9.06665V2.66628H10.1333V1.59961Z" fill="#0904F2"/>
<path id="Vector_5" d="M12.2666 1.59961H11.2V2.66628H12.2666V1.59961Z" fill="#0904F2"/>
</g>
</g>
<defs>
<clipPath id="clip0_2038_3186">
<rect width="24.5333" height="24" fill="white"/>
</clipPath>
</defs>
</svg>
