<svg width="26" height="25" viewBox="0 0 26 25" fill="none" xmlns="http://www.w3.org/2000/svg">
<g id="Group">
<path id="Vector" d="M25.0571 9.37254V8.84385C25.0571 8.63237 24.9527 8.47376 24.7439 8.36802L20.3589 6.35899V0.913458C20.3589 0.596243 20.1501 0.384766 19.8369 0.384766H5.22023C4.90701 0.384766 4.6982 0.596243 4.6982 0.913458V6.35899L0.313214 8.31515C0.104405 8.47376 0 8.63237 0 8.84385V9.37254C0 9.58402 0.104405 9.79549 0.313214 9.84836L3.13214 11.0644L0.261011 13.1791C0.104405 13.2849 0 13.4435 0 13.6021V14.1308C0 14.3423 0.104405 14.5537 0.313214 14.6066L3.65416 16.0869V20.4751C3.65416 20.6866 3.75856 20.898 3.96737 20.9509L12.3197 24.6518C12.4763 24.7046 12.5807 24.7046 12.7374 24.6518L21.0897 20.9509C21.2985 20.8452 21.4029 20.6866 21.4029 20.4751V16.0869L24.7439 14.6066C24.9527 14.5009 25.0571 14.3423 25.0571 14.1308V13.6021C25.0571 13.4435 24.9527 13.2849 24.8483 13.1791L21.9772 11.0644L24.7961 9.84836C24.9005 9.74262 25.0571 9.58402 25.0571 9.37254ZM5.74225 1.44215H19.3148V3.55692H5.74225V1.44215ZM1.25285 9.10819L4.6982 7.52212V10.5885L4.38499 10.4299L1.25285 9.10819ZM1.14845 13.8136L4.28059 11.5402L11.9543 14.9767L8.82218 17.2501L1.14845 13.8136ZM12.0065 23.3829L4.6982 20.105V16.5099L8.66558 18.2546C8.71778 18.3603 8.82219 18.3603 8.87439 18.3603C8.97879 18.3603 9.0832 18.3074 9.1876 18.2546L12.0065 16.1927V23.3829ZM12.5285 14.0779L5.74225 11.0644V4.61431H19.3148V11.0644L12.5285 14.0779ZM20.3589 20.105L13.0506 23.33V16.1927L15.8695 18.2546C15.9739 18.3074 16.0783 18.3603 16.1827 18.3603C16.2349 18.3603 16.3393 18.3603 16.3915 18.3074L20.3589 16.5628V20.105ZM23.9086 13.8136L16.2349 17.2501L13.1028 14.9767L20.7765 11.5402L23.9086 13.8136ZM20.6721 10.4828L20.3589 10.5885V7.52212L23.8564 9.10819L20.6721 10.4828Z" fill="#0904F2"/>
<path id="Vector_2" d="M7.83042 1.9707H6.78638V3.02809H7.83042V1.9707Z" fill="#0904F2"/>
<path id="Vector_3" d="M9.91831 1.9707H8.87427V3.02809H9.91831V1.9707Z" fill="#0904F2"/>
</g>
</svg>
