<svg width="32" height="34" viewBox="0 0 32 34" fill="none" xmlns="http://www.w3.org/2000/svg">
<g id="Approved_PersonCheck2 1" clip-path="url(#clip0_2034_5321)">
<g id="Group">
<path id="Vector" d="M7.9087 22.9135C7.98261 22.9135 8.05653 22.9135 8.13044 22.9135C10.2 22.9135 11.8261 21.2874 11.8261 19.2178C11.8261 19.1439 11.8261 19.07 11.8261 18.9961V17.9613C11.8261 15.8917 10.2 14.2656 8.13044 14.2656C6.06088 14.2656 4.43479 15.8917 4.43479 17.9613V18.9961C4.28696 21.0656 5.83914 22.7656 7.9087 22.9135ZM5.91305 17.9613C5.91305 16.7048 6.87392 15.7439 8.13044 15.7439C9.38696 15.7439 10.3478 16.7048 10.3478 17.9613V18.9961C10.3478 20.2526 9.38696 21.2135 8.13044 21.2135C6.87392 21.2135 5.91305 20.2526 5.91305 18.9961V17.9613Z" fill="#0904F2"/>
<path id="Vector_2" d="M16.9261 30.2306L16.8522 29.5654H12.1217L6.94783 23.6523H5.17391C3.32609 23.6523 2.06957 24.835 1.47826 27.2002L0 33.1132L1.40435 33.4828L2.88261 27.5697C3.4 25.4263 4.36087 25.2045 5.1 25.2045H6.28261L11.4565 31.1176H15.5217C15.5217 31.4871 15.3739 31.8567 15.0783 32.2263C14.7826 32.3741 14.413 32.5219 14.0435 32.5219H9.90435L6.43043 28.3828L5.32174 29.3436L7.98261 32.5958H6.65217V34.0741H30.3043V32.5958H16.5565C16.9261 31.7828 17 31.0436 16.9261 30.2306Z" fill="#0904F2"/>
<path id="Vector_3" d="M17.739 30.3043V31.7825H24.3912C24.6869 31.7825 24.9086 31.6347 25.0564 31.413L29.4912 23.2825C29.639 23.0608 29.639 22.7651 29.4912 22.5434C29.3434 22.3217 29.1216 22.1738 28.826 22.1738H15.5216C15.226 22.1738 15.0043 22.3217 14.8564 22.5434L11.8999 27.7173L13.1564 28.4564L15.8912 23.6521H27.4956L23.8738 30.3043H17.739Z" fill="#0904F2"/>
<path id="Vector_4" d="M28.087 0H14.7827C13.1566 0 11.8262 1.33043 11.8262 2.95652V12.5652C11.8262 14.1913 13.1566 15.5217 14.7827 15.5217H15.5218V18.4783C15.5218 19.1435 15.9653 19.6609 16.5566 19.8826C16.7044 19.9565 16.8523 19.9565 17.0001 19.9565C17.4436 19.9565 17.887 19.7348 18.1827 19.3652L21.0653 15.5217H27.3479C29.4175 15.5217 31.0436 13.8957 31.0436 11.8261V2.95652C31.0436 1.33043 29.7131 0 28.087 0ZM29.5653 11.8261C29.5653 13.0826 28.6044 14.0435 27.3479 14.0435H20.6957C20.474 14.0435 20.2523 14.1174 20.1044 14.3391L17.0001 18.4783V14.7826C17.0001 14.3391 16.7044 14.0435 16.261 14.0435H14.7827C13.9697 14.0435 13.3044 13.3783 13.3044 12.5652V2.95652C13.3044 2.14348 13.9697 1.47826 14.7827 1.47826H28.087C28.9001 1.47826 29.5653 2.14348 29.5653 2.95652V11.8261Z" fill="#0904F2"/>
<path id="Vector_5" d="M20.6217 9.97914L18.2565 7.61393L17.2217 8.64871L20.7695 12.1965L26.4608 4.87914L25.2782 3.99219L20.6217 9.97914Z" fill="#0904F2"/>
</g>
</g>
<defs>
<clipPath id="clip0_2034_5321">
<rect width="31.0435" height="34" fill="white"/>
</clipPath>
</defs>
</svg>
