<svg width="26" height="25" viewBox="0 0 26 25" fill="none" xmlns="http://www.w3.org/2000/svg">
<g id="Group">
<path id="Vector" d="M0 0.597656V21.4778H6.71801V20.407H1.11967V4.88076H24.6327V20.407H19.0344V21.4778H25.7524V0.597656H0ZM24.6327 3.80999H1.11967V1.66843H24.6327V3.80999Z" fill="#0904F2"/>
<path id="Vector_2" d="M3.35893 2.20312H2.23926V3.2739H3.35893V2.20312Z" fill="#0904F2"/>
<path id="Vector_3" d="M5.59818 2.20312H4.47852V3.2739H5.59818V2.20312Z" fill="#0904F2"/>
<path id="Vector_4" d="M7.83769 2.20312H6.71802V3.2739H7.83769V2.20312Z" fill="#0904F2"/>
<path id="Vector_5" d="M9.51719 13.4459H10.6369V9.16281C10.6369 8.25265 9.90907 7.55664 8.95736 7.55664H8.39752C7.4458 7.55664 6.71802 8.25265 6.71802 9.16281V13.4459H7.83769V11.8397H9.51719V13.4459ZM7.83769 10.769V9.16281C7.83769 8.84157 8.06162 8.62742 8.39752 8.62742H8.95736C9.29326 8.62742 9.51719 8.84157 9.51719 9.16281V10.769H7.83769Z" fill="#0904F2"/>
<path id="Vector_6" d="M12.8763 11.8397H13.9959C14.9476 11.8397 15.6754 11.1437 15.6754 10.2336V9.16281C15.6754 8.25265 14.9476 7.55664 13.9959 7.55664H11.7566V13.4459H12.8763V11.8397ZM12.8763 8.62742H13.9959C14.3318 8.62742 14.5558 8.84157 14.5558 9.16281V10.2336C14.5558 10.5548 14.3318 10.769 13.9959 10.769H12.8763V8.62742Z" fill="#0904F2"/>
<path id="Vector_7" d="M16.7952 12.3751V13.4459H19.0345V12.3751H18.4747V8.62742H19.0345V7.55664H16.7952V8.62742H17.355V12.3751H16.7952Z" fill="#0904F2"/>
<path id="Vector_8" d="M11.1967 22.8689V16.123H10.077V22.8689L8.78938 21.6375L8.00562 22.3871L10.6368 24.9034L13.2681 22.3871L12.4843 21.6375L11.1967 22.8689Z" fill="#0904F2"/>
<path id="Vector_9" d="M13.0442 17.8913L13.828 18.6409L15.1156 17.4095V24.1554H16.2352V17.4095L17.5229 18.6409L18.3066 17.8913L15.6754 15.375L13.0442 17.8913Z" fill="#0904F2"/>
</g>
</svg>
