<svg width="23" height="26" viewBox="0 0 23 26" fill="none" xmlns="http://www.w3.org/2000/svg">
<g id="Group">
<path id="Vector" d="M14 21.0817H1V4.87728H14V5.89006H15V2.85173C15 1.73767 14.1 0.826172 13 0.826172H2C0.9 0.826172 0 1.73767 0 2.85173V23.1073C0 24.2213 0.9 25.1328 2 25.1328H13C14.1 25.1328 15 24.2213 15 23.1073V20.0689H14V21.0817ZM1 2.85173C1 2.2947 1.45 1.83895 2 1.83895H13C13.55 1.83895 14 2.2947 14 2.85173V3.8645H1V2.85173ZM14 23.1073C14 23.6643 13.55 24.12 13 24.12H2C1.45 24.12 1 23.6643 1 23.1073V22.0945H14V23.1073Z" fill="#0904F2"/>
<path id="Vector_2" d="M8.5 22.6016H6.5V23.6143H8.5V22.6016Z" fill="#0904F2"/>
<path id="Vector_3" d="M10 2.3457H7V3.35848H10V2.3457Z" fill="#0904F2"/>
<path id="Vector_4" d="M6 2.3457H5V3.35848H6V2.3457Z" fill="#0904F2"/>
<path id="Vector_5" d="M7 6.39648V19.5626H22.5V6.39648H7ZM21.5 18.5498H8V10.4476H21.5V18.5498ZM21.5 9.43481H8V7.40926H21.5V9.43481Z" fill="#0904F2"/>
<path id="Vector_6" d="M10 7.91602H9V8.92879H10V7.91602Z" fill="#0904F2"/>
<path id="Vector_7" d="M12 7.91602H11V8.92879H12V7.91602Z" fill="#0904F2"/>
<path id="Vector_8" d="M14 7.91602H13V8.92879H14V7.91602Z" fill="#0904F2"/>
<path id="Vector_9" d="M6 7.91602H5V18.5502H6V7.91602Z" fill="#0904F2"/>
<path id="Vector_10" d="M4 9.43359H3V17.0294H4V9.43359Z" fill="#0904F2"/>
</g>
</svg>
