<svg width="26" height="25" viewBox="0 0 26 25" fill="none" xmlns="http://www.w3.org/2000/svg">
<g id="Group">
<path id="Vector" d="M24 2.71094H21.913V3.76775H24V17.5063H1.04348V3.76775H3.13043V2.71094H1.04348C0.469565 2.71094 0 3.1865 0 3.76775V20.6767C0 21.258 0.469565 21.7335 1.04348 21.7335H24C24.5739 21.7335 25.0435 21.258 25.0435 20.6767V3.76775C25.0435 3.1865 24.5739 2.71094 24 2.71094ZM24 20.6767H1.04348V18.5631H24V20.6767Z" fill="#0904F2"/>
<path id="Vector_2" d="M15.6522 22.2617H14.6088V23.8469H10.9566V22.2617H9.91312V23.8469H8.3479V24.9037H17.2175V23.8469H15.6522V22.2617Z" fill="#0904F2"/>
<path id="Vector_3" d="M13.5652 19.0918H12V20.1486H13.5652V19.0918Z" fill="#0904F2"/>
<path id="Vector_4" d="M5.21731 4.8249H19.826V16.4498H20.8695V0.597656H4.17383V16.4498H5.21731V4.8249ZM5.21731 1.65447H19.826V3.76809H5.21731V1.65447Z" fill="#0904F2"/>
<path id="Vector_5" d="M7.30446 2.18359H6.26099V3.2404H7.30446V2.18359Z" fill="#0904F2"/>
<path id="Vector_6" d="M9.39138 2.18359H8.3479V3.2404H9.39138V2.18359Z" fill="#0904F2"/>
<path id="Vector_7" d="M11.4783 2.18359H10.4348V3.2404H11.4783V2.18359Z" fill="#0904F2"/>
</g>
</svg>
