<svg width="24" height="34" viewBox="0 0 24 34" fill="none" xmlns="http://www.w3.org/2000/svg">
<g id="Security_Fingerprint 1" clip-path="url(#clip0_2034_5337)">
<g id="Group">
<path id="Vector" d="M13.8354 23.9176L12.5844 23.1816C10.2294 26.8613 6.40254 29.3635 2.06055 30.0258L2.28133 31.4977C7.06488 30.7617 11.3333 28.0388 13.8354 23.9176Z" fill="#0904F2"/>
<path id="Vector_2" d="M14.645 22.3724C15.6753 20.2382 16.1905 17.8096 16.1905 15.4546C16.1905 13.0261 14.2035 11.0391 11.7749 11.0391C10.3766 11.0391 9.05196 11.7014 8.24243 12.8053L9.41992 13.6884C10.0087 12.9525 10.8182 12.5109 11.7749 12.5109C13.3939 12.5109 14.7186 13.8356 14.7186 15.4546C14.7186 17.6624 14.2035 19.7966 13.3204 21.7837L14.645 22.3724Z" fill="#0904F2"/>
<path id="Vector_3" d="M20.0173 9.27179C21.342 11.038 22.0779 13.2458 22.0779 15.4536V22.077H23.5498V15.4536C23.5498 12.8778 22.7403 10.4493 21.1948 8.38867L20.0173 9.27179Z" fill="#0904F2"/>
<path id="Vector_4" d="M19.7965 6.8445C15.3073 2.72328 8.46316 2.64969 3.90039 6.69731L4.8571 7.80121C8.83113 4.26874 14.8658 4.34233 18.7662 7.94839L19.7965 6.8445Z" fill="#0904F2"/>
<path id="Vector_5" d="M1.47186 15.4536C1.47186 13.2458 2.20779 11.038 3.53247 9.27179L2.35498 8.38867C0.809524 10.4493 0 12.8778 0 15.4536V16.1895H1.47186V15.4536Z" fill="#0904F2"/>
<path id="Vector_6" d="M8.83117 15.4547V14.7188H7.35931V15.4547C7.35931 19.5023 4.04762 22.814 0 22.814V24.2858C4.85714 24.2858 8.83117 20.3118 8.83117 15.4547Z" fill="#0904F2"/>
<path id="Vector_7" d="M19.87 21.3422V15.4548C19.87 13.6886 19.2813 11.9959 18.251 10.5977L17.0735 11.4808C17.9566 12.6583 18.3982 14.0565 18.3982 15.4548V21.3422C18.3982 24.2124 20.6795 26.4938 23.5497 26.4938V25.0219C21.4891 25.0219 19.87 23.4029 19.87 21.3422Z" fill="#0904F2"/>
<path id="Vector_8" d="M11.7748 7.35938C10.5973 7.35938 9.49344 7.65375 8.46313 8.1689L9.19907 9.41998C10.0086 8.97842 10.8917 8.75764 11.7748 8.75764C13.1731 8.75764 14.5714 9.1992 15.7488 10.0823L16.632 8.90483C15.2337 7.94812 13.5411 7.35938 11.7748 7.35938Z" fill="#0904F2"/>
<path id="Vector_9" d="M5.15152 15.4538C5.15152 13.6875 5.88745 12.0685 7.13853 10.8174L6.10823 9.78711C4.56277 11.259 3.67965 13.3196 3.67965 15.4538C3.67965 17.5144 2.06061 19.1334 0 19.1334V20.6053C2.87013 20.6053 5.15152 18.3239 5.15152 15.4538Z" fill="#0904F2"/>
<path id="Vector_10" d="M17.0736 25.168L15.8225 25.9775C17.5152 28.5532 19.5022 30.0251 21.8571 30.5403L22.1515 29.0684C20.2381 28.7004 18.619 27.4494 17.0736 25.168Z" fill="#0904F2"/>
<path id="Vector_11" d="M11.4805 29.8052C9.78785 31.1299 7.87443 32.0866 5.74023 32.5281L6.03461 34C8.38958 33.4849 10.5238 32.4545 12.3636 30.9827C13.2467 30.3203 14.4242 30.3939 15.3073 31.1299C16.3376 32.0866 17.5887 32.8961 18.8398 33.4849L19.5021 32.1602C18.3247 31.5714 17.2943 30.8355 16.3376 30.026C14.9394 28.8485 12.9524 28.7749 11.4805 29.8052Z" fill="#0904F2"/>
<path id="Vector_12" d="M11.039 15.4547C11.039 18.2512 9.93515 20.9742 8.02173 23.0348L9.12562 24.0651C11.3334 21.7101 12.5845 18.6928 12.5845 15.4547V14.7188H11.1126V15.4547H11.039Z" fill="#0904F2"/>
<path id="Vector_13" d="M6.47619 24.4336C4.56277 25.7583 2.28139 26.4942 0 26.4942V27.9661C2.64935 27.9661 5.15152 27.1565 7.28571 25.6111L6.47619 24.4336Z" fill="#0904F2"/>
<path id="Vector_14" d="M11.7748 1.47186C15.896 1.47186 19.7228 3.2381 22.3722 6.329L23.5497 5.37229C20.606 1.98701 16.3376 0 11.7748 0C10.2293 0 8.61029 0.294372 7.13843 0.735931L7.57999 2.20779C8.90466 1.76623 10.3765 1.47186 11.7748 1.47186Z" fill="#0904F2"/>
<path id="Vector_15" d="M5.51948 2.8696L4.78355 1.54492C2.94372 2.50163 1.32468 3.82631 0 5.37176L1.1039 6.32847C2.35498 4.9302 3.82684 3.75271 5.51948 2.8696Z" fill="#0904F2"/>
</g>
</g>
<defs>
<clipPath id="clip0_2034_5337">
<rect width="23.5498" height="34" fill="white"/>
</clipPath>
</defs>
</svg>
