<svg width="25" height="25" viewBox="0 0 25 25" fill="none" xmlns="http://www.w3.org/2000/svg">
<g id="Group">
<path id="Vector" d="M1.06296 6.32639H4.25185V7.94683H3.72036V9.02713H5.84629V7.94683H5.31481V6.32639H11.1611V7.94683H10.6296V9.02713H12.7555V7.94683H12.2241V6.32639H15.4129V10.1074H16.4759V5.24609H12.2241V4.5439C12.2241 2.27528 10.4702 0.43878 8.23795 0.384766C6.00573 0.43878 4.25185 2.27528 4.25185 4.5439V5.24609H0V24.6914H11.1611V23.6111H1.06296V6.32639ZM5.31481 4.59792C5.31481 2.92346 6.59036 1.57309 8.23795 1.46506C9.88554 1.51908 11.1611 2.92346 11.1611 4.5439V5.24609H5.31481V4.59792Z" fill="#0904F2"/>
<path id="Vector_2" d="M11.6926 10.6484V24.6923H24.9796V10.6484H11.6926ZM23.9167 23.612H12.7556V11.7287H23.9167V23.612Z" fill="#0904F2"/>
<path id="Vector_3" d="M14.8813 17.1287C14.8813 19.0732 16.4226 20.6396 18.336 20.6396C20.2493 20.6396 21.7906 19.0732 21.7906 17.1287V14.428H22.3221V13.3477H20.1961V14.428H20.7276V17.1287C20.7276 18.4791 19.6647 19.5594 18.336 19.6134C17.0073 19.5594 15.9443 18.4791 15.9443 17.1287V14.428H16.4758V13.3477H14.3499V14.428H14.8813V17.1287Z" fill="#0904F2"/>
</g>
</svg>
