<svg width="31" height="34" viewBox="0 0 31 34" fill="none" xmlns="http://www.w3.org/2000/svg">
<g id="Communications_PersonHeadset 1" clip-path="url(#clip0_2034_5356)">
<g id="Group">
<path id="Vector" d="M23.12 29.9951C22.5156 29.844 22.1378 29.3151 22.1378 28.7106V27.9551H20.6267V28.7106C20.6267 29.9951 21.4578 31.1284 22.6667 31.4306L30.2223 33.9995L30.6756 32.564L23.12 29.9951Z" fill="#0904F2"/>
<path id="Vector_2" d="M26.6711 19.6444V18.8889H27.4267C28.7111 18.8889 29.6933 17.9067 29.6933 16.6222V13.6C29.6933 12.3156 28.7111 11.3333 27.4267 11.3333V12.8444C27.88 12.8444 28.1822 13.1467 28.1822 13.6V16.6222C28.1822 17.0756 27.88 17.3778 27.4267 17.3778H26.6711V8.31111C26.6711 3.70222 22.9689 0 18.36 0H14.5822C9.97333 0 6.27111 3.70222 6.27111 8.31111V17.3778H5.51556C5.06222 17.3778 4.76 17.0756 4.76 16.6222V13.6C4.76 13.1467 5.06222 12.8444 5.51556 12.8444V11.3333C4.23111 11.3333 3.24889 12.3156 3.24889 13.6V16.6222C3.24889 17.9067 4.23111 18.8889 5.51556 18.8889H6.27111V19.6444C6.27111 21.4578 7.48 23.8 9.29333 25.3867V28.6356C9.29333 29.24 8.91556 29.8444 8.31111 30.0711L0 32.4889L0.453333 34L8.76445 31.5067C9.97333 31.1289 10.8044 29.92 10.8044 28.6356V26.4444C11.2578 26.6711 11.7867 26.8978 12.3156 27.0489L12.6933 25.6133C12.0133 25.4622 11.4089 25.0844 10.8044 24.7067V24.5556H10.6533C8.91556 23.2711 7.78222 21.1556 7.78222 19.6444V8.31111C7.78222 4.53333 10.8044 1.51111 14.5822 1.51111H18.36C22.1378 1.51111 25.16 4.53333 25.16 8.31111V11.2578L24.6311 10.88L24.5556 10.8044C23.5733 10.2 22.5156 9.82222 21.3067 9.82222H14.3556C12.0133 9.82222 10.6533 7.25333 10.6533 7.25333L9.29333 7.93333C9.36889 8.08444 11.0311 11.3333 14.3556 11.3333H21.3067C22.1378 11.3333 22.9689 11.56 23.6489 12.0133L25.0844 13.2222V19.6444C25.0844 21.8356 22.6667 25.2356 19.6444 25.6133C19.3422 24.7067 18.4356 24.1778 17.5289 24.1778H16.0178C14.7333 24.1778 13.7511 25.16 13.7511 26.4444C13.7511 27.7289 14.7333 28.7111 16.0178 28.7111H17.5289C18.5111 28.7111 19.3422 28.1067 19.6444 27.2C23.4978 26.7467 26.6711 22.8178 26.6711 19.6444ZM17.6044 27.2H16.0933C15.64 27.2 15.3378 26.8978 15.3378 26.4444C15.3378 25.9911 15.64 25.6889 16.0933 25.6889H17.6044C18.0578 25.6889 18.36 25.9911 18.36 26.4444C18.36 26.8978 17.9822 27.2 17.6044 27.2Z" fill="#0904F2"/>
</g>
</g>
<defs>
<clipPath id="clip0_2034_5356">
<rect width="30.6756" height="34" fill="white"/>
</clipPath>
</defs>
</svg>
