<svg width="35" height="34" viewBox="0 0 35 34" fill="none" xmlns="http://www.w3.org/2000/svg">
<g id="Awards_AwardStar 2" clip-path="url(#clip0_2034_5304)">
<g id="Group">
<path id="Vector" d="M19.8935 10.5627L17.3616 4.70312L14.8297 10.5627L9.04248 11.1414L13.3106 15.5542L12.2255 21.4138L17.3616 18.6648L22.5701 21.4138L21.485 15.5542L25.7531 11.1414L19.8935 10.5627ZM20.5446 18.6648L17.3616 17.001L14.1787 18.6648L14.8297 15.0478L12.1531 12.2989L15.8425 11.9372L17.3616 8.32015L18.8808 11.9372L22.5701 12.2989L19.8935 15.1201L20.5446 18.6648Z" fill="#0904F2"/>
<path id="Vector_2" d="M5.57015 19.9662C4.77441 18.23 4.34036 16.3491 4.34036 14.4683C4.34036 7.30659 10.1999 1.44702 17.3616 1.44702C24.5233 1.44702 30.3829 7.30659 30.3829 14.4683C30.3829 16.3491 29.9489 18.23 29.1531 19.9662L30.4553 20.5449C33.7829 13.3108 30.6723 4.70234 23.4382 1.30234C16.2042 -2.09766 7.59568 1.15766 4.19568 8.3917C3.3276 10.2725 2.89355 12.3704 2.89355 14.4683C2.89355 16.5662 3.3276 18.664 4.26802 20.5449L5.57015 19.9662Z" fill="#0904F2"/>
<path id="Vector_3" d="M4.91912 26.4764C5.13615 26.187 5.13615 25.8253 4.91912 25.536L2.24253 22.4253H7.95742V23.1487H9.40423V21.7019C9.40423 21.2679 9.11487 20.9785 8.68083 20.9785H0.72338C0.289338 20.9785 -2.41324e-05 21.2679 -2.41324e-05 21.7019C-2.41324e-05 21.8466 0.0723163 22.0636 0.144657 22.136L3.39998 26.0423L0.144657 29.9487C-0.144705 30.2381 -0.0723645 30.7445 0.216997 30.9615C0.361678 31.0338 0.578699 31.1062 0.72338 31.1062H5.78721V29.6594H2.24253L4.91912 26.4764Z" fill="#0904F2"/>
<path id="Vector_4" d="M34.5787 29.9487L31.3233 26.0423L34.5787 22.136C34.868 21.8466 34.7957 21.3402 34.5063 21.1232C34.3616 21.0509 34.1446 20.9785 33.9999 20.9785H26.0425C25.6085 20.9785 25.3191 21.2679 25.3191 21.7019V23.1487H26.7659V22.4253H32.4808L29.8765 25.6083C29.6595 25.8977 29.6595 26.2594 29.8765 26.5487L32.4808 29.7317H28.9361V31.1785H33.9999C34.434 31.1785 34.7233 30.8892 34.7233 30.4551C34.7233 30.2381 34.651 30.0211 34.5787 29.9487Z" fill="#0904F2"/>
<path id="Vector_5" d="M27.4892 23.873H7.2339C6.79986 23.873 6.5105 24.1624 6.5105 24.5965V33.2773C6.5105 33.7113 6.79986 34.0007 7.2339 34.0007H27.4892C27.9233 34.0007 28.2126 33.7113 28.2126 33.2773V24.5965C28.2126 24.1624 27.9233 23.873 27.4892 23.873ZM26.7658 32.5539H7.95731V25.3199H26.7658V32.5539Z" fill="#0904F2"/>
</g>
</g>
<defs>
<clipPath id="clip0_2034_5304">
<rect width="34.7234" height="34" fill="white"/>
</clipPath>
</defs>
</svg>
