<svg width="33" height="35" viewBox="0 0 33 35" fill="none" xmlns="http://www.w3.org/2000/svg">
<g id="Group">
<path id="Vector" d="M32.1388 24.4333L29.6488 25.1336C33.3059 17.3525 30.0378 8.09285 22.2567 4.4357C21.4007 4.04664 20.5448 3.73539 19.6889 3.50195L19.2998 4.98038C26.6919 7.00349 31.1272 14.629 29.1041 22.099C28.8707 22.7993 28.6372 23.4996 28.326 24.1999L27.7035 21.8655L26.2251 22.2546L27.5479 27.2346L32.5278 25.9118L32.1388 24.4333Z" fill="#0904F2"/>
<path id="Vector_2" d="M1.55884 18.4414C1.55884 10.8158 7.62816 4.5909 15.2537 4.43527L13.464 6.22495L14.5534 7.31431L18.2106 3.65716L14.5534 0L13.464 1.08937L15.2537 2.87904C6.69442 3.03466 -0.153023 10.1934 0.00260103 18.7527C0.00260103 20.6201 0.39166 22.4876 1.16978 24.2773L2.57039 23.6548C1.87009 22.0208 1.55884 20.2311 1.55884 18.4414Z" fill="#0904F2"/>
<path id="Vector_3" d="M15.565 32.4481C11.2853 32.4481 7.23913 30.5028 4.59353 27.1569L7.31695 27.4681L7.47257 25.9119L2.33699 25.3672L1.87012 30.5806L3.42635 30.7362L3.65979 28.4019C9.18443 35.0159 18.9887 35.8718 25.6027 30.425C26.1474 29.9581 26.6921 29.4134 27.2368 28.8687L26.0696 27.8572C23.3462 30.7362 19.5334 32.4481 15.565 32.4481Z" fill="#0904F2"/>
<path id="Vector_4" d="M5.44946 18.4417C5.44946 24.0442 9.96255 28.5572 15.565 28.5572C21.1675 28.5572 25.6805 24.0442 25.6805 18.4417C25.6805 12.8393 21.1675 8.32617 15.565 8.32617C9.96255 8.32617 5.44946 12.8393 5.44946 18.4417ZM19.4556 26.0673C17.0434 27.3123 14.0866 27.3123 11.6744 26.0673V23.8885C11.6744 22.3323 14.0088 21.5542 15.565 21.5542C17.1212 21.5542 19.4556 22.3323 19.4556 23.8885V26.0673ZM13.2306 17.8192V16.8077C13.2306 15.6405 14.1644 14.6289 15.3316 14.5511C15.4094 14.5511 15.4872 14.5511 15.565 14.5511C16.7322 14.4733 17.8215 15.3292 17.8994 16.5742C17.8994 16.652 17.8994 16.7299 17.8994 16.8077V17.8192C17.8994 19.0642 16.9656 19.9979 15.7206 20.0758C15.6428 20.0758 15.565 20.0758 15.565 20.0758C14.3978 20.1536 13.3085 19.2198 13.2306 18.0527C13.2306 17.897 13.2306 17.8192 13.2306 17.8192ZM15.565 9.88241C20.3115 9.88241 24.1243 13.6952 24.1243 18.4417C24.1243 21.0095 22.9571 23.4217 21.0118 25.0557V23.8885C21.0118 22.2545 19.8447 21.0873 18.2884 20.5426C19.0665 19.8423 19.4556 18.8308 19.4556 17.8192V16.8077C19.4556 14.7067 17.8215 13.0727 15.7206 12.9949C15.6428 12.9949 15.6428 12.9949 15.565 12.9949C13.4641 12.9171 11.7522 14.5511 11.6744 16.5742C11.6744 16.652 11.6744 16.652 11.6744 16.7299V17.7414C11.6744 18.753 12.0635 19.7645 12.8416 20.4648C11.2854 21.0873 10.1182 22.1767 10.1182 23.8107V24.9779C6.46102 21.9432 5.99415 16.5742 8.951 12.9171C10.585 11.0496 12.9972 9.88241 15.565 9.88241Z" fill="#0904F2"/>
</g>
</svg>
