<svg width="34" height="34" viewBox="0 0 34 34" fill="none" xmlns="http://www.w3.org/2000/svg">
<g id="Group 1746">
<g id="Teamwork">
<path id="Vector" d="M16.92 2.73242C16.3997 2.73187 15.891 2.88565 15.4581 3.17431C15.0253 3.46296 14.6878 3.87352 14.4884 4.35403C14.2889 4.83454 14.2365 5.36342 14.3377 5.87374C14.4389 6.38406 14.6892 6.85289 15.0569 7.22092C15.4247 7.58894 15.8933 7.83962 16.4036 7.94124C16.9138 8.04286 17.4427 7.99084 17.9234 7.79178C18.4041 7.59272 18.8149 7.25555 19.1039 6.82294C19.3929 6.39033 19.5471 5.88172 19.5469 5.36146C19.546 4.66484 19.269 3.99699 18.7766 3.50421C18.2842 3.01143 17.6166 2.7339 16.92 2.73242ZM16.92 7.15437C16.5653 7.15492 16.2183 7.05023 15.9231 6.85356C15.6279 6.65689 15.3977 6.37707 15.2616 6.04951C15.1254 5.72195 15.0895 5.36137 15.1584 5.01339C15.2273 4.66542 15.3978 4.3457 15.6484 4.09467C15.8991 3.84365 16.2185 3.67262 16.5664 3.60321C16.9142 3.53381 17.2749 3.56915 17.6027 3.70477C17.9304 3.84038 18.2106 4.07018 18.4077 4.36509C18.6049 4.65999 18.7101 5.00674 18.7101 5.36146C18.7097 5.83637 18.5211 6.29177 18.1855 6.62784C17.85 6.96392 17.3949 7.15326 16.92 7.15437Z" fill="white"/>
<path id="Vector_2" d="M30.7465 9.2236V4.94252H22.2666C22.2562 4.80933 22.2415 4.67613 22.2213 4.54433L22.1836 4.29747L21.1488 3.92926C21.0852 3.74327 21.0098 3.56158 20.9228 3.38532L21.3942 2.39368L21.2464 2.19215C20.9216 1.7503 20.5312 1.36064 20.0888 1.03662L19.8872 0.890179L18.8956 1.36159C18.7193 1.27422 18.5373 1.19874 18.351 1.13565L17.9834 0.0993764L17.7338 0.0617191C17.1925 -0.020573 16.6419 -0.020573 16.1006 0.0617191L15.8537 0.0993764L15.4876 1.13425C15.3015 1.19747 15.1198 1.27295 14.9437 1.3602L13.9513 0.890179L13.7505 1.03802C13.3086 1.36198 12.9189 1.75167 12.595 2.19354L12.4471 2.39508L12.9178 3.38672C12.8308 3.56285 12.7556 3.74456 12.6926 3.93066L11.6577 4.29886L11.6194 4.54573C11.5998 4.67776 11.5847 4.81049 11.574 4.94392H2.85289V9.24382H3.68972V5.77935H11.574C11.5845 5.91324 11.5991 6.04644 11.6194 6.17754L11.6577 6.4251L12.6926 6.79331C12.7556 6.9794 12.8308 7.16111 12.9178 7.33725L12.4471 8.32889L12.595 8.53042C12.9189 8.9723 13.3086 9.36198 13.7505 9.68595L13.952 9.83379L14.9444 9.36237C15.1205 9.44962 15.3022 9.5251 15.4883 9.58832L15.8565 10.6232L16.1034 10.6609C16.6446 10.7436 17.1953 10.7436 17.7366 10.6609L17.9841 10.6232L18.3517 9.58832C18.538 9.52522 18.72 9.44974 18.8963 9.36237L19.8879 9.83379L20.0895 9.68595C20.5313 9.36198 20.921 8.9723 21.245 8.53042L21.3928 8.32889L20.9214 7.33725C21.0084 7.16099 21.0838 6.9793 21.1474 6.79331L22.1822 6.4251L22.2199 6.17754C22.2401 6.04644 22.2555 5.91324 22.2652 5.77935H29.9097V9.2236H30.7465ZM21.4228 5.80655L20.466 6.14686L20.4068 6.35606C20.3303 6.62326 20.2232 6.88068 20.0874 7.12316L19.9821 7.31214L20.4186 8.22917C20.2303 8.45827 20.0201 8.66847 19.791 8.85679L18.8705 8.42164L18.6822 8.52624C18.4399 8.66238 18.1824 8.76958 17.9151 8.84563L17.7059 8.9049L17.3656 9.86168C17.0692 9.89027 16.7708 9.89027 16.4744 9.86168L16.1341 8.90979L15.9249 8.85051C15.6575 8.77446 15.4001 8.66727 15.1578 8.53112L14.9695 8.42652L14.0524 8.86237C13.823 8.67441 13.6128 8.46417 13.4248 8.23475L13.8607 7.31772L13.7554 7.12874C13.6199 6.88612 13.5127 6.62873 13.436 6.36164L13.3774 6.15244L12.4164 5.80655C12.402 5.65871 12.3948 5.51017 12.3948 5.36094C12.3948 5.2124 12.4018 5.06316 12.4164 4.91602L13.3732 4.57571L13.4318 4.3665C13.5084 4.09937 13.6156 3.84198 13.7512 3.59941L13.8565 3.41043L13.4206 2.4941C13.6088 2.26481 13.819 2.05459 14.0483 1.86648L14.966 2.30233L15.1543 2.19703C15.3968 2.06151 15.6542 1.95457 15.9214 1.87833L16.1306 1.81906L16.4702 0.862285C16.7666 0.833695 17.065 0.833695 17.3614 0.862285L17.7017 1.81906L17.9109 1.87833C18.1781 1.95452 18.4355 2.06147 18.678 2.19703L18.8663 2.30233L19.784 1.86648C20.0133 2.05462 20.2235 2.26483 20.4116 2.4941L19.9751 3.41113L20.0804 3.60011C20.2162 3.84259 20.3234 4.10001 20.3998 4.3672L20.4591 4.57641L21.4158 4.91672C21.4298 5.06456 21.4375 5.2131 21.4375 5.36163C21.4375 5.51017 21.4368 5.65871 21.4228 5.80655Z" fill="white"/>
<path id="Vector_3" d="M27.8197 15.3945H26.9828V16.2014H27.8197V15.3945Z" fill="white"/>
<path id="Vector_4" d="M17.1871 18.627H16.3502V19.7853H17.1871V18.627Z" fill="white"/>
<path id="Vector_5" d="M23.0616 29.5684H20.1188V30.4052H23.0616V29.5684Z" fill="white"/>
<path id="Vector_6" d="M32.9362 19.2541C32.6038 18.9245 32.1779 18.7053 31.7165 18.6264L29.1704 18.1027V17.572C29.5334 17.3068 29.8325 16.9637 30.0459 16.5679C30.2592 16.1722 30.3813 15.7337 30.4034 15.2847C30.6717 15.2215 30.9109 15.0695 31.0823 14.8535C31.2536 14.6375 31.3471 14.37 31.3476 14.0943V13.5657C31.3488 13.0332 31.2418 12.5061 31.0331 12.0162C31.0038 11.9464 30.9717 11.8767 30.9369 11.807C30.6094 11.1459 30.1037 10.5896 29.4769 10.2006C28.8501 9.81159 28.1271 9.60547 27.3894 9.60547C26.6517 9.60547 25.9287 9.81159 25.3019 10.2006C24.6751 10.5896 24.1694 11.1459 23.8419 11.807C23.8071 11.8767 23.7722 11.9464 23.745 12.0162C23.5366 12.5059 23.4296 13.0328 23.4305 13.565V14.0936C23.4312 14.3694 23.5248 14.6369 23.6962 14.8529C23.8677 15.0689 24.107 15.2208 24.3754 15.284C24.3976 15.7354 24.521 16.176 24.7363 16.5734C24.9516 16.9707 25.2535 17.3146 25.6195 17.5797V18.1027L23.0672 18.6257C22.6052 18.7065 22.179 18.9269 21.846 19.2571C21.513 19.5874 21.2891 20.0117 21.2045 20.473L21.2004 20.4981C21.1346 20.8636 21.1015 21.2342 21.1013 21.6055V22.5532L18.9723 22.1146V21.676C19.6741 21.1444 20.1622 20.3789 20.3482 19.5184C20.6542 19.4989 20.9414 19.3635 21.1513 19.1399C21.3611 18.9162 21.4779 18.621 21.4779 18.3144C21.4779 18.0077 21.3611 17.7125 21.1513 17.4889C20.9414 17.2652 20.6542 17.1299 20.3482 17.1104C20.253 16.8563 20.0787 16.6394 19.851 16.4918C19.4737 16.247 19.1536 15.4388 19.0344 15.1348C18.9869 15.0148 18.9104 14.9086 18.8118 14.8254C18.7132 14.7423 18.5955 14.6849 18.4693 14.6584C18.3431 14.6318 18.2123 14.637 18.0885 14.6734C17.9648 14.7098 17.852 14.7763 17.7603 14.867C16.4583 16.1564 14.6292 16.4583 13.9032 16.5281C13.7335 16.5433 13.5715 16.6061 13.4358 16.7092C13.3001 16.8124 13.1963 16.9516 13.1361 17.1111C12.8343 17.1391 12.5541 17.2795 12.3511 17.5045C12.148 17.7295 12.037 18.0226 12.0399 18.3256C12.0429 18.6287 12.1597 18.9195 12.3672 19.1405C12.5746 19.3614 12.8576 19.4963 13.1598 19.5184C13.3496 20.3963 13.8535 21.1748 14.5769 21.7074V22.116L12.5733 22.5267V21.5909C12.573 21.2167 12.5394 20.8433 12.4729 20.4751C12.3893 20.0135 12.1659 19.5887 11.8328 19.2583C11.4998 18.9279 11.0733 18.7078 10.611 18.6278L8.06982 18.1041V17.5734C8.43272 17.3081 8.73172 16.965 8.94492 16.5693C9.15812 16.1735 9.28014 15.7351 9.30205 15.2861C9.57048 15.2229 9.80977 15.071 9.98123 14.855C10.1527 14.639 10.2463 14.3715 10.247 14.0957V13.5671C10.2478 13.0347 10.1408 12.5076 9.93246 12.0176C9.90317 11.9478 9.87039 11.8781 9.83622 11.8084C9.50875 11.1473 9.0031 10.591 8.37629 10.202C7.74949 9.81298 7.02646 9.60686 6.28877 9.60686C5.55107 9.60686 4.82805 9.81298 4.20124 10.202C3.57443 10.591 3.06878 11.1473 2.74131 11.8084C2.70644 11.8781 2.67158 11.9478 2.64438 12.0176C2.4356 12.5072 2.3286 13.0341 2.32987 13.5664V14.095C2.33037 14.3707 2.42384 14.6382 2.59519 14.8542C2.76653 15.0702 3.00572 15.2222 3.27409 15.2854C3.29629 15.7369 3.41968 16.1776 3.63514 16.575C3.8506 16.9723 4.15262 17.3162 4.51887 17.5811V18.1041L1.96655 18.6271C1.50489 18.7076 1.07895 18.9275 0.745967 19.2573C0.412985 19.587 0.188926 20.0108 0.103906 20.4716L0.099722 20.4947C0.0334375 20.8617 6.44228e-05 21.2339 0 21.6069V27.3469H8.6535V31.3853H3.68972V28.296H2.85289V32.2214H8.6535V33.9997H24.8803V27.3462H29.9096V31.3846H26.04V32.2214H30.7465V27.3462H33.6754V21.5909C33.675 21.2167 33.6414 20.8433 33.575 20.4751C33.4929 20.012 33.2698 19.5856 32.9362 19.2541ZM20.6369 18.3154C20.6367 18.384 20.6174 18.4512 20.5812 18.5094C20.545 18.5677 20.4933 18.6147 20.4319 18.6453V17.9849C20.4932 18.0156 20.5449 18.0628 20.5811 18.1212C20.6173 18.1795 20.6366 18.2468 20.6369 18.3154ZM12.8746 18.3154C12.8749 18.2468 12.8942 18.1797 12.9302 18.1214C12.9663 18.063 13.0177 18.0158 13.0789 17.9849V18.6453C13.0177 18.6146 12.9662 18.5675 12.9301 18.5092C12.894 18.451 12.8748 18.3839 12.8746 18.3154ZM26.1369 19.003L26.7478 19.3984L26.1369 19.8377V19.003ZM27.699 24.434L27.0965 23.927V22.2987L27.699 22.8057V24.434ZM27.0965 25.0184L27.699 25.5254V26.5066H27.0965V25.0184ZM27.699 21.7087L27.0965 21.2011V20.1781L27.3901 19.9688L27.699 20.1913V21.7087ZM28.0289 19.3928L28.6432 19.0072V19.835L28.0289 19.3928ZM24.374 14.0873V14.3544C24.3069 14.2833 24.2695 14.1893 24.2694 14.0915V13.5629C24.2687 13.1434 24.3529 12.728 24.517 12.3418C24.54 12.2888 24.5651 12.2338 24.5937 12.1773C24.8522 11.6561 25.2511 11.2175 25.7455 10.9109C26.2399 10.6042 26.8101 10.4418 27.3918 10.4418C27.9736 10.4418 28.5438 10.6042 29.0382 10.9109C29.5326 11.2175 29.9315 11.6561 30.19 12.1773C30.2172 12.2324 30.243 12.2875 30.2653 12.3398C30.4296 12.7261 30.5138 13.1417 30.5129 13.5615V14.0901C30.5127 14.1877 30.4756 14.2817 30.409 14.353V14.2094C30.4104 14.0229 30.3651 13.839 30.2771 13.6745C30.1892 13.5101 30.0614 13.3703 29.9055 13.2679C29.6265 13.088 29.3797 12.4611 29.2869 12.2254C29.2439 12.1167 29.1746 12.0203 29.0852 11.9449C28.9959 11.8695 28.8892 11.8175 28.7748 11.7934C28.6603 11.7694 28.5417 11.7741 28.4296 11.8071C28.3174 11.8402 28.2152 11.9005 28.1321 11.9827C27.1132 12.9925 25.6767 13.2289 25.1069 13.284C24.9061 13.3023 24.7194 13.3953 24.5837 13.5445C24.448 13.6937 24.3732 13.8884 24.374 14.0901V14.0873ZM25.2109 15.1334V14.1145C26.0024 14.035 27.4424 13.7463 28.5805 12.7107C28.7897 13.208 29.0547 13.7142 29.4515 13.9702C29.4897 13.9971 29.5207 14.033 29.5417 14.0747C29.5628 14.1164 29.5732 14.1627 29.5721 14.2094V15.1383C29.5721 15.7166 29.3424 16.2712 28.9334 16.6802C28.5245 17.0891 27.9698 17.3189 27.3915 17.3189C26.8131 17.3189 26.2585 17.0891 25.8495 16.6802C25.4406 16.2712 25.2109 15.7166 25.2109 15.1383V15.1334ZM27.3915 18.1508C27.7114 18.1524 28.0294 18.1027 28.3336 18.0037V18.2129L27.3831 18.8119L26.4584 18.2136V18.0044C26.7596 18.1036 27.0744 18.1546 27.3915 18.1557V18.1508ZM21.9403 21.6014C21.9404 21.2782 21.9694 20.9557 22.0267 20.6376L22.0309 20.6139C22.0855 20.3213 22.2284 20.0525 22.4404 19.8436C22.6523 19.6347 22.9231 19.4956 23.2164 19.4451L25.3001 19.0211V21.4682L26.2597 20.7778V26.5066H24.8796C24.8754 26.0479 24.8323 25.5904 24.7506 25.139C24.6446 24.5599 24.3637 24.0272 23.9456 23.6128C23.5275 23.1983 22.9924 22.9219 22.4124 22.821L21.9403 22.7234V21.6014ZM16.7575 31.787L16.2547 31.1524V29.5512L17.3056 30.3643V31.1105L16.7575 31.787ZM14.0517 23.0791L14.3935 23.0093V25.8999L15.4179 25.1628V30.0966L14.0517 28.3734V23.0791ZM18.3293 23.0979V24.2667L17.4618 23.639L18.3293 23.0979ZM16.2512 26.7339L17.3021 27.5477V29.3044L16.2512 28.4905V26.7339ZM17.3021 26.4891L16.2512 25.6753V24.5595L16.7763 24.1816L17.3021 24.5595V26.4891ZM15.2268 24.2667V23.1007L16.0797 23.653L15.2268 24.2667ZM18.139 25.1628L19.1627 25.8999V23.0086L19.5114 23.0784V28.3699L18.1397 30.0701L18.139 25.1628ZM18.139 22.2283L16.7575 23.0944L15.4151 22.229V22.1732C16.2902 22.5166 17.2639 22.5106 18.1348 22.1565L18.139 22.2283ZM13.9172 18.7478V17.4339C13.9179 17.4163 13.925 17.3995 13.9372 17.3867C13.9494 17.3739 13.9658 17.3659 13.9834 17.3642C14.982 17.2687 16.8558 16.9012 18.2875 15.5253C18.549 16.1759 18.8865 16.8677 19.3963 17.1989C19.4592 17.2421 19.5104 17.3001 19.5453 17.3679C19.5802 17.4357 19.5978 17.5111 19.5964 17.5874V18.752C19.5964 19.5051 19.2973 20.2273 18.7647 20.7599C18.2322 21.2924 17.5099 21.5916 16.7568 21.5916C16.0037 21.5916 15.2814 21.2924 14.7489 20.7599C14.2163 20.2273 13.9172 19.5051 13.9172 18.752V18.7478ZM10.4666 19.45C10.7608 19.5 11.0325 19.6394 11.2446 19.8493C11.4567 20.0592 11.599 20.3293 11.6521 20.623C11.7092 20.9424 11.7374 21.2664 11.7365 21.5909V22.6983L11.1228 22.8238C10.5429 22.9251 10.0079 23.2015 9.58974 23.6159C9.17159 24.0303 8.89037 24.5628 8.78391 25.1418L8.77973 25.1676C8.70024 25.6106 8.65755 26.0594 8.65211 26.5094H7.43452V20.7861L8.38921 21.471V19.0211L10.4534 19.4465L10.4666 19.45ZM5.04189 19.0072L5.64929 19.4005L5.04189 19.8377V19.0072ZM7.54819 19.0072V19.8391L6.93034 19.3942L7.54819 19.0072ZM5.99518 22.2987L6.5977 22.8057V24.4354L5.99518 23.9277V22.2987ZM6.29714 19.9668L6.59839 20.1836V21.7087L5.99588 21.2011V20.1836L6.29714 19.9668ZM5.99518 25.0184L6.5977 25.5254V26.5094H5.99518V25.0184ZM3.27549 14.0901V14.3572C3.20888 14.2858 3.17176 14.1919 3.17158 14.0943V13.5657C3.17055 13.1461 3.25477 12.7307 3.41914 12.3446C3.44146 12.2916 3.46726 12.2365 3.49515 12.1801C3.75348 11.6587 4.15233 11.2198 4.64674 10.913C5.14114 10.6062 5.71144 10.4437 6.2933 10.4437C6.87516 10.4437 7.44546 10.6062 7.93986 10.913C8.43427 11.2198 8.83312 11.6587 9.09145 12.1801C9.11934 12.2352 9.14444 12.2902 9.16746 12.3425C9.33144 12.729 9.41564 13.1445 9.41502 13.5643V14.0929C9.41484 14.1905 9.37772 14.2845 9.31111 14.3558V14.2094C9.31256 14.0229 9.26723 13.839 9.17927 13.6745C9.09132 13.5101 8.96354 13.3703 8.80762 13.2679C8.52868 13.0873 8.28181 12.4611 8.18837 12.2254C8.14532 12.1168 8.07605 12.0206 7.98673 11.9453C7.89741 11.87 7.79082 11.818 7.67651 11.794C7.56219 11.7699 7.4437 11.7746 7.33162 11.8075C7.21955 11.8405 7.11738 11.9006 7.03424 11.9827C6.0147 12.9925 4.57885 13.2289 4.00841 13.284C3.8071 13.3018 3.61981 13.3945 3.48357 13.5438C3.34734 13.6931 3.27208 13.888 3.2727 14.0901H3.27549ZM4.11231 15.1362V14.1145C4.90382 14.0357 6.34386 13.747 7.48264 12.7107C7.69185 13.208 7.95684 13.7142 8.35294 13.9702C8.39123 13.997 8.42232 14.0329 8.44348 14.0746C8.46464 14.1163 8.47522 14.1626 8.47428 14.2094V15.1383C8.46406 15.7099 8.22979 16.2547 7.82188 16.6554C7.41398 17.0561 6.86507 17.2806 6.2933 17.2806C5.72153 17.2806 5.17262 17.0561 4.76471 16.6554C4.35681 16.2547 4.12254 15.7099 4.11231 15.1383V15.1362ZM6.29295 18.1536C6.61402 18.1537 6.93303 18.1024 7.23787 18.0016V18.2108L6.28249 18.8119L5.35779 18.2136V18.0044C5.65869 18.1036 5.97335 18.1546 6.29016 18.1557L6.29295 18.1536ZM0.838921 21.6062C0.840015 21.2839 0.869653 20.9624 0.927485 20.6453V20.6251C0.98126 20.3317 1.12378 20.0619 1.33579 19.8522C1.5478 19.6424 1.81908 19.5028 2.11299 19.4521L4.20506 19.0211V21.4696L5.15696 20.7841V26.508H0.838921V21.6062ZM9.49033 26.6028C9.49025 26.1714 9.52876 25.7408 9.6054 25.3162L9.60958 25.2911C9.68517 24.8799 9.88512 24.5018 10.1824 24.2079C10.4797 23.9139 10.8601 23.7183 11.2721 23.6474L13.2114 23.2506V28.6649L15.4144 31.4439V31.4808H15.4437L16.3349 32.605V33.1628H9.49033V26.6028ZM24.0435 33.1628H17.1717V32.605L20.3475 28.6698V23.2527L22.2506 23.6446H22.2645C22.6767 23.7152 23.0572 23.9108 23.3545 24.2047C23.6519 24.4987 23.8517 24.877 23.927 25.2883C24.0045 25.7147 24.0434 26.1471 24.0435 26.5805V33.1628ZM32.8399 26.5094H28.5359V20.791L29.4801 21.471V19.0211L31.5512 19.4479H31.5659C31.8601 19.4978 32.1318 19.6372 32.3439 19.8471C32.5561 20.057 32.6984 20.3272 32.7514 20.6209C32.8094 20.9403 32.8385 21.2642 32.8385 21.5888L32.8399 26.5094Z" fill="white"/>
<path id="Vector_7" d="M32.19 23.7676H29.9459V24.6044H32.19V23.7676Z" fill="white"/>
<path id="Vector_8" d="M6.71903 15.3945H5.8822V16.2014H6.71903V15.3945Z" fill="white"/>
<path id="Vector_9" d="M21.3914 16.9713V16.4637C21.3925 15.8406 21.2673 15.2238 21.0232 14.6505C20.9891 14.571 20.9535 14.4887 20.9102 14.4078C20.5266 13.6338 19.9344 12.9823 19.2004 12.5269C18.4663 12.0714 17.6196 11.8301 16.7557 11.8301C15.8919 11.8301 15.0452 12.0714 14.3111 12.5269C13.5771 12.9823 12.9848 13.6338 12.6012 14.4078C12.5601 14.4908 12.5217 14.5731 12.4876 14.6533C12.2437 15.2266 12.1185 15.8434 12.1194 16.4664V16.9741H12.9562V16.4664C12.9547 15.9543 13.0574 15.4473 13.2582 14.9762C13.2853 14.912 13.316 14.8451 13.3509 14.776C13.6652 14.1415 14.1505 13.6073 14.7522 13.2339C15.3539 12.8604 16.0479 12.6625 16.7561 12.6625C17.4642 12.6625 18.1583 12.8604 18.76 13.2339C19.3617 13.6073 19.847 14.1415 20.1613 14.776C20.1948 14.8458 20.2261 14.9106 20.2533 14.9741C20.4533 15.4444 20.5558 15.9505 20.5546 16.4616V16.9692L21.3914 16.9713Z" fill="white"/>
</g>
</g>
</svg>
