<svg width="28" height="34" viewBox="0 0 28 34" fill="none" xmlns="http://www.w3.org/2000/svg">
<g id="Group 1744">
<g id="Layer_x0020_1">
<g id="_412136648">
<g id="Group">
<g id="Group_2">
<path id="Vector" fill-rule="evenodd" clip-rule="evenodd" d="M15.7685 22.7364H14.0037C12.6837 22.7364 11.6124 22.3299 10.8232 21.5264C9.88104 20.5651 9.40277 19.0729 9.44103 17.2172C9.4506 16.959 9.65625 16.7629 9.91452 16.7677C10.1728 16.7724 10.3737 16.9877 10.3641 17.2411C10.3402 18.3555 10.5171 19.886 11.4784 20.876C12.0858 21.4929 12.9276 21.8086 13.9989 21.8086H15.7637C16.8255 21.8086 17.6768 21.4929 18.2794 20.876C19.2503 19.886 19.4225 18.3555 19.4033 17.2411C19.3938 16.9781 19.5994 16.7677 19.8625 16.7677H19.8673C20.1207 16.7677 20.3264 16.9685 20.3312 17.2268C20.3694 19.0825 19.8864 20.5699 18.9442 21.536C18.1598 22.3299 17.0933 22.7364 15.7685 22.7364Z" fill="white"/>
</g>
<g id="Group_3">
<path id="Vector_2" fill-rule="evenodd" clip-rule="evenodd" d="M19.872 17.6919C19.7955 17.6919 19.7189 17.6728 19.6472 17.6297C19.5037 17.5532 19.4081 17.3906 19.4081 17.228C19.4081 16.501 19.2741 15.3866 18.9824 14.851C18.155 15.0758 17.4233 15.1619 16.7872 15.1619C15.0511 15.1619 13.9654 14.5114 13.2862 14.1001C13.1284 14.0045 12.9275 13.8849 12.8558 13.8658C11.7271 13.8753 10.9427 14.631 10.938 14.6453C10.5458 15.0375 10.3736 16.391 10.3736 17.228C10.3736 17.4002 10.2779 17.5532 10.1345 17.6297C9.98621 17.711 9.79968 17.7062 9.66098 17.6202C8.45097 16.8501 7.76226 15.5684 7.70966 14.014C7.6427 11.9288 8.75228 9.78136 10.6032 8.42308C11.9662 7.41872 13.5206 6.91654 15.0989 6.95958C16.6724 7.00741 18.1933 7.60046 19.4942 8.667C21.1968 10.0683 22.1868 12.1679 22.072 14.1527C21.9859 15.6401 21.2924 16.8693 20.1302 17.6106C20.0442 17.6632 19.9581 17.6919 19.872 17.6919ZM14.898 7.88264C13.6115 7.88264 12.3154 8.31786 11.1484 9.17396C9.53663 10.3553 8.57054 12.2014 8.63271 13.9853C8.65662 14.894 8.96271 15.6784 9.49359 16.2762C9.5749 15.5158 9.78055 14.4923 10.2779 13.9853C10.3258 13.9423 11.354 12.9427 12.8702 12.9427C13.1476 12.9427 13.4058 13.0957 13.7645 13.311C14.6589 13.8466 16.1606 14.7458 19.0302 13.8753C19.1976 13.8227 19.3698 13.8658 19.4942 13.9853C20.0011 14.4923 20.2068 15.5062 20.2833 16.2714C20.7903 15.6975 21.0868 14.9562 21.1346 14.1001C21.235 12.407 20.3789 10.5992 18.8963 9.3844C17.6815 8.3896 16.2945 7.88264 14.898 7.88264Z" fill="white"/>
</g>
<g id="Group_4">
<path id="Vector_3" fill-rule="evenodd" clip-rule="evenodd" d="M9.80923 13.6404C9.69444 13.6404 9.57488 13.6021 9.48879 13.516C9.30227 13.3343 9.29748 13.0425 9.47444 12.856C10.2971 11.9951 11.5932 11.4355 12.7745 11.4355C13.0327 11.4355 13.2384 11.6412 13.2384 11.8995C13.2384 12.1577 13.0327 12.3634 12.7745 12.3634C11.8466 12.3634 10.7897 12.8225 10.144 13.4969C10.0531 13.5877 9.93358 13.6404 9.80923 13.6404Z" fill="white"/>
</g>
<g id="Group_5">
<path id="Vector_4" fill-rule="evenodd" clip-rule="evenodd" d="M20.0155 13.3301C19.805 13.3301 19.6137 13.1914 19.5611 12.9762C19.3172 12.0292 18.7576 11.1397 17.9828 10.4749C16.1702 8.92049 13.9654 8.85354 12.0762 10.3027C11.8706 10.4605 11.5788 10.4223 11.4258 10.2166C11.268 10.0109 11.3062 9.7192 11.5119 9.56615C13.7406 7.85874 16.4476 7.93526 18.5854 9.77181C19.5037 10.5609 20.1637 11.6179 20.4602 12.7466C20.5224 12.9905 20.3694 13.2488 20.1255 13.311C20.092 13.3206 20.0537 13.3301 20.0155 13.3301Z" fill="white"/>
</g>
<g id="Group_6">
<path id="Vector_5" fill-rule="evenodd" clip-rule="evenodd" d="M24.6403 34.0003H5.13183C4.87356 34.0003 4.66791 33.7946 4.66791 33.5364V29.2033C4.66791 26.5537 6.82011 24.4062 9.46014 24.4062H20.3072C22.9473 24.4062 25.0995 26.5537 25.0995 29.2033V33.5364C25.1043 33.7946 24.8938 34.0003 24.6403 34.0003ZM5.59575 33.0677H24.1764V29.2033C24.1764 27.0654 22.4451 25.3341 20.312 25.3341H9.46014C7.33185 25.3341 5.59575 27.075 5.59575 29.2033V33.0677Z" fill="white"/>
</g>
<g id="Group_7">
<g id="Group_8">
<path id="Vector_6" fill-rule="evenodd" clip-rule="evenodd" d="M18.0737 28.9934C17.9924 28.9934 17.9159 28.9743 17.8442 28.9312L14.6541 27.0995C14.5106 27.0229 14.4246 26.8603 14.4246 26.6977C14.4246 26.5303 14.5106 26.3773 14.6541 26.2912L17.8442 24.4594C17.9876 24.3781 18.1598 24.3781 18.3081 24.4594C18.4516 24.5455 18.5377 24.6986 18.5377 24.8612V28.5295C18.5377 28.6921 18.4516 28.8451 18.3081 28.9312C18.2316 28.9743 18.155 28.9934 18.0737 28.9934ZM15.8163 26.7025L17.6098 27.7308V25.6742L15.8163 26.7025Z" fill="white"/>
</g>
<g id="Group_9">
<path id="Vector_7" fill-rule="evenodd" clip-rule="evenodd" d="M11.6984 28.9931C11.6219 28.9931 11.5406 28.9739 11.4688 28.9309C11.3206 28.8448 11.2345 28.6918 11.2345 28.5291V24.8608C11.2345 24.6982 11.3206 24.5452 11.4688 24.4591C11.6123 24.373 11.7845 24.373 11.9328 24.4591L15.118 26.2909C15.2663 26.3722 15.3524 26.53 15.3524 26.6974C15.3524 26.86 15.2663 27.013 15.118 27.0991L11.9328 28.9309C11.861 28.9739 11.7797 28.9931 11.6984 28.9931ZM12.1623 25.6739V27.7304L13.9558 26.7022L12.1623 25.6739Z" fill="white"/>
</g>
</g>
<g id="Group_10">
<path id="Vector_8" fill-rule="evenodd" clip-rule="evenodd" d="M13.0328 34.0007C13.0089 34.0007 12.9897 34.0007 12.961 33.9911C12.7076 33.9528 12.5354 33.7137 12.5784 33.4602L13.5732 27.1184C13.6115 26.8697 13.8506 26.6975 14.1041 26.7358C14.3576 26.7741 14.5298 27.0132 14.4867 27.2667L13.4919 33.6085C13.4537 33.8381 13.2528 34.0007 13.0328 34.0007Z" fill="white"/>
</g>
<g id="Group_11">
<path id="Vector_9" fill-rule="evenodd" clip-rule="evenodd" d="M16.7441 34.0007C16.5193 34.0007 16.3232 33.8333 16.2897 33.6085L15.2853 27.2667C15.2471 27.0132 15.4193 26.7741 15.6727 26.7358C15.9214 26.6975 16.1606 26.8697 16.2036 27.1184L17.2032 33.4602C17.2462 33.7137 17.0693 33.9528 16.8206 33.9911C16.7919 34.0007 16.768 34.0007 16.7441 34.0007Z" fill="white"/>
</g>
<g id="Group_12">
<g id="Group_13">
<path id="Vector_10" fill-rule="evenodd" clip-rule="evenodd" d="M21.7707 33.9985C21.5124 33.9985 21.3068 33.7928 21.3068 33.5345V30.0049C21.3068 29.7467 21.5124 29.541 21.7707 29.541C22.0337 29.541 22.2394 29.7467 22.2394 30.0049V33.5345C22.2394 33.7928 22.0337 33.9985 21.7707 33.9985Z" fill="white"/>
</g>
<g id="Group_14">
<path id="Vector_11" fill-rule="evenodd" clip-rule="evenodd" d="M7.99653 33.9985C7.73349 33.9985 7.52783 33.7928 7.52783 33.5345V30.0049C7.52783 29.7467 7.73349 29.541 7.99653 29.541C8.2548 29.541 8.46045 29.7467 8.46045 30.0049V33.5345C8.46045 33.7928 8.2548 33.9985 7.99653 33.9985Z" fill="white"/>
</g>
</g>
<g id="Group_15">
<path id="Vector_12" fill-rule="evenodd" clip-rule="evenodd" d="M18.0737 25.3332H11.6936C11.5453 25.3332 11.4066 25.2662 11.3205 25.1466C11.2345 25.0271 11.2105 24.874 11.2488 24.7353L12.0762 21.9183C12.1527 21.6744 12.411 21.5357 12.6549 21.6075C12.9036 21.6792 13.0423 21.9375 12.9658 22.1862L12.3153 24.4053H17.4519L16.8015 22.1766C16.725 21.9327 16.8637 21.6744 17.1124 21.6027C17.3563 21.5261 17.6145 21.6696 17.6911 21.9135L18.5185 24.7305C18.5567 24.8692 18.5328 25.0223 18.4467 25.1418C18.3606 25.2614 18.2219 25.3332 18.0737 25.3332Z" fill="white"/>
</g>
<g id="Group_16">
<g id="Group_17">
<path id="Vector_13" fill-rule="evenodd" clip-rule="evenodd" d="M16.5002 5.9066C16.4189 5.9066 16.3472 5.88268 16.2754 5.84442L14.8789 5.0792L13.4871 5.84442C13.3245 5.93051 13.1332 5.91616 12.9897 5.81094C12.8415 5.70573 12.7697 5.52398 12.8032 5.34702L13.0997 3.78787L11.9519 2.70221C11.818 2.57786 11.7749 2.39133 11.8275 2.21916C11.8801 2.04698 12.0332 1.92742 12.2101 1.89872L13.7932 1.70263L14.4628 0.26783C14.5441 0.100436 14.7019 0 14.8789 0C15.0606 0 15.228 0.110001 15.2997 0.26783L15.9741 1.70263L17.5572 1.89872C17.7341 1.92263 17.8824 2.04698 17.9398 2.21916C17.9924 2.39133 17.9493 2.57786 17.8154 2.70221L16.658 3.78787L16.9593 5.34702C16.9928 5.52398 16.9211 5.70573 16.7728 5.81094C16.6915 5.87312 16.6006 5.9066 16.5002 5.9066ZM14.8884 4.0844C14.965 4.0844 15.0415 4.10353 15.1132 4.14657L15.8641 4.55788L15.7015 3.72092C15.6728 3.56309 15.7254 3.40048 15.845 3.29526L16.4667 2.71177L15.6154 2.60655C15.4576 2.58264 15.3237 2.48699 15.2519 2.33873L14.8884 1.56872L14.5202 2.33873C14.4532 2.48699 14.3145 2.58264 14.1567 2.60655L13.3054 2.71177L13.9319 3.29526C14.0515 3.40048 14.0945 3.56787 14.0706 3.72092L13.9128 4.55788L14.6589 4.14657C14.7354 4.10353 14.8071 4.0844 14.8884 4.0844Z" fill="white"/>
</g>
<g id="Group_18">
<g id="Group_19">
<path id="Vector_14" fill-rule="evenodd" clip-rule="evenodd" d="M3.84524 9.28375C3.7448 9.28375 3.65393 9.25027 3.57262 9.19766C3.42436 9.09244 3.35262 8.91548 3.3861 8.73374L3.68741 7.17459L2.53 6.08414C2.39609 5.95979 2.35304 5.77327 2.40565 5.60109C2.45826 5.42892 2.61131 5.30935 2.78827 5.28066L4.36176 5.07978L5.0409 3.65455C5.11743 3.48715 5.28004 3.38672 5.457 3.38672C5.63874 3.38672 5.80135 3.49672 5.87787 3.65455L6.55223 5.08935L8.13529 5.29022C8.31225 5.30935 8.46051 5.4337 8.5179 5.60588C8.57051 5.77805 8.52747 5.96458 8.39355 6.09371L7.23137 7.17459L7.52789 8.73374C7.56137 8.91548 7.48963 9.09244 7.34615 9.19766C7.19789 9.30288 7.00658 9.31723 6.84397 9.23114L5.45221 8.4707L4.05567 9.23114C3.99828 9.27419 3.91698 9.28375 3.84524 9.28375ZM5.457 7.46634C5.5383 7.46634 5.61004 7.48547 5.68178 7.52373L6.43266 7.93504L6.27483 7.09329C6.24614 6.93546 6.29396 6.77285 6.41353 6.66763L7.04006 6.08414L6.18874 5.97893C6.03092 5.95979 5.897 5.85936 5.82526 5.7111L5.457 4.94109L5.09351 5.7111C5.02656 5.85936 4.88786 5.95979 4.73003 5.97893L3.8835 6.08414L4.51003 6.66763C4.62003 6.77763 4.67264 6.94024 4.64872 7.09329L4.4909 7.93025L5.23699 7.51895C5.30395 7.48547 5.38047 7.46634 5.457 7.46634Z" fill="white"/>
</g>
<g id="Group_20">
<path id="Vector_15" fill-rule="evenodd" clip-rule="evenodd" d="M22.6937 9.28375C22.5981 9.28375 22.5024 9.25027 22.4211 9.19766C22.2776 9.09244 22.2059 8.91548 22.2394 8.73374L22.5359 7.17459L21.3833 6.09371C21.2494 5.96458 21.2015 5.77805 21.2541 5.60588C21.3068 5.4337 21.4598 5.31413 21.6415 5.29022L23.2198 5.08935L23.8894 3.65455C23.9707 3.48715 24.1285 3.38672 24.3103 3.38672C24.4872 3.38672 24.6546 3.49672 24.7264 3.65455L25.4055 5.08935L26.9838 5.29022C27.1655 5.30935 27.309 5.4337 27.3712 5.60588C27.4238 5.77805 27.376 5.96458 27.2421 6.09371L26.0894 7.17459L26.386 8.73374C26.4194 8.91548 26.3477 9.09244 26.1994 9.19766C26.0559 9.30288 25.8646 9.31723 25.702 9.23114L24.3103 8.4707L22.9137 9.23114C22.8563 9.27419 22.775 9.28375 22.6937 9.28375ZM24.3151 7.46634C24.3964 7.46634 24.4681 7.48547 24.5398 7.52373L25.2907 7.93504L25.1329 7.10285C25.0994 6.94024 25.152 6.78241 25.2716 6.6772L25.8981 6.09371L25.0468 5.98371C24.889 5.96458 24.7551 5.86414 24.6833 5.72066L24.3151 4.95065L23.9516 5.72066C23.8846 5.86414 23.7459 5.96458 23.5833 5.98371L22.7368 6.09371L23.3585 6.6772C23.4781 6.78241 23.5259 6.94981 23.4972 7.10285L23.3394 7.93504L24.0903 7.52373C24.1572 7.48547 24.2338 7.46634 24.3151 7.46634Z" fill="white"/>
</g>
</g>
</g>
<g id="Group_21">
<path id="Vector_16" fill-rule="evenodd" clip-rule="evenodd" d="M2.78351 19.4657C1.24828 19.4657 0 18.2174 0 16.6869C0 15.1565 1.24828 13.9082 2.78351 13.9082C4.31397 13.9082 5.55746 15.1565 5.55746 16.6869C5.56224 18.2222 4.31397 19.4657 2.78351 19.4657ZM2.78351 14.836C1.76002 14.836 0.927838 15.6634 0.927838 16.6869C0.927838 17.7104 1.76002 18.533 2.78351 18.533C3.80701 18.533 4.62962 17.7056 4.62962 16.6869C4.63441 15.6634 3.80701 14.836 2.78351 14.836Z" fill="white"/>
</g>
<g id="Group_22">
<path id="Vector_17" fill-rule="evenodd" clip-rule="evenodd" d="M25.7786 24.2292C24.6164 24.2292 23.6647 23.287 23.6647 22.1248C23.6647 20.9626 24.6164 20.0156 25.7786 20.0156C26.9408 20.0156 27.8878 20.9626 27.8878 22.1248C27.8878 23.287 26.9408 24.2292 25.7786 24.2292ZM25.7786 20.953C25.1282 20.953 24.5925 21.4839 24.5925 22.1343C24.5925 22.7848 25.1282 23.3061 25.7786 23.3061C26.4291 23.3061 26.9599 22.7752 26.9599 22.1248C26.9599 21.4743 26.4291 20.953 25.7786 20.953Z" fill="white"/>
</g>
</g>
</g>
</g>
</g>
</svg>
