<svg width="34" height="34" viewBox="0 0 34 34" fill="none" xmlns="http://www.w3.org/2000/svg">
<g id="layer1">
<path id="path840" d="M16.9855 0C16.691 0.0131315 16.4666 0.244782 16.4656 0.529175V2.15302C16.4666 2.44658 16.7064 2.68439 17 2.68323C17.2921 2.68222 17.5282 2.44505 17.5292 2.15302V0.529175C17.5282 0.237139 17.2911 0.00100474 16.9855 0ZM12.639 0.969116C12.5112 0.97522 12.3846 1.02801 12.2872 1.12579C12.0786 1.33349 12.0786 1.67035 12.2872 1.87805L13.4338 3.0246C13.6415 3.23321 13.9783 3.23321 14.186 3.0246C14.3921 2.81735 14.3921 2.48166 14.186 2.27441L13.0416 1.12579C12.9312 1.01497 12.7838 0.96219 12.639 0.969116ZM21.3351 0.972229C21.1942 0.971304 21.0587 1.02691 20.9584 1.12579L19.8129 2.27441C19.6069 2.48166 19.6069 2.81735 19.8129 3.0246C20.0207 3.23321 20.3585 3.23321 20.5662 3.0246L21.7117 1.87805C21.9204 1.67035 21.9204 1.33349 21.7117 1.12579C21.6114 1.02691 21.476 0.971305 21.3351 0.972229ZM31.3521 4.24377C31.0584 4.24265 30.8198 4.47939 30.8187 4.77295V5.33014C29.3564 5.33014 27.1704 4.77295 24.4385 4.77295C23.1952 4.77295 22.0864 5.37541 21.194 6.08344C20.4999 6.63409 19.9356 7.251 19.5307 7.76953C18.7441 7.54767 17.8946 7.43335 17 7.43335C15.5071 7.43335 14.1418 7.76059 12.9731 8.34955C12.0497 7.57502 10.8838 6.89899 9.55627 6.89899C6.8244 6.89899 4.64358 7.45721 3.18127 7.45721V6.89899C3.18024 6.60543 2.94157 6.36868 2.64795 6.36981H0.529175C0.237066 6.37082 0.00100434 6.60695 0 6.89899V15.4031C0.00100434 15.6952 0.237066 15.9313 0.529175 15.9323H2.64795C2.94157 15.9334 3.18024 15.6967 3.18127 15.4031C3.44133 15.4031 4.10994 15.7317 4.92755 16.1409C5.74516 16.5501 6.76044 16.9948 7.9563 16.9948H8.56952C8.86594 19.1917 10.0026 20.77 11.04 22.0168C11.5941 22.6827 12.1251 23.2643 12.4927 23.7859C12.8381 24.2837 13.0322 24.6996 13.0488 25.0974C12.8593 25.3591 12.7469 25.6849 12.7469 26.0292C12.7469 26.7162 13.1937 27.3071 13.8094 27.5285V30.2812C13.8094 30.9686 14.2578 31.5605 14.874 31.7816V32.4073C14.874 33.2812 15.5956 34 16.4698 34H17.5292C18.4033 34 19.126 33.2812 19.126 32.4073V31.7816C19.7422 31.5605 20.1896 30.9686 20.1896 30.2812V27.5285C20.8057 27.3074 21.2521 26.7165 21.2521 26.0292C21.2521 25.6851 21.1372 25.3673 20.9481 25.1057C20.9657 24.6893 21.1782 24.2421 21.5592 23.7153C21.9575 23.1648 22.5218 22.552 23.1042 21.8394C24.269 20.4141 25.501 18.5466 25.501 15.8701C25.501 15.5316 25.4778 15.1989 25.4429 14.8698H26.0427C27.2385 14.8698 28.2507 14.4282 29.0683 14.019C29.8859 13.6098 30.5587 13.2771 30.8187 13.2771C30.8198 13.5707 31.0584 13.8084 31.3521 13.8073H33.4667C33.7603 13.8085 33.999 13.5707 34 13.2771V4.77295C33.999 4.47938 33.7603 4.24262 33.4667 4.24377L31.3521 4.24377ZM24.4385 5.83649C27.0216 5.83649 29.1072 6.39264 30.8187 6.39264V12.2146C30.0234 12.2146 29.3691 12.6776 28.5941 13.0654C27.8191 13.4533 26.9728 13.8073 26.0427 13.8073C24.9873 13.8073 23.3782 13.8073 23.1125 13.8073C22.6616 13.8073 22.3167 13.4462 22.3167 13.0104C22.3167 12.5683 22.6616 12.2146 23.1125 12.2146H24.9802C25.2738 12.2136 25.5105 11.9738 25.5093 11.6802C25.5083 11.3882 25.2723 11.1521 24.9802 11.1511H24.1511C23.3052 9.84512 22.089 8.79111 20.5974 8.14618C20.9356 7.74646 21.3645 7.30701 21.8539 6.9187C22.6358 6.29831 23.5483 5.83649 24.4385 5.83649ZM9.55627 7.96252C10.3945 7.96252 11.2507 8.36943 11.9998 8.93164C10.4917 9.95765 9.38567 11.5108 8.87146 13.274L8.49792 13.2771C8.20429 13.276 7.96561 13.5138 7.9646 13.8073C7.96343 14.1024 8.20275 14.3418 8.49792 14.3407H10.3583C10.8092 14.3407 11.1542 14.6857 11.1542 15.1365C11.1542 15.5872 10.8092 15.9323 10.3583 15.9323H9.0271H7.9563C7.02619 15.9323 6.18086 15.5793 5.40588 15.1915C4.63091 14.8036 3.97664 14.3406 3.18127 14.3406V8.51971C4.89279 8.51971 6.97322 7.96253 9.55627 7.96252ZM16.4656 8.51245V10.6904C16.2806 10.6381 16.1317 10.6181 15.9365 10.6177C14.7686 10.6177 13.8094 11.5762 13.8094 12.7438C13.8094 13.9113 14.7686 14.8698 15.9365 14.8698C16.1321 14.8695 16.2626 14.8511 16.4656 14.8065V15.9323H12.0351C12.151 15.6905 12.2167 15.4209 12.2167 15.1365C12.2167 14.1154 11.3797 13.2771 10.3583 13.2771H9.99103C10.9108 10.6179 13.2315 8.70244 16.4656 8.51245ZM17.5292 8.51245C19.8218 8.64667 21.6493 9.65157 22.8541 11.1687C21.9533 11.2932 21.2521 12.0608 21.2521 13.0104C21.2521 14.0629 22.0911 14.8698 23.1125 14.8698C23.2268 14.8698 23.9128 14.8698 24.3732 14.8698C24.4143 15.1974 24.4422 15.5543 24.4417 15.9261L21.857 15.9323C21.3967 15.9316 21.1531 16.476 21.4606 16.8184C21.6349 17.0121 21.73 17.2656 21.7314 17.5261C21.7314 18.1193 21.2613 18.5886 20.6679 18.5886C20.0756 18.5886 19.6113 18.1203 19.6096 17.5271C19.6108 17.2652 19.7053 17.0122 19.8793 16.8184C20.1869 16.476 19.9443 15.9316 19.484 15.9323H17.5292V13.9329C17.5299 13.4727 16.9845 13.229 16.642 13.5365C16.4472 13.7113 16.1983 13.807 15.9365 13.8073C15.3431 13.8073 14.874 13.337 14.874 12.7438C14.874 12.1506 15.3431 11.6802 15.9365 11.6802C16.1983 11.6808 16.4473 11.7801 16.642 11.9552C16.9845 12.2627 17.5298 12.019 17.5292 11.5588V8.51245ZM9.64343 16.9948H16.4656V18.1248C16.2802 18.0724 16.1321 18.0597 15.9365 18.0594C14.7686 18.0594 13.8094 19.0168 13.8094 20.1844C13.8094 21.352 14.7686 22.3115 15.9365 22.3115C16.1317 22.3111 16.263 22.2936 16.4656 22.2419V24.4365H14.3438C14.2325 24.4365 14.1241 24.4485 14.019 24.4707C13.8906 24.0097 13.6469 23.5822 13.3591 23.1737C12.9324 22.5683 12.3942 21.9795 11.8597 21.3372C10.8839 20.1643 9.92844 18.8363 9.64343 16.9948ZM17.5292 16.9948H18.6031C18.5585 17.1923 18.5452 17.3303 18.545 17.5261C18.545 18.6936 19.5001 19.6511 20.6679 19.6511C21.8358 19.6511 22.795 18.6936 22.795 17.5261C22.7946 17.3304 22.7799 17.1802 22.7275 16.9948H24.3576C24.0872 18.7497 23.2061 20.0323 22.2803 21.1649C21.7238 21.8458 21.1519 22.4614 20.6959 23.0917C20.3825 23.5251 20.1158 23.979 19.98 24.4697C19.8752 24.4477 19.767 24.4365 19.6562 24.4365H17.5292V21.3693C17.5299 20.9091 16.9845 20.6655 16.642 20.973C16.4473 21.1481 16.1983 21.2464 15.9365 21.2469C15.3431 21.2469 14.874 20.7776 14.874 20.1844C14.874 19.5912 15.3431 19.1219 15.9365 19.1219C16.1983 19.1222 16.4472 19.2179 16.642 19.3927C16.9845 19.7002 17.5298 19.4565 17.5292 18.9963V16.9948Z" fill="white"/>
</g>
</svg>
