<svg width="34" height="34" viewBox="0 0 34 34" fill="none" xmlns="http://www.w3.org/2000/svg">
<g id="Group 1747">
<g id="Layer_x0020_1">
<g id="_465879088">
<g id="_465865072">
<path id="_171214184" fill-rule="evenodd" clip-rule="evenodd" d="M33.668 34H0.332087C0.148623 34 0 33.8514 0 33.6679V0.33201C0 0.148624 0.148623 0 0.332087 0C0.515473 0 0.664097 0.148623 0.664097 0.33201V33.3359H33.6679C33.8514 33.3359 34 33.4845 34 33.6679C34 33.8513 33.8515 34 33.668 34Z" fill="white"/>
</g>
<g id="Group">
<g id="Group_2">
<g id="Group_3">
<g id="_465874624">
<path id="_171216416" fill-rule="evenodd" clip-rule="evenodd" d="M21.4274 14.1381C21.3464 14.1381 21.2653 14.1087 21.2013 14.0492L12.3466 5.81147C12.2122 5.68655 12.2047 5.47648 12.3296 5.34222C12.4546 5.20804 12.6646 5.20027 12.7989 5.32527L21.6536 13.5631C21.7879 13.688 21.7955 13.8981 21.6705 14.0324C21.6052 14.1026 21.5164 14.1381 21.4274 14.1381ZM24.1208 14.1381C24.0318 14.1381 23.943 14.1025 23.8776 14.0323C23.7527 13.898 23.7602 13.6879 23.8946 13.563L26.9754 10.6967C27.1097 10.5719 27.3197 10.5793 27.4447 10.7136C27.5696 10.8479 27.562 11.058 27.4278 11.1829L24.3469 14.0492C24.2829 14.1086 24.2017 14.1381 24.1208 14.1381ZM6.79911 8.76676C6.71012 8.76676 6.62129 8.73121 6.55593 8.6609C6.431 8.52672 6.43861 8.31657 6.5728 8.19172L9.65348 5.32535C9.78774 5.20042 9.99788 5.20796 10.1228 5.34222C10.2477 5.47648 10.2401 5.68663 10.1059 5.81155L7.02518 8.67785C6.96123 8.73733 6.88009 8.76676 6.79911 8.76676Z" fill="white"/>
</g>
<g id="_465875944">
<path id="_171213656" fill-rule="evenodd" clip-rule="evenodd" d="M5.45217 11.858C4.87219 11.858 4.32698 11.6322 3.91689 11.2221C3.07035 10.3755 3.07035 8.998 3.91689 8.15155C4.32698 7.74154 4.87219 7.51562 5.45217 7.51562C6.03206 7.51562 6.57728 7.74146 6.98745 8.15155C7.83399 8.99809 7.83399 10.3755 6.98745 11.2221C6.5772 11.6322 6.03206 11.858 5.45217 11.858ZM5.45217 8.17972C5.04961 8.17972 4.67115 8.33643 4.38646 8.62112C3.79887 9.20879 3.79895 10.1649 4.38646 10.7525C4.67107 11.0372 5.04953 11.1939 5.45209 11.1939C5.85464 11.1939 6.23311 11.0372 6.5178 10.7525C7.10547 10.165 7.10547 9.20879 6.5178 8.6212C6.23319 8.33643 5.85472 8.17972 5.45217 8.17972Z" fill="white"/>
</g>
<g id="_465875128">
<path id="_171211328" fill-rule="evenodd" clip-rule="evenodd" d="M11.2262 6.48686C10.6462 6.48686 10.101 6.26102 9.69092 5.85094C9.28083 5.44093 9.05499 4.89563 9.05499 4.31574C9.05499 3.73576 9.28083 3.19054 9.69092 2.78046C10.101 2.37037 10.6462 2.14453 11.2262 2.14453C11.8061 2.14453 12.3512 2.37037 12.7614 2.78046C13.1715 3.19054 13.3973 3.73576 13.3973 4.31574C13.3973 4.89563 13.1715 5.44093 12.7614 5.85102C12.3513 6.26102 11.8061 6.48686 11.2262 6.48686ZM11.2262 2.80855C10.8236 2.80855 10.4452 2.96534 10.1605 3.25003C9.8758 3.53472 9.71901 3.91311 9.71901 4.31566C9.71901 4.71822 9.8758 5.09668 10.1605 5.38137C10.4452 5.66598 10.8236 5.82277 11.2262 5.82277C11.6287 5.82277 12.0071 5.66599 12.2917 5.38137C12.5764 5.09668 12.7332 4.71822 12.7332 4.31566C12.7332 3.91311 12.5764 3.53464 12.2917 3.25003C12.0071 2.96534 11.6287 2.80855 11.2262 2.80855Z" fill="white"/>
</g>
<g id="_465875560">
<path id="_171214088" fill-rule="evenodd" clip-rule="evenodd" d="M22.7742 17.2311C22.1943 17.2311 21.6491 17.0052 21.2389 16.5952C20.3924 15.7486 20.3924 14.3712 21.2389 13.5246C21.6491 13.1145 22.1943 12.8887 22.7742 12.8887C23.3541 12.8887 23.8993 13.1145 24.3095 13.5246C24.7195 13.9348 24.9454 14.48 24.9454 15.0599C24.9454 15.6399 24.7196 16.1851 24.3094 16.5952C23.8994 17.0052 23.3542 17.2311 22.7742 17.2311ZM22.7742 13.5529C22.3716 13.5529 21.9932 13.7096 21.7086 13.9942C21.1209 14.582 21.1209 15.5381 21.7086 16.1257C21.9932 16.4104 22.3716 16.5671 22.7742 16.5671C23.1767 16.5671 23.5552 16.4104 23.8398 16.1257C24.1245 15.841 24.2813 15.4626 24.2813 15.06C24.2813 14.6574 24.1245 14.2789 23.8398 13.9942C23.5552 13.7096 23.1767 13.5529 22.7742 13.5529Z" fill="white"/>
</g>
<g id="_465875056">
<path id="_171212888" fill-rule="evenodd" clip-rule="evenodd" d="M28.548 11.858C27.9681 11.858 27.4229 11.6322 27.0127 11.2221C26.1662 10.3755 26.1662 8.998 27.0126 8.15155C27.4229 7.74154 27.9681 7.51562 28.548 7.51562C29.1279 7.51562 29.6732 7.74146 30.0833 8.15155C30.9297 8.99809 30.9297 10.3755 30.0833 11.2221C29.6733 11.6322 29.128 11.858 28.548 11.858ZM28.548 8.17972C28.1454 8.17972 27.7669 8.33651 27.4822 8.62112C26.8947 9.20879 26.8947 10.1649 27.4823 10.7525C27.7669 11.0372 28.1454 11.1939 28.548 11.1939C28.9506 11.1939 29.329 11.0372 29.6136 10.7525C30.2013 10.1649 30.2014 9.20879 29.6136 8.62112C29.3291 8.33643 28.9506 8.17972 28.548 8.17972Z" fill="white"/>
</g>
</g>
<g id="_465874840">
<path id="_171215072" fill-rule="evenodd" clip-rule="evenodd" d="M4.15169 11.3222H0.332209C0.148745 11.3222 0.00012207 11.1736 0.00012207 10.9902C0.00012207 10.8067 0.148745 10.6582 0.332209 10.6582H4.15177C4.33523 10.6582 4.48378 10.8067 4.48378 10.9902C4.48378 11.1736 4.33515 11.3222 4.15169 11.3222Z" fill="white"/>
</g>
</g>
<g id="Group_4">
<g id="Group_5">
<g id="_465878680">
<path id="_171212240" fill-rule="evenodd" clip-rule="evenodd" d="M21.4274 28.7632C21.3464 28.7632 21.2653 28.7338 21.2013 28.6743L12.3466 20.4364C12.2122 20.3115 12.2047 20.1014 12.3296 19.9672C12.4546 19.8329 12.6646 19.8254 12.7989 19.9502L21.6536 28.1881C21.7879 28.313 21.7955 28.5231 21.6705 28.6573C21.6052 28.7276 21.5164 28.7632 21.4274 28.7632ZM24.1208 28.7631C24.0318 28.7631 23.943 28.7276 23.8776 28.6573C23.7527 28.523 23.7602 28.3128 23.8946 28.188L26.9754 25.3216C27.1096 25.1969 27.3197 25.2043 27.4447 25.3386C27.5696 25.4728 27.562 25.6831 27.4278 25.8078L24.3469 28.6742C24.2829 28.7337 24.2017 28.7631 24.1208 28.7631ZM6.79911 23.3918C6.71012 23.3918 6.62129 23.3563 6.55593 23.2859C6.431 23.1518 6.43861 22.9415 6.5728 22.8166L9.65348 19.9503C9.78774 19.8256 9.99788 19.833 10.1228 19.9673C10.2477 20.1015 10.2401 20.3116 10.1059 20.4365L7.02518 23.3029C6.96123 23.3624 6.88009 23.3918 6.79911 23.3918Z" fill="white"/>
</g>
<g id="_465877624">
<path id="_171214280" fill-rule="evenodd" clip-rule="evenodd" d="M5.45217 26.4829C4.87219 26.4829 4.32698 26.2571 3.91689 25.847C3.07035 25.0004 3.07035 23.623 3.91689 22.7766C4.32698 22.3665 4.87219 22.1406 5.45217 22.1406C6.03206 22.1406 6.57728 22.3665 6.98745 22.7766C7.83399 23.623 7.83399 25.0004 6.98745 25.847C6.5772 26.2571 6.03206 26.4829 5.45217 26.4829ZM5.45217 22.8046C5.04961 22.8046 4.67115 22.9614 4.38646 23.246C3.79887 23.8336 3.79887 24.7898 4.38646 25.3775C4.67115 25.6621 5.04961 25.8188 5.45217 25.8188C5.85472 25.8188 6.23318 25.6621 6.51788 25.3774C7.10546 24.7898 7.10546 23.8336 6.51788 23.2461C6.23311 22.9615 5.85472 22.8046 5.45217 22.8046Z" fill="white"/>
</g>
<g id="_465877816">
<path id="_171214496" fill-rule="evenodd" clip-rule="evenodd" d="M11.2262 21.1119C10.6462 21.1119 10.101 20.886 9.69092 20.4759C9.28083 20.0658 9.05499 19.5206 9.05499 18.9407C9.05499 18.3608 9.28083 17.8156 9.69092 17.4055C10.101 16.9954 10.6462 16.7695 11.2262 16.7695C11.8061 16.7695 12.3512 16.9954 12.7614 17.4055C13.1715 17.8155 13.3973 18.3608 13.3973 18.9407C13.3973 19.5206 13.1715 20.0658 12.7613 20.4759C12.3513 20.886 11.8061 21.1119 11.2262 21.1119ZM11.2262 17.4336C10.8236 17.4336 10.4452 17.5904 10.1605 17.875C9.8758 18.1597 9.71901 18.5381 9.71901 18.9407C9.71901 19.3433 9.8758 19.7217 10.1604 20.0063C10.4451 20.291 10.8236 20.4478 11.2261 20.4478C11.6287 20.4478 12.0071 20.291 12.2917 20.0064C12.5764 19.7217 12.7331 19.3433 12.7331 18.9407C12.7331 18.5382 12.5764 18.1597 12.2917 17.8751C12.0071 17.5904 11.6287 17.4336 11.2262 17.4336Z" fill="white"/>
</g>
<g id="_465877120">
<path id="_171211352" fill-rule="evenodd" clip-rule="evenodd" d="M22.7742 31.854C22.1943 31.854 21.6491 31.6282 21.2389 31.2181C20.3924 30.3716 20.3924 28.9941 21.2389 28.1476C21.6491 27.7375 22.1943 27.5117 22.7742 27.5117C23.3541 27.5117 23.8993 27.7375 24.3095 28.1476C24.7195 28.5577 24.9454 29.1029 24.9454 29.6828C24.9454 30.2628 24.7196 30.808 24.3094 31.2181C23.8994 31.6281 23.3542 31.854 22.7742 31.854ZM22.7742 28.1757C22.3716 28.1757 21.9932 28.3324 21.7086 28.6171C21.1209 29.2047 21.1209 30.1609 21.7086 30.7485C21.9932 31.0332 22.3716 31.1899 22.7742 31.1899C23.1767 31.1899 23.5552 31.0332 23.8398 30.7485C24.1245 30.4639 24.2813 30.0854 24.2813 29.6828C24.2813 29.2803 24.1245 28.9017 23.8398 28.6171C23.5552 28.3324 23.1767 28.1757 22.7742 28.1757Z" fill="white"/>
</g>
<g id="_465877048">
<path id="_171209288" fill-rule="evenodd" clip-rule="evenodd" d="M28.548 26.4829C27.9681 26.4829 27.4229 26.2571 27.0127 25.847C26.1662 25.0004 26.1662 23.623 27.0127 22.7766C27.4228 22.3665 27.9681 22.1406 28.548 22.1406C29.128 22.1406 29.6732 22.3665 30.0833 22.7766C30.9297 23.623 30.9297 25.0004 30.0833 25.8469C29.6733 26.2571 29.128 26.4829 28.548 26.4829ZM28.548 22.8046C28.1454 22.8046 27.7669 22.9614 27.4823 23.2461C26.8946 23.8336 26.8946 24.7898 27.4823 25.3775C27.7669 25.6621 28.1454 25.8188 28.548 25.8188C28.9506 25.8188 29.329 25.6621 29.6136 25.3774C30.2014 24.7898 30.2014 23.8336 29.6137 23.2461C29.3291 22.9615 28.9506 22.8046 28.548 22.8046Z" fill="white"/>
</g>
</g>
<g id="_465876184">
<path id="_171213368" fill-rule="evenodd" clip-rule="evenodd" d="M4.15169 25.9434H0.332209C0.148745 25.9434 0.00012207 25.7948 0.00012207 25.6113C0.00012207 25.4279 0.148745 25.2793 0.332209 25.2793H4.15177C4.33523 25.2793 4.48378 25.4279 4.48378 25.6113C4.48378 25.7948 4.33515 25.9434 4.15169 25.9434Z" fill="white"/>
</g>
</g>
</g>
</g>
</g>
</g>
</svg>
