<svg width="34" height="34" viewBox="0 0 34 34" fill="none" xmlns="http://www.w3.org/2000/svg">
<g id="Group 1745">
<path id="Vector" d="M33.9616 12.805L29.3873 0.915792C29.2504 0.559931 28.983 0.278657 28.6345 0.123747C28.286 -0.0310924 27.8981 -0.040938 27.5422 0.0959805L15.6531 4.67018C15.5128 4.72415 15.3997 4.8316 15.3387 4.96902C15.2777 5.10629 15.2737 5.26234 15.3277 5.40258L16.9555 9.63346C16.9953 9.73694 17.064 9.82378 17.1502 9.88682C16.7319 9.71435 16.2803 9.62687 15.816 9.63402C15.442 9.63948 15.0777 9.70486 14.733 9.82669V6.2338C14.733 5.92086 14.4793 5.66714 14.1664 5.66714H1.42769C0.640464 5.66714 0 6.3076 0 7.09483V32.5723C0 33.3595 0.640464 34 1.42769 34H26.9052C27.6924 34 28.3329 33.3595 28.3329 32.5723V20.3766C28.5305 20.339 28.7263 20.2836 28.9179 20.2099C30.6674 19.5366 31.5432 17.5655 30.8701 15.8159C30.7294 15.4503 30.5312 15.1178 30.2831 14.8274L33.6363 13.5374C33.9283 13.4249 34.074 13.0971 33.9616 12.805ZM1.13331 7.09483C1.13331 6.93249 1.26535 6.80046 1.42769 6.80046H13.5998V10.7671C13.5998 10.9817 13.7211 11.1781 13.9132 11.274C14.1053 11.3699 14.3351 11.3491 14.5068 11.2201C14.8917 10.9308 15.3502 10.7743 15.8325 10.7672C16.4389 10.7598 17.0149 10.9915 17.4534 11.4237C17.8917 11.8557 18.133 12.4275 18.133 13.0338C18.133 14.2836 17.1162 15.3003 15.8664 15.3003C15.3715 15.3003 14.9013 15.1436 14.5068 14.8473C14.3351 14.7184 14.1054 14.6976 13.9132 14.7934C13.7211 14.8893 13.5998 15.0856 13.5998 15.3003V19.2669H10.5735C10.6952 18.9223 10.7607 18.5579 10.7661 18.184C10.7794 17.2714 10.4305 16.4074 9.78355 15.751C9.13692 15.0949 8.27844 14.7336 7.36633 14.7337C5.49176 14.7337 3.9666 16.259 3.9666 18.1336C3.9666 18.5254 4.03212 18.9069 4.1594 19.2669H1.13331V7.09483ZM22.7799 20.1739C23.0691 20.559 23.2256 21.0173 23.2327 21.4997C23.2416 22.1064 23.0084 22.682 22.5762 23.1206C22.1442 23.5589 21.5725 23.8002 20.9662 23.8002C19.7164 23.8001 18.6997 22.7834 18.6997 21.5335C18.6997 21.0386 18.8563 20.5685 19.1527 20.1739C19.2816 20.0022 19.3025 19.7724 19.2066 19.5803C19.1106 19.3882 18.9144 19.2669 18.6997 19.2669H14.7331V16.2408C15.0931 16.3681 15.4746 16.4336 15.8664 16.4336C17.1692 16.4336 18.3027 15.6967 18.8733 14.6181L20.2112 18.0954C20.2651 18.2356 20.3726 18.3487 20.5099 18.4098C20.6473 18.4708 20.8033 18.4747 20.9435 18.4208L24.2968 17.1306C24.3069 17.496 24.3767 17.8595 24.5059 18.2105C24.6507 18.6039 24.8639 18.9597 25.1327 19.2669H23.2329C23.0182 19.2669 22.822 19.3882 22.726 19.5803C22.63 19.7724 22.651 20.0022 22.7799 20.1739ZM19.2672 13.1159C19.2662 13.1156 19.2653 13.1156 19.2643 13.1153C19.2649 13.0881 19.2663 13.0611 19.2663 13.0338C19.2663 12.1216 18.905 11.2632 18.2489 10.6165C17.9831 10.3545 17.6827 10.1422 17.3593 9.98209C17.3825 9.98733 17.406 9.99166 17.4301 9.99392C17.6441 10.0151 17.8508 9.91254 17.9647 9.7305C18.2202 9.32236 18.5918 9.01169 19.0395 8.83185C19.6025 8.60561 20.2235 8.61659 20.788 8.86252C21.3521 9.10831 21.7827 9.55526 22.0004 10.1211C22.4491 11.2876 21.8652 12.6016 20.6988 13.0504C20.2369 13.2282 19.7418 13.2508 19.2672 13.1159ZM13.5998 32.8667H1.42769C1.26535 32.8667 1.13331 32.7347 1.13331 32.5723V20.4002H5.09991C5.31461 20.4002 5.51088 20.2789 5.60686 20.0868C5.70284 19.8947 5.68194 19.6649 5.55303 19.4932C5.2566 19.0987 5.09991 18.6285 5.09991 18.1336C5.09991 16.8838 6.11664 15.867 7.36647 15.867C7.97272 15.867 8.54448 16.1083 8.97642 16.5466C9.40863 16.9851 9.64181 17.5608 9.63296 18.1675C9.62588 18.6499 9.46934 19.1082 9.18013 19.4933C9.05121 19.665 9.03032 19.8948 9.1263 20.0869C9.22227 20.279 9.41848 20.4002 9.63317 20.4002H13.5998V23.4265C13.2552 23.3047 12.8907 23.2393 12.5168 23.2339C11.6061 23.2179 10.7403 23.5695 10.0839 24.2164C9.42783 24.863 9.06651 25.7215 9.06651 26.6336C9.06658 28.5083 10.5918 30.0334 12.4665 30.0334C12.8582 30.0334 13.2397 29.9679 13.5998 29.8406V32.8667ZM27.1995 32.5723C27.1995 32.7347 27.0675 32.8667 26.9052 32.8667H14.7331V28.9001C14.7331 28.6854 14.6117 28.489 14.4197 28.3931C14.2276 28.2974 13.9978 28.3181 13.8261 28.447C13.4315 28.7434 12.9614 28.9001 12.4665 28.9001C11.2167 28.9001 10.1999 27.8834 10.1998 26.6336C10.1998 26.0273 10.4412 25.4555 10.8795 25.0236C11.318 24.5914 11.8921 24.3605 12.5003 24.367C12.9827 24.3741 13.4411 24.5307 13.8261 24.8199C13.9977 24.9488 14.2275 24.9697 14.4197 24.8738C14.6117 24.7779 14.7331 24.5816 14.7331 24.3669V20.4003H17.7592C17.6319 20.7603 17.5664 21.1418 17.5664 21.5336C17.5664 23.4083 19.0915 24.9335 20.9662 24.9336H20.9663C21.8783 24.9336 22.7368 24.5722 23.3834 23.9162C24.0303 23.2598 24.3792 22.3958 24.3659 21.4833C24.3604 21.1093 24.2951 20.7449 24.1733 20.4003H27.1995V32.5723ZM28.9984 14.1074C28.798 14.1845 28.6584 14.3682 28.6378 14.5819C28.6172 14.7956 28.7192 15.0026 28.9012 15.1166C29.3195 15.3784 29.6345 15.7609 29.8123 16.2228C30.261 17.3892 29.6772 18.7034 28.5108 19.1521C27.9449 19.3698 27.3246 19.3499 26.7641 19.0959C26.2033 18.8418 25.7789 18.3884 25.5693 17.819C25.4027 17.3662 25.3842 16.8821 25.5159 16.419C25.5746 16.2124 25.5115 15.9904 25.3529 15.8456C25.2467 15.7485 25.1098 15.6973 24.9707 15.6973C24.9023 15.6973 24.8334 15.7097 24.7673 15.7351L21.0653 17.1594L19.9787 14.3352C20.3604 14.3247 20.7401 14.2487 21.1056 14.1081C22.8553 13.4349 23.7311 11.4638 23.058 9.71428C22.7305 8.86294 22.085 8.19153 21.2404 7.82363C20.3955 7.45558 19.4638 7.44021 18.617 7.78028C18.2699 7.9196 17.9533 8.11149 17.6755 8.34885L16.5887 5.52441L27.949 1.15372C28.0224 1.1256 28.1024 1.12744 28.1743 1.15938C28.2462 1.19133 28.3012 1.24934 28.3295 1.32272L32.7002 12.683L28.9984 14.1074Z" fill="white"/>
</g>
</svg>
